<svg xmlns="http://www.w3.org/2000/svg" xmlns:xlink="http://www.w3.org/1999/xlink" width="4266.667" height="2666.667" xmlns:v="https://vecta.io/nano"><style><![CDATA[.B{fill:#ffb93e}.C{fill:#ffa412}.D{fill:#ffb27d}.E{fill:#233862}.F{fill:#52cb96}.G{fill:#2b478b}.H{fill:#a4c8fc}.I{fill:#b4c9f7}.J{fill:#e2810e}.K{fill:#d2e3fc}.L{fill:#f99746}.M{fill:#ffb07b}]]></style><path d="M2569.09 2087.39c-.016-.267 1.454-30.36-13.087-37.28l1.027-.988c6.654 2.32 14.035 9.52 17.006 19.666 2.18 7.547.522 9.2.522 9.48l-5.47 9.12" class="H"/><g class="F"><path d="M2472.7 2009.4s4.975 38.746 28.596 50.093c23.62 11.333 56.972-9.026 56.972-9.026s-4.975-38.733-28.596-50.08c-23.637-11.346-56.972 9.014-56.972 9.014" fill-opacity=".87"/><path d="M2566.618 2143.84c-.286-1.507-5.53-36.947 7.883-76.454 12.89-37.947 5.753-70.133 5.7-70.453h9.488c.254 1.373.906 32.96-9.202 76.24-9.075 38.96 7.9 70.667 4.275 70.667h-18.134"/></g><path d="M2586.524 2039.215c.048-.2 4.584-26.173 16.754-29.134h0c-5.446.708-12.362 4.614-16.227 11.866-2.875 5.4-1.87 6.92-1.917 7.134l1.39 10.134" class="H"/><path d="M2625.612 2041.893c-18.2-3.68-28.364-29.426-28.364-29.426s19.345-19.788 37.562-16.12c18.2 3.68 28.364 29.44 28.364 29.44s-19.345 19.788-37.562 16.106" class="F"/><path d="M2484.176 1957.974c-28.99-44.014-16.806-103.2 27.218-132.2 44.024-28.99 103.198-16.8 132.186 27.213 29.005 44.026 16.823 103.213-27.2 132.2s-103.214 16.813-132.203-27.213" class="B"/><path d="M2519.525 1838.136c-37.663 24.8-48.114 75.614-23.315 113.267s75.603 48.106 113.265 23.307c37.646-24.8 48.114-75.6 23.315-113.254s-75.62-48.12-113.265-23.32zm92.804 140.906c-19.402 12.773-42.62 17.24-65.364 12.546-22.744-4.68-42.3-17.933-55.092-37.332s-17.234-42.613-12.554-65.36 17.95-42.32 37.353-55.094 42.603-17.225 65.364-12.546c22.744 4.68 42.293 17.946 55.076 37.346 12.783 19.387 17.234 42.6 12.554 65.36-4.68 22.746-17.935 42.306-37.337 55.08m-23.935-58.122c-.865-1.694-1.826-3.054-2.946-4.107s-2.498-1.826-4.1-2.333c-1.6-.493-3.475-.76-5.637-.786-2.146-.04-4.676.147-7.558.533-4.996.64-9.624 1.014-13.9 1.12s-8.183-.293-11.722-1.187c-3.523-.892-6.694-2.426-9.496-4.6-2.786-2.175-5.172-5.227-7.142-9.174-1.697-3.412-2.658-6.827-2.866-10.253-.192-3.412.304-6.732 1.505-9.96 1.217-3.214 3.06-6.268 5.54-9.147 2.482-2.868 5.6-5.467 9.288-7.775l-6.453-12.907 10.393-5.2 6.533 13.08c3.97-1.387 7.847-2.093 11.626-2.12 3.763-.027 7.302.612 10.617 1.918 3.315 1.32 6.357 3.294 9.112 5.96 2.77 2.666 5.156 6 7.174 10.028l-18.768 9.4c-2.402-4.826-5.284-7.907-8.63-9.227-3.33-1.307-6.806-1.08-10.4.72-1.938.974-3.475 2.093-4.612 3.332-1.12 1.254-1.922 2.573-2.354 3.975s-.544 2.852-.336 4.36.7 3 1.425 4.48c.753 1.494 1.65 2.733 2.7 3.72s2.322 1.733 3.907 2.226 3.46.748 5.67.773 4.852-.12 7.927-.453c4.98-.533 9.608-.84 13.884-.92 4.26-.067 8.167.346 11.722 1.267 3.523.906 6.694 2.453 9.496 4.626 2.786 2.173 5.156 5.214 7.1 9.107 1.777 3.533 2.738 7.027 2.914 10.454a23.75 23.75 0 0 1-1.553 9.92c-1.233 3.172-3.123 6.186-5.685 9.025-2.546 2.84-5.685 5.414-9.4 7.72l6.02 12-10.345 5.174-5.973-11.948a48.12 48.12 0 0 1-11.594 2.866c-3.955.48-7.8.227-11.53-.746-3.73-.96-7.254-2.786-10.537-5.467-3.3-2.68-6.15-6.426-8.567-11.253l18.768-9.4c1.425 2.854 3.027 5.04 4.772 6.546 1.76 1.507 3.603 2.506 5.525 2.974 1.906.48 3.843.52 5.765.12 1.954-.388 3.8-1.026 5.573-1.92 2.05-1.014 3.7-2.173 4.98-3.467 1.265-1.294 2.194-2.666 2.77-4.107s.8-2.932.7-4.452c-.112-1.534-.544-3.04-1.28-4.52" class="C"/><path d="M2661.98 2134.63l-.016.08-1.894 29.24-7.055 108.547H2520.9l-10.01-137.866h151.08" class="I"/><path d="M2661.957 2134.7l-1.894 29.24c-9.962-3.465-37.6-11.8-73.637-11.8-45.498 0-73.3 13.28-73.3 13.28l-2.14-29.507 150.98-1.213" fill="#9bb8ea"/><path d="M2666.56 2150.082H2506.1l-1.834-18.654h164.34l-2.046 18.654m-11.52 128.198h-136.963l-1.58-6.494h140.288l-1.744 6.494" class="I"/><path d="M3482.127 1579.35l-12.83 10.414s-35.078-12.572-42.995 29.107c0 0-2.103 17.773 9.14 17.812 11.264.028 6.63-1.946 22.55-1.478 15.962.466 29.157-7.934 31.495-20.867l7.616-10.96-14.975-24.027" fill="#ea8e50"/><path d="M3483.597 1601.707c-10.22-10.694-9.413-18.588-9.413-18.588l130.518-104.906c8.177-5.386 95.434-82.734 136.222-129.893 20.228-23.394 45.28-14.32 73.947-6.094l23.627 6.774c28.5 8.186 35.916 48.052 12.526 67.44-65.89 54.572-175.5 115.945-196.003 128.852-50.9 32.015-150.532 70.082-150.532 70.082s-12.1-4.495-20.893-13.667" fill="#1e3d70"/><path d="M3348.39 2197.667s-28.752 21.547-72.814 10.16c0 0-35.524-8.094-43.315 9.627l68.265 35.24c10.387 5.707 21.23 14.706 28.897 21.668 6.066 5.505 15.518 4.772 20.69-1.587 2.39-2.948 5.13-6.467 8.144-10.533 8.393-11.388 27.962-48.16 27.962-48.16l-37.83-16.414" class="E"/><path d="M3676.423 1410.63c0-111.023-90.016-201.028-201.03-201.028-111.037 0-201.053 90.005-201.053 201.028s90.016 201.04 201.053 201.04c111.014 0 201.03-90.01 201.03-201.04" class="J"/><path d="M3693.962 1410.63c0-111.025-89.992-201.03-201.038-201.03-111.023 0-201.038 90.006-201.038 201.03s90.015 201.038 201.038 201.038c111.045 0 201.038-90.013 201.038-201.038" class="B"/><path d="M3320.7 1413.003c0 94.974 77.266 172.24 172.235 172.24s172.235-77.266 172.235-172.24c0-94.965-77.266-172.23-172.235-172.23s-172.235 77.263-172.235 172.23zm42.737 129.52c-34.618-34.587-53.653-80.585-53.653-129.52 0-48.92 19.035-94.913 53.653-129.5 34.573-34.596 80.58-53.646 129.498-53.646 48.94 0 94.924 19.05 129.52 53.646s53.653 80.6 53.653 129.5c0 48.935-19.057 94.934-53.653 129.52-34.596 34.6-80.58 53.653-129.52 53.653-48.917 0-94.924-19.053-129.498-53.653m107.257-66.908c1.557 2.813 3.705 5.174 6.38 7.04 2.697 1.88 5.898 3.214 9.647 4.012 3.727.787 7.98.908 12.74.346a46.63 46.63 0 0 0 12.037-3.078c3.86-1.548 7.213-3.854 10.042-6.906 2.806-3.054 4.9-6.935 6.25-11.614 1.337-4.694 1.6-10.373.8-17.053l43.894-5.214c1.337 11.294.68 21.2-2.017 29.72-2.675 8.52-6.753 15.802-12.2 21.827-5.46 6.04-11.927 10.934-19.448 14.68-7.498 3.76-15.413 6.547-23.723 8.4l3.333 27.933-24.162 2.855-3.333-28.067c-9.2.24-17.716-.67-25.5-2.695-7.783-2.04-14.602-5.133-20.434-9.307s-10.568-9.386-14.25-15.626c-3.662-6.24-5.986-13.493-6.972-21.774-1.074-9.12-.417-17.2 1.973-24.265 2.412-7.053 6.205-13.44 11.357-19.16 5.174-5.72 11.555-10.974 19.163-15.786 7.586-4.815 16.07-9.64 25.455-14.466 5.8-2.988 10.634-5.775 14.493-8.373 3.837-2.6 6.863-5.255 9.055-7.948 2.214-2.692 3.64-5.508 4.32-8.452.68-2.934.8-6.148.395-9.627s-1.316-6.667-2.675-9.56c-1.36-2.88-3.245-5.308-5.635-7.268s-5.306-3.372-8.748-4.254-7.433-1.052-11.993-.506c-8.397.987-14.778 4.587-19.12 10.774-4.363 6.2-5.854 14.933-4.517 26.214l-43.894 5.212c-1.118-9.4-.8-18.05 1-25.946 1.776-7.88 4.824-14.892 9.12-21.04 4.297-6.133 9.8-11.362 16.466-15.683 6.687-4.32 14.295-7.56 22.868-9.724l-3.64-30.612 24.315-2.885 3.596 30.2c9.187-.235 17.65.74 25.368 2.927 7.696 2.186 14.47 5.4 20.325 9.676 5.832 4.27 10.568 9.527 14.186 15.764 3.596 6.253 5.898 13.374 6.84 21.373 1.096 9.215.44 17.347-1.95 24.4-2.412 7.067-6.183 13.427-11.357 19.093-5.196 5.668-11.598 10.895-19.25 15.655-7.652 4.773-16.225 9.494-25.74 14.146-5.525 2.666-10.173 5.266-13.944 7.8-3.727 2.548-6.73 5.2-8.967 7.935-2.258 2.747-3.75 5.692-4.495 8.84-.767 3.146-.92 6.68-.44 10.64.395 3.48 1.38 6.626 2.96 9.44" class="C"/><path d="M3331.513 2186.72s17.508 40.374 57.92 32.947c0 0 82.467-68.106 139.043-138.853 18.365-22.973 34.02-46.24 43.213-67.52 37.517-86.853 138.742-216.385 203.122-282.04l-161.043-58.266s-51.597 103.773-120.238 231.238c-49.466 91.853-107.78 196-162.016 282.492" class="G"/><path d="M3493.53 1904.227l34.946 176.587c18.365-22.973 34.02-46.24 43.213-67.52 37.517-86.853 138.742-216.385 203.122-282.04l-161.043-58.266s-51.597 103.773-120.238 231.238m131.64 316.868s1.763 32.213-37.3 36.518c0 0-22.328.106-22.373 20.615l113.494.36s3.277-8.267 4.1-25.987c.6-13.6-13.175-49.16-13.175-49.16l-44.747 17.655" class="E"/><path d="M3666.58 1672.99s-71.74 78.84-117.3 220.88c-24.802 77.28 45.407 271.572 59.08 339.093 0 0 47.104 3.987 79.31-8.454 0 0 2.452-139.44-16.385-246.905-10.538-60.147 94.468-128.627 140.347-237.307 31.214-73.934-6.766-72.68-53.423-74.452l-91.64 7.146" class="G"/><path d="M3749.404 1321.248c39.922 22.542 121.64 1.753 121.64 1.753s-33.177-37.94-18.097-99.05l-65.024 33.015s-2.16 10.794-3.68 30.175c-.38 4.992-.736 10.568-.974 16.662-20.495 6.2-33.866 17.443-33.866 17.443" class="M"/><path d="M3603.03 1668.92c0 7.013 8.077 10.373 9.804 10.706 16.104 2.948 61.06 20.442 101.565 24.44 34.106 3.574 65.756.187 100.543-6.8 4.598-.934 15.4-3.84 16.177-8.254.973-4.814 134.163-271.546 30.628-386.128-2.433-2.686-22.892 2.155-41.575 6.6-17.272 4.094-33.11 1.812-47.243-3.86l-17.54 9.225c-21.53 11.996-62.252 54.614-67.02 88.054-2.433 17.014-12.14 29.6-14.96 44.56l-3.187 16.214c-2.116 10.334-4.306 20.16-6.568 29.52-6.082 25.293-12.528 47.065-18.83 65.88-6.714 19.96-13.307 36.573-19.194 50.466l-18.124 41.813c-2.846 7.254-4.476 12.947-4.476 17.574" class="K"/><path d="M3607.487 1651.35c188.06-88.6 253.17-258.707 253.17-258.707l-190.45 71.027-6.56 29.52c-6.087 25.293-12.53 47.064-18.83 65.88-6.727 19.96-13.31 36.572-19.21 50.466l-18.12 41.814" class="H"/><path d="M3497.495 1600l-16.26 5.96s-32.522-23.012-52.783 14.415c0 0-7.335 16.345 4.26 19.892 11.615 3.547 7.4.213 23.68 5.642 16.304 5.425 32.37 1.52 38.544-10.135l11.034-8.094-8.475-27.68" class="M"/><path d="M3484.108 1622.974l-8.726-22.773 135.282-108.654c8.5-5.854 93.376-69.293 134.756-118.735a86.64 86.64 0 0 1 84.196-29.172l25.77 5.412c31.125 6.52 41.237 45.92 17.093 66.613-67.988 58.294-182.663 125.894-204.06 139.96-53.07 34.907-170.47 83.828-170.47 83.828s-9.108-4.16-13.84-16.48" class="K"/><path d="M3784.212 1287.147c39.27 2.203 64.796-30.206 64.796-30.206s-17.757-9.833-27.415-17.068l-33.673 17.1s-2.172 10.794-3.707 30.176" fill="#ea8e50"/><path d="M3767.514 1246.837s59.473 42.685 85.485 5.234 51.2-57.162 14.347-85.998c-36.886-28.836-54.276-19.727-65.988-9.34s-48.647 78.036-33.844 90.103" class="M"/><path d="M3795.066 1122.915c2.127-14.395 6.912-24.524 6.912-24.524s3.746 15.46 32 13.33 73.04 2.777 87.975 34.977c.967 2.05 1.79 4.16 2.562 6.318 2.707-7.14 3.335-17.837 3.335-17.837 5.4 13.863 0 31.202 0 31.202h0c.097.503.145 1.013.242 1.518 6.21 5.274 11.456 21.663 11.456 21.663-1.885-4.57-6.477-7.553-10.562-9.392.12 25.056-10.03 49.55-27.867 56.843-26.078 10.663-25.885 2.53-52.108 19.925 0 0-7.033-8.727-2.224-14.593 4.785-5.866 22.912-14.395 12.785-22.927s-13.873 1.068-17.595-4.798 14.936-22.927-9.063-38.92-39.976-38.388-37.85-52.785" class="E"/><path d="M1234.044 2245.428v23.24c0 1.84-.672 3.56-1.827 4.987-1.215 1.507-2.96 2.693-5.004 3.36-.625.2-1.28.36-1.952.453-.612.093-1.237.147-1.88.147H782.694c-5.68 0-10.363-3.787-10.65-8.493l-.012-.453v-23.24c0-.147.007-.307.012-.453.288-4.72 4.97-8.507 10.65-8.507h440.687c.643 0 1.268.053 1.88.147.673.107 1.327.253 1.952.467 2.044.667 3.79 1.84 5.004 3.347 1.155 1.427 1.827 3.147 1.827 5" class="B"/><g class="C"><path d="M1017.643 2277.614H781.55c-5.07 0-9.248-3.787-9.508-8.493l-.012-.453v-23.24c0-.147.007-.307.012-.453.26-4.72 4.44-8.507 9.508-8.507h207.1c3.305 12.12 11.015 28.867 28.992 41.147"/><use xlink:href="#B"/><use xlink:href="#C"/><use xlink:href="#B" x="-37.286"/><use xlink:href="#B" x="-68.45"/><use xlink:href="#C" x="-84.449"/><use xlink:href="#B" x="-151.924"/><use xlink:href="#B" x="-199.226"/><use xlink:href="#C" x="-224.51"/><use xlink:href="#B" x="16.138"/><use xlink:href="#B" x="26.8"/><use xlink:href="#C" x="54.05"/><path d="M1225.26 2236.614v40.853c-.612.093-1.237.147-1.88.147h-3.13v-41.147h3.13c.643 0 1.268.053 1.88.147m6.957 3.814v33.227c-1.215 1.507-2.96 2.693-5.004 3.36v-39.933c2.044.667 3.8 1.84 5.004 3.347"/></g><path d="M1186.926 2204.295v23.227c0 1.853-.672 3.573-1.827 5-1.215 1.507-2.96 2.68-5.004 3.347-.625.213-1.28.36-1.952.467-.612.093-1.237.133-1.88.133H735.577c-5.68 0-10.36-3.773-10.65-8.493a9.82 9.82 0 0 1-.011-.453v-23.227a10.42 10.42 0 0 1 .011-.467c.29-4.707 4.97-8.493 10.65-8.493h440.687a17.56 17.56 0 0 1 .844.027c.117.013.24.013.36.027.13.013.265.027.395.053.095 0 .19.027.283.04.672.093 1.327.253 1.952.453.095.04.18.067.276.093.09.04.183.067.272.107.176.067.36.133.536.213.1.04.207.093.307.147a2.04 2.04 0 0 1 .271.133c.17.08.336.173.5.267a7.93 7.93 0 0 1 .548.347 3.32 3.32 0 0 1 .413.28c.005 0 .017 0 .023.013l.272.2a8.96 8.96 0 0 1 .772.68 3.87 3.87 0 0 1 .212.2c.07.067.136.147.205.213.136.16.272.307.396.467 1.155 1.427 1.827 3.147 1.827 5" class="B"/><g class="C"><path d="M970.526 2236.468h-236.09c-5.075 0-9.248-3.773-9.508-8.493a9.82 9.82 0 0 1-.011-.453v-23.227a10.42 10.42 0 0 1 .011-.467c.26-4.707 4.433-8.493 9.508-8.493h207.093l.29 1.013c3.46 12.013 11.223 28.187 28.71 40.12"/><use xlink:href="#C" x="-30.163" y="-41.146"/><use xlink:href="#C" x="-47.118" y="-41.146"/><use xlink:href="#C" x="-67.449" y="-41.146"/><use xlink:href="#C" x="-98.613" y="-41.146"/><use xlink:href="#B" x="-148.52" y="-41.146"/><use xlink:href="#C" x="-182.086" y="-41.146"/><use xlink:href="#B" x="-246.344" y="-41.146"/><use xlink:href="#B" x="-288.582" y="-41.146"/><use xlink:href="#C" x="-14.026" y="-41.146"/><use xlink:href="#C" x="-3.364" y="-41.146"/><use xlink:href="#C" x="6.931" y="-41.146"/><path d="M1178.144 2195.48v40.853c-.613.093-1.237.133-1.88.133h-3.13v-41.133h3.13a12.45 12.45 0 0 1 1.88.147m6.954 3.815v33.227c-1.213 1.507-2.96 2.68-5.004 3.347v-39.933c2.045.667 3.8 1.853 5.004 3.36"/></g><path d="M1209.696 2164.16v23.24c0 1.84-.672 3.56-1.828 4.987-1.213 1.507-2.96 2.693-5.004 3.36a11.67 11.67 0 0 1-1.951.453c-.612.093-1.237.147-1.88.147H758.346c-1.768 0-3.443-.36-4.916-1.013-3.12-1.373-5.347-4-5.7-7.08l-.035-.4-.012-.453v-23.24l.012-.467c.288-4.707 4.968-8.493 10.65-8.493h440.687c.643 0 1.268.053 1.88.147a11.69 11.69 0 0 1 1.951.467c2.045.653 3.79 1.84 5.004 3.347 1.156 1.427 1.828 3.147 1.828 5" class="B"/><g class="C"><path d="M993.295 2196.348H757.202c-1.58 0-3.07-.36-4.385-1.013-2.788-1.373-4.773-4-5.087-7.08l-.035-.4-.012-.453v-23.24l.012-.467c.26-4.707 4.44-8.493 9.507-8.493h207.1c3.217 11.787 10.596 27.96 27.54 40.133a61.26 61.26 0 0 0 1.451 1.013"/><use xlink:href="#D"/><use xlink:href="#D" x="-16.955"/><use xlink:href="#D" x="-37.285"/><use xlink:href="#D" x="-68.449"/><path d="M1054.67 2196.348h-5.01V2155.2h5.01v41.147"/><use xlink:href="#D" x="-151.924"/><path d="M956.847 2196.348h-5V2155.2h5v41.147m-42.24.001H909.6V2155.2h5.008v41.147m257.592.001h-5V2155.2h5v41.147"/><use xlink:href="#D" x="26.8"/><use xlink:href="#D" x="37.094"/><path d="M1200.914 2155.348v40.853a12.47 12.47 0 0 1-1.881.147h-3.13V2155.2h3.13a12.47 12.47 0 0 1 1.881.147m6.956 3.813v33.227c-1.215 1.507-2.96 2.693-5.004 3.36v-39.933c2.045.653 3.8 1.84 5.004 3.347"/></g><path d="M1220.252 2123.015v23.24c0 1.853-.672 3.573-1.828 5-1.213 1.507-2.957 2.68-5.004 3.347a11.69 11.69 0 0 1-1.951.467c-.612.093-1.237.133-1.88.133H768.902c-5.68 0-10.36-3.773-10.65-8.493l-.012-.453v-23.24c0-.147.007-.307.012-.453.265-4.36 4.29-7.92 9.39-8.427.413-.053.83-.067 1.26-.067h440.687c.643 0 1.268.053 1.88.147a11.67 11.67 0 0 1 1.951.453c2.047.667 3.79 1.853 5.004 3.36 1.156 1.427 1.828 3.147 1.828 4.987" class="B"/><g class="C"><path d="M1003.85 2155.2H767.758c-5.068 0-9.248-3.773-9.507-8.493l-.012-.453v-23.24c0-.147.007-.307.012-.453.236-4.36 3.83-7.92 8.38-8.427.365-.053.743-.067 1.125-.067h207.1c.005.013.01.04.017.067 3.317 12.093 11.028 28.813 28.975 41.067"/><use xlink:href="#B" x="-13.792" y="-122.414"/><use xlink:href="#B" x="-30.747" y="-122.414"/><use xlink:href="#C" x="-34.123" y="-122.414"/><use xlink:href="#B" x="-82.24" y="-122.414"/><use xlink:href="#B" x="-115.196" y="-122.414"/><use xlink:href="#C" x="-148.762" y="-122.414"/><use xlink:href="#B" x="-213.018" y="-122.414"/><use xlink:href="#C" x="-238.302" y="-122.414"/><use xlink:href="#C" x="19.3" y="-122.414"/><use xlink:href="#C" x="29.962" y="-122.414"/><use xlink:href="#B" x="23.302" y="-122.414"/><path d="M1211.47 2114.215v40.853c-.612.093-1.237.133-1.88.133h-3.13v-41.133h3.13a10.92 10.92 0 0 1 1.88.147m6.955 3.8v33.24c-1.215 1.507-2.96 2.68-5.005 3.347v-39.933c2.047.667 3.8 1.853 5.005 3.347"/></g><path d="M1187.852 2081.948v23.227c0 1.853-.672 3.573-1.827 5-1.215 1.507-2.96 2.693-5.004 3.36a11.7 11.7 0 0 1-1.951.453l-.62.08-.695.053-.565.013H736.502c-5.68 0-10.363-3.787-10.65-8.493l-.012-.467v-23.227c0-.16.007-.307.012-.467.007-.12.017-.253.03-.373.424-3.787 3.7-6.92 7.993-7.84.105-.027.217-.04.323-.067a13.07 13.07 0 0 1 2.305-.213H1177.2c.324 0 .64.013.953.04l.425.04h.005a6.32 6.32 0 0 1 .496.067 11.7 11.7 0 0 1 1.951.453c2.045.667 3.79 1.853 5.004 3.36 1.155 1.427 1.827 3.147 1.827 5" class="B"/><g class="C"><path d="M971.45 2114.135H735.36c-5.07 0-9.25-3.787-9.508-8.493l-.012-.467v-23.227c0-.16.007-.307.012-.467.007-.12.017-.253.03-.373.384-3.88 3.43-7.053 7.385-7.893.136-.04.27-.067.407-.08.548-.093 1.108-.147 1.687-.147h207.1c.023.107.052.2.083.293 3.34 12.067 11.05 28.613 28.816 40.787.03.013.064.04.093.067"/><use xlink:href="#E"/><use xlink:href="#F"/><use xlink:href="#E" x="-37.285"/><use xlink:href="#E" x="-68.448"/><use xlink:href="#E" x="-101.403"/><use xlink:href="#E" x="-151.924"/><use xlink:href="#E" x="-199.225"/><use xlink:href="#E" x="-241.464"/><use xlink:href="#E" x="16.138"/><use xlink:href="#E" x="26.8"/><use xlink:href="#F" x="54.049"/><path d="M1179.07 2073.135v40.853c-.613.093-1.24.147-1.88.147h-3.13v-41.147h3.13c.64 0 1.267.053 1.88.147m6.955 3.813v33.227c-1.215 1.507-2.96 2.693-5.004 3.347v-39.933c2.045.667 3.8 1.853 5.004 3.36"/></g><path d="M1186.926 2041.095v23.24c0 1.84-.672 3.56-1.827 4.987-1.215 1.507-2.96 2.693-5.004 3.36-.49.16-1.003.293-1.52.387h-.012l-.42.067c-.612.093-1.237.147-1.88.147H735.577a11.75 11.75 0 0 1-1.38-.08c-.176-.013-.353-.04-.524-.067-4.792-.733-8.493-4.173-8.747-8.347-.007-.147-.01-.307-.01-.453v-23.24c0-.147.004-.307.01-.453.29-4.72 4.97-8.507 10.65-8.507h440.687c.284 0 .567.013.844.04.117.013.24.013.36.027l.395.04.283.04c.672.107 1.327.253 1.952.467.095.027.18.053.276.093.09.027.183.067.272.093.183.067.36.147.536.227a9.05 9.05 0 0 1 .577.267l.5.267c.188.12.372.227.548.347l.413.28c.005.013.017.013.023.027l.272.2a8.82 8.82 0 0 1 .772.667 1.78 1.78 0 0 1 .212.213c.07.067.136.133.205.213.136.147.272.307.396.453 1.155 1.427 1.827 3.147 1.827 5" class="B"/><g class="C"><path d="M970.526 2073.282h-236.09c-.19 0-.38 0-.56-.013l-.608-.053c-4.54-.52-8.104-4.08-8.34-8.427-.007-.147-.01-.307-.01-.453v-23.24c0-.147.004-.307.01-.453.26-4.72 4.433-8.507 9.508-8.507h207.093l.29 1.027c3.43 11.92 11.1 27.92 28.285 39.827.14.107.283.2.424.293"/><use xlink:href="#C" x="-30.163" y="-204.332"/><use xlink:href="#C" x="-47.118" y="-204.332"/><use xlink:href="#C" x="-67.449" y="-204.332"/><use xlink:href="#C" x="-98.613" y="-204.332"/><use xlink:href="#B" x="-148.52" y="-204.332"/><use xlink:href="#C" x="-182.086" y="-204.332"/><use xlink:href="#B" x="-246.344" y="-204.332"/><use xlink:href="#B" x="-288.582" y="-204.332"/><use xlink:href="#C" x="-14.026" y="-204.332"/><use xlink:href="#C" x="-3.364" y="-204.332"/><use xlink:href="#C" x="6.931" y="-204.332"/><path d="M1178.144 2032.282v40.853a12.45 12.45 0 0 1-1.88.147h-3.13v-41.133h3.13c.643 0 1.267.04 1.88.133m6.954 3.813v33.227c-1.213 1.507-2.96 2.693-5.004 3.36v-39.933c2.045.667 3.8 1.84 5.004 3.347"/></g><path d="M1209.696 2000.975v23.227c0 1.853-.672 3.573-1.828 5-1.213 1.507-2.96 2.693-5.004 3.347a11.69 11.69 0 0 1-1.951.467c-.612.093-1.237.147-1.88.147H758.346a12.14 12.14 0 0 1-4.916-1.027c-3.12-1.36-5.347-4-5.7-7.067l-.035-.4-.012-.467v-23.227l.012-.467c.288-4.707 4.968-8.493 10.65-8.493h440.687c.643 0 1.268.053 1.88.147a11.67 11.67 0 0 1 1.951.453c2.045.667 3.79 1.853 5.004 3.36 1.156 1.427 1.828 3.147 1.828 5" class="B"/><g class="C"><path d="M993.295 2033.162H757.202c-1.58 0-3.07-.373-4.385-1.027-2.788-1.36-4.773-4-5.087-7.067l-.035-.4-.012-.467v-23.227l.012-.467c.26-4.707 4.44-8.493 9.507-8.493h207.1c3.217 11.787 10.596 27.947 27.54 40.12l1.45 1.027"/><use xlink:href="#E" x="21.844" y="-80.973"/><use xlink:href="#E" x="4.889" y="-80.973"/><use xlink:href="#E" x="-15.441" y="-80.973"/><use xlink:href="#E" x="-46.605" y="-80.973"/><use xlink:href="#F" x="-62.605" y="-80.973"/><use xlink:href="#E" x="-130.08" y="-80.973"/><use xlink:href="#F" x="-160.428" y="-80.973"/><path d="M914.608 2033.162H909.6v-41.147h5.008v41.147"/><use xlink:href="#F" x="54.925" y="-80.973"/><use xlink:href="#E" x="48.644" y="-80.973"/><use xlink:href="#E" x="58.938" y="-80.973"/><path d="M1200.914 1992.162v40.853a12.47 12.47 0 0 1-1.881.147h-3.13v-41.147h3.13a12.47 12.47 0 0 1 1.881.147m6.956 3.813v33.227c-1.215 1.507-2.96 2.693-5.004 3.347v-39.933c2.045.667 3.8 1.853 5.004 3.36"/></g><path d="M1245.708 1959.828v23.24c0 1.84-.672 3.56-1.827 4.987-1.215 1.507-2.96 2.693-5.004 3.36a11.7 11.7 0 0 1-1.951.453 12.45 12.45 0 0 1-1.88.147H794.36c-5.683 0-10.363-3.787-10.652-8.493l-.012-.453v-23.24c0-.147.007-.307.012-.467.265-4.347 4.29-7.907 9.39-8.427a13.14 13.14 0 0 1 1.263-.067h440.687a12.45 12.45 0 0 1 1.88.147c.672.107 1.325.253 1.95.467 2.045.653 3.79 1.84 5.004 3.347 1.155 1.427 1.827 3.147 1.827 5" class="B"/><g class="C"><path d="M1029.307 1992.015h-236.09c-5.07 0-9.248-3.787-9.508-8.493l-.012-.453v-23.24c0-.147.007-.307.012-.467.236-4.347 3.832-7.907 8.38-8.427.365-.04.743-.067 1.127-.067h207.1c.005.027.012.053.017.067 3.32 12.107 11.028 28.813 28.975 41.08"/><use xlink:href="#B" x="11.666" y="-285.599"/><use xlink:href="#B" x="-5.288" y="-285.599"/><use xlink:href="#B" x="-25.62" y="-285.599"/><use xlink:href="#B" x="-56.783" y="-285.599"/><use xlink:href="#C" x="-72.782" y="-285.599"/><use xlink:href="#B" x="-140.257" y="-285.599"/><use xlink:href="#B" x="-187.56" y="-285.599"/><use xlink:href="#C" x="-212.843" y="-285.599"/><use xlink:href="#B" x="27.805" y="-285.599"/><use xlink:href="#B" x="38.466" y="-285.599"/><use xlink:href="#C" x="65.716" y="-285.599"/><path d="M1236.928 1951.015v40.853a12.45 12.45 0 0 1-1.88.147h-3.13v-41.147h3.13a12.45 12.45 0 0 1 1.88.147m6.956 3.813v33.227c-1.215 1.507-2.96 2.693-5.004 3.36v-39.933c2.044.653 3.8 1.84 5.004 3.347"/></g><path d="M1187.852 1918.75v23.24c0 1.853-.672 3.56-1.827 5-1.215 1.507-2.96 2.68-5.004 3.347-.625.213-1.28.36-1.95.467l-.62.067a3.08 3.08 0 0 1-.495.04c-.083.013-.165.013-.248.027H736.502c-5.68 0-10.363-3.773-10.65-8.493l-.012-.453v-23.24c0-.147.007-.307.012-.453.288-4.72 4.97-8.493 10.65-8.493H1177.2c.188 0 .376 0 .565.013.448.013.884.067 1.315.12.672.107 1.325.253 1.95.467a9.89 9.89 0 0 1 .925.347c.19.08.37.16.548.253.017 0 .04.013.06.027.183.08.36.173.536.28.036.013.065.04.09.053.164.08.324.187.477.293.377.227.73.493 1.06.773.105.08.205.173.3.267l.053.04c.065.053.123.107.183.173.012.013.023.027.035.027a5.36 5.36 0 0 1 .313.333c.147.16.288.32.424.48 1.155 1.44 1.827 3.147 1.827 5" class="B"/><g class="C"><path d="M971.45 1950.935H735.36c-5.07 0-9.25-3.773-9.508-8.493l-.012-.453v-23.24c0-.147.007-.307.012-.453.26-4.72 4.44-8.493 9.508-8.493h207.1l.27.947c3.436 12 11.18 28.173 28.628 40.12.03.027.064.053.093.067"/><use xlink:href="#B" x="-46.192" y="-326.679"/><use xlink:href="#C" x="-46.191" y="-326.679"/><use xlink:href="#B" x="-83.477" y="-326.679"/><use xlink:href="#B" x="-114.64" y="-326.679"/><use xlink:href="#B" x="-147.595" y="-326.679"/><use xlink:href="#B" x="-198.116" y="-326.679"/><use xlink:href="#B" x="-245.417" y="-326.679"/><use xlink:href="#B" x="-287.656" y="-326.679"/><use xlink:href="#B" x="-30.054" y="-326.679"/><use xlink:href="#B" x="-19.392" y="-326.679"/><use xlink:href="#C" x="7.858" y="-326.679"/><path d="M1179.07 1909.935v40.867a12.47 12.47 0 0 1-1.88.133h-3.13v-41.133h3.13a12.47 12.47 0 0 1 1.88.133m6.955 3.815V1947c-1.215 1.507-2.96 2.68-5.004 3.347v-39.933c2.045.667 3.8 1.853 5.004 3.347"/></g><path d="M1220.252 1878.562v23.24c0 1.84-.672 3.56-1.828 4.987-1.213 1.507-2.957 2.693-5.004 3.36a11.67 11.67 0 0 1-1.951.453c-.612.093-1.237.147-1.88.147H768.902c-1.71 0-3.33-.347-4.763-.947-3.212-1.36-5.51-4.04-5.86-7.187l-.03-.36-.012-.453v-23.24l.012-.467c.265-4.36 4.29-7.907 9.39-8.427.413-.04.83-.067 1.26-.067h440.687c.643 0 1.268.053 1.88.147a11.69 11.69 0 0 1 1.951.467c2.047.653 3.79 1.84 5.004 3.347 1.156 1.427 1.828 3.147 1.828 5" class="B"/><g class="C"><path d="M1003.85 1910.75H767.758c-1.527 0-2.97-.347-4.25-.947-2.87-1.36-4.916-4.04-5.228-7.187l-.03-.36-.012-.453v-23.24l.012-.467c.236-4.347 3.83-7.907 8.38-8.427a10.35 10.35 0 0 1 1.125-.067h207.1c.005.027.01.053.017.067 3.23 11.8 10.64 27.973 27.62 40.133a42.11 42.11 0 0 0 1.355.947"/><use xlink:href="#E" x="32.4" y="-203.385"/><use xlink:href="#E" x="15.445" y="-203.385"/><use xlink:href="#F" x="12.068" y="-203.385"/><use xlink:href="#E" x="-36.048" y="-203.385"/><use xlink:href="#E" x="-69.004" y="-203.385"/><use xlink:href="#F" x="-102.571" y="-203.385"/><use xlink:href="#E" x="-166.826" y="-203.385"/><use xlink:href="#F" x="-192.111" y="-203.385"/><use xlink:href="#F" x="65.491" y="-203.385"/><use xlink:href="#F" x="76.153" y="-203.385"/><use xlink:href="#E" x="69.494" y="-203.385"/><path d="M1211.47 1869.75v40.853c-.612.093-1.237.147-1.88.147h-3.13v-41.147h3.13c.643 0 1.268.053 1.88.147m6.955 3.812v33.227c-1.215 1.507-2.96 2.693-5.005 3.36v-39.933c2.047.653 3.8 1.84 5.005 3.347"/></g><path d="M1234.044 1837.482v23.24c0 1.853-.672 3.56-1.827 5-1.215 1.493-2.96 2.68-5.004 3.347-.625.213-1.28.36-1.952.467l-.62.067-.347.04-.35.013-.565.013H782.694c-5.68 0-10.363-3.773-10.65-8.493-.007-.147-.012-.307-.012-.453v-23.24c0-.147.005-.307.012-.453.288-4.72 4.97-8.493 10.65-8.493h440.687c.643 0 1.268.04 1.88.133.672.107 1.327.253 1.952.467 2.044.667 3.79 1.84 5.004 3.347 1.155 1.44 1.827 3.147 1.827 5" class="B"/><g class="C"><path d="M1017.643 1869.67H781.55c-5.07 0-9.248-3.773-9.508-8.493-.007-.147-.012-.307-.012-.453v-23.24c0-.147.005-.307.012-.453.26-4.72 4.44-8.493 9.508-8.493h207.1c3.3 12.093 10.985 28.8 28.9 41.067.03.027.064.053.093.067"/><use xlink:href="#B" y="-407.944"/><use xlink:href="#C" y="-407.944"/><use xlink:href="#C" x="-20.33" y="-407.944"/><use xlink:href="#B" x="-68.45" y="-407.944"/><use xlink:href="#C" x="-84.449" y="-407.944"/><use xlink:href="#C" x="-134.969" y="-407.944"/><use xlink:href="#B" x="-199.226" y="-407.944"/><path d="M938.958 1828.535v41.133h-5.01v-41.133h5.01"/><use xlink:href="#B" x="16.138" y="-407.944"/><use xlink:href="#B" x="26.8" y="-407.944"/><use xlink:href="#C" x="54.05" y="-407.944"/><path d="M1225.262 1828.67v40.853c-.613.107-1.237.147-1.88.147h-3.13v-41.133h3.13c.643 0 1.267.04 1.88.133m6.955 3.812v33.24c-1.215 1.493-2.96 2.68-5.004 3.347v-39.933c2.045.667 3.8 1.84 5.004 3.347"/></g><path d="M537.036 2068.282c0-115.68 93.77-209.44 209.442-209.44s209.44 93.76 209.44 209.44c0 115.666-93.77 209.44-209.44 209.44s-209.442-93.773-209.442-209.44" class="J"/><path d="M518.765 2068.282c0-115.68 93.77-209.44 209.44-209.44s209.442 93.76 209.442 209.44c0 115.666-93.77 209.44-209.442 209.44s-209.44-93.773-209.44-209.44" class="B"/><path d="M728.206 1891.3c-98.944 0-179.44 80.506-179.44 179.44 0 98.946 80.496 179.44 179.44 179.44s179.44-80.493 179.44-179.44c0-98.933-80.497-179.44-179.44-179.44zm0 370.266c-50.97 0-98.9-19.853-134.932-55.893s-55.892-83.96-55.892-134.933 19.85-98.88 55.892-134.933c36.04-36.04 83.96-55.893 134.932-55.893s98.892 19.853 134.933 55.893c36.043 36.053 55.9 83.96 55.9 134.933s-19.848 98.893-55.9 134.933-83.96 55.893-134.933 55.893m26.27-135.44c.5-4.12.336-7.8-.45-11.08-.8-3.267-2.352-6.347-4.684-9.2-2.336-2.867-5.46-5.613-9.37-8.267s-8.75-5.36-14.517-8.133c-9.9-4.853-18.847-9.76-26.812-14.733s-14.65-10.4-20.045-16.307-9.344-12.533-11.84-19.893c-2.497-7.347-3.176-15.827-2.036-25.427.988-8.333 3.364-15.747 7.133-22.253a52.93 52.93 0 0 1 14.784-16.427c6.1-4.453 13.147-7.813 21.173-10.093 8.024-2.267 16.837-3.293 26.436-3.04l3.73-31.453 25.316 3-3.784 31.893c8.93 2.253 16.873 5.627 23.827 10.133 6.952 4.493 12.67 9.947 17.156 16.347 4.48 6.387 7.652 13.693 9.512 21.92 1.857 8.213 2.207 17.227 1.045 27.027l-45.725-5.427c1.395-11.76-.173-20.867-4.7-27.32-4.532-6.44-11.173-10.187-19.928-11.227-4.747-.56-8.915-.387-12.497.533-3.587.907-6.62 2.387-9.1 4.427s-4.448 4.56-5.873 7.573-2.355 6.333-2.785 9.96-.292 6.973.415 10.027c.704 3.067 2.2 6 4.5 8.813 2.287 2.8 5.436 5.56 9.447 8.267 4 2.72 9.04 5.627 15.092 8.733 9.775 5.027 18.62 10.053 26.53 15.067s14.56 10.493 19.95 16.453c5.4 5.947 9.333 12.613 11.83 19.96s3.18 15.773 2.053 25.28c-1.023 8.627-3.444 16.187-7.264 22.693-3.82 6.493-8.77 11.92-14.847 16.267s-13.175 7.573-21.288 9.693-16.968 3.053-26.565 2.813l-3.47 29.24L701.65 2209l3.452-29.107c-8.652-1.92-16.9-4.84-24.713-8.747s-14.576-9-20.248-15.293c-5.67-6.28-9.907-13.867-12.704-22.747s-3.5-19.187-2.104-30.947l45.727 5.427c-.825 6.947-.54 12.88.86 17.76s3.565 8.92 6.505 12.093c2.94 3.187 6.423 5.587 10.457 7.213a49.51 49.51 0 0 0 12.537 3.2c4.956.587 9.383.467 13.28-.36 3.895-.84 7.243-2.227 10.043-4.187a21.53 21.53 0 0 0 6.647-7.333c1.632-2.933 2.663-6.213 3.093-9.84" class="C"/><path d="M1113.333 1780.696c-21.445 37.333-48.42 51.733-48.42 51.733H952.7s176.994-80.2 160.634-51.733" class="E"/><path d="M1027.148 2069.495c-2.925 3.347-3.297 7.093-1.85 11.093.001.013.01.04.028.053 2.676 7.4 11.52 15.653 21.79 23.907 1.312 1.053 2.48 2.013 3.497 2.907l.785.707.604.547c9.58 8.827 5.973 10.853 23.18 28.773 19.62 20.413 33.13 20.773 36.972 18.92 3.25-1.587-3.355-12.413-10.673-24.587l-1.067-1.773-2.91-4.88c-8.577-14.653-6.375-21.52-4.34-43.32 1.652-17.707 27.555-98.946 27.555-98.946l-37.6-6.48s-11.324 64.693-23.8 74.653c-6.672 5.307-14.14 5.373-20.55 9.307-.453.28-.9.56-1.333.853-3.644 2.413-7.356 4.907-10.288 8.267" class="D"/><path d="M1027.148 2069.495c-2.925 3.347-3.297 7.093-1.85 11.093.001.013.01.04.028.053 3.277 7.387 11.897 15.6 21.825 23.827 1.297 1.08 2.443 2.067 3.46 2.987l.785.707.604.547c9.58 8.827 5.973 10.853 23.18 28.773 19.62 20.413 33.13 20.773 36.972 18.92 3.25-1.587-3.355-12.413-10.673-24.587-3.82-1.4-21.56-8.6-34.975-25.773-11.815-15.067-19.693-34.44-27.737-45.667-.453.28-.9.56-1.333.853-3.644 2.413-7.356 4.907-10.288 8.267" class="E"/><path d="M1330.327 2046.002c2.32 11.613 18.87 9.68 37.35 5.16s14.093.853 40.4-2.067c26.293-2.907 34.267-12.72 35.067-16.627.72-3.467-12.28-4.693-26.213-6.293l-5.28-.64c-15.747-1.973-27.267-12.133-41.56-20.467-13.547-7.907-33.76-40.093-33.76-40.093l-36.075 2.853s18.93 28.76 26.253 41.253c4.307 7.36 4.077 17.08 3.54 24.587-.28 4.08-.545 8.253.277 12.333" class="D"/><path d="M1367.677 2051.162c18.48-4.52 14.093.853 40.4-2.067 26.293-2.907 34.267-12.72 35.067-16.627.72-3.467-12.28-4.693-26.213-6.293l-.133.267s-15.773 11.187-37.667 11.707c-17.853.427-36.76-4.68-49.08-4.48-.28 4.08-.545 8.253.277 12.333 2.32 11.613 18.87 9.68 37.35 5.16m-175.6-235.827l-77.752 209.24s-11.95 1.147-23.4-2.147c-10.535-3.04-22.62-11.013-22.62-11.013s12.225-127.213 35.032-200.253c5.844-18.747 12.395-33.907 19.623-42.44 35.355-41.787 69.1 46.613 69.1 46.613" class="E"/><path d="M1157.79 1671.216c-22.095-7.133-85.108 2.027-148.408 14.413l-13.255-21.867-136.726-10.667s-45.117 100.053-20.416 163.8c3.63 9.373 12.616 13.32 24.913 13.52.015.013 81.6 2.013 108.024 2.013 67.996 0 143.904-46.747 153.722-48.707 16.073-3.213 22.5 28.933 38.575 62.68 16.072 33.76 151.08 149.48 151.08 149.48s20.75.2 29.324-3.013c9.213-3.453 12.587-7.947 12.587-7.947s-149.597-297.64-199.42-313.706" class="G"/><path d="M981.602 1262.27c-10.25-6.107-20.24-6.987-26.29-6.787-4.367.133-8.73-.28-13.06-.867-51.81-6.96-82.993 68.333-84.826 91.146-3.38 42.04-25.623 48.453-56.932 74.786-62.78 52.8-44.37 114.16-10.043 136.946 20.597 13.68 56.9 0 56.9 0 .512.36 99.284-55.213 147.972-82.013 72.99-10.387 15.6-195.76-13.723-213.213" class="E"/><path d="M954.515 1452.656c.215.147-23.955 8.387-40.116 1.24-15.204-6.72-26.72-31.733-26.496-31.747 6.916-.32 14.51-6.373 20.356-46.053l2.947 1.067 49.517 17.813s-3.588 15.893-5.908 31.013c-1.955 12.707-3.004 24.88-.3 26.667" class="D"/><path d="M960.723 1394.977s-3.588 15.893-5.908 31.013c-28.443-5.12-39.605-33.453-43.61-48.827l49.517 17.813" fill="#ed975d"/><path d="M968.098 1410.75s-67.75-9.093-61.437-51.2 1.82-71.626 45.34-67.6c43.524 4.013 49.5 21.347 50.812 35.907s-16.93 84.173-34.716 82.893" class="D"/><g class="E"><path d="M1000.344 1304.777s-43.37 37.373-72.87 40.387-40.668-6.453-40.668-6.453 17.388-14.44 27.852-37.733c3.085-6.867 9.6-11.587 17.1-12.227 21.065-1.827 60.997-2.653 68.586 16.027"/><path d="M973.234 1301.43s14.51 14.027 19.077 24.44c4.41 10.04 5.732 34.053 2.22 43.587 0 0 22.607-43.96 9.808-65.307-13.57-22.653-31.105-2.72-31.105-2.72"/></g><path d="M1011.564 1552.456c-2.048 137.146-.563 108.493-15.564 121.506-3.615 3.133-13.777 5-27.15 5.88-42.052 2.787-115.976-4.133-118.786-11.907-9.7-26.893-2.852-35.253-10.945-76.413-.843-4.387-1.888-9.12-3.113-14.28-6.747-28.28-13.313-37.893 10.624-83.32 21.71-41.147 44.26-74.546 46.29-73.346 57.275 34 61.893 5.427 61.893 5.427s57.757 59.56 56.753 126.453" fill="#fff"/><path d="M1158.353 1906.082l-44.028 118.493s-11.95 1.147-23.39-2.147c-10.535-3.04-22.62-11.013-22.62-11.013s12.225-127.213 35.032-200.253l55.008 94.92" class="G"/><path d="M954.815 1426s58.933 10 65.853 35.373l47.645 174.546s-29.96 5.373-43.8-8.467-48.16-128.413-48.16-128.413l-21.54-73.04" fill="#fff"/><path d="M968.85 1679.843c-42.052 2.787-115.976-4.133-118.786-11.907-9.7-26.893-2.852-35.253-10.945-76.413l20.283-57.12s-3.353 63.6 15.403 80.333c18.737 16.733 76.796 32.293 85.913 46.267 4.397 6.707 7.29 13.44 8.133 18.84" fill="#ebf3ff"/><path d="M920.667 1653.096s41.488-9.24 48.183-5.56 23.055 17.093 25.103 21.76-14.904-3.547-20.417-5.027c-3.57-.96-12.97 2.307-17.623 3.867-19.58 6.52-31.58 3.16-31.58 3.16l-3.667-18.2" class="D"/><path d="M892.883 1420.55s-55.707 3.427-75 30.333c-27.145 37.853-80.997 199.213-50.135 220.733 34.757 24.24 158.184 6.347 158.184 6.347s4.107-19.2-1.608-28.493c-5.715-9.28-98.582-24.28-102.87-28.573-4.285-4.28 53.577-83.586 53.577-96.44s17.84-103.906 17.84-103.906" fill="#fff"/><path d="M970.858 1659.083s8.693 11.213 11.543 12.547c2.85 1.347 4.7 1.013 4.7 1.013l-5.857-10.547-10.376-3.013m-2.008-11.547l25.273 12.267s-1.075 1.76-4.187 1.627c-3.113-.147-10.963-3.013-10.963-3.013l-10.124-10.88" class="D"/><path d="M982.4 1688.816h199.92l60.14-149.56h-199.613l-60.448 149.56" class="L"/><path d="M1184.664 1682.99H920.667v5.827h261.653l2.344-5.827" fill="#ed7d2b"/><path d="M1131.853 1614.03c1.508-5.253-1.532-9.507-6.79-9.507s-10.74 4.253-12.248 9.507c-1.508 5.267 1.532 9.52 6.79 9.52s10.74-4.253 12.248-9.52" fill="#fff"/><g class="F"><path d="M2129.595 1703.136c-.027-.8 4.413-91.48-39.4-112.346l3.093-2.96c20.067 7 42.32 28.667 51.213 59.253 6.613 22.733 1.587 27.72 1.613 28.573l-16.52 27.48"/><path d="M2015.195 1523.523s-5 46.653 19.427 66.493c24.44 19.84 69.066 5.36 69.066 5.36s5-46.64-19.44-66.48c-24.427-19.84-69.053-5.373-69.053-5.373m106.918 349.707c-.82-4.56-16.626-111.346 23.8-230.36 38.825-114.347 17.313-211.292 17.165-212.253h28.567c.727 4.134 2.72 99.294-27.72 229.707-27.37 117.346 23.76 212.906 12.87 212.906h-54.684"/><path d="M2182.143 1557.973c.137-.614 13.78-78.854 50.474-87.76h0c-16.395 2.133-37.242 13.88-48.898 35.747-8.657 16.254-5.616 20.867-5.78 21.507l4.205 30.507m-146.87-207.544s-39.587-55.88-84.533-72.293c0 0 16.813 131.08-7.773 132.706-24.587 1.613-8.2-147.413-8.2-147.413s-117.106-65.013-164.653-63.213c0 0 67.32 130.973 43.093 126.493s-100.6-137.52-100.6-137.52-122.213-30.107-146.333 41.933c-24.107 72.053 5.773 110.533 23.813 116.186 18.027 5.653 135.56 11 131.626 26.08-3.947 15.067-84.693 34.827-128.12 18.507 0 0 41.747 123.36 106.16 121.013 64.427-2.347 86.573-40.84 126.413-41.573s68.186 11.653 47.733 21.16c-20.453 9.52-87.146-1.587-120.773 23.76-33.627 25.36-60.533 40.613-1.76 56.307 58.76 15.68 147.466-2.027 189.56-30.08.12-.08 34.467-2.813 61.507 156.173 10.427 61.293 2.413 152.213 2.413 152.213l21.813-3.333c12.093-178.2-52.227-326.36-52.227-326.36s109.133-80.68 60.84-170.746m356.876 235.2s-131.476-55.24-84.422-155.732c0 0 39.633-62.933 87.4-83.36 0 0-10.522 143.105 16.254 143.412 26.74.32.2-160.307.2-160.307s123.15-77.388 174.803-78.226c0 0-65.294 145.972-39.284 139.694 26-6.294 101-155.028 101-155.028s130.745-39.844 161.127 36.86c30.4 76.7.26 120.195-18.97 127.37-19.215 7.186-146.354 19.905-141.18 36.027 5.157 16.106 93.864 32.785 140.013 12.533 0 0-38.013 136.213-108 137.452-69.98 1.24-96.27-39.2-139.508-37.64s-73.255 16.64-50.52 25.747c22.752 9.122 94.405-6.853 132.348 18.667 37.96 25.508 68.047 40.467 5.244 60.934-62.82 20.466-179.14 25.294-207.815-21.546l-28.675-46.854"/><path d="M2751.042 1304.577s-333.5 151.295-358.884 281.054c0 0 7.983 55.866-19.36 124.08l2.802 24.732s26.75-88.185 45.232-101.96c0 0-89.805-100.04 330.21-327.907"/><path d="M2372.8 1709.705s-44.212 87.12-2.593 182.36l13.303-5.24s-25.62-107.2-3.9-165.028c21.745-57.826-6.82-12.094-6.82-12.094m-481.948-722.485c53.88 57.333 25.853 171.213 25.853 171.213s-115.4 20.92-169.293-36.427c-53.88-57.347-25.853-171.226-25.853-171.226s115.4-20.907 169.293 36.44"/></g><path d="M1890.862 987.218c53.88 57.333 25.853 171.213 25.853 171.213L1721.57 950.778s115.4-20.907 169.293 36.44" class="K"/><path d="M2585.836 1205.633c-28.144 32.577-91.68 23.814-91.68 23.814s-17.945-61.58 10.183-94.155c28.112-32.577 91.665-23.814 91.665-23.814s17.945 61.58-10.167 94.155m-332.36 286.567c-18.864 5.227-40.68-14.106-40.68-14.106s8.746-27.814 27.597-33.04c18.836-5.24 40.667 14.106 40.667 14.106s-8.746 27.814-27.583 33.04m-332.896-611.33c12.92 30.64-14.92 71.64-14.92 71.64s-48.8-8.68-61.72-39.32 14.92-71.64 14.92-71.64 48.8 8.68 61.72 39.32" class="F"/><path d="M1894.76 1175.822c-19.836-157.56 91.815-301.382 249.39-321.217 157.56-19.836 301.365 91.815 321.216 249.374 19.836 157.566-91.815 301.374-249.374 321.214-157.574 19.84-301.38-91.8-321.23-249.37" class="J"/><path d="M1869.885 1178.95c-19.833-157.57 91.8-301.386 249.382-321.22 157.55-19.833 301.366 91.817 321.215 249.382 19.833 157.56-91.8 301.37-249.382 321.21-157.55 19.84-301.366-91.8-321.215-249.372" class="B"/><path d="M2124.83 901.968c-134.793 16.985-230.62 140.43-213.664 275.208 16.97 134.784 140.43 230.63 275.208 213.657 134.793-16.973 230.634-140.425 213.65-275.2-16.97-134.778-140.415-230.62-275.193-213.664zm63.492 504.37c-69.427 8.747-138.1-10.08-193.392-52.986-55.268-42.916-90.53-104.788-99.277-174.214-8.73-69.442 10.084-138.1 53.007-193.392 42.908-55.283 104.78-90.53 174.206-99.277 69.442-8.745 138.125 10.07 193.392 52.992 55.283 42.908 90.53 104.78 99.277 174.206 8.745 69.44-10.084 138.12-52.992 193.397s-104.78 90.527-174.22 99.274m12.572-189.006c-.042-5.68-.9-10.682-2.514-15.016-1.64-4.32-4.292-8.223-7.96-11.724-3.68-3.5-8.404-6.7-14.182-9.654-5.792-2.93-12.85-5.792-21.183-8.584-14.307-4.903-27.337-10.07-39.033-15.474-11.724-5.404-21.753-11.668-30.1-18.78-8.362-7.126-14.9-15.474-19.558-25.06-4.653-9.585-7.03-21.017-7.126-34.296-.083-11.502 1.875-22.017 5.904-31.532a72.77 72.77 0 0 1 17.322-24.92c7.53-7.098 16.558-12.9 27.1-17.363 10.557-4.473 22.378-7.376 35.505-8.682l-.32-43.492 35-.25.32 44.1c12.543 1.542 23.948 4.778 34.2 9.724 10.237 4.93 18.96 11.377 26.17 19.322 7.195 7.946 12.78 17.35 16.7 28.226 3.945 10.876 5.96 23.086 6.07 36.63l-63.23.458c-.097-16.252-3.806-28.393-11.07-36.394-7.28-8.015-16.975-11.974-29.087-11.9-6.556.042-12.196 1-16.933 2.86-4.723 1.86-8.598 4.403-11.64 7.598-3.042 3.2-5.278 6.987-6.7 11.335-1.417 4.348-2.1 9.03-2.07 14.044.028 5 .778 9.543 2.278 13.585 1.472 4.056 4.028 7.793 7.626 11.224s8.362 6.654 14.294 9.654c5.917 3.014 13.28 6.112 22.045 9.293 14.182 5.18 27.087 10.515 38.727 15.974 11.627 5.487 21.628 11.807 30.004 19 8.348 7.195 14.863 15.585 19.53 25.17s7.043 20.947 7.126 34.088c.097 11.918-1.903 22.642-6 32.143a71.9 71.9 0 0 1-17.433 24.712c-7.53 6.968-16.64 12.6-27.337 16.863-10.682 4.276-22.586 7.07-35.7 8.384l.292 40.43-34.796.253-.278-40.233a147.01 147.01 0 0 1-35.171-7.67c-11.32-3.985-21.392-9.77-30.2-17.36-8.793-7.598-15.863-17.197-21.197-28.8s-8.07-25.545-8.182-41.797l63.217-.458c.07 9.626 1.472 17.64 4.2 24.045 2.75 6.418 6.404 11.543 10.96 15.377 4.542 3.82 9.696 6.5 15.474 8.015a67.32 67.32 0 0 0 17.627 2.21c6.848-.056 12.85-.972 18.03-2.764 5.153-1.806 9.474-4.264 12.96-7.418 3.473-3.14 6.07-6.848 7.793-11.127s2.556-8.918 2.528-13.946" class="C"/><path d="M2409.482 1845.47l-.03.226-27.007 415.132h-397.993l-30.17-415.358h455.2" fill="#739af0"/><path d="M2409.46 1845.696l-5.72 88.08c-29.993-10.44-113.304-35.533-221.848-35.533-137.103 0-220.872 40.013-220.872 40.013l-6.445-88.894 454.885-3.666" fill="#618dd8"/><path d="M2423.33 1892.027h-483.476l-5.53-56.214h495.132l-6.126 56.214" fill="#739af0"/><path d="M2388.57 2278.28h-412.646l-4.73-19.573h422.618l-5.243 19.573" fill="#618dd8"/><g class="H"><path d="M1674.73 2096.095c-.373-2.053-7.48-50.093 10.707-103.626 17.467-51.427 7.8-95.04 7.72-95.466h12.853c.333 1.853 1.227 44.667-12.467 103.32-12.32 52.787 10.68 95.773 5.787 95.773h-24.6"/><path d="M1701.73 1954.282c.067-.267 6.2-35.467 22.707-39.467h0c-7.373.96-16.747 6.24-22 16.08-3.893 7.307-2.533 9.373-2.6 9.667l1.893 13.72"/></g><path d="M1671.236 1946.055s-16.147-26.24-35.853-34.907c0 0 3.747 59.333-7.333 59.347s.587-66.413.587-66.413-50.68-32.573-72.08-33.133c0 0 26.427 60.733 15.68 58.027-10.733-2.72-41.173-64.64-41.173-64.64s-53.987-17.067-66.893 14.573c-12.92 31.653-.613 49.787 7.32 52.84 7.933 3.067 60.533 8.867 58.32 15.52-2.2 6.653-39.013 13.187-58.04 4.6 0 0 15.173 56.587 44.147 57.4 28.987.813 40.053-15.827 57.947-15 17.907.827 30.28 7.2 20.813 10.88-9.453 3.68-39.067-3.24-54.893 7.16-15.827 10.413-28.347 16.48-2.427 25.227 25.933 8.747 66.253 3.36 85.96-8.013.067-.027 15.56-.267 23.093 71.893 2.893 27.8-3.333 68.386-3.333 68.386l9.893-.867c10.587-79.64-13.987-148-13.987-148s51.32-33.053 32.253-74.88" fill-opacity=".612" class="F"/><path d="M1733.822 1924.695c-8.48 2.347-18.307-6.347-18.307-6.347s3.933-12.507 12.413-14.867c8.48-2.347 18.293 6.347 18.293 6.347s-3.933 12.52-12.4 14.867" class="H"/><path d="M1831.355 1733.496c-29.6 19.387-29.36 72.146-29.36 72.146s48.253 21.307 77.866 1.92 29.36-72.146 29.36-72.146-48.253-21.307-77.866-1.92" class="F"/><path d="M1831.355 1733.496c-29.6 19.387-29.36 72.146-29.36 72.146l107.226-70.226s-48.253-21.307-77.866-1.92" class="K"/><path d="M1829.582 1683.856c-8.88 12.04-1.027 32.907-1.027 32.907s22.253 1.347 31.133-10.693c8.88-12.027 1.027-32.893 1.027-32.893s-22.253-1.36-31.133 10.68" class="F"/><path d="M1572.476 1782.39c-8.933-70.88 41.293-135.56 112.173-144.493 70.866-8.92 135.56 41.307 144.48 112.173 8.92 70.88-41.293 135.573-112.173 144.493-70.866 8.92-135.56-41.293-144.48-112.173" class="J"/><path d="M1561.276 1783.802c-8.92-70.88 41.293-135.573 112.173-144.493 70.866-8.92 135.56 41.293 144.48 112.173 8.933 70.88-41.293 135.56-112.16 144.493-70.88 8.92-135.573-41.307-144.493-112.173" class="B"/><path d="M1675.956 1659.216c-60.627 7.627-103.733 63.16-96.106 123.786 7.64 60.627 63.16 103.733 123.786 96.106 60.627-7.64 103.746-63.173 96.106-123.8-7.627-60.613-63.16-103.733-123.786-96.093zm28.56 226.866c-31.227 3.933-62.12-4.533-86.986-23.84s-40.72-47.133-44.653-78.36c-3.933-31.24 4.533-62.133 23.84-86.986 19.293-24.867 47.133-40.733 78.36-44.667 31.227-3.92 62.12 4.533 86.986 23.84s40.72 47.133 44.653 78.36c3.933 31.24-4.533 62.133-23.84 87-19.293 24.853-47.133 40.72-78.36 44.653m5.654-85.012c-.027-2.56-.4-4.813-1.133-6.76s-1.933-3.707-3.587-5.28-3.773-3.013-6.373-4.333-5.773-2.613-9.52-3.867c-6.453-2.213-12.307-4.533-17.56-6.96-5.28-2.427-9.787-5.24-13.547-8.453-3.76-3.2-6.693-6.947-8.787-11.267-2.107-4.307-3.173-9.453-3.213-15.427-.04-5.173.853-9.907 2.653-14.187a32.55 32.55 0 0 1 7.787-11.2c3.387-3.2 7.453-5.8 12.2-7.813s10.067-3.32 15.96-3.907l-.133-19.56 15.733-.12.147 19.84c5.64.693 10.773 2.147 15.387 4.373 4.6 2.213 8.52 5.12 11.773 8.68 3.227 3.587 5.733 7.813 7.52 12.707 1.76 4.893 2.68 10.387 2.72 16.48l-28.44.2c-.053-7.307-1.707-12.773-4.987-16.373-3.267-3.6-7.627-5.387-13.08-5.347-2.947.027-5.48.453-7.613 1.293-2.12.84-3.867 1.973-5.24 3.413-1.36 1.44-2.373 3.147-3.013 5.093-.64 1.96-.947 4.067-.933 6.32s.36 4.293 1.027 6.12c.667 1.813 1.813 3.507 3.427 5.04 1.613 1.547 3.76 2.987 6.427 4.347 2.667 1.347 5.973 2.747 9.92 4.173 6.373 2.333 12.187 4.733 17.413 7.187 5.24 2.467 9.733 5.32 13.493 8.547 3.773 3.227 6.693 7 8.8 11.32 2.093 4.307 3.16 9.427 3.2 15.333.04 5.36-.853 10.187-2.693 14.453a32.41 32.41 0 0 1-7.84 11.12c-3.4 3.133-7.493 5.667-12.307 7.587-4.8 1.92-10.16 3.173-16.053 3.773l.133 18.187-15.653.107-.12-18.093a66.21 66.21 0 0 1-15.827-3.453c-5.094-1.786-9.627-4.387-13.587-7.813-3.96-3.413-7.133-7.733-9.533-12.96-2.4-5.213-3.627-11.48-3.68-18.8l28.44-.2c.027 4.333.667 7.933 1.893 10.813 1.24 2.893 2.88 5.2 4.92 6.92a17.73 17.73 0 0 0 6.96 3.6 30.61 30.61 0 0 0 7.933 1c3.08-.027 5.787-.44 8.107-1.253 2.32-.8 4.267-1.92 5.84-3.333a13.43 13.43 0 0 0 3.493-5c.787-1.92 1.16-4.013 1.147-6.267" class="C"/><path d="M1803.995 2083.6l-.013.107-12.147 186.72H1612.81l-13.573-186.826h204.76" class="I"/><path d="M1803.982 2083.708l-2.573 39.613c-13.493-4.693-50.973-15.987-99.786-15.987-61.667 0-99.346 18-99.346 18l-2.907-39.987 204.613-1.64" fill="#9bb8ea"/><path d="M1810.2 2104.548h-217.453l-2.493-25.293h222.706l-2.76 25.293m-15.628 173.732H1608.97l-2.12-8.8h190.093l-2.36 8.8" class="I"/><path d="M2541.638 1522.11s-20.45-3.986-25.118 0c-4.683 3.987-26.867 26.506-22.105 33.907 4.746 7.4 27.507-6.12 32.253-7.4 4.715-1.266 17.953-6.44 17.953-6.44l-2.982-20.067" class="D"/><path d="M2758.873 2244.88l21.908 8.16s95.186-132.014 106.906-248.174c2.092-20.734 1.406-40.826-3.137-59.387l5.3-30.413 12.225-69.612 36.982-204.573-69.798-22.506-13.2-41.947-47.584-12.52s-10.62 20.786-20.123 119c-1.75 12.88-3.354 27.08-4.544 42.494-3.714 47.012-3.985 105.346 4.526 172.025 2.182 17.066 4.94 34.693 8.348 52.8 2.506 13.28 2.885 31.36 1.82 52.133-4.778 94.946-39.632 242.52-39.632 242.52" class="G"/><path d="M2783.81 1725.404l103.3 205.372 2.74-15.707 12.225-69.612 36.982-204.573-69.798-22.506-13.2-41.947-47.584-12.52s-10.62 20.786-20.123 119c-1.75 12.88-3.354 27.08-4.544 42.494" class="E"/><path d="M2829.26 1590.267l2.386-20.52c40.07 10.654 147.133-29.733 147.133-29.733s38.812 34.12 33.72 115.906c-2.5 39.92-7.045 209.546-11.78 259.746l-3.832 36.308c-.02.026-.02.04-.02.053-.188 1.572.376 3.066 1.165 4.44 6.988 11.854 12.756 24.2 17.51 36.84 46.59 124.12-7.176 276.973-7.176 276.973l-13.94-5.626s-30.584-170.106-55.438-245.254c-4.208-12.746-8.266-22.76-11.986-28.746-10.783-17.44-20.815-45.945-29.926-79.84-17.19-64.08-31.053-147.44-40.26-211.787-1.277.066-27.56-108.76-27.56-108.76" class="G"/><g class="D"><path d="M2541.646 1522.105l2.982 20.067 3.647-.174c7.293-.494 25.05-1.48 45.107-3.64 30.18-2.987 66.016-8.294 80.28-17.08 21.7-13.268 57.376-53.907 80.603-94.534.665-1 1.16-2 1.653-2.987 12.1-21.56 20.568-42.96 21.216-60.04.51-10.453-.648-19.4-2.812-27.2-2.812-10.28-7.464-18.406-12.27-24.542-.665-.997-1.33-2-2.335-2.82-7.958-9.453-15.746-13.433-15.746-13.433-3.988-1.66-8.282.332-12.764 5.14v.167c-3.664 3.815-7.634 9.62-11.45 16.916-.17.167-.324.332-.324.5-.835 1.49-1.67 3.15-2.658 4.974-.324.332-.494.83-.665 1.16-1.823 3.815-3.647 7.794-5.47 11.94-20.398 44.454-42.125 111.787-60.205 131.855-7.788 8.612-43.437 25.532-71.8 38.146l-36.978 15.587"/><path d="M2752.713 1341.508c12.572 5.84 27.782 9.813 46.144 10.814 68.88 3.773 84.533-56.612 87.366-96.7-9.934-3.596-18.628-3.256-23.64-2.99-4.887.27-9.97.77-14.183 1.29-8.428-4.402-23.568-25.78-32.315-61.547l-2.975 1.378-49.703 23.366s5.277 16.175 9.2 31.65c3.046 12.112 5.224 23.814 3.4 27.088l-6.268 2.594s0 .018-.018.053c-.496 1.27-11.297 28.807-17 62.994"/></g><path d="M2735.5 1386.71l1.715 4.093c17.442 37.573 49.727 193.212 49.727 193.212-4.59 27.987 210.302-5.493 210.855-30.974 7.578-27.013-26.845-70.412-46.26-92.185a62.77 62.77 0 0 1-6.509-8.773c-4.794-7.76-7.836-16.533-8.813-25.695-3.817-36.12-2.36-69.96-2.673-90.546h0l-10.878-7.873c-5.236-3.81-9.846-7.37-13.238-10.987-3.743-3.935-6.084-7.96-6.36-12.505-.203-3.437-.092-6.96.277-10.486.148-1.663.37-3.328.627-4.99 2.673-17.48 9.975-33.332 9.975-33.332-18.493-7.48-51.35-3.026-51.35-3.026l.055 4.814c.11 12.005 0 42.83-3.854 48.665-4.812 7.265-92.853 39.094-97.5 29.24-4.59-9.702 7.965-55.13 8.426-56.847.018-.035.018-.052.018-.052-29.482 11.575-40.03 21.3-40.03 21.3 17.774 11.522-7.965 50.5 5.79 86.956" class="L"/><path d="M2794.803 1062.048c.106-2.987 2.41-35.167 51.415-36.848 0 0-24.08 2.873-28.27 13.47 0 0 16.423-13.094 29.8-8.884 13.36 4.212 21.2 27.628 21.28 35.33.088 7.704-7.34 32.532-15.824 34.644-3.204.797-6.918.584-10.28.012a115.83 115.83 0 0 1 6.583 11.753c19.573 40.15-.598 79.388-17.162 75.053-10.614-2.78-13.624 15.34-13.624 15.34l-103.183-83.525s37.897-78.413 79.262-56.346" fill="#2c3a64"/><path d="M2763.408 1217.142s5.298 16.157 9.18 31.648c29.063-8.106 37.865-38.645 40.523-55.016l-49.704 23.368" fill="#ed985f"/><path d="M2757.28 1234.25s69.526-16.085 58.825-59.217c-10.666-43.132-8.897-74.257-53.727-65.81s-49.34 27.033-49.287 42.296c.07 15.265 25.84 85.803 44.188 82.73" class="D"/><path d="M2709.184 1127.035c7.478-15.633 16.278-14.798 21.756-12.027 32.677-30.218 64.694-5.53 64.694-5.53 12.347 29.785 39.06 41.96 39.06 41.96s-10.66 10.932-41.633 10.7c-9.443-.073-18.94-4.412-27.6-10.393 16.695 16.8 36.242 27.03 36.242 27.03-38.747-7.412-64.71-52.263-67.39-57.026-3.27 4.845-9.548 15.16-10.07 23.876-.73 11.838 3.356 34.828-3.426 35.7 0 0-22.85-30.83-11.634-54.277" fill="#2c3a64"/><path d="M2729.694 1299.745s-16.727 29.196-19.235 36.71c0 0 21.692-.84 30.476 15.854 0 0 2.087-48.63-11.24-52.565" class="L"/><path d="M2844.79 1531.726c42.386-.453 78.27-44.466 100.22-79.64a61.09 61.09 0 0 1-8.817-25.694c-3.812-36.12-2.35-69.96-2.674-90.546h0l-10.877-7.874c-5.24-3.8-9.847-7.372-13.244-10.987-34.708 58.674-122.082 215.34-64.6 214.74" fill="#ed7d2b"/><path d="M2684.597 1554.776l5.805 21.226 18.892-3.48 5.48-1.16c9.284-1.826 20.388-4.307 32.502-6.958h.18c20.73-4.988 43.93-10.948 63.508-17.59 13.754-4.81 25.706-9.945 33.836-15.092.83-.494 1.478-.986 2.307-1.653 19.415-14.093 42.47-55.56 60.37-100.013l7.14-18.24c8.292-22.225 14.926-44.106 18.9-63.012 2.488-11.28 4.146-21.567 4.49-30.023.144-2.985.324-5.803.144-8.46-.324-48.095-24.2-54.727-24.2-54.727-.487-.168-.99-.332-1.658-.496-4.146-.665-8.454 2.154-12.925 7.627-5.642 6.8-11.61 17.91-17.738 31.343-9.464 21.394-19.415 49.096-28.698 76.63l-15.088 44.106-8.3 23.72c-5.138 13.933-9.77 25.2-13.917 32.333-2.668 4.653-10.293 11.12-20.406 18.414-17.576 12.772-43.282 28.2-65.67 40.8l-25.363 14.093-19.577 10.612" class="D"/><path d="M2881.665 1294.138c31.942-8.802 56.565 16.126 56.565 16.126-.397-48.016-24.3-54.6-24.3-54.6-9.626-3.98-20.766 12.672-32.266 38.464" class="L"/><path d="M2927.258 2281.67h110.383s2.65-16.813-3.115-29.586c-5.52-12.24-14.176-17.802-12.105-32.628-7.013 7.228-18.447 15.308-34.394 13.16-1.958 3.173-12.627 20.133-19.156 24.826-7.218 5.187-39.375 3.346-41.613 24.227m-236.984.001h110.385s4.13-17.6-3.132-29.588c-6.4-10.6-3.958-16.626.8-25.4-5.007 2.04-11.46 3.906-18.6 3.507-5.5-.32-11.305-2.813-16.416-5.773-4.75 5.413-25.088 28.466-31.438 33.026-7.2 5.186-39.387 3.347-41.607 24.228" class="E"/><path d="M2536 1601.272l-29.822 12.24c-8.115 3.307-12.37 12.133-10.293 20.414l-3.2 1.306c-12.14-42.16 2.672-84.68 35.975-98.32 4.668-1.92 9.484-3.187 14.35-3.8 15.34-2.012 31.307 2.106 45.674 11.066 13.64 8.506 25.814 21.374 34.59 37.52l-4.388 1.8c-4.322-7.334-13.542-10.64-21.64-7.32l-29.855 12.24c-2.342-5.694-7.868-9.146-13.69-9.146-1.83 0-3.728.36-5.526 1.094l-4.14 1.692c-7.49 3.08-11.1 11.706-8.033 19.213zm142.02 51.867l-26.226-63.986c-3.414-8.348-12.585-12.68-21.08-10.347-8.693-16.333-20.668-29.6-34.226-38.92-14.3-9.84-30.334-15.267-46.185-15.2-8.363.04-16.71 1.615-24.643 4.88-37.294 15.28-54.02 62.4-40.33 108.68l-2.03.826s-6.4-.44-17.088-.44c-33.764 0-110.563 4.493-164.418 41.906 0 0-3.398 3.6-3.53 9.107-.066 1.828.247 3.866 1.138 6.04 0 0 86.48-56 166.464 1.547 4.915 3.52 9.666 6.786 14.3 9.8l7.175 17.52c11.91 29.026 45.377 43.04 74.424 31.145l88.5-36.278c25.864-10.6 38.35-40.428 27.744-66.28" fill="#c94c43"/><path d="M2480.187 1707.024c-4.643-3.014-9.394-6.28-14.297-9.8-79.993-57.546-166.478-1.546-166.478-1.546-.886-2.174-1.2-4.213-1.13-6.04 12.113-7.973 57.478-34.495 113.7-25.428 65.88 10.627 77.794 19.787 68.216 42.813m170.086 12.397l-15.258 6.253c22.878-12.495-5.476-65.28-22.037-100.134-16.577-34.84-41.65-18.92-41.65-18.92-5.74-11.68-18.045-11.04-18.045-11.04-.66-11.254-9.253-13.52-9.253-13.52l4.14-1.692c1.798-.734 3.695-1.094 5.526-1.094 5.823 0 11.348 3.452 13.7 9.146l29.855-12.24c8.1-3.32 17.32-.015 21.64 7.32l4.388-1.8c-8.775-16.147-20.948-29.014-34.6-37.52-14.367-8.96-30.334-13.08-45.674-11.066 2.392-1.933 4.98-4.64 7.3-8.427 15.85-.066 31.884 5.36 46.185 15.2 13.56 9.32 25.534 22.586 34.226 38.92 8.495-2.334 17.666 2 21.08 10.347l26.226 63.986c10.606 25.852-1.88 55.68-27.744 66.28" fill="#b23b38"/><path d="M2615.942 1575.344c10.61 4.467 25.55 20.068 49.416 10.614 17.088-6.64 35.16-11.28 43.953-13.44 3.48-.666 5.48-1.16 5.48-1.16l-9.46-27.534s-.333.175-1.15.335c-6.146 1.332-37.324 7.96-51.93 4.64-16.405-3.814-43.936 15.932-43.936 15.932s-2.998 6.294 7.628 10.613" class="D"/><path d="M2316.31 1741.892c0-9.96-18.033-40.707-18.033-40.707s-18.033 30.747-18.033 40.707 8.072 18.04 18.033 18.04a18.05 18.05 0 0 0 18.033-18.04" fill="#afcdfb"/><path d="M2752.836 674.28c2.608-7.027 6.538-13.9 12.008-20.448 1.14-1.395 2.572-2.825 4.148-4.256 6.9-6.05 16.935-11.537 24.76-13.204 59.77-12.642 99.417 51.782 62.25 99.2l-1.902 2.3c-6.03 7.172-18.565 14.67-27.693 16.7a75.02 75.02 0 0 1-13.946 1.775c-44.954 1.177-74.386-42.038-59.625-82.065zm53.23-126.856l-27.114 5.904c-3.206.724-5.38 3.73-5.017 6.99l2.373 22.495c.054.362.054.724.036 1.087-.18 2.5-1.81 4.745-4.22 5.56-14.164 5.053-27.15 12.84-38.27 22.966-.453.417-.96.76-1.503 1.014-2.03.996-4.492.833-6.43-.435l-15.65-10.54c-2.083-1.377-4.745-1.413-6.828-.235-.616.38-1.214.85-1.72 1.45l-17.84 21.155c-2.192 2.6-2.03 6.502.398 8.91l17.786 17.75c1.74 1.757 2.318 4.347 1.467 6.683-1.16 3.37-2.2 6.792-3.08 10.306-1.63 6.593-2.626 13.186-3.06 19.724l-.018.018a6.51 6.51 0 0 1-4.564 5.85l-24.38 7.535-1.214.398c-3.15.942-5.07 4.184-4.365 7.444l5.904 27.06c.724 3.278 3.804 5.542 7.172 5.18l25.03-2.662c2.77-.3 5.452 1.232 6.575 3.75 4.945 10.595 11.465 20.412 19.398 29.015 2 2.2 2.246 5.488.58 7.97l-12.46 18.583c-1.902 2.844-1.34 6.575 1.232 8.73l21.227 17.913c2.518 2.12 6.23 1.938 8.53-.362l20.883-20.865c1.757-1.775 4.383-2.373 6.774-1.594a109.13 109.13 0 0 0 8.965 2.626c5.76 1.413 11.5 2.373 17.188 2.898 2.6.217 4.8 1.956 5.524 4.437l9.038 29.305c1.014 3.224 4.293 5.108 7.57 4.4l27.15-5.886a6.53 6.53 0 0 0 5.071-6.049c.018-.3.018-.616-.036-.924l-2.916-27.784c-.308-2.6.96-5.09 3.206-6.34a2.45 2.45 0 0 1 .616-.308c.616-.3 1.214-.525 1.83-.87 7.3-3.35 14.254-7.516 20.702-12.352 2.12-1.648 5.108-1.703 7.353-.163l19.65 13.15c2.77 1.884 6.538 1.34 8.694-1.232l3.985-4.71 13.8-16.428c2.192-2.572 2-6.375-.362-8.784l-17.514-17.478c-1.884-1.866-2.336-4.673-1.25-7.082 2.88-6.303 5.234-13.004 6.973-20.014a112.33 112.33 0 0 0 2.717-15.649l5.108-1.576 20.974-6.502c2.608-.78 4.383-3.133 4.474-5.76.036-.56-.036-1.105-.163-1.666l-5.868-27.24c-.724-3.224-3.767-5.36-7.01-5.053l-17.116 1.847c-2.88.308-5.687-1.413-6.683-4.13-4.184-11.32-10.088-21.86-17.514-31.225-1.775-2.228-1.902-5.27-.308-7.516l15.74-23.49c1.74-2.644 1.268-6.158-1.16-8.223l-21.5-18.058c-2.536-2.155-6.285-1.992-8.567.344l-21.734 21.716c-1.847 1.884-4.673 2.41-7.1 1.377-5.252-2.228-10.74-4.02-16.482-5.434-3.08-.76-6.158-1.395-9.237-1.902-2.41-.398-4.4-2.1-5.144-4.437l-8.658-28.074c-1.014-3.26-4.31-5.198-7.643-4.5" fill="#dfedfb"/><path d="M3104.4 823.34c5.308-10.26 12.685-20.048 22.298-29.03 2.006-1.93 4.493-3.84 7.19-5.722 11.703-7.962 28.15-14.422 40.417-15.477 94.02-7.914 142.4 98.382 76.362 163.895l-3.344 3.17c-10.616 9.814-31.243 18.904-45.62 20.273-7.544.704-14.796.673-21.692.03-69.1-6.798-105.91-78.667-75.61-137.14zm105.828-184.14l-41.65 3.76-.982.096c-5.078.49-8.965 4.67-9.05 9.728l-.67 34.92c0 .58-.063 1.14-.146 1.684-.773 3.79-3.678 6.917-7.544 7.713-22.654 5.018-44.053 14.45-63.008 27.85-.794.543-1.65.96-2.508 1.266-3.302 1.118-7.064.414-9.78-1.904l-21.943-19.164c-2.926-2.5-7-3.062-10.407-1.663-1.024.456-2.048 1.066-2.947 1.885l-31.368 28.994c-3.866 3.553-4.368 9.563-1.087 13.74l23.803 30.595a9.81 9.81 0 0 1 1.003 10.516c-2.424 4.95-4.68 9.973-6.687 15.193a172.03 172.03 0 0 0-8.485 29.627v.046c-.815 4.148-3.992 7.327-8.15 8.062l-38.787 6.886-1.944.366c-4.974.838-8.547 5.454-8.088 10.57l3.824 42.582c.502 5.18 4.786 9.214 10 9.3l38.85.736c4.326.07 8.108 2.91 9.362 6.992 5.517 17.193 13.646 33.47 24.158 48.178 2.633 3.772 2.403 8.823-.648 12.32l-22.654 26.083a10.18 10.18 0 0 0 .209 13.613l29.11 31.508c3.448 3.716 9.153 4.163 13.103 1.068l36.007-27.95c3.03-2.384 7.19-2.807 10.68-1.143a170.14 170.14 0 0 0 13.249 5.726c8.526 3.29 17.157 5.86 25.767 7.74 3.908.82 6.98 3.908 7.628 7.87l8.213 46.607c.96 5.137 5.58 8.67 10.742 8.217l42.737-3.824c4.535-.437 8.192-3.904 8.923-8.3.084-.453.146-.95.125-1.438l.836-43.12c.063-4 2.445-7.6 6.144-9.095.334-.14.648-.282 1.003-.362 1.003-.297 1.964-.568 2.968-.976 11.828-3.726 23.26-8.77 34.085-14.953 3.574-2.125 8.15-1.634 11.327 1.174l27.565 23.916c3.866 3.406 9.76 3.28 13.563-.245l6.98-6.437 24.325-22.528c3.824-3.507 4.284-9.38 1.108-13.52l-23.47-30.14c-2.55-3.206-2.696-7.615-.564-11.09 5.622-9.086 10.512-18.925 14.524-29.322 2.947-7.716 5.35-15.6 7.147-23.448l8.15-1.432 33.353-5.94a9.71 9.71 0 0 0 7.962-7.977c.146-.838.167-1.684.084-2.564l-3.762-42.88c-.502-5.066-4.744-8.928-9.78-9.063l-26.56-.458c-4.472-.077-8.443-3.25-9.488-7.624-4.22-18.12-11.243-35.414-20.835-51.194-2.257-3.74-1.88-8.424.96-11.57l28.65-32.956c3.156-3.71 3.114-9.197-.23-12.813l-29.466-31.81c-3.47-3.778-9.237-4.242-13.187-1.1l-37.45 29.092c-3.218 2.533-7.607 2.802-11.16.744-7.607-4.403-15.694-8.205-24.18-11.475-4.577-1.76-9.174-3.32-13.814-4.67-3.594-1.074-6.332-4.083-7.022-7.795l-7.9-44.682c-.92-5.183-5.58-8.78-10.846-8.36" fill="#cde3fd"/><defs ><path id="B" d="M1180.42 2277.614h-5.008v-41.133h5.008v41.133"/><path id="C" d="M1163.466 2277.614h-5.01v-41.133h5.01v41.133"/><path id="D" d="M1156.072 2196.348h-5.008V2155.2h5.008v41.147"/><path id="E" d="M1134.228 2114.135h-5.008v-41.147h5.008v41.147"/><path id="F" d="M1117.275 2114.135h-5.01v-41.147h5.01v41.147"/></defs></svg>