<svg xmlns="http://www.w3.org/2000/svg" width="3252.46" height="2258.063" xmlns:v="https://vecta.io/nano"><style><![CDATA[.B{fill:#f37a50}.C{fill:#fff}.D{fill:#de623c}.E{fill:#2c2858}.F{fill:#e62552}.G{fill:#95a6db}.H{fill:#768fdb}.I{fill:#e3eaff}.J{fill:#201d40}.K{fill:#3f964f}.L{fill:#ff4f78}]]></style><path d="M492.917 743.19h336.906c41.703 0 75.51 33.813 75.51 75.506V975.75c0 41.707-33.807 75.52-75.51 75.52h-2.5l27.04 90.586c1.19 3.973-3.412 7.16-6.72 4.64l-124.83-95.226H492.917c-41.703 0-75.51-33.813-75.51-75.52V818.696c0-41.693 33.807-75.506 75.51-75.506" class="C"/><path d="M829.665 875.07H506.208c-20.643 0-37.376-16.733-37.376-37.373h0c0-20.64 16.733-37.373 37.376-37.373h323.458c20.643 0 37.376 16.733 37.376 37.373h0c0 20.64-16.733 37.373-37.376 37.373m-.001 114.145H506.208c-20.643 0-37.376-16.733-37.376-37.373h0c0-20.653 16.733-37.373 37.376-37.373h323.458c20.643 0 37.376 16.72 37.376 37.373h0c0 20.64-16.733 37.373-37.376 37.373" class="I"/><path d="M2554.73 319.247h-367.412c-45.497 0-82.362 36.882-82.362 82.362v171.263c0 45.483 36.865 82.353 82.362 82.353h2.72l-29.488 98.793c-1.308 4.344 3.714 7.812 7.324 5.06l136.142-103.853h250.713c45.48 0 82.345-36.87 82.345-82.353V401.61c0-45.48-36.865-82.362-82.345-82.362" class="C"/><path d="M2551.623 464.013h-369.94c-18.333 0-33.226-14.876-33.226-33.226v-8.302c0-18.35 14.893-33.226 33.226-33.226h369.94c18.35 0 33.226 14.876 33.226 33.226v8.302c0 18.35-14.876 33.226-33.226 33.226M1533.226 574.85h-173.234c-20.638 0-37.38-16.725-37.38-37.363h0c0-20.654 16.74-37.38 37.38-37.38h173.234c20.638 0 37.38 16.725 37.38 37.38h0c0 20.638-16.74 37.363-37.38 37.363" class="I"/><g class="C"><path d="M145.224 1794.733c-18.88 0-31.57-14.24-31.57-31.56 0-14.867 12.7-29.093 31.57-29.093 16.403 0 29.092 14.227 29.092 29.093 0 17.013-12.07 31.56-29.092 31.56zm-42.4-206.426c13.927-10.52 30.64-15.787 50.14-15.787 42.1 0 64.375 22.907 64.375 55.093 0 18.56-8.975 37.44-27.236 56.32-23.212 24.453-39.924 36.52-50.447 36.52-10.215 0-17.64-8.04-17.64-17.64 0-8.667 8.047-17.32 21.973-30.013.93-.933 1.857-1.867 2.476-2.173 15.784-14.547 20.736-22.587 20.736-32.493 0-12.387-8.356-19.187-20.427-19.187-5.57 0-12.07 1.24-19.808 3.707-7.736 2.48-13.308 3.72-16.712 3.72-8.667 0-18.57-7.427-18.57-19.813 0-6.493 3.713-12.68 11.14-18.253m2556.343-558.736c-12.416 0-20.76-9.372-20.76-20.773 0-9.76 8.343-19.12 20.76-19.12 10.8 0 19.133 9.36 19.133 19.12 0 11.2-7.932 20.773-19.133 20.773zm-27.87-135.765c9.147-6.92 20.134-10.38 32.96-10.38 27.7 0 42.34 15.062 42.34 36.23 0 12.213-5.913 24.63-17.92 37.043-15.257 16.08-26.262 24.016-33.175 24.016-6.717 0-11.594-5.292-11.594-11.6 0-5.7 5.288-11.4 14.453-19.743.607-.6 1.215-1.222 1.626-1.426 10.38-9.567 13.63-14.857 13.63-21.372 0-8.14-5.485-12.618-13.434-12.618-3.644 0-7.932.815-13.024 2.442s-8.754 2.442-10.987 2.442c-5.717 0-12.22-4.884-12.22-13.025 0-4.275 2.448-8.347 7.343-12m608.79 752.206h-386.43a12.37 12.37 0 0 1-12.368-12.372V1301a12.37 12.37 0 0 1 12.368-12.372 12.37 12.37 0 0 1 12.368 12.372v320.254h374.063a12.38 12.38 0 0 1 12.368 12.374 12.37 12.37 0 0 1-12.368 12.372m-357.195-79.3c-3.096 0-6.192-1.16-8.607-3.48-4.892-4.747-5.036-12.574-.3-17.493L2998.9 1416.55c4.128-4.266 10.67-5 15.625-1.785l59.074 38.305 62.274-72.36c4.458-5.173 12.26-5.76 17.442-1.307a12.36 12.36 0 0 1 1.3 17.44l-69.312 80.56c-4.046 4.68-10.92 5.668-16.1 2.308l-59.6-38.654-117.818 121.88c-2.436 2.506-5.656 3.773-8.896 3.773"/><path d="M3154.873 1431.748l-17.6-35.705-37.925-12.107 84.438-41.934-28.902 89.747M643.945 310.67c-29.907 0-54.24 24.32-54.24 54.227s24.332 54.24 54.24 54.24 54.24-24.333 54.24-54.24-24.332-54.227-54.24-54.227zm0 129.093c-41.276 0-74.856-33.587-74.856-74.866 0-41.267 33.58-74.853 74.856-74.853S718.8 323.63 718.8 364.897c0 41.28-33.58 74.866-74.856 74.866"/></g><path d="M2927.682 940.99c-21.905 0-39.74 17.823-39.74 39.73s17.837 39.722 39.74 39.722 39.722-17.813 39.722-39.722-17.817-39.73-39.722-39.73zm0 94.557c-30.256 0-54.84-24.6-54.84-54.828s24.584-54.83 54.84-54.83c30.217 0 54.82 24.598 54.82 54.83s-24.604 54.828-54.82 54.828" class="I"/><path d="M49.23 1251.215c-19.67 0-35.67 16-35.67 35.667 0 19.68 16 35.68 35.67 35.68s35.672-16 35.672-35.68c0-19.667-16.003-35.667-35.672-35.667zm0 84.906c-27.145 0-49.23-22.093-49.23-49.24s22.085-49.227 49.23-49.227 49.23 22.08 49.23 49.227-22.084 49.24-49.23 49.24m2639.047-1114.72c0 14.806-11.983 26.8-26.77 26.8a26.78 26.78 0 0 1-26.789-26.789c0-14.788 11.983-26.77 26.8-26.77 14.788 0 26.77 11.983 26.77 26.77" class="C"/><path d="M340.616 717.3c0 29.093-23.58 52.667-52.664 52.667s-52.664-23.573-52.664-52.667c0-29.08 23.58-52.667 52.664-52.667s52.664 23.587 52.664 52.667m2701.457 350.93c0 18.668-15.142 33.802-33.8 33.802-18.648 0-33.77-15.134-33.77-33.802s15.122-33.786 33.77-33.786c18.668 0 33.8 15.12 33.8 33.786" class="I"/><path d="M2749.544 322.293c0 23.277-18.872 42.13-42.13 42.13-23.277 0-42.13-18.854-42.13-42.13s18.854-42.13 42.13-42.13c23.26 0 42.13 18.854 42.13 42.13m-1937.78-76.516c0 23.6-19.135 42.733-42.737 42.733s-42.737-19.133-42.737-42.733 19.133-42.733 42.737-42.733 42.737 19.133 42.737 42.733" class="C"/><g class="B"><path d="M1139.957 958.255h.053l38.827.147 8.787 91.706-45.32 23.933-48.34-23.667 7.812-91.973 38.18-.147"/><path d="M1033.28 917.776c23.9 59.72 81.293 92.92 128.196 74.146s65.547-82.4 41.653-142.106c-23.893-59.72-81.294-92.92-128.197-74.146s-65.55 82.4-41.652 142.106"/></g><path d="M1182.73 869.402c2.773 3.987 8.253 4.973 12.227 2.2a8.785 8.785 0 1 0-10.027-14.427c-3.987 2.773-4.973 8.253-2.2 12.227m-65.8 26.868a9.52 9.52 0 0 0 13.24 2.373c4.307-3 5.373-8.92 2.373-13.24-3-4.307-8.925-5.373-13.237-2.373s-5.376 8.92-2.376 13.24"/><path d="M1169.397 883.43l26.72 20.667s.16 14.307-16.573 20.52c6.053-5.493 11.36-12.8 5.067-21.24l-15.213-19.947" class="D"/><g class="J"><path d="M1099.615 890.55a4.46 4.46 0 0 1-1.02-.12c-2.355-.56-3.808-2.933-3.247-5.28 1.535-6.44 7.97-18.613 21.337-18.68 2.44.027 4.393 1.947 4.405 4.373.01 2.413-1.94 4.387-4.363 4.4-9.9.04-12.824 11.813-12.852 11.933a4.39 4.39 0 0 1-4.26 3.373m73.915-39.72a3.55 3.55 0 0 1-1.84-.507c-1.747-1.013-2.32-3.253-1.307-5 .16-.267 4-6.693 11.253-8.04 4.96-.92 10.08.707 15.227 4.827a3.66 3.66 0 0 1 .573 5.133 3.66 3.66 0 0 1-5.133.573c-3.413-2.733-6.56-3.867-9.333-3.347-3.947.733-6.267 4.507-6.28 4.547-.68 1.16-1.907 1.813-3.16 1.813m-172.884 22.347c-20.213-57.547 29.024-90.626 29.024-90.626s-13.2-1.187-14.788-19.733c9.888 3.08 20.972 2.867 30.713-.667 65.63-23.76 110.814-23.44 110.814 4.64 0 10 43.347 3.147 39.707 70.386.267-4.747-15.227-32.387-29.867-35.147-14.68-2.773-1.413 16.8-32 21-30.863 4.24-53.555-3.253-72.405 14.147-14.75 15.173-18.408 92.426-16.164 97.066-5.143-10.653-36.152-35.773-45.035-61.067"/><path d="M1212.17 883.43s2.787 35.04-2.267 45.88c-5.253-14.053-16.547.84-27.147 2.24-25.627 3.387-71.852-5.16-76.433 33.28-31.312 9.907-60.643-57.12-60.643-57.12-1.8 74.88 52.996 117.4 131.85 104.946 51.96-8.213 56.773-80.546 34.64-129.226"/></g><path d="M1158.157 955.23c-5.067-1.213-10.347-3.28-15.813-6.2-1.427-.76-1.96-2.533-1.2-3.96s2.533-1.96 3.947-1.2c12.133 6.48 23.013 8.333 32.32 5.48 11.52-3.507 16.787-13.213 16.84-13.307.747-1.427 2.52-1.973 3.947-1.227 1.413.747 1.973 2.507 1.227 3.933-.253.493-6.333 11.893-20.2 16.16-6.493 2.013-13.547 2.107-21.067.32" class="D"/><path d="M1044.94 908.202c13.188 7.413 18.964 22.16 12.903 32.947-6.06 10.8-21.667 13.547-34.855 6.133-13.187-7.4-18.963-22.16-12.9-32.947 6.06-10.8 21.667-13.533 34.853-6.133" class="B"/><path d="M1042.934 940.535a3.35 3.35 0 0 0 1.008-1.133c3.625-6.72 3.032-13.56-1.588-18.307-4.73-4.853-12.367-6.253-18.157-3.32-1.63.827-2.28 2.813-1.457 4.44a3.31 3.31 0 0 0 4.445 1.453c3.172-1.6 7.753-.707 10.43 2.04 2.57 2.64 2.752 6.387.508 10.547a3.31 3.31 0 0 0 1.337 4.48 3.32 3.32 0 0 0 3.473-.2" class="D"/><path d="M1184.9 2183.012c8.267-22.44 25.92-24.933 25.92-24.933 34.333 47.373 118.653 18.293 115.853 82.373-128.213-.827-181.493 0-181.493 0 .16-14.72 2.707-49.64 5.653-63.32l6.693 1.227 27.373 4.653m-191.842 1.24c8.263-22.44 25.925-24.933 25.925-24.933 34.333 47.373 118.64 18.307 115.854 82.373-128.214-.827-181.5 0-181.5 0 .17-14.72 2.704-49.64 5.66-63.32l6.68 1.227 27.38 4.653"/><path d="M1270.17 1434.894s20.813 303.613 12.36 371.106c-8.467 67.493-38.4 154.04-35.013 377.292-41.8 10.466-102.346 0-102.346 0s-8.987-252.44 35.2-365.2c-17.96-109.533-75.616-360.4-75.616-360.4l165.416-22.8" class="J"/><path d="M1191.05 1443.188s-42.027 340.852-62.6 405.506c-20.58 64.653-60.71 119.32-97.96 339.252-42.953 2.146-82.952 0-82.952 0s5.797-278.986 72.694-342.426c2.264-111.066-10.817-400.132-10.817-400.132l181.634-2.2" class="E"/><path d="M997.282 1056.35s73.005-25.547 97.35-13.827c75.645 36.413 92.992 0 92.992 0 24.173 2.08 97.146 13.827 97.146 13.827 0 81.493 5.44 163.266 3.96 224.933-1.053 53.693 9.187 199.84 9.187 199.84s-80.493 21.093-156.626 21.653c-76.148-.507-153.645-20.8-153.645-20.8l7.45-203.026c-1.1-61.667 2.188-141.32 2.188-222.6" class="F"/><path d="M1414.543 1177.468c-30.133-71.893-119.56-117.626-129.773-121.12l-20.747 92.306c42.96 25.4 74.146 52.88 74.146 52.88-5.293 25.707-4.413 50.907-19.28 83.413 0 0 12.92-17.827 28.853-7.28 15.493 10.253 44-10.68 44-10.68s45.813-34.613 22.8-89.52" fill="#c4204a"/><path d="M1397.743 1359.16a8.2 8.2 0 0 0 1.573.307h1.707c3.147-.333 5.947-2.48 6.933-5.68l80.333-259c.173-.52.267-1.053.32-1.573.04-.347.027-.68.013-1.013 0-.213.027-.413 0-.627-.013-.173-.067-.347-.107-.533-.48-2.933-2.533-5.507-5.587-6.467-.493-.147-1-.267-1.52-.32a7.65 7.65 0 0 0-1.747 0h-202.226l-81.04 275.213h201.493l-.147-.307" class="G"/><path d="M1279.276 1084.575a8.16 8.16 0 0 0-10.213 5.373l-80.013 258.96c-1.32 4.28 1.067 8.827 5.333 10.173l.013.027a8.16 8.16 0 0 0 10.213-5.373l80.04-258.946a8.16 8.16 0 0 0-5.373-10.213" class="H"/><path d="M1432.063 1248.895c.747-.507 1.573-.827 2.413-1.053-.08-.133-.173-.253-.267-.373-5.027-7.587-4.693-16.667.747-20.28.893-.587 1.88-.973 2.907-1.213-1.413-5.613-.147-10.987 3.747-13.56 1.547-1.013 3.333-1.48 5.213-1.453-1.773-5.52-.36-11.32 3.987-14.2 5.453-3.613 13.347-1.28 17.64 5.2s3.36 14.653-2.08 18.253c-1.387.92-2.92 1.44-4.52 1.627 3.627 7.067 2.893 14.8-2.027 18.053-.893.6-1.867.987-2.907 1.227 1.427 5.613.147 10.973-3.733 13.547-1.44.96-3.08 1.413-4.827 1.467 1.8 4.827.667 10.027-3.16 12.573-4.6 3.04-11.267 1.08-14.893-4.4-3.627-5.467-2.84-12.373 1.76-15.413m-248.626-16.377l18.44-10.68s5.093-26.147 34.707-26.773l-8.28 26.773s14.573 11.307 49.133-8.053c33.773-7.587 19.347 17.04 30.547 18.813 16.52 2.613-12.04 35.08-45.773 40.04-43.653 6.427-48.827-2.507-48.827-2.507l-24.693 8.627-5.253-46.24" class="B"/><path d="M1012.85 1260.455c61.616-4.307 166.72-34.733 166.72-34.733 16.827 25.8 12.173 60.067 12.173 60.067-95.686 83.893-239.697 111.013-283.882 90.813-40.34-18.427-11.863-264 89.42-320.253h0c34.723 58.76 15.567 204.106 15.567 204.106" fill="#8a284c"/><path d="M2005.9 2160.24c-34.336 45.787-118.638 17.694-115.858 79.627h181.498c-.154-14.226-2.696-47.986-5.657-61.213l-59.982-18.414m191.822 1.186c-34.32 45.8-118.637 17.707-115.85 79.64h181.508c-.167-14.227-2.7-47.987-5.665-61.213l-59.993-18.427"/><path d="M1946.547 1461.09s-20.814 293.52-12.34 358.774c8.445 65.253 38.4 148.906 35.002 364.747 41.798 10.12 102.334 0 102.334 0s9-244.053-35.187-353.066c17.97-105.88 75.62-348.4 75.62-348.4l-165.43-22.053" class="J"/><path d="M2025.658 1469.122s42.045 329.518 62.617 392.01c20.572 62.507 60.71 115.347 97.936 327.973 42.975 2.08 94.154-8.493 94.154-8.493s-16.99-261.212-83.876-322.545c-2.272-107.374 10.812-386.826 10.812-386.826l-181.644-2.12" class="E"/><path d="M2196.865 930.02c-22.778 56.935-77.497 88.577-122.22 70.682-44.707-17.9-62.5-78.55-39.708-135.483 22.778-56.932 77.512-88.577 122.204-70.694 44.722 17.898 62.5 78.562 39.723 135.494" class="B"/><path d="M2054.375 883.9a8.39 8.39 0 0 1-11.659 2.096 8.38 8.38 0 0 1-2.096-11.659 8.38 8.38 0 0 1 11.66-2.096c3.804 2.637 4.733 7.856 2.096 11.66m62.73 25.612c-2.853 4.1-8.503 5.126-12.6 2.265a9.08 9.08 0 0 1-2.268-12.621c2.853-4.104 8.503-5.117 12.625-2.265a9.06 9.06 0 0 1 2.254 12.621"/><path d="M2067.097 897.268l-25.485 19.7s-.14 13.653 15.824 19.57c-5.772-5.237-10.847-12.196-4.838-20.24l14.5-19.03" class="D"/><path d="M2133.615 904.057c-1.884 0-3.595-1.293-4.055-3.212-.115-.444-2.92-11.336-12.25-11.38a4.18 4.18 0 0 1-4.155-4.2 4.19 4.19 0 0 1 4.198-4.164c12.74.072 18.878 11.674 20.345 17.804.532 2.244-.848 4.5-3.1 5.035-.33.078-.66.116-.992.116m-70.47-37.864c-1.185 0-2.342-.613-2.997-1.7-.056-.112-2.314-3.7-6.037-4.378-2.65-.46-5.62.613-8.853 3.207a3.49 3.49 0 0 1-4.894-.544 3.5 3.5 0 0 1 .544-4.908c4.908-3.918 9.787-5.465 14.5-4.587 6.93 1.27 10.596 7.403 10.735 7.668.976 1.66.418 3.792-1.24 4.768a3.51 3.51 0 0 1-1.757.474m117.818 69.772c-16.472-52.975 4.353-81.12 4.353-81.12-14.136-2.833-19.642 2.06-19.642 2.06-7.72-15.843-1.73-27.197-1.73-27.197-29.243-11.395-43.804 7.537-70.18 13.916-36.13 8.737-80.753-5.673-84.924-49.768-.607-6.386 6.416-10.526 11.74-6.947 4.96 3.307 11.512 5.976 19.688 5.75 0 0-7.57-8.54-7.963-20.355-.212-6.507 7.432-10.026 12.422-5.855 7.508 6.25 21.462 12.15 46.307 7.508 16.533-3.1 54.36-29.592 77.947-24.42 19.278 4.232 34.567 20.643 41.15 44.108 0 0 47.384 4.914 52.13 57.058 4.672 51.227-54.68 90.534-54.68 90.534l-26.62-5.27"/><path d="M2174.498 927.137c-12.555 7.1-18 21.195-12.2 31.464 5.832 10.265 20.717 12.825 33.257 5.716 12.555-7.108 18-21.195 12.184-31.463s-20.702-12.826-33.242-5.718" class="B"/><path d="M2176.53 957.948c-.398-.273-.722-.635-.973-1.08-3.478-6.386-2.947-12.9 1.444-17.45 4.494-4.65 11.774-6.01 17.314-3.236a3.16 3.16 0 0 1 1.4 4.231c-.78 1.558-2.682 2.187-4.23 1.406-3.05-1.52-7.397-.65-9.947 1.982-2.446 2.526-2.608 6.096-.442 10.05a3.16 3.16 0 0 1-1.267 4.278c-1.076.59-2.358.48-3.3-.18" class="D"/><path d="M2044.21 954.744c-1.245-2.006.51-4.505 2.815-4.018 5.857 1.234 15.55 3.07 24.872 3.903 9.352.833 19.213.746 25.198.565 2.35-.07 3.622 2.697 2.066 4.455-4.8 5.407-14.473 13.404-28.777 12.126-14.318-1.276-22.396-10.857-26.174-17.03" class="C"/><path d="M1984.01 1029.34s2.15-5.8-182.37-4.306l-49.465 58.466c51.2 41.053 222.665 48.346 222.665 48.346l9.17-102.506" class="J"/><path d="M2051.08 1024.588l58.183-5.44 56.307 15.707-63.434 65.28-51.056-75.545" class="G"/><path d="M2071.252 1054.546c23.718 19.466 28.56 32.92 78.94 6.892l7.553-77.456-82.014-6.467-4.48 77.03" class="B"/><path d="M2180.502 1066.03h0l-17.247-6.827 2.3-24.347-47.842 38.413-13.513 2.146-12.898-4.52-40.238-46.306-2.07 24.373-15.208 3.054-54.89 8.88-6.524 304.6-21.656 103.626c72.828 24.227 154.25 30.267 234.307 19.227l-2.7-104.026 56.87-297.68-58.7-20.613" class="G"/><g class="E"><path d="M2093.703 1106.184l-34.372 232.56 19.034 26.454 24.82-19.068 8.444-238.013-17.925-1.933"/><path d="M2091.643 1078.736l12.58-3.32 12.795 5.587-5.414 27.573-18.024-1.613-1.938-28.227m-41.367-52.2l-8.62 280.92-37.198 180.893s-58.8-5.92-94.932-40.306l46.317-136.174 15.817-284.586 78.617-.746"/></g><path d="M2050.275 1026.536l-8.58 277.16-42.79-212.413 51.37-64.746" fill="#494c7f"/><path d="M2169.967 1044.494l-76.354 455.44s101.334 12.454 142.994-14.946l-22.61-149.72 27.638-254.174-71.67-36.6" class="E"/><path d="M2169.968 1044.49l-44.62 266.947 79.907-201.4-35.287-65.546" fill="#494c7f"/><path d="M1665.395 776.67c4.053 14.2 5.267 29.533 23.293 37.187 0 0-2.667 47.16-.667 85.84l43.6-49.227c-2.493-15.587-4.52-45.067-2.12-61.813.627-4.347 1.48-8.667 2.16-13.027 1.88-10.573 4.987-21.4-1.453-34.16-24.893-49.307-16.52-65.533-19.947-67.933-5.573-2.467-18.667 7.467-11.267 31.693 7.173 23.44 5.4 34.947 5.4 34.947s-18.813-3.547-25.48 3.027c-3.04 3-18.267 16.84-13.52 33.467" class="B"/><path d="M1675.515 843.136c25.413-8.48 38.8-12.293 58.573-12.293 46.733 139.266 80.04 191.746 66.147 231.733-11.587 33.333-48.24 30.667-66.147 5.68-23.653-32.947-44.573-158.12-58.573-225.12m566.125 237.96l147.222 230.345 174.863 98.732-53.887 53.667-175.44-76.907L2214 1217.056l27.64-135.96" class="J"/><g class="C"><path d="M2104.217 1075.417s-21.65 21.866-41.573 27.466l-23.55-62.266 11.973-16.027 53.15 50.827"/><path d="M2104.236 1075.41s12.338 21.213 36.02 34.427l34.268-56.906-8.95-18.08-61.338 40.56"/></g><g class="G"><path d="M2264.483 1731.17H978.914c-30.215 0-54.708-16.48-54.708-36.813h0c0-20.333 24.493-36.814 54.708-36.814h1285.568c30.218 0 54.72 16.48 54.72 36.814h0c0 20.333-24.503 36.813-54.72 36.813"/><path d="M1460.73 2249.932h0c-13.773 0-22.053-15.293-14.533-26.827l339.44-520.172 29.053 18.96-339.426 520.172a17.35 17.35 0 0 1-14.533 7.866"/><path d="M1782.662 2249.932h0c13.773 0 22.053-15.293 14.52-26.827l-339.426-520.172-29.067 18.96 339.44 520.172a17.35 17.35 0 0 0 14.533 7.866"/></g><path d="M2315.637 2241.693h0a16.62 16.62 0 0 1-16.612-16.613v-294.44h33.24v294.44c0 9.173-7.442 16.613-16.627 16.613m116.616 0h0a16.61 16.61 0 0 1-16.61-16.613v-294.44h33.22v294.44a16.62 16.62 0 0 1-16.61 16.613m153.014-.001h0c-9.162 0-16.62-7.44-16.62-16.614v-294.44h33.24v294.44a16.62 16.62 0 0 1-16.62 16.614m116.612 0h0c-9.166 0-16.6-7.44-16.6-16.614v-294.44h33.24v294.44c0 9.174-7.444 16.614-16.63 16.614" class="H"/><g class="G"><path d="M2518.017 1493.665v350.386c0 3.988-3.233 7.213-7.222 7.213H2293.57c-21.924 0-39.703 17.774-39.703 39.695h0c0 21.918 17.78 39.68 39.703 39.68h264.133c21.924 0 39.686-17.76 39.686-39.68v-397.294c0-21.906-17.762-39.68-39.686-39.68h0c-21.906 0-39.686 17.773-39.686 39.68"/><path d="M2729.462 1857.707H2557.7v-403.72h171.752v403.72"/></g><path d="M2689.765 1493.665v350.387a7.2 7.2 0 0 1-7.208 7.214h-217.233c-21.917 0-39.7 17.772-39.7 39.693h0c0 21.92 17.774 39.68 39.7 39.68h264.15c21.9 0 39.673-17.76 39.673-39.68v-397.294c0-21.906-17.774-39.68-39.673-39.68h0c-21.935 0-39.7 17.774-39.7 39.68m-1778.3 748.027h0a16.62 16.62 0 0 0 16.619-16.614v-294.44h-33.236v294.44a16.62 16.62 0 0 0 16.617 16.614m-116.607 0h0a16.62 16.62 0 0 0 16.617-16.614v-294.44H778.24v294.44c0 9.173 7.44 16.614 16.62 16.614m-153 0h0c9.177 0 16.62-7.44 16.62-16.614v-294.44h-33.24v294.44a16.62 16.62 0 0 0 16.617 16.614m-116.607 0h0a16.62 16.62 0 0 0 16.617-16.614v-294.44h-33.235v294.44a16.62 16.62 0 0 0 16.617 16.614" class="H"/><g class="G"><path d="M709.1 1493.667v350.386c0 3.987 3.232 7.213 7.22 7.213h217.24c21.92 0 39.687 17.773 39.687 39.693h0c0 21.92-17.768 39.68-39.687 39.68H669.423c-21.917 0-39.685-17.76-39.685-39.68v-397.292c0-21.907 17.768-39.68 39.685-39.68h.001c21.917 0 39.685 17.773 39.685 39.68"/><path d="M497.665 1857.707h171.76v-403.72h-171.76v403.72"/></g><path d="M537.35 1493.667v350.386c0 3.987 3.233 7.213 7.22 7.213h217.24c21.92 0 39.685 17.773 39.685 39.693h0c0 21.92-17.767 39.68-39.685 39.68H497.665c-21.917 0-39.685-17.76-39.685-39.68v-397.292c0-21.907 17.768-39.68 39.685-39.68h0c21.92 0 39.685 17.773 39.685 39.68" class="H"/><path d="M2429.603 1359.774c-36.645-13.227-93.264-42.135-55.64-94.96 37.625-52.842 36.663-29.773 23.13-93.948-13.55-64.173 32.074-114.652 75.576-101.88s54.605 47.972 107.922 39.067 97.636 40.96 77.572 84.21c-20.082 43.24-28.645 64.055-9.887 88 18.776 23.934 103.332 49.72 68.066 107.065s-51.448 53.828-39.185 83.213c12.245 29.4-16 62.866-65.036 58.293-49.017-4.56-93.39-23.105-111.37-77.84s-71.15-91.225-71.15-91.225" class="E"/><path d="M2299.945 2193.32l-28.967 8.653-21.814-22.307c1.046-1.546.046-16.48-3.338-32.4l54.12-8.973c2.154 16.48 0 38.373 0 55.026" class="B"/><path d="M2271.206 2196.758c-6.898-18.08-21.617-20.093-21.617-20.093-28.607 38.16-98.88 14.747-96.554 66.36h151.26c-.14-11.854-2.248-39.987-4.727-51l-5.558.986-22.803 3.746" class="F"/><path d="M2107.324 2198.705l-30.157 2.053-17.357-18.466c1.367-1.28 4.642-24.148 4.855-40.414l50.832 2.253c-1.524 16.56-4.514 38.32-8.173 54.574" class="B"/><path d="M2080.428 2196.76c-6.9-18.08-21.6-20.093-21.6-20.093-28.624 38.16-98.888 14.746-96.555 66.36h151.256c-.128-11.854-2.248-39.987-4.723-51l-5.563.986-22.805 3.746" class="F"/><path d="M2412.285 1694.44c-82.324 11.08-314.225 97.026-327.172 112.573-26.693 32.12-12.616 206.867-25.3 351.066l67.41 3.973c32.296-117.427 29.72-168.107 44.32-302.8 0 0 264.946 19.84 360.686-44.788 98.715-66.626-53.386-135.812-119.944-120.026" fill="#0e6a41"/><g class="D"><path d="M2305 1523.24c19.463 3.32 26.95 18.933 31.643 47.68-74.124 43.667-184.227 46.773-184.227 46.773l-35.09-17.36s88.285-31.8 187.674-77.092"/><path d="M2507.668 1441.08c-32.447 47.133-156.704 148.492-177.272 151.68l-24.912-69.733 143.4-154.52c38.15-40.28 111.886-4.28 58.785 72.574"/></g><path d="M2371.014 1433.53c26.022-28.026 59.89-91.28 103.97-86.786 44.094 4.493 47.274 51.28 33.987 76.466s-59.172 87.267-59.172 87.267l-78.784-76.947" class="L"/><path d="M2378.992 1552.107c18.697 6.44 29.36 65.294 24.1 69.8-80.096 31.72-246.767-2.586-246.767-2.586l-8.85-30.186s126.198-7.732 231.518-37.027" class="B"/><path d="M2642.566 1743.922l-33.84-172.478c-18.8-109.933 36.498-187.186-58.307-239.865l-69.08 11.133c-55.858 58.772-90.258 112.12-93.214 148.972-4.04 47.532 43.127 73.333 43.127 73.333l-18.992 129.425s-4.442 10.56 73.452 25.28 156.854 24.2 156.854 24.2" class="F"/><path d="M2585.78 1454.48c-32.44 47.68-171.04 168.854-191.858 169.934l-14.92-72.307 148-171.04c38.162-40.734 111.887-4.32 58.788 73.412" class="B"/><path d="M2453.267 1454.815c24.212-35.214 73.035-100.185 117.113-95.693s47.264 51.28 33.98 76.466-59.163 87.267-59.163 87.267l-91.93-68.04" class="L"/><path d="M2147.48 1589.132c-25.486-6.267-80.88-24.88-103.192 33.466 5.593 10.72 26.11-15.72 34.92-18.172 13.997-3.893 25.994 3.453 36.57 13.572 15.185 14.508 40.555 1.32 40.555 1.32l-8.853-30.187" class="B"/><g class="L"><path d="M2127.65 1656.934H1888.27v-32.146h271.518c0 17.748-14.38 32.146-32.14 32.146"/><path d="M1765.195 1455.014l123.08 201.92 28.453-14.96-138.04-230.373c-15.72 8.267-21.76 27.693-13.493 43.413"/></g><g class="B"><path d="M2582.05 1241.523c-11.643 48.613-52.015 80.612-90.206 71.48-38.174-9.146-59.69-55.973-48.048-104.587 11.626-48.613 52.015-80.6 90.206-71.466 38.174 9.148 59.69 55.96 48.048 104.573"/><path d="M2563.572 1267.13l-63.45 39.335s-5.623 28.04-8.443 37.133c-5.8 18.773 16.4 26.986 35.198 15.294s23.562-27.32 23.562-27.32l13.13-64.44"/></g><path d="M2439.415 1189.853c18.045 1.548 57.097-1.574 71.354-18.467 10.16 34.294 53.326 66.948 89.038 82.253 1.43-35.186 1.17-99.933-61.918-126.825-49.555-21.134-98.473 63.04-98.473 63.04" class="E"/><path d="M2461.673 1221.192c-1.67 3.373-5.78 4.745-9.152 3.067s-4.748-5.775-3.062-9.16c1.67-3.373 5.78-4.746 9.152-3.067a6.83 6.83 0 0 1 3.062 9.161m53.634 13.222a7.38 7.38 0 0 1-9.905 3.32c-3.64-1.812-5.144-6.253-3.307-9.906 1.804-3.653 6.247-5.133 9.905-3.32 3.64 1.827 5.128 6.253 3.307 9.908"/><path d="M2523.486 1228.3a2.54 2.54 0 0 1-1.174-1.212c-3.705-7.988-13.715-9.547-13.816-9.56a2.58 2.58 0 0 1-2.18-2.921 2.56 2.56 0 0 1 2.901-2.173c.537.067 12.86 1.933 17.756 12.493.587 1.28.034 2.813-1.257 3.414a2.56 2.56 0 0 1-2.23-.04m-76.696-16.996c-.246-.12-.475-.293-.672-.493-1-1.013-1-2.64 0-3.64 7.867-7.746 17.52-4.533 17.93-4.386a2.59 2.59 0 0 1 1.6 3.266 2.57 2.57 0 0 1-3.262 1.587c-.3-.093-7.113-2.254-12.636 3.2a2.57 2.57 0 0 1-2.95.465" class="E"/><path d="M2466.07 1236.042c-3.746 3.854-7.03 7.827-10.613 10.08a2.7 2.7 0 0 0-.887 3.599c2.89 5.12 11.32 9.348 16.494 11.546.772.32 1.38-.665.772-1.212-5.224-4.587-7.475-7.946-8.41-9.8-.476-.92-.46-2 0-2.92 1.068-2.12 3.204-6.44 4.65-10 .51-1.24-1.068-2.252-2.004-1.293" class="D"/><path d="M2563.678 1241.842c-9.267 7.213-12 19.213-6.104 26.813 5.914 7.587 18.225 7.893 27.492.68 9.284-7.228 12.018-19.227 6.104-26.826-5.897-7.587-18.208-7.893-27.492-.667" class="B"/><path d="M2568.967 1266.454a2.65 2.65 0 0 1-.907-.759c-3.558-4.747-3.9-10.067-.89-14.254 3.062-4.278 8.775-6.226 13.548-4.653a2.57 2.57 0 0 1 1.642 3.253c-.428 1.346-1.882 2.08-3.25 1.627-2.617-.867-6.038.36-7.766 2.773-1.676 2.333-1.386 5.227.82 8.16a2.56 2.56 0 0 1-.513 3.599 2.58 2.58 0 0 1-2.686.253" class="D"/><path d="M2504.406 1709.453c-82.332 11.08-314.587 86.36-327.527 101.905-26.683 32.12 32.744 169.653 51.763 346.72h79.462c-.838-126.16 9.25-242.227-29.57-283.347 0 0 222.612-14.868 333.606-14.868 56.575 0 87.875-191.158-107.732-150.41" class="K"/><path d="M2462.594 1276.95c-1.098-1.48.1-3.56 1.93-3.333 4.643.56 12.347 1.32 19.702 1.333 7.338 0 15.043-.745 19.702-1.293 1.847-.213 3.03 1.854 1.914 3.333-3.378 4.56-10.367 11.467-21.632 11.453s-18.238-6.934-21.616-11.493" class="C"/><g class="B"><path d="M881.76 1573.507c-15.72 10.467-11.368 67.48-5.432 70.373 81.744 9.987 219.814-57.733 219.814-57.733l5.407-30.293s-115.314 19.307-219.79 17.653"/><path d="M702.146 1474.667c29.223 46.72 157.133 167.56 176.984 169.36l16.905-68.506-135.048-168.813c-34.935-40.307-106.696-8.253-58.84 67.96"/></g><path d="M772.05 1224.96c3.515-47.853-10.32-90.12-48.47-111.653-38.668-21.813-87.11-.413-87.11-.413h0c-.004 0-41.003-14.587-78.16 26.347s-9.05 76.946-24.253 106.8c-9.003 17.68-54.777 21.333-42.953 78.906 3.41 16.613 23.384 27.787 40.3 28.893 29.723 1.96 57.4-9.533 69.45 1.96 39.703 37.867 127.688 24.173 140-10.467 3.82-10.733 82.964 10.04 75.068-63.107-4-37.067-47.015-14.52-43.875-57.267" class="E"/><path d="M699.526 1379.628l-62.837-11.6-23.563 31.347 50.077 102.666 73.656-62.507-37.333-59.907" class="B"/><g class="K"><path d="M780.98 1627.174c-1.075-19.533 30.496-99.76 13.88-140.133-12.104-32.48-32.323-87.013-57.084-96.106-11.683-4.293-23.69-7.28-38.248-11.307 0 0 8.213 40.933-8.9 42.307-32.94 2.64-53.94-53.907-53.94-53.907-17.76-1.693-99.225 25.067-99.186 31.76.193 52.387 42.763 128.84 56.683 185.493 5.477 61.173-15.868 134.386-15.945 141.346 0 0 131.052 36.853 208.737-5.92 1.624-5.96-4.515-66.56-5.997-93.533"/><path d="M597.954 1663.774s-28.932 72.986-35.987 118.933 32.76 75.426 32.76 75.426h331.115s35.448-57.48 25.237-97.186c-10.21-39.693-33.695-46-33.695-46l-319.433-51.173"/></g><g class="D"><path d="M930.28 1712.907c-42.275-5.96-164.965 41.693-217.28 145.226h146.357l70.922-145.226"/><path d="M883.92 1751.013c5.464-5.973 10.424-13.347 14.79-21.04 12.337-21.733 42.077-25.413 58.87-6.893 61.024 67.28 191.113 220.653 220.113 239.746 8.2 5.387 56.013 32.92 101.466 27.48 0 0 22.44 8.533 7.493 26.36-7.693 9.16-123.213 18.64-123.213 18.64l-9-33.92c-67.238-49.76-150.944-46.187-221.918-137.16-39.083-50.107-48.6-113.213-48.6-113.213"/></g><path d="M1186.837 2054.88l46.48 30.16 6.387-7.613-37.693-35.16c21.413-16.893 71.026-2.8 71.026-2.8 16.24-10.493 47.92-44.533 51.187-62.773-10.413-12.96-45.053 13.707-45.053 13.707 1.267 5.773-9.68 25.787-18.387 29.2-37.853 8.173-75.573-2.587-106.346-18.213 0 0-25.72 38.973 32.4 53.493" class="F"/><path d="M883.24 1760.16c-8.465 2.28-14.78 9.36-16.004 18.04-3.31 23.493-20.408 71.04 2.72 120.84 56.787 122.266 90.313 202.826 96.27 234.373-14.832 27.787 44.313 103.666 45.195 108.64l42.57-13.333-33.22-50.56c-20.943-33.88-24.368-75.453-27.772-107.68-14.532-137.586 10.455-224.453-89.096-305.16-5.887-4.773-13.34-7.133-20.66-5.16" class="B"/><path d="M945.02 2191.612l4.196 55.253 9.93.467 5.097-51.306c26.423 6.786 45.292 54.786 45.292 54.786 18.197 6.547 64.472 11.093 80.954 2.64 4-16.147-38.216-27.52-38.216-27.52-3.82 4.52-26.37 7.947-34.37 3.094-29.444-25.147-45.443-61.653-51.677-95.613 0 0-44.91 3.187-21.207 58.2" class="F"/><g class="B"><path d="M683.647 1328.308l-51.023-7.64 4.064 47.36s9.767 21.453 21.095 22.907l41.743-11.307-15.88-51.32"/><path d="M585.415 1259.828c13.172 55.013 58.876 91.213 102.08 80.88 43.205-10.347 67.552-63.333 54.38-118.346-13.17-55-58.875-91.213-102.08-80.866s-67.553 63.32-54.38 118.333"/></g><path d="M721.63 1236.815c1.903 3.827 6.54 5.373 10.36 3.467a7.71 7.71 0 0 0 3.471-10.347 7.72 7.72 0 0 0-10.36-3.48 7.73 7.73 0 0 0-3.471 10.36m-60.685 14.973c2.06 4.133 7.08 5.813 11.216 3.76 4.133-2.067 5.816-7.08 3.757-11.213a8.35 8.35 0 0 0-11.215-3.76c-4.136 2.053-5.817 7.08-3.76 11.213"/><path d="M651.698 1244.855a2.85 2.85 0 0 0 1.34-1.373c4.2-9.04 15.516-10.8 15.63-10.827a2.91 2.91 0 0 0 2.459-3.293c-.228-1.587-1.693-2.68-3.28-2.467-.592.093-14.55 2.187-20.087 14.147-.675 1.453-.04 3.173 1.416 3.853a2.88 2.88 0 0 0 2.521-.04m86.783-19.24a2.67 2.67 0 0 0 .772-.56 2.9 2.9 0 0 0-.024-4.107c-8.873-8.773-19.808-5.133-20.27-4.973-1.515.52-2.325 2.173-1.8 3.693s2.17 2.32 3.685 1.813c.36-.12 8.056-2.56 14.296 3.6.908.893 2.26 1.08 3.34.533" class="E"/><path d="M716.66 1253.615c4.24 4.36 7.96 8.853 12.005 11.413 1.364.853 1.8 2.667 1.01 4.08-3.27 5.787-12.816 10.56-18.67 13.053-.853.36-1.555-.76-.857-1.373 5.908-5.173 8.447-8.987 9.512-11.08.53-1.053.516-2.267-.012-3.32-1.21-2.387-3.623-7.267-5.255-11.307-.564-1.4 1.22-2.547 2.267-1.467" class="D"/><path d="M606.206 1260.175c10.5 8.173 13.59 21.76 6.907 30.347-6.684 8.6-20.615 8.947-31.112.773s-13.59-21.76-6.907-30.347 20.613-8.933 31.112-.773" class="B"/><path d="M600.23 1288.028c.392-.187.744-.48 1.025-.853 4.032-5.36 4.41-11.387 1.013-16.12-3.477-4.84-9.935-7.053-15.353-5.267-1.525.507-2.353 2.147-1.85 3.667.504 1.533 2.15 2.36 3.673 1.853 2.97-.973 6.836.4 8.804 3.133 1.89 2.64 1.557 5.92-.937 9.24a2.9 2.9 0 0 0 .577 4.067 2.88 2.88 0 0 0 3.047.28" class="D"/><path d="M668.9 1297.48c-1.217-1.64.1-3.933 2.128-3.693 5.16.613 13.69 1.453 21.833 1.453s16.675-.84 21.835-1.453c2.03-.24 3.345 2.053 2.127 3.693-3.743 5.053-11.48 12.707-23.96 12.707s-20.217-7.653-23.96-12.707" class="C"/><path d="M584.35 1254.96c51.57-6.907 123.728-59.44 129.646-86.413-9.976-32.387-63.123-48.667-93.132-33.653-30.01 15-58.36 79.306-36.515 120.066" class="E"/><path d="M1066.8 1644.934h0a13.07 13.07 0 0 1-8.371-16.48l79.604-243.853a13.07 13.07 0 0 1 16.48-8.373h0c6.867 2.253 10.613 9.627 8.373 16.493l-79.6 243.853a13.08 13.08 0 0 1-16.485 8.36" class="C"/><g class="B"><path d="M1109.07 1557.547l16.22-49.68s14.053 28.573 0 55.707c-14.06 27.133-27.44 28.347-27.44 28.347l11.22-34.373m-23.164-13.294c-4.103-9.653-13.757-33.773-4.103-33.667s11.23 11.827 11.23 11.827l-7.128 21.84M288.48 1399.04c21.892-22.08 7.53-44.733 7.53-44.733 12.013-2.573 75.4 93.426 102.716 154.44 47.667-48.04 131.658-112.92 154.37-116.706 0 0 30.64-8.24 41.65 28.813 9.827 33.053-28.497 56.493-28.497 56.493S402.305 1593.08 378.06 1582.8c-37.73-16.013-71.876-153.773-89.58-183.76"/><path d="M254.25 1396.308c13.377.827 29.92-5.8 35.075 6.2l26.404-12.867 1.597-15.933c-22.688-36.347-77.99-46.667-83.465-47.147-14.225-1.24-20.83-2.707-21.94-.813-1.11 1.907-4.596 14.573 16.045 17.053 25.904 3.107 8.707 23.813-43.844 4.107-13.16-4.947-37.92 1.467-28.965 11.08 9.87 10.6 38.224 34.613 99.094 38.32"/></g><g class="K"><path d="M1593.53 1533.707s-26.28-49.573-36.787-102.173c-9.133-44.933-8.707-98.6-7.587-127.266.253-6.52 8.813-8.747 12.213-3.173 16.547 27.04 46.453 81.386 53.173 130.48 4.8 33.88 7.907 67.973 9.28 102.173l-30.293-.04"/><path d="M1621.022 1533.707s17.52-60.613 36.787-101.04c14.013-29.4 45.893-64.6 62.267-81.626 3.093-3.227 8.493-.453 7.667 3.947-4.2 22.413-13.92 66.6-29.8 96.773-22.067 41.933-58.84 81.946-58.84 81.946h-18.08"/></g><path d="M1530.916 1479.934c-2.507-4.907 2.187-10.373 7.413-8.6a104.88 104.88 0 0 1 36.053 20.893c19.6 17.813 23.253 38.107 23.253 38.107l-6.747 2.267s-36.52-6.653-59.973-52.667m137.147-141.72c-.453-6.28-8.507-8.56-12.173-3.453-13.68 19.04-36.64 56.56-44.16 102.546-9.4 57.387 1.547 96.44 1.547 96.44h7.747s28.52-54.053 39.64-90.666c10.493-34.547 9.147-80.44 7.4-104.866m-28.96 195.492s16.4-54.64 72.533-75.44c3.253-1.213 6.413 2.08 5.093 5.293-7.4 18.053-28.493 61.173-64.12 70.133l-13.507.013" fill="#0e6a41"/><path d="M1688.782 1524.467h-129.92l16.68 133.106h96.56l16.68-133.106" class="H"/><path d="M1549.09 1628.547v19.107h5.2c2.533 0 4.573 2.053 4.573 4.573v.773c0 2.52-2.04 4.573-4.573 4.573h-221.68a5.33 5.33 0 0 1-5.32-5.32v-27.52a5.32 5.32 0 0 1 5.32-5.32h221.68c2.533 0 4.573 2.04 4.573 4.573h0c0 2.52-2.04 4.56-4.573 4.56h-5.2" class="F"/><path d="M1549.742 1647.654h-193.88c-2.147 0-3.893-1.733-3.893-3.88v-11.333c0-2.147 1.747-3.88 3.893-3.88h193.88v19.093" class="C"/><path d="M1307.7 1587.307v21.133h-5.2c-2.533 0-4.573 2.267-4.573 5.067v.853c0 2.787 2.04 5.053 4.573 5.053h221.68c2.933 0 5.32-2.64 5.32-5.893v-30.44c0-3.253-2.387-5.893-5.32-5.893H1302.5c-2.533 0-4.573 2.267-4.573 5.067h0c0 2.787 2.04 5.053 4.573 5.053h5.2" class="K"/><path d="M1307.023 1608.44h193.693a4.08 4.08 0 0 0 4.08-4.08v-12.973a4.08 4.08 0 0 0-4.08-4.08h-193.693v21.133" class="C"/><path d="M1526.21 1557.6h-202.146c-4.467 0-8.08-3.613-8.08-8.08v-18.107c0-4.467 3.613-8.093 8.08-8.093h202.146a8.1 8.1 0 0 1 8.093 8.093v18.107c0 4.467-3.627 8.08-8.093 8.08" class="F"/><path d="M1542.462 1577.187h-206.106c-3.373 0-6.107-2.733-6.107-6.107v-7.373c0-3.373 2.733-6.107 6.107-6.107h206.106c3.373 0 6.107 2.733 6.107 6.107v7.373c0 3.373-2.733 6.107-6.107 6.107" class="H"/><path d="M1647.557 473.577h-369.94c-18.333 0-33.226-17.843-33.226-39.853v-9.958c0-22 14.893-39.853 33.226-39.853h369.94c18.35 0 33.226 17.843 33.226 39.853v9.958c0 22-14.876 39.853-33.226 39.853m771.475 84.068H2245.8c-20.638 0-37.38-16.725-37.38-37.363h0c0-20.654 16.74-37.38 37.38-37.38h173.234c20.638 0 37.38 16.725 37.38 37.38h0c0 20.638-16.74 37.363-37.38 37.363" class="I"/></svg>