<?xml version="1.0" encoding="UTF-8" standalone="no"?>
<svg
   xmlns:dc="http://purl.org/dc/elements/1.1/"
   xmlns:cc="http://creativecommons.org/ns#"
   xmlns:rdf="http://www.w3.org/1999/02/22-rdf-syntax-ns#"
   xmlns:svg="http://www.w3.org/2000/svg"
   xmlns="http://www.w3.org/2000/svg"
   xmlns:sodipodi="http://sodipodi.sourceforge.net/DTD/sodipodi-0.dtd"
   xmlns:inkscape="http://www.inkscape.org/namespaces/inkscape"
   version="1.1"
   id="svg2"
   xml:space="preserve"
   width="666.66669"
   height="666.66669"
   viewBox="0 0 666.66669 666.66669"
   sodipodi:docname="create1.svg"
   inkscape:version="1.0 (4035a4fb49, 2020-05-01)"><metadata
     id="metadata8"><rdf:RDF><cc:Work
         rdf:about=""><dc:format>image/svg+xml</dc:format><dc:type
           rdf:resource="http://purl.org/dc/dcmitype/StillImage" /><dc:title /></cc:Work></rdf:RDF></metadata><defs
     id="defs6"><rect
       x="1632.647"
       y="325.52565"
       width="1361.853"
       height="92.013646"
       id="rect1153" /><rect
       x="1669.6709"
       y="218.63591"
       width="1596.892"
       height="143.36918"
       id="rect1147" /><clipPath
       clipPathUnits="userSpaceOnUse"
       id="clipPath154"><path
         d="m 885.273,3070.29 c -46.668,-39.16 -147.918,-202.91 -246.668,-501.66 0,0 45,-71.25 187.5,-90 l 151.25,259.18 z"
         id="path152" /></clipPath><linearGradient
       x1="0"
       y1="0"
       x2="1"
       y2="0"
       gradientUnits="userSpaceOnUse"
       gradientTransform="matrix(338.75,0,0,-338.75,638.605,2774.46)"
       spreadMethod="pad"
       id="linearGradient160"><stop
         style="stop-opacity:1;stop-color:#41348d"
         offset="0"
         id="stop156" /><stop
         style="stop-opacity:1;stop-color:#2b2459"
         offset="1"
         id="stop158" /></linearGradient><clipPath
       clipPathUnits="userSpaceOnUse"
       id="clipPath192"><path
         d="m 1755.27,3205.29 c 0,163.34 -110,221.67 -110,221.67 0,0 -59.99,-38.6 -150.68,-79.79 v 0 c 46.54,-118.06 61.8,-245.28 55.68,-350.21 z"
         id="path190" /></clipPath><linearGradient
       x1="0"
       y1="0"
       x2="1"
       y2="0"
       gradientUnits="userSpaceOnUse"
       gradientTransform="matrix(-510,-263.333,-263.333,510,1805.77,3319.36)"
       spreadMethod="pad"
       id="linearGradient198"><stop
         style="stop-opacity:1;stop-color:#41348d"
         offset="0"
         id="stop194" /><stop
         style="stop-opacity:1;stop-color:#2b2459"
         offset="1"
         id="stop196" /></linearGradient></defs><sodipodi:namedview
     inkscape:document-rotation="0"
     pagecolor="#ffffff"
     bordercolor="#666666"
     borderopacity="1"
     objecttolerance="10"
     gridtolerance="10"
     guidetolerance="10"
     inkscape:pageopacity="0"
     inkscape:pageshadow="2"
     inkscape:window-width="1296"
     inkscape:window-height="704"
     id="namedview4"
     showgrid="false"
     inkscape:zoom="0.59184835"
     inkscape:cx="267.92563"
     inkscape:cy="330.28952"
     inkscape:window-x="70"
     inkscape:window-y="27"
     inkscape:window-maximized="1"
     inkscape:current-layer="g12" /><g
     id="g10"
     inkscape:groupmode="layer"
     inkscape:label="ink_ext_XXXXXX"
     transform="matrix(1.3333333,0,0,-1.3333333,0,666.66667)"><g
       id="g12"
       transform="scale(0.1,0.09473008)"><path
         d="m 2105.32,631.859 c 67.85,463.891 -93.92,739.181 -286.25,773.281 -197.58,35.02 -330.82,107.41 -390.56,421.29 -59.73,313.87 -96.49,632.65 -317.04,591.29 C 890.926,2376.37 812.813,2096.09 794.434,1774.45 776.055,1452.82 638.211,1489.58 449.824,1363.5 302.617,1264.98 407.914,821.18 460.98,631.859 h 1644.34"
         style="fill:#4cc088;fill-opacity:1;fill-rule:nonzero;stroke:none"
         id="path22" /><path
         d="m 1379.84,2080.22 c -3.59,16.48 -7.3,32.61 -11.15,48.4 L 1286.73,631.859 h 13.8 l 79.31,1448.361"
         style="fill:#8ad6b2;fill-opacity:1;fill-rule:nonzero;stroke:none"
         id="path24" /><path
         d="M 677.297,1489.33 781.699,631.859 h 13.883 L 690,1499.02 c -4.133,-3.34 -8.359,-6.58 -12.703,-9.69"
         style="fill:#8ad6b2;fill-opacity:1;fill-rule:nonzero;stroke:none"
         id="path26" /><path
         d="m 988.266,2359.88 c -4.575,-3.78 -9.032,-7.76 -13.414,-11.85 L 1029.25,631.859 h 13.79 L 988.266,2359.88"
         style="fill:#8ad6b2;fill-opacity:1;fill-rule:nonzero;stroke:none"
         id="path28" /><path
         d="m 1949.51,1339.45 c -3.72,3.29 -7.43,6.58 -11.22,9.64 L 1686.42,631.859 h 14.61 l 248.48,707.591"
         style="fill:#8ad6b2;fill-opacity:1;fill-rule:nonzero;stroke:none"
         id="path30" /><path
         d="m 1485.01,631.859 h 14.1 l 176.58,812.891 c -4.33,1.84 -8.62,3.74 -12.86,5.72 L 1485.01,631.859"
         style="fill:#8ad6b2;fill-opacity:1;fill-rule:nonzero;stroke:none"
         id="path32" /><path
         d="m 1601,641.859 h -99.72 l 26.79,123.301 H 1601 V 641.859 m -113.82,0 h -186.1 l 31.34,572.451 c 19.56,-61.7 35.58,-126.98 56.53,-177.98 26.52,-158.971 43.46,-271.17 43.46,-271.17 h 81.56 l -26.79,-123.301 m -199.91,0 h -244.55 l -3.91,123.301 h 69.79 l 57.3,474.54 v 0 l 20.4,168.92 c 67.82,-11.44 105.72,-78.81 134.26,-158.88 l -33.29,-607.881 m -258.34,0 H 794.363 l -31.847,261.59 c 15.422,-6.32 33.027,-10.051 53.496,-10.051 0.808,0 1.621,0.012 2.437,0.024 39.262,0.558 67.989,31.668 91.91,78.359 L 903.605,765.16 h 121.415 l 3.91,-123.301 m -248.446,0 H 527.379 c -29.52,96.743 -91.121,339.551 13.086,399.311 18.738,10.74 34.504,15.34 48.246,15.34 40.918,0 63.879,-40.78 93.531,-81.549 17.703,-24.34 37.789,-48.68 65.52,-64.352 l 32.722,-268.75"
         style="fill:#3d9770;fill-opacity:1;fill-rule:nonzero;stroke:none"
         id="path34" /><path
         d="m 1301.08,641.859 h -13.81 l 33.29,607.881 c 4.13,-11.59 8.06,-23.44 11.86,-35.43 l -31.34,-572.451"
         style="fill:#69ca9c;fill-opacity:1;fill-rule:nonzero;stroke:none"
         id="path36" /><path
         d="m 794.363,641.859 h -13.879 l -32.722,268.75 c 4.691,-2.648 9.601,-5.05 14.754,-7.16 l 31.847,-261.59"
         style="fill:#69ca9c;fill-opacity:1;fill-rule:nonzero;stroke:none"
         id="path38" /><path
         d="m 1042.72,641.859 h -13.79 l -3.91,123.301 h 13.79 l 3.91,-123.301"
         style="fill:#69ca9c;fill-opacity:1;fill-rule:nonzero;stroke:none"
         id="path40" /><path
         d="m 1501.28,641.859 h -14.1 l 26.79,123.301 h 14.1 l -26.79,-123.301"
         style="fill:#69ca9c;fill-opacity:1;fill-rule:nonzero;stroke:none"
         id="path42" /><path
         d="m 3148.48,631.859 c -59.05,403.811 81.76,643.451 249.18,673.131 171.99,30.49 287.98,93.5 339.98,366.73 51.99,273.22 83.99,550.71 275.98,514.72 191.98,-36 259.98,-279.98 275.98,-559.96 16,-279.98 135.99,-247.99 299.98,-357.73 128.14,-85.76 36.48,-472.09 -9.71,-636.891 H 3148.48"
         style="fill:#52cb96;fill-opacity:1;fill-rule:nonzero;stroke:none"
         id="path44" /><path
         d="m 3780.01,1892.64 c 3.12,14.35 6.36,28.39 9.71,42.13 l 71.34,-1302.911 h -12.01 l -69.04,1260.781"
         style="fill:#8ad6b2;fill-opacity:1;fill-rule:nonzero;stroke:none"
         id="path46" /><path
         d="m 4391.56,1378.28 -90.88,-746.421 h -12.08 l 91.91,754.861 c 3.6,-2.91 7.28,-5.73 11.05,-8.44"
         style="fill:#8ad6b2;fill-opacity:1;fill-rule:nonzero;stroke:none"
         id="path48" /><path
         d="m 4120.87,2136.09 c 3.98,-3.3 7.86,-6.76 11.68,-10.32 L 4085.2,631.859 h -12.01 l 47.68,1504.231"
         style="fill:#8ad6b2;fill-opacity:1;fill-rule:nonzero;stroke:none"
         id="path50" /><path
         d="m 3284.12,1247.81 c 3.23,2.86 6.47,5.73 9.77,8.39 l 219.24,-624.341 h -12.72 l -216.29,615.951"
         style="fill:#8ad6b2;fill-opacity:1;fill-rule:nonzero;stroke:none"
         id="path52" /><path
         d="m 3688.46,631.859 h -12.28 l -153.71,707.611 c 3.78,1.61 7.51,3.26 11.2,4.98 l 154.79,-712.591"
         style="fill:#8ad6b2;fill-opacity:1;fill-rule:nonzero;stroke:none"
         id="path54" /><path
         d="m 3710,641.859 h -23.71 l -57.35,263.993 c 14.98,-2.243 29.8,-3.563 44.3,-3.563 7.93,0 15.77,0.402 23.49,1.25 4.63,0.52 9.05,1.543 13.27,3.039 V 641.859 m -35.99,0 h -57.34 v 263.993 l 57.34,-263.993"
         style="fill:#3d9770;fill-opacity:1;fill-rule:nonzero;stroke:none"
         id="path56" /><path
         d="m 3686.29,641.859 h -12.28 l -57.34,263.993 v 2.027 c 4.1,-0.731 8.19,-1.41 12.27,-2.027 l 57.35,-263.993"
         style="fill:#69ca9c;fill-opacity:1;fill-rule:nonzero;stroke:none"
         id="path58" /><path
         d="m 276.664,621.859 h 4333.34 v 20 H 276.664 Z"
         style="fill:#446fbf;fill-opacity:1;fill-rule:nonzero;stroke:none"
         id="path60" /><path
         d="m 3710,580.371 h 1046.67 v 897.961 H 3710 Z"
         style="fill:#d0e5f7;fill-opacity:1;fill-rule:nonzero;stroke:none"
         id="path62" /><path
         d="m 3710,1335 h 1046.67 v 143.332 H 3710 Z"
         style="fill:#3c6978;fill-opacity:1;fill-rule:nonzero;stroke:none"
         id="path64" /><path
         d="m 1601,562.039 h 2015.67 v 3583.41 H 1601 Z"
         style="fill:#ffffff;fill-opacity:1;fill-rule:nonzero;stroke:none"
         id="path66" /><path
         d="M 3159.57,1037.5 H 2058.09 c -65,0 -117.7,52.7 -117.7,117.7 0,65.01 52.7,117.71 117.7,117.71 h 1101.48 c 65,0 117.7,-52.7 117.7,-117.71 0,-65 -52.7,-117.7 -117.7,-117.7"
         style="fill:#e0e1de;fill-opacity:1;fill-rule:nonzero;stroke:none"
         id="path68" /><path
         d="m 3206.87,1163.74 h -50 v 50 h -17.07 v -50 h -50 v -17.07 h 50 v -50 h 17.07 v 50 h 50 v 17.07"
         style="fill:#6c9ad7;fill-opacity:1;fill-rule:nonzero;stroke:none"
         id="path70" /><path
         d="M 3159.57,1428.75 H 2058.09 c -65,0 -117.7,52.7 -117.7,117.7 v 0 c 0,65.01 52.7,117.71 117.7,117.71 h 1101.48 c 65,0 117.7,-52.7 117.7,-117.71 v 0 c 0,-65 -52.7,-117.7 -117.7,-117.7"
         style="fill:#e0e1de;fill-opacity:1;fill-rule:nonzero;stroke:none"
         id="path72" /><path
         d="m 3206.87,1554.99 h -50 v 50 h -17.07 v -50 h -50 v -17.07 h 50 v -50 h 17.07 v 50 h 50 v 17.07"
         style="fill:#6c9ad7;fill-opacity:1;fill-rule:nonzero;stroke:none"
         id="path74" /><path
         d="M 1600.99,562.039 V 856.891 H 3616.67 V 562.039 H 1600.99"
         style="fill:#b3d3f1;fill-opacity:1;fill-rule:nonzero;stroke:none"
         id="path76" /><path
         d="M 1601,2213.06 H 3616.67 V 4145.45 H 1601 Z"
         style="fill:#d0e5f7;fill-opacity:1;fill-rule:nonzero;stroke:none"
         id="path78" /><path
         d="M 3616.67,3885 H 2326.2 c -2.31,2.84 -4.99,5.53 -8.02,8.01 13.92,1.63 26.27,10.55 31.99,23.9 l 10.78,25.19 -3.25,1.39 25.91,60.54 -48.88,20.91 c 36.68,10.55 81.22,21.94 81.22,46.94 0,42.5 -68.13,73.57 -157.92,73.57 H 1601 V 3885 4145.45 H 3616.67 V 3885"
         style="fill:#857fc7;fill-opacity:1;fill-rule:nonzero;stroke:none"
         id="path80" /><path
         d="m 2415.95,4071.88 c 0,42.5 -68.13,73.57 -157.92,73.57 H 1601 V 3885 h 657.03 c 104.59,0 29.17,88.12 29.17,114.66 0,26.54 128.75,29.72 128.75,72.22"
         style="fill:#38409f;fill-opacity:1;fill-rule:nonzero;stroke:none"
         id="path82" /><path
         d="M 3616.67,3861.2 H 2336.45 c -0.1,0.84 -0.22,1.65 -0.34,2.43 -1.23,7.56 -4.61,14.87 -9.91,21.37 h 1290.47 v -23.8 m -1441.12,0 H 1601 v 23.8 h 595.03 c -7.46,-6.99 -14.31,-15.17 -20.48,-23.8"
         style="fill:#9fb2c5;fill-opacity:1;fill-rule:nonzero;stroke:none"
         id="path84" /><path
         d="m 3132.09,3143.43 c 0,-288.98 -234.27,-523.25 -523.26,-523.25 -288.99,0 -523.25,234.27 -523.25,523.25 0,288.99 234.26,523.26 523.25,523.26 288.99,0 523.26,-234.27 523.26,-523.26"
         style="fill:#ffffff;fill-opacity:1;fill-rule:nonzero;stroke:none"
         id="path86" /><path
         d="m 2608.83,2620.18 c 134.87,0 257.79,51.05 350.57,134.84 l -34.47,142.21 c -14.01,37.11 -45.06,65.18 -83.4,75.39 l -101.25,26.95 c -20.35,5.42 -35.54,22.4 -38.65,43.23 l -3.7,24.76 c 47.6,46.58 79.28,126.65 79.28,205.83 0,122.17 -75.39,205.71 -168.38,205.71 -92.99,0 -168.38,-83.54 -168.38,-205.71 0,-79.18 31.68,-159.25 79.28,-205.83 l -3.7,-24.76 c -3.11,-20.83 -18.3,-37.81 -38.65,-43.23 l -101.25,-26.95 c -38.34,-10.21 -69.39,-38.28 -83.4,-75.39 l -34.47,-142.21 c 92.78,-83.79 215.71,-134.84 350.57,-134.84"
         style="fill:#6c9ad7;fill-opacity:1;fill-rule:nonzero;stroke:none"
         id="path88" /><path
         d="m 3024.77,2421.35 h -831.88 c -24.36,0 -44.12,19.76 -44.12,44.13 0,24.36 19.76,44.11 44.12,44.11 h 831.88 c 24.36,0 44.12,-19.75 44.12,-44.11 0,-24.37 -19.76,-44.13 -44.12,-44.13"
         style="fill:#ffffff;fill-opacity:1;fill-rule:nonzero;stroke:none"
         id="path90" /><path
         d="m 3046.83,2327.24 h -876 c -12.18,0 -22.06,9.87 -22.06,22.06 0,12.18 9.88,22.06 22.06,22.06 h 876 c 12.18,0 22.06,-9.88 22.06,-22.06 0,-12.19 -9.88,-22.06 -22.06,-22.06"
         style="fill:#ffffff;fill-opacity:1;fill-rule:nonzero;stroke:none"
         id="path92" /><path
         d="m 1931.28,714.262 -91.64,70.32 -91.63,-70.32 h 40.49 v -65.543 c 0,-7.938 6.44,-14.379 14.38,-14.379 h 73.53 c 7.94,0 14.38,6.441 14.38,14.379 v 65.543 h 40.49"
         style="fill:#ffffff;fill-opacity:1;fill-rule:nonzero;stroke:none"
         id="path94" /><path
         d="m 2400.78,633.559 -5.82,41.953 c -2.65,7.008 -8.51,12.308 -15.75,14.23 l -19.11,5.09 c -3.84,1.027 -6.71,4.227 -7.3,8.16 l -0.69,4.68 c 8.98,8.789 14.96,23.91 14.96,38.848 0,23.07 -14.23,38.839 -31.79,38.839 -17.55,0 -31.78,-15.769 -31.78,-38.839 0,-14.938 5.98,-30.059 14.96,-38.848 l -0.69,-4.68 c -0.59,-3.933 -3.46,-7.133 -7.3,-8.16 l -19.12,-5.09 c -7.23,-1.922 -13.09,-7.222 -15.74,-14.23 l -5.82,-41.953 h 130.99"
         style="fill:#ffffff;fill-opacity:1;fill-rule:nonzero;stroke:none"
         id="path96" /><path
         d="m 2882.7,734.57 c 0,-28.98 -23.49,-52.48 -52.48,-52.48 -28.99,0 -52.49,23.5 -52.49,52.48 0,28.989 23.5,52.489 52.49,52.489 28.99,0 52.48,-23.5 52.48,-52.489"
         style="fill:#ffffff;fill-opacity:1;fill-rule:nonzero;stroke:none"
         id="path98" /><path
         d="m 2856.31,631.859 h -52.19 v 40.723 h 52.19 v -40.723"
         style="fill:#ffffff;fill-opacity:1;fill-rule:nonzero;stroke:none"
         id="path100" /><path
         d="m 3327.38,778.242 -52.45,-52.453 c -9.02,-9.019 -9.02,-23.641 0,-32.648 l 52.45,-52.461 c 9.02,-9.008 23.63,-9.008 32.65,0 l 52.45,52.461 c 9.02,9.007 9.02,23.629 0,32.648 l -52.45,52.453 c -9.02,9.008 -23.63,9.008 -32.65,0"
         style="fill:#ffffff;fill-opacity:1;fill-rule:nonzero;stroke:none"
         id="path102" /><path
         d="M 3159.57,1820 H 2058.09 c -65,0 -117.7,52.7 -117.7,117.7 0,65.01 52.7,117.71 117.7,117.71 h 1101.48 c 65,0 117.7,-52.7 117.7,-117.71 0,-65 -52.7,-117.7 -117.7,-117.7"
         style="fill:#525ab2;fill-opacity:1;fill-rule:nonzero;stroke:none"
         id="path104" /><path
         d="m 2127.16,1961.87 h 963.34 v 20 h -963.34 z"
         style="fill:#ffffff;fill-opacity:1;fill-rule:nonzero;stroke:none"
         id="path106" /><path
         d="m 2467.65,1893.54 h 622.852 v 20 H 2467.65 Z"
         style="fill:#ffffff;fill-opacity:1;fill-rule:nonzero;stroke:none"
         id="path108" /><path
         d="m 3276.68,1534.79 c -5.86,59.52 -56.05,106.03 -117.11,106.03 H 2058.09 c -61.06,0 -111.25,-46.51 -117.11,-106.03 -0.38,3.84 -0.59,7.72 -0.59,11.66 v 0 c 0,65.01 52.7,117.71 117.7,117.71 h 1101.48 c 65,0 117.7,-52.7 117.7,-117.71 v 0 c 0,-3.94 -0.21,-7.82 -0.59,-11.66"
         style="fill:#abadac;fill-opacity:1;fill-rule:nonzero;stroke:none"
         id="path110" /><path
         d="m 3276.68,1143.54 c -5.86,59.52 -56.05,106.03 -117.11,106.03 H 2058.09 c -61.06,0 -111.25,-46.51 -117.11,-106.03 -0.38,3.84 -0.59,7.72 -0.59,11.66 v 0 c 0,65.01 52.7,117.71 117.7,117.71 h 1101.48 c 65,0 117.7,-52.7 117.7,-117.71 v 0 c 0,-3.94 -0.21,-7.82 -0.59,-11.66"
         style="fill:#abadac;fill-opacity:1;fill-rule:nonzero;stroke:none"
         id="path112" /><path
         d="m 3923.09,580.371 h 187.68 V 1335 h -187.68 z"
         style="fill:#9fb2c5;fill-opacity:1;fill-rule:nonzero;stroke:none"
         id="path114" /><path
         d="m 3923.09,1335 h 187.68 v 143.332 h -187.68 z"
         style="fill:#2f525f;fill-opacity:1;fill-rule:nonzero;stroke:none"
         id="path116" /><path
         d="m 4345.59,580.371 h 187.68 V 1335 h -187.68 z"
         style="fill:#9fb2c5;fill-opacity:1;fill-rule:nonzero;stroke:none"
         id="path118" /><path
         d="m 4345.59,1335 h 187.68 v 143.332 h -187.68 z"
         style="fill:#2f525f;fill-opacity:1;fill-rule:nonzero;stroke:none"
         id="path120" /><path
         d="M 4128.51,1647.52 4021.4,626.121 c -6.32,-60.289 -64.14,-109.152 -129.15,-109.152 v 0 c -65,0 -112.58,48.863 -106.25,109.152 l 107.1,1021.399 c 6.33,60.28 64.15,109.15 129.15,109.15 v 0 c 65.01,0 112.58,-48.87 106.26,-109.15"
         style="fill:#525ab2;fill-opacity:1;fill-rule:nonzero;stroke:none"
         id="path122" /><path
         d="m 3886.2,689.121 93.67,893.309 -19.89,2.08 -93.68,-893.299"
         style="fill:#ffffff;fill-opacity:1;fill-rule:nonzero;stroke:none"
         id="path124" /><path
         d="m 3987.64,1004.85 60.56,577.58 -19.89,2.08 -60.56,-577.57"
         style="fill:#ffffff;fill-opacity:1;fill-rule:nonzero;stroke:none"
         id="path126" /><path
         d="M 4551.01,1647.52 4443.9,626.121 c -6.32,-60.289 -64.14,-109.152 -129.15,-109.152 v 0 c -65,0 -112.58,48.863 -106.25,109.152 l 107.1,1021.399 c 6.33,60.28 64.15,109.15 129.15,109.15 v 0 c 65.01,0 112.58,-48.87 106.26,-109.15"
         style="fill:#525ab2;fill-opacity:1;fill-rule:nonzero;stroke:none"
         id="path128" /><path
         d="m 4308.7,689.121 93.67,893.309 -19.89,2.08 -93.68,-893.299"
         style="fill:#ffffff;fill-opacity:1;fill-rule:nonzero;stroke:none"
         id="path130" /><path
         d="m 4410.14,1004.85 60.56,577.58 -19.89,2.08 -60.56,-577.57"
         style="fill:#ffffff;fill-opacity:1;fill-rule:nonzero;stroke:none"
         id="path132" /><path
         d="M 1056.91,799.219 V 718.5 c 0,0 56.15,-141.539 42.11,-189.5 -14.04,-47.961 -215.239,-24.57 -305.309,-24.57 -90.074,0 17.547,62 60.828,104.109 43.281,42.109 93.582,83.063 92.41,190.68 h 109.961"
         style="fill:#3b307f;fill-opacity:1;fill-rule:nonzero;stroke:none"
         id="path134" /><path
         d="M 1469.42,799.219 V 718.5 c 0,0 -56.14,-141.539 -42.11,-189.5 14.04,-47.961 215.24,-24.57 305.31,-24.57 90.08,0 -17.54,62 -60.83,104.109 -43.28,42.109 -93.58,83.063 -92.41,190.68 h -109.96"
         style="fill:#3b307f;fill-opacity:1;fill-rule:nonzero;stroke:none"
         id="path136" /><path
         d="M 946.949,799.219 C 947.645,735.25 930.109,694.922 906.723,663.82 l 163.837,17.321 c -7.61,22.121 -13.65,37.359 -13.65,37.359 v 80.719 H 946.949"
         style="fill:#a2601b;fill-opacity:1;fill-rule:nonzero;stroke:none"
         id="path138" /><path
         d="m 1628.27,652.961 c -27.59,32.559 -49.67,74.598 -48.89,146.258 H 1469.42 V 718.5 c 0,0 -6.69,-16.871 -14.87,-40.93 l 173.72,-24.609"
         style="fill:#a2601b;fill-opacity:1;fill-rule:nonzero;stroke:none"
         id="path140" /><path
         d="m 1481.94,2345.3 c 0,0 112.97,-725.14 135.47,-1580.14 h -185 c 0,0 -101.3,670.97 -196.31,1055.97 L 1108.6,765.16 H 903.605 L 955.27,2345.3 h 526.67"
         style="fill:#3c6978;fill-opacity:1;fill-rule:nonzero;stroke:none"
         id="path142" /><path
         d="m 1481.94,2345.29 v 0 0"
         style="fill:#5581ca;fill-opacity:1;fill-rule:nonzero;stroke:none"
         id="path144" /><path
         d="m 1104.56,2213.05 c -52.04,0.01 -103.88,7.22 -152.798,24.86 l 3.508,107.39 h 526.67 v -0.01 0 c 0.06,-0.4 1.86,-12 5.01,-33.61 -90.46,-42.53 -237.26,-98.63 -382.39,-98.63"
         style="fill:#2f525f;fill-opacity:1;fill-rule:nonzero;stroke:none"
         id="path146" /><g
         id="g148"><g
           id="g150"
           clip-path="url(#clipPath154)"><path
             d="m 885.273,3070.29 c -46.668,-39.16 -147.918,-202.91 -246.668,-501.66 0,0 45,-71.25 187.5,-90 l 151.25,259.18 -92.082,332.48"
             style="fill:url(#linearGradient160);fill-opacity:1;fill-rule:nonzero;stroke:none"
             id="path162" /></g></g><path
         d="m 621.105,2487.38 c 0,0 -81.25,-268.75 0,-648.75 l 95,46.25 c 0,0 -34.929,173.75 61.25,540 l -156.25,62.5"
         style="fill:#fbc094;fill-opacity:1;fill-rule:nonzero;stroke:none"
         id="path164" /><path
         d="m 761.32,2360.54 c -0.004,0 -0.007,0 -0.011,0 4.894,20.75 10.226,42.18 16.046,64.34 v 0 c -5.82,-22.16 -11.136,-43.58 -16.035,-64.34 m -140.215,126.84 v 0 0"
         style="fill:#5581ca;fill-opacity:1;fill-rule:nonzero;stroke:none"
         id="path166" /><path
         d="m 761.309,2360.54 c -69.098,13.96 -123.86,59.68 -150.227,85.57 5.629,26.57 9.965,41.07 10.023,41.27 v 0 0 l 156.25,-62.5 c -5.82,-22.16 -11.152,-43.59 -16.046,-64.34"
         style="fill:#c29775;fill-opacity:1;fill-rule:nonzero;stroke:none"
         id="path168" /><path
         d="m 1728.6,3469.46 c 0,0 274.17,187.5 406.67,310.84 0,0 35,109.16 95,124.99 60,15.84 100.83,-10.83 105.84,-41.66 4.99,-30.83 -6.67,-110.29 -154.17,-173.9 0,0 -240,-285.27 -374.17,-398.6 l -79.17,178.33"
         style="fill:#fbc094;fill-opacity:1;fill-rule:nonzero;stroke:none"
         id="path170" /><path
         d="m 1808.07,3291.38 c 0.02,0.02 0.04,0.03 0.06,0.05 -0.02,-0.01 -0.04,-0.03 -0.06,-0.05 m 0.38,0.33 h 0.01 c 0,0 0,0 -0.01,0 m -79.85,177.75 v 0 c 0,0 13.47,9.21 35.82,24.85 v 0 c -22.31,-15.61 -35.73,-24.79 -35.82,-24.85"
         style="fill:#9fb2c5;fill-opacity:1;fill-rule:nonzero;stroke:none"
         id="path172" /><path
         d="m 1807.77,3291.13 v 0 l -79.17,178.33 c 0.09,0.06 13.51,9.24 35.82,24.85 28,-27.52 82.89,-89.69 90.64,-160.45 -16.44,-15.62 -32.15,-29.91 -46.6,-42.15 h -0.01 c -0.1,-0.09 -0.21,-0.19 -0.32,-0.28 -0.02,-0.02 -0.04,-0.03 -0.06,-0.05 -0.1,-0.08 -0.2,-0.17 -0.3,-0.25 v 0"
         style="fill:#c29775;fill-opacity:1;fill-rule:nonzero;stroke:none"
         id="path174" /><path
         d="m 1172.35,3637.38 c 40.63,-33.13 116.88,-135 116.88,-135 l -28.12,-27.5 c 0,0 35.62,-83.75 21.87,-118.75 -13.75,-35 -58.13,-50.63 -58.13,-50.63 l 23.75,-65.62 -153.75,-58.13 -24.26,82.78 -16.36,214.72 20.62,126.88 97.5,31.25"
         style="fill:#fbc094;fill-opacity:1;fill-rule:nonzero;stroke:none"
         id="path176" /><path
         d="m 885.273,3070.29 c 0,0 149.577,130.84 434.997,212.09 180.09,51.26 325,144.58 325,144.58 0,0 110,-58.33 110,-221.67 l -205,-208.33 c 0,0 -31.67,-501.67 -68.33,-651.66 0,0 -226.67,-76.67 -425,-60 -198.335,16.66 -120.002,70 -113.335,151.66 6.668,81.67 -58.332,633.33 -58.332,633.33"
         style="fill:#41348d;fill-opacity:1;fill-rule:nonzero;stroke:none"
         id="path178" /><path
         d="m 631.73,2594.88 c 0,0 75.625,-83.13 219.375,-108.13 l -35.937,-70.9 c -6.402,-12.63 -20.113,-19.69 -34.137,-17.74 -39.277,5.47 -118.226,21.57 -168.09,65.96 -9.195,8.19 -12.441,21.2 -9.07,33.05 l 27.859,97.76"
         style="fill:#755eb5;fill-opacity:1;fill-rule:nonzero;stroke:none"
         id="path180" /><path
         d="m 1607.42,3404.47 c 0,0 -7.57,29.78 11.18,46.03 18.75,16.25 92.5,51.88 92.5,51.88 0,0 143.13,-56.88 116.25,-256.88 0,0 -51.87,-50.62 -63.75,-65 -11.87,-14.37 -34.78,-2.08 -34.78,-2.08 l -121.4,226.05"
         style="fill:#755eb5;fill-opacity:1;fill-rule:nonzero;stroke:none"
         id="path182" /><path
         d="m 1113.61,3591.75 22.5,-110.62 c 0,0 -28.76,24.37 -46.25,5.62 -17.5,-18.75 4.99,-58.12 23.12,-73.12 18.12,-15 34.38,0 34.38,0 l 4.99,-47.5 -80.62,-108.75 c 0,0 -3.75,38.75 -29.37,60 -25.63,21.25 -84.38,17.5 -133.755,159.37 l 205.005,115"
         style="fill:#322868;fill-opacity:1;fill-rule:nonzero;stroke:none"
         id="path184" /><g
         id="g186"><g
           id="g188"
           clip-path="url(#clipPath192)"><path
             d="m 1755.27,3205.29 c 0,163.34 -110,221.67 -110,221.67 0,0 -59.99,-38.6 -150.68,-79.79 v 0 c 46.54,-118.06 61.8,-245.28 55.68,-350.21 l 205,208.33"
             style="fill:url(#linearGradient198);fill-opacity:1;fill-rule:nonzero;stroke:none"
             id="path200" /></g></g><path
         d="m 908.703,3476.47 c -0.031,0.09 -0.066,0.19 -0.098,0.28 v 0 c 0.036,-0.09 0.067,-0.19 0.098,-0.28 m -0.098,0.28 159.795,89.64 v 0 l -159.795,-89.64 m 269.765,155.46 c -0.01,0.01 -0.02,0.02 -0.03,0.03 0.01,-0.01 0.02,-0.02 0.03,-0.03 m -0.16,0.14 c -0.01,0.01 -0.02,0.03 -0.03,0.04 0.01,-0.01 0.02,-0.03 0.03,-0.04 m -0.18,0.17 c -0.02,0.02 -0.04,0.04 -0.07,0.06 0.03,-0.02 0.05,-0.04 0.07,-0.06 m -0.15,0.13 c -0.03,0.02 -0.05,0.05 -0.08,0.07 0.03,-0.02 0.06,-0.05 0.08,-0.07 m -0.14,0.13 c -0.11,0.1 -0.22,0.19 -0.33,0.29 0.11,-0.1 0.22,-0.2 0.33,-0.29 m -0.35,0.3 c -1.47,1.31 -2.9,2.53 -4.29,3.69 1.39,-1.15 2.82,-2.38 4.29,-3.69 m -4.34,3.72 c -0.03,0.03 -0.06,0.06 -0.09,0.08 0.03,-0.02 0.06,-0.05 0.09,-0.08 m -0.13,0.11 c -0.05,0.05 -0.1,0.09 -0.15,0.13 0.05,-0.04 0.1,-0.08 0.15,-0.13 m -0.22,0.18 c -0.02,0.02 -0.04,0.04 -0.07,0.06 0.03,-0.02 0.05,-0.04 0.07,-0.06 m -0.15,0.13 c -0.02,0.01 -0.04,0.03 -0.06,0.04 0.02,-0.01 0.04,-0.03 0.06,-0.04"
         style="fill:#5581ca;fill-opacity:1;fill-rule:nonzero;stroke:none"
         id="path202" /><path
         d="m 1125.32,3534.13 -11.71,57.62 -45.21,-25.36 v 0 0 l 6.45,39.74 97.5,31.25 c 0.05,-0.04 0.1,-0.08 0.14,-0.12 0.02,-0.01 0.04,-0.03 0.06,-0.04 0.03,-0.03 0.06,-0.05 0.08,-0.07 0.03,-0.02 0.05,-0.04 0.07,-0.06 0.02,-0.01 0.05,-0.03 0.07,-0.05 0.05,-0.04 0.1,-0.08 0.15,-0.13 0.01,-0.01 0.03,-0.02 0.04,-0.03 0.03,-0.02 0.06,-0.05 0.09,-0.08 0.02,-0.01 0.03,-0.02 0.05,-0.03 1.39,-1.16 2.82,-2.38 4.29,-3.69 0.01,0 0.01,-0.01 0.02,-0.01 0.11,-0.1 0.22,-0.19 0.33,-0.29 0.02,-0.02 0.04,-0.04 0.06,-0.06 0.03,-0.02 0.05,-0.05 0.08,-0.07 0.03,-0.03 0.06,-0.05 0.08,-0.07 0.03,-0.02 0.05,-0.04 0.07,-0.06 0.05,-0.05 0.1,-0.09 0.15,-0.13 0.01,-0.01 0.02,-0.03 0.03,-0.04 0.05,-0.04 0.09,-0.07 0.13,-0.11 0.01,-0.01 0.02,-0.02 0.03,-0.03 12.67,-11.37 27.89,-27.84 42.93,-45.24 -34.06,-21.14 -66.17,-38.53 -95.98,-52.84"
         style="fill:#c29775;fill-opacity:1;fill-rule:nonzero;stroke:none"
         id="path204" /><path
         d="m 911.574,3468.54 c -0.957,2.62 -1.922,5.21 -2.871,7.93 -0.031,0.09 -0.062,0.19 -0.098,0.28 v 0 l 159.795,89.64 45.21,25.36 11.71,-57.62 c -106.47,-51.12 -183.386,-62.88 -213.746,-65.59"
         style="fill:#24204d;fill-opacity:1;fill-rule:nonzero;stroke:none"
         id="path206" /><path
         d="m 1194.85,3674.88 c 37.5,18.12 78.75,23.75 88.75,12.5 10,-11.25 -132.5,-101.88 -211.87,-148.13 C 992.355,3493 901.105,3456.13 863.605,3488 c -37.5,31.88 1.325,139.56 81.118,192.23 148.327,97.91 250.127,-5.35 250.127,-5.35"
         style="fill:#d23b49;fill-opacity:1;fill-rule:nonzero;stroke:none"
         id="path208" /><path
         d="m 987.984,3497.23 c 27.536,11.29 56.336,26.05 83.746,42.02 79.37,46.25 221.87,136.88 211.87,148.13 -10,11.25 -51.25,5.62 -88.75,-12.5 0,0 -104.84,-119.2 -206.866,-177.65"
         style="fill:#d23b49;fill-opacity:1;fill-rule:nonzero;stroke:none"
         id="path210" /><path
         d="m 1196.77,3427.27 c 0.45,-0.18 17.54,-7.18 46.18,-7.18 7.96,0 16.81,0.54 26.44,1.92 l -1.42,9.9 c -9.14,-1.31 -17.52,-1.82 -25.02,-1.82 -13.5,0 -24.2,1.65 -31.48,3.28 -3.63,0.82 -6.41,1.62 -8.25,2.22 -0.92,0.3 -1.61,0.54 -2.05,0.7 l -0.48,0.18 -0.1,0.04 -3.82,-9.24"
         style="fill:#b0896c;fill-opacity:1;fill-rule:nonzero;stroke:none"
         id="path212" /><path
         d="m 1200.64,3552.96 c 0,-11.74 -5.76,-21.25 -12.86,-21.25 -7.1,0 -12.85,9.51 -12.85,21.25 0,11.74 5.75,21.25 12.85,21.25 7.1,0 12.86,-9.51 12.86,-21.25"
         style="fill:#322868;fill-opacity:1;fill-rule:nonzero;stroke:none"
         id="path214" /><path
         d="m 1239.72,2121.06 0.48,-4.98 174.52,16.97 v -69.47 c 0,-24.31 -18.56,-44.6 -42.77,-46.75 l -68.84,-6.13 c -1.26,-0.11 -2.52,-0.16 -3.77,-0.16 -20.19,-0.01 -37.81,14.53 -41.33,34.78 l -13.36,76.6 -4.93,-0.86 0.48,-4.98 -0.48,4.98 -4.92,-0.86 13.36,-76.59 c 4.38,-25.09 26.15,-43.07 51.18,-43.07 1.54,0 3.1,0.06 4.66,0.2 l 68.83,6.13 c 29.38,2.61 51.89,27.22 51.89,56.71 v 80.49 l -190.85,-18.56 0.93,-5.31 4.92,0.86"
         style="fill:#1f4555;fill-opacity:1;fill-rule:nonzero;stroke:none"
         id="path216" /><path
         d="m 996.805,2113.14 v -5 H 1171.8 v -45.86 c 0,-16.47 -6.66,-31.34 -17.46,-42.15 -10.8,-10.79 -25.67,-17.45 -42.15,-17.46 h -47.34 c -31.42,0 -57.45,24.39 -59.48,55.75 l -3.58,55.05 -4.985,-0.33 v -5 5 l -4.992,-0.32 3.578,-55.05 c 2.379,-36.62 32.769,-65.09 69.459,-65.1 h 47.34 c 38.45,0.01 69.61,31.17 69.61,69.61 v 55.86 H 991.469 l 0.344,-5.32 4.992,0.32"
         style="fill:#1f4555;fill-opacity:1;fill-rule:nonzero;stroke:none"
         id="path218" /><path
         d="m 1186.3,1408.62 v 0 l 49.8,412.51 v 0 l -49.8,-412.51"
         style="fill:#3d9770;fill-opacity:1;fill-rule:nonzero;stroke:none"
         id="path220" /><path
         d="m 1165.9,1239.7 v 0 l 20.4,168.92 v 0 l -20.4,-168.92"
         style="fill:#307458;fill-opacity:1;fill-rule:nonzero;stroke:none"
         id="path222" /><path
         d="m 1165.9,1239.7 -51.18,598.93 c 0,0 48.33,-5.34 121.38,-17.5 l -49.8,-412.51 -20.4,-168.92"
         style="fill:#2f525f;fill-opacity:1;fill-rule:nonzero;stroke:none"
         id="path224" /><path
         d="m 906.605,851.891 h 213.074 v 10 H 906.605 Z"
         style="fill:#1f4555;fill-opacity:1;fill-rule:nonzero;stroke:none"
         id="path226" /><path
         d="m 1418.13,851.891 h 196.512 v 10 H 1418.13 Z"
         style="fill:#1f4555;fill-opacity:1;fill-rule:nonzero;stroke:none"
         id="path228" /><path
         d="m 2357.7,3943.49 -121.07,51.81 25.9,60.54 121.08,-51.81 -25.91,-60.54"
         style="fill:#2e2420;fill-opacity:1;fill-rule:nonzero;stroke:none"
         id="path230" /><path
         d="m 2233.39,3996.69 -10.79,-25.2 c -7.1,-16.59 -2.15,-35.88 12.05,-47.02 l 9.84,-7.72 c 6.35,-4.97 8.56,-13.59 5.39,-21.01 l -6.14,-14.33 c -3.15,-7.36 0.27,-15.89 7.63,-19.04 7.37,-3.15 15.89,0.26 19.04,7.63 l 6.13,14.33 c 3.17,7.42 10.94,11.77 18.92,10.62 l 12.38,-1.8 c 17.86,-2.58 35.23,7.17 42.33,23.76 l 10.78,25.19 -127.56,54.59"
         style="fill:#5ba2b5;fill-opacity:1;fill-rule:nonzero;stroke:none"
         id="path232" /><path
         d="m 2257.54,4044.16 c 10.48,-10 18.17,-29.21 33,-34.13 17.67,-5.85 41.41,6.44 54.76,-9.51 10.85,-12.95 11.29,-24.82 22.4,-33.67 l 15.91,37.18 -121.08,51.81 -4.99,-11.68"
         style="fill:#4549a6;fill-opacity:1;fill-rule:nonzero;stroke:none"
         id="path234" /><path
         d="m 2356.01,3930.57 -127.56,54.58 4.94,11.54 127.56,-54.59 -4.94,-11.53"
         style="fill:#487e8f;fill-opacity:1;fill-rule:nonzero;stroke:none"
         id="path236" /><path
         d="m 849.406,1739.18 h -5 c -0.004,-42.92 -17.551,-81.73 -45.968,-109.88 -28.426,-28.14 -67.653,-45.54 -111.04,-45.54 -43.39,0 -82.617,17.4 -111.043,45.54 -28.417,28.15 -45.964,66.96 -45.968,109.88 0.004,42.92 17.551,81.73 45.968,109.88 28.426,28.13 67.653,45.53 111.043,45.53 43.387,0 82.614,-17.4 111.04,-45.53 28.417,-28.15 45.964,-66.96 45.968,-109.88 h 5 5 c 0.004,45.68 -18.715,87.07 -48.933,116.98 -30.211,29.92 -71.989,48.44 -118.075,48.43 -46.089,0.01 -87.867,-18.51 -118.078,-48.43 -30.218,-29.91 -48.937,-71.3 -48.933,-116.98 -0.004,-45.68 18.715,-87.07 48.933,-116.99 30.211,-29.92 71.989,-48.43 118.078,-48.43 46.086,0 87.864,18.51 118.075,48.43 30.218,29.92 48.937,71.31 48.933,116.99 h -5"
         style="fill:#38409f;fill-opacity:1;fill-rule:nonzero;stroke:none"
         id="path238" /><path
         d="m 520.313,1722.3 25,-331.67 c 0,-10.58 63.613,-19.16 142.085,-19.16 78.469,0 142.082,8.58 142.082,19.16 l 25,331.67 H 520.313"
         style="fill:#ffffff;fill-opacity:1;fill-rule:nonzero;stroke:none"
         id="path240" /><path
         d="m 854.48,1722.3 c 0,-12.89 -74.804,-23.34 -167.082,-23.34 -92.281,0 -167.085,10.45 -167.085,23.34 0,12.88 74.804,23.33 167.085,23.33 92.278,0 167.082,-10.45 167.082,-23.33"
         style="fill:#abadac;fill-opacity:1;fill-rule:nonzero;stroke:none"
         id="path242" /><path
         d="m 854.48,1722.3 c 0,-12.89 -74.804,-23.34 -167.082,-23.34 -92.281,0 -167.085,10.45 -167.085,23.34 0,12.88 74.804,23.33 167.085,23.33 92.278,0 167.082,-10.45 167.082,-23.33"
         style="fill:#abadac;fill-opacity:1;fill-rule:nonzero;stroke:none"
         id="path244" /><path
         d="m 542.848,1710.63 c 28.902,-6.97 82.742,-11.66 144.55,-11.66 61.805,0 115.645,4.69 144.547,11.66 -28.902,6.97 -82.742,11.67 -144.547,11.67 -61.808,0 -115.648,-4.7 -144.55,-11.67"
         style="fill:#38409f;fill-opacity:1;fill-rule:nonzero;stroke:none"
         id="path246" /><path
         d="m 687.398,1698.97 c -92.281,0 -167.085,10.44 -167.085,23.33 l 25,-331.67 c 0,-10.58 63.613,-19.16 142.085,-19.16 78.469,0 142.082,8.58 142.082,19.16 l 25,331.67 c 0,-12.89 -74.804,-23.33 -167.082,-23.33"
         style="fill:#ffffff;fill-opacity:1;fill-rule:nonzero;stroke:none"
         id="path248" /><path
         d="m 530.461,1587.69 14.852,-197.06 c 0,-10.58 63.613,-19.16 142.085,-19.16 78.469,0 142.082,8.58 142.082,19.16 l 14.852,197.06 c -23.293,-8.97 -84.664,-15.39 -156.934,-15.39 -72.273,0 -133.644,6.42 -156.937,15.39"
         style="fill:#d0e5f7;fill-opacity:1;fill-rule:nonzero;stroke:none"
         id="path250" /><path
         d="m 647.426,1946.12 77.429,29.38 c 0,0 30.625,-33.12 28.75,-81.25 -1.875,-48.12 -71.875,-72.5 -132.5,-55.62 0,0 21.875,30.53 9.586,74.09 -3.894,13.8 3.329,28.31 16.735,33.4"
         style="fill:#f8a56c;fill-opacity:1;fill-rule:nonzero;stroke:none"
         id="path252" /><path
         d="m 659.855,1953 c -12.691,29.61 38.75,51.88 59.375,42.5 20.625,-9.37 6.711,-28.27 0,-33.12 -12.175,-8.81 -53.75,-22.5 -59.375,-9.38"
         style="fill:#f79251;fill-opacity:1;fill-rule:nonzero;stroke:none"
         id="path254" /><path
         d="m 1800.21,237.199 c -1.4,-3.058 -3.28,-5.328 -5.63,-6.82 -2.36,-1.488 -4.96,-2.231 -7.81,-2.231 -2.81,0 -5.39,0.793 -7.77,2.364 -2.38,1.547 -4.25,3.879 -5.61,6.957 -1.36,3.09 -2.05,6.832 -2.05,11.222 0,4.149 0.64,7.797 1.93,10.95 1.28,3.148 3.1,5.558 5.43,7.238 2.33,1.68 4.99,2.531 7.95,2.531 2.85,0 5.47,-0.828 7.87,-2.461 2.39,-1.648 4.29,-4.019 5.69,-7.117 1.41,-3.121 2.11,-6.832 2.11,-11.141 0,-4.582 -0.7,-8.421 -2.11,-11.492 z m 10.66,68.41 c -2.46,0 -4.35,-0.847 -5.67,-2.558 -1.33,-1.692 -1.99,-4.211 -1.99,-7.531 v -23.918 c -3.05,3.32 -6.17,5.789 -9.37,7.386 -3.21,1.602 -7.15,2.403 -11.82,2.403 -8.07,0 -14.58,-2.832 -19.53,-8.481 -4.94,-5.66 -7.42,-13.558 -7.42,-23.691 0,-4.778 0.63,-9.231 1.88,-13.348 1.24,-4.121 3.07,-7.699 5.49,-10.742 2.41,-3.047 5.27,-5.399 8.57,-7.039 3.3,-1.641 6.9,-2.461 10.78,-2.461 2.93,0 5.63,0.402 8.09,1.223 2.48,0.808 4.77,2 6.89,3.57 2.12,1.547 4.27,3.59 6.44,6.066 v -1.597 c 0,-2.969 0.72,-5.25 2.17,-6.852 1.44,-1.609 3.27,-2.41 5.49,-2.41 2.26,0 4.09,0.781 5.52,2.32 1.43,1.543 2.14,3.852 2.14,6.942 v 71.461 c 0,3.058 -0.67,5.339 -1.99,6.91 -1.33,1.558 -3.22,2.347 -5.67,2.347"
         style="fill:#ffffff;fill-opacity:1;fill-rule:nonzero;stroke:none"
         id="path256" /><path
         d="m 1842.97,253.789 c 0.56,5.461 2.13,9.59 4.72,12.383 2.59,2.797 5.9,4.18 9.94,4.18 4.24,0 7.64,-1.372 10.24,-4.122 2.59,-2.75 4.09,-6.89 4.48,-12.441 z m 41.55,-7.387 c 2.33,1.219 3.5,3.848 3.5,7.93 0,4.379 -1.14,8.707 -3.39,12.938 -2.25,4.23 -5.64,7.691 -10.18,10.351 -4.53,2.68 -9.96,4 -16.28,4 -4.87,0 -9.3,-0.769 -13.3,-2.332 -4,-1.57 -7.37,-3.809 -10.09,-6.738 -2.73,-2.93 -4.81,-6.442 -6.23,-10.539 -1.43,-4.09 -2.14,-8.532 -2.14,-13.321 0,-10.171 2.89,-18.222 8.67,-24.152 5.77,-5.93 13.87,-8.91 24.27,-8.91 4.55,0 8.58,0.59 12.07,1.781 3.52,1.199 6.41,2.692 8.73,4.481 2.32,1.8 4.04,3.679 5.2,5.64 1.14,1.969 1.72,3.668 1.72,5.141 0,1.66 -0.52,2.937 -1.55,3.859 -1.03,0.899 -2.37,1.36 -4.03,1.36 -1.54,0 -2.73,-0.352 -3.56,-1.059 -2.03,-1.902 -3.66,-3.402 -4.93,-4.523 -1.26,-1.11 -2.65,-2.149 -4.15,-3.118 -1.51,-0.972 -3.05,-1.671 -4.67,-2.14 -1.59,-0.449 -3.36,-0.672 -5.3,-0.672 -2.89,0 -5.53,0.703 -7.93,2.133 -2.39,1.418 -4.32,3.539 -5.76,6.347 -1.44,2.813 -2.18,6.051 -2.22,9.731 h 31.69 c 4.24,0 7.53,0.609 9.86,1.812"
         style="fill:#ffffff;fill-opacity:1;fill-rule:nonzero;stroke:none"
         id="path258" /><path
         d="m 1938.79,250.77 c -3.2,1.699 -7.3,3.16 -12.31,4.39 -4.25,1.031 -7.56,1.91 -9.97,2.621 -2.43,0.699 -4.34,1.598 -5.77,2.688 -1.42,1.09 -2.13,2.48 -2.13,4.191 0,1.86 0.96,3.41 2.9,4.649 1.94,1.261 4.37,1.871 7.3,1.871 2.86,0 5.11,-0.469 6.78,-1.418 1.66,-0.953 3.1,-2.223 4.32,-3.801 1.51,-1.902 2.84,-3.32 4.01,-4.27 1.16,-0.949 2.58,-1.429 4.24,-1.429 2.3,0 4.07,0.597 5.32,1.777 1.24,1.191 1.86,2.723 1.86,4.57 0,1.711 -0.58,3.45 -1.75,5.231 -1.16,1.781 -2.86,3.398 -5.1,4.859 -2.23,1.461 -5.03,2.641 -8.38,3.5 -3.33,0.883 -7.1,1.313 -11.3,1.313 -5.34,0 -9.9,-0.852 -13.67,-2.582 -3.78,-1.719 -6.64,-4.032 -8.58,-6.91 -1.94,-2.891 -2.91,-5.961 -2.91,-9.2 0,-3.64 1.05,-6.711 3.14,-9.211 2.1,-2.488 4.9,-4.5 8.4,-6.007 3.5,-1.532 8.04,-2.993 13.62,-4.36 4.95,-1.203 8.5,-2.441 10.66,-3.75 2.16,-1.312 3.23,-3.383 3.23,-6.222 0,-1.868 -1.04,-3.52 -3.11,-4.969 -2.08,-1.442 -4.74,-2.16 -7.98,-2.16 -4.01,0 -7.15,0.711 -9.47,2.129 -2.32,1.429 -4.31,3.582 -5.97,6.48 -0.83,1.488 -1.7,2.66 -2.61,3.5 -0.91,0.82 -2.21,1.242 -3.91,1.242 -1.94,0 -3.55,-0.64 -4.81,-1.902 -1.27,-1.258 -1.9,-2.781 -1.9,-4.57 0,-2.688 0.99,-5.368 2.96,-8.04 1.98,-2.671 5.05,-4.898 9.21,-6.671 4.15,-1.789 9.14,-2.68 14.95,-2.68 6.09,0 11.27,0.82 15.52,2.461 4.25,1.64 7.47,4.058 9.64,7.25 2.19,3.18 3.27,7.012 3.27,11.492 0,2.957 -0.82,5.598 -2.46,7.91 -1.65,2.317 -4.07,4.328 -7.24,6.028"
         style="fill:#ffffff;fill-opacity:1;fill-rule:nonzero;stroke:none"
         id="path260" /><path
         d="m 1964.86,281.512 c -2.37,0 -4.3,-0.813 -5.78,-2.43 -1.49,-1.621 -2.23,-4.043 -2.23,-7.242 v -46.348 c 0,-3.172 0.74,-5.601 2.23,-7.312 1.48,-1.7 3.41,-2.551 5.78,-2.551 2.38,0 4.33,0.832 5.88,2.492 1.54,1.66 2.32,4.121 2.32,7.371 v 46.817 c 0,2.89 -0.78,5.152 -2.32,6.773 -1.55,1.617 -3.5,2.43 -5.88,2.43"
         style="fill:#ffffff;fill-opacity:1;fill-rule:nonzero;stroke:none"
         id="path262" /><path
         d="m 1965.04,304.898 c -2.17,0 -4.08,-0.726 -5.73,-2.226 -1.64,-1.492 -2.46,-3.371 -2.46,-5.672 0,-2.539 0.8,-4.5 2.41,-5.871 1.6,-1.387 3.53,-2.09 5.78,-2.09 2.18,0 4.06,0.711 5.64,2.121 1.58,1.399 2.38,3.352 2.38,5.84 0,2.582 -0.82,4.531 -2.44,5.879 -1.62,1.351 -3.48,2.019 -5.58,2.019"
         style="fill:#ffffff;fill-opacity:1;fill-rule:nonzero;stroke:none"
         id="path264" /><path
         d="m 2025.99,237.859 c -1.51,-2.91 -3.45,-5.078 -5.85,-6.527 -2.4,-1.441 -4.93,-2.172 -7.62,-2.172 -4.55,0 -8.26,1.68 -11.13,5.051 -2.87,3.359 -4.3,8.328 -4.3,14.891 0,6.488 1.39,11.507 4.18,15.019 2.79,3.52 6.49,5.289 11.13,5.289 4.75,0 8.57,-1.851 11.48,-5.531 2.91,-3.68 4.37,-8.828 4.37,-15.43 0,-4.148 -0.76,-7.679 -2.26,-10.59 z m 10.27,43.653 c -2.17,0 -3.96,-0.77 -5.35,-2.313 -1.38,-1.547 -2.07,-3.719 -2.07,-6.527 v -2.203 c -2.89,3.761 -6.02,6.523 -9.38,8.293 -3.36,1.75 -7.34,2.629 -11.93,2.629 -3.84,0 -7.36,-0.68 -10.56,-2.039 -3.21,-1.372 -6.04,-3.403 -8.49,-6.09 -2.45,-2.68 -4.34,-5.992 -5.67,-9.91 -1.33,-3.911 -1.99,-8.313 -1.99,-13.18 0,-6.531 1.09,-12.281 3.27,-17.274 2.17,-4.976 5.29,-8.859 9.34,-11.628 4.07,-2.77 8.8,-4.149 14.22,-4.149 4.5,0 8.4,0.899 11.66,2.719 3.27,1.82 6.14,4.48 8.64,7.969 -0.08,-5.309 -0.2,-9.161 -0.36,-11.547 -0.16,-2.403 -0.7,-4.653 -1.63,-6.742 -0.93,-2.098 -2.55,-3.731 -4.87,-4.899 -2.31,-1.172 -5.57,-1.75 -9.77,-1.75 -2.05,0 -3.87,0.199 -5.45,0.559 -1.59,0.379 -2.94,0.961 -4.07,1.722 -1.12,0.778 -2.16,1.7 -3.08,2.789 -0.94,1.09 -1.83,2.18 -2.7,3.239 -1.78,2.101 -3.86,3.152 -6.24,3.152 -1.89,0 -3.52,-0.633 -4.86,-1.883 -1.35,-1.238 -2.02,-2.847 -2.02,-4.82 0,-2.617 1.19,-5.168 3.56,-7.641 2.38,-2.468 5.76,-4.476 10.15,-6.047 4.39,-1.562 9.38,-2.339 14.96,-2.339 6.09,0 11.19,0.609 15.28,1.839 4.09,1.219 7.41,3.098 9.94,5.629 2.53,2.539 4.37,5.739 5.52,9.61 1.15,3.89 1.72,8.511 1.72,13.902 v 47.059 c 0,3.839 -0.51,6.781 -1.55,8.82 -1.02,2.031 -3.1,3.051 -6.22,3.051"
         style="fill:#ffffff;fill-opacity:1;fill-rule:nonzero;stroke:none"
         id="path266" /><path
         d="m 2109.78,270.832 c -1.65,3.398 -4.17,6.027 -7.53,7.887 -3.37,1.863 -7.18,2.793 -11.46,2.793 -4.4,0 -8.28,-0.871 -11.66,-2.641 -3.38,-1.762 -6.5,-4.519 -9.35,-8.281 v 1.961 c 0,1.929 -0.34,3.578 -1.03,4.929 -0.7,1.34 -1.62,2.34 -2.76,3.02 -1.15,0.68 -2.44,1.012 -3.87,1.012 -2.33,0 -4.17,-0.762 -5.52,-2.282 -1.34,-1.519 -2.01,-3.832 -2.01,-6.921 v -46.817 c 0,-3.172 0.76,-5.601 2.26,-7.312 1.5,-1.7 3.41,-2.551 5.76,-2.551 2.41,0 4.38,0.82 5.9,2.461 1.52,1.64 2.28,4.121 2.28,7.402 v 20.289 c 0,6.61 0.4,11.117 1.19,13.528 1.11,3.011 2.85,5.371 5.22,7.101 2.37,1.731 5.01,2.578 7.89,2.578 4.44,0 7.39,-1.418 8.88,-4.246 1.48,-2.82 2.23,-6.91 2.23,-12.254 v -26.996 c 0,-3.172 0.74,-5.601 2.25,-7.312 1.5,-1.7 3.46,-2.551 5.87,-2.551 2.38,0 4.31,0.832 5.79,2.492 1.49,1.66 2.23,4.121 2.23,7.371 v 30.149 c 0,3.558 -0.16,6.48 -0.48,8.781 -0.31,2.289 -1.01,4.43 -2.08,6.41"
         style="fill:#ffffff;fill-opacity:1;fill-rule:nonzero;stroke:none"
         id="path268" /><path
         d="m 2136.67,253.789 c 0.55,5.461 2.12,9.59 4.71,12.383 2.59,2.797 5.9,4.18 9.94,4.18 4.24,0 7.65,-1.372 10.24,-4.122 2.59,-2.75 4.09,-6.89 4.48,-12.441 z m 41.54,-7.387 c 2.34,1.219 3.5,3.848 3.5,7.93 0,4.379 -1.13,8.707 -3.38,12.938 -2.25,4.23 -5.65,7.691 -10.19,10.351 -4.53,2.68 -9.95,4 -16.28,4 -4.87,0 -9.3,-0.769 -13.3,-2.332 -3.99,-1.57 -7.36,-3.809 -10.08,-6.738 -2.74,-2.93 -4.81,-6.442 -6.24,-10.539 -1.42,-4.09 -2.14,-8.532 -2.14,-13.321 0,-10.171 2.9,-18.222 8.67,-24.152 5.78,-5.93 13.87,-8.91 24.27,-8.91 4.56,0 8.58,0.59 12.09,1.781 3.5,1.199 6.4,2.692 8.71,4.481 2.32,1.8 4.05,3.679 5.2,5.64 1.15,1.969 1.72,3.668 1.72,5.141 0,1.66 -0.51,2.937 -1.54,3.859 -1.03,0.899 -2.38,1.36 -4.04,1.36 -1.54,0 -2.73,-0.352 -3.56,-1.059 -2.01,-1.902 -3.66,-3.402 -4.92,-4.523 -1.27,-1.11 -2.66,-2.149 -4.15,-3.118 -1.51,-0.972 -3.07,-1.671 -4.66,-2.14 -1.61,-0.449 -3.38,-0.672 -5.32,-0.672 -2.89,0 -5.53,0.703 -7.92,2.133 -2.39,1.418 -4.31,3.539 -5.76,6.347 -1.44,2.813 -2.18,6.051 -2.22,9.731 h 31.69 c 4.24,0 7.52,0.609 9.85,1.812"
         style="fill:#ffffff;fill-opacity:1;fill-rule:nonzero;stroke:none"
         id="path270" /><path
         d="m 2231.41,237.199 c -1.4,-3.058 -3.28,-5.328 -5.64,-6.82 -2.35,-1.488 -4.95,-2.231 -7.81,-2.231 -2.81,0 -5.39,0.793 -7.76,2.364 -2.38,1.547 -4.25,3.879 -5.61,6.957 -1.37,3.09 -2.06,6.832 -2.06,11.222 0,4.149 0.65,7.797 1.93,10.95 1.29,3.148 3.1,5.558 5.43,7.238 2.34,1.68 5,2.531 7.96,2.531 2.85,0 5.46,-0.828 7.86,-2.461 2.39,-1.648 4.3,-4.019 5.7,-7.117 1.4,-3.121 2.11,-6.832 2.11,-11.141 0,-4.582 -0.71,-8.421 -2.11,-11.492 z m 10.66,68.41 c -2.46,0 -4.35,-0.847 -5.67,-2.558 -1.33,-1.692 -2,-4.211 -2,-7.531 v -23.918 c -3.04,3.32 -6.16,5.789 -9.37,7.386 -3.2,1.602 -7.14,2.403 -11.81,2.403 -8.07,0 -14.58,-2.832 -19.53,-8.481 -4.95,-5.66 -7.41,-13.558 -7.41,-23.691 0,-4.778 0.62,-9.231 1.87,-13.348 1.24,-4.121 3.07,-7.699 5.49,-10.742 2.41,-3.047 5.27,-5.399 8.57,-7.039 3.3,-1.641 6.89,-2.461 10.77,-2.461 2.93,0 5.63,0.402 8.11,1.223 2.47,0.808 4.76,2 6.88,3.57 2.11,1.547 4.26,3.59 6.43,6.066 v -1.597 c 0,-2.969 0.73,-5.25 2.17,-6.852 1.45,-1.609 3.28,-2.41 5.5,-2.41 2.25,0 4.09,0.781 5.51,2.32 1.43,1.543 2.14,3.852 2.14,6.942 v 71.461 c 0,3.058 -0.66,5.339 -1.99,6.91 -1.33,1.558 -3.21,2.347 -5.66,2.347"
         style="fill:#ffffff;fill-opacity:1;fill-rule:nonzero;stroke:none"
         id="path272" /><path
         d="m 2327.96,233.461 c -2.94,-3.539 -6.46,-5.313 -10.53,-5.313 -4.79,0 -8.66,1.743 -11.61,5.204 -2.94,3.457 -4.42,8.41 -4.42,14.867 0,4.39 0.69,8.183 2.08,11.363 1.38,3.188 3.28,5.617 5.7,7.297 2.4,1.68 5.16,2.531 8.25,2.531 3,0 5.64,-0.851 7.9,-2.531 2.25,-1.68 3.99,-4.059 5.21,-7.149 1.23,-3.082 1.84,-6.769 1.84,-11.039 0,-6.609 -1.48,-11.679 -4.42,-15.23 z m 7.9,44.109 c -4.07,2.551 -8.78,3.821 -14.16,3.821 -4.67,0 -8.59,-0.84 -11.75,-2.52 -3.17,-1.68 -6.28,-4.109 -9.32,-7.269 v 24.75 c 0,2.968 -0.68,5.25 -2.02,6.859 -1.34,1.598 -3.26,2.398 -5.75,2.398 -2.38,0 -4.23,-0.847 -5.56,-2.519 -1.32,-1.68 -1.98,-4.168 -1.98,-7.449 v -70.75 c 0,-3.039 0.68,-5.352 2.05,-6.922 1.36,-1.559 3.19,-2.34 5.49,-2.34 2.25,0 4.11,0.781 5.57,2.34 1.47,1.57 2.2,3.883 2.2,6.922 v 1.597 c 1.78,-2.047 3.22,-3.597 4.3,-4.629 1.09,-1.027 2.41,-2.027 3.95,-2.988 1.54,-0.98 3.41,-1.75 5.61,-2.351 2.19,-0.59 4.54,-0.891 7.03,-0.891 4.07,0 7.81,0.82 11.19,2.461 3.38,1.64 6.26,3.969 8.64,6.98 2.37,3.012 4.18,6.559 5.43,10.649 1.25,4.101 1.87,8.59 1.87,13.5 0,6.652 -1.12,12.41 -3.36,17.25 -2.24,4.84 -5.38,8.543 -9.43,11.101"
         style="fill:#ffffff;fill-opacity:1;fill-rule:nonzero;stroke:none"
         id="path274" /><path
         d="m 2405.29,280.531 c -1.12,0.66 -2.29,0.981 -3.53,0.981 -1.7,0 -3.02,-0.301 -3.95,-0.891 -0.93,-0.582 -1.81,-1.742 -2.64,-3.441 -0.83,-1.7 -1.76,-4.059 -2.79,-7.059 l -12.99,-37.101 -13.72,39.89 c -0.9,2.77 -1.95,4.891 -3.14,6.379 -1.19,1.481 -2.95,2.223 -5.28,2.223 -1.35,0 -2.64,-0.352 -3.89,-1.071 -1.24,-0.711 -2.22,-1.66 -2.94,-2.851 -0.71,-1.18 -1.07,-2.469 -1.07,-3.852 0,-1.308 0.62,-3.406 1.84,-6.289 l 19.95,-50.207 -1.49,-3.633 c -1.11,-2.648 -2.08,-4.648 -2.94,-6.007 -0.85,-1.383 -1.8,-2.34 -2.87,-2.883 -1.07,-0.571 -2.54,-0.84 -4.4,-0.84 -0.75,0 -1.64,0.121 -2.66,0.351 l -2.57,0.372 c -2.2,0 -3.88,-0.512 -5,-1.52 -1.13,-1.012 -1.7,-2.453 -1.7,-4.301 0,-2.73 1.19,-4.609 3.57,-5.652 2.37,-1.02 5.93,-1.527 10.68,-1.527 4.87,0 8.73,0.73 11.6,2.218 2.87,1.481 5.17,3.621 6.91,6.391 1.75,2.769 3.53,6.578 5.35,11.437 l 21.13,55.321 c 0.51,1.422 0.95,2.832 1.3,4.211 0.37,1.39 0.61,2.461 0.78,3.211 0,1.23 -0.32,2.39 -0.93,3.5 -0.61,1.109 -1.48,1.988 -2.61,2.64"
         style="fill:#ffffff;fill-opacity:1;fill-rule:nonzero;stroke:none"
         id="path276" /><path
         d="m 2629.3,305.648 c -5.34,0 -9.54,-0.687 -12.61,-2.039 -3.06,-1.367 -5.26,-3.539 -6.54,-6.519 -1.29,-3.008 -1.91,-7.031 -1.91,-12.11 v -4.871 h -3.86 c -5.44,0 -8.15,-1.918 -8.15,-5.82 0,-1.738 0.66,-3.16 1.96,-4.238 1.32,-1.11 3.16,-1.629 5.59,-1.629 h 4.46 V 225.48 c 0,-3.191 0.75,-5.621 2.27,-7.3 1.55,-1.7 3.44,-2.532 5.74,-2.532 2.43,0 4.38,0.832 5.89,2.532 1.55,1.679 2.3,4.109 2.3,7.3 v 42.942 h 3.96 c 2.9,0 5.17,0.348 6.8,1.07 1.66,0.707 2.46,2.406 2.46,5.02 0,3.738 -3.07,5.597 -9.26,5.597 h -3.96 v 3.86 c 0,3.222 0.43,5.679 1.23,7.402 0.86,1.711 2.73,2.59 5.65,2.59 1.07,0 2.41,-0.141 3.9,-0.34 1.55,-0.262 2.67,-0.379 3.29,-0.379 1.34,0 2.52,0.547 3.49,1.598 1,1.082 1.5,2.359 1.5,3.84 0,4.672 -4.71,6.968 -14.2,6.968"
         style="fill:#ffffff;fill-opacity:1;fill-rule:nonzero;stroke:none"
         id="path278" /><path
         d="m 2680.89,278.988 c -3.2,1.711 -6.47,2.551 -9.9,2.551 -3.42,0 -6.11,-0.84 -8.19,-2.551 -2.02,-1.707 -4,-4.207 -5.92,-7.539 -0.14,3.332 -0.8,5.832 -1.98,7.539 -1.19,1.711 -3.13,2.551 -5.84,2.551 -5.25,0 -7.88,-3.641 -7.88,-10.93 V 225.48 c 0,-3.23 0.78,-5.691 2.26,-7.332 1.49,-1.687 3.4,-2.5 5.79,-2.5 2.36,0 4.32,0.801 5.85,2.461 1.51,1.633 2.34,4.102 2.34,7.371 v 13.551 c 0,4.86 0.14,8.989 0.45,12.391 0.33,3.359 0.89,6.297 1.7,8.769 0.84,2.43 2.01,4.258 3.53,5.539 1.49,1.219 3.44,1.86 5.82,1.86 1.71,0 3.73,-0.371 6.02,-1.078 2.25,-0.731 3.7,-1.133 4.32,-1.133 1.58,0 3.04,0.652 4.41,1.953 1.35,1.258 2.04,2.918 2.04,4.879 0,2.801 -1.6,5.07 -4.82,6.777"
         style="fill:#ffffff;fill-opacity:1;fill-rule:nonzero;stroke:none"
         id="path280" /><path
         d="m 2700.21,253.82 c 0.54,5.461 2.13,9.571 4.71,12.36 2.6,2.808 5.92,4.179 9.95,4.179 4.26,0 7.64,-1.359 10.25,-4.129 2.6,-2.718 4.07,-6.878 4.46,-12.41 z m 41.55,-7.398 c 2.33,1.219 3.51,3.859 3.51,7.91 0,4.406 -1.13,8.707 -3.39,12.957 -2.22,4.231 -5.66,7.691 -10.18,10.34 -4.53,2.691 -9.97,4.031 -16.29,4.031 -4.88,0 -9.31,-0.781 -13.29,-2.328 -4.02,-1.562 -7.36,-3.801 -10.08,-6.742 -2.76,-2.949 -4.84,-6.442 -6.24,-10.551 -1.44,-4.098 -2.17,-8.547 -2.17,-13.328 0,-10.172 2.92,-18.231 8.69,-24.18 5.77,-5.929 13.85,-8.883 24.29,-8.883 4.53,0 8.57,0.59 12.07,1.782 3.49,1.172 6.39,2.679 8.74,4.461 2.32,1.82 4.04,3.679 5.22,5.668 1.11,1.941 1.67,3.652 1.67,5.121 0,1.66 -0.49,2.929 -1.52,3.851 -1.05,0.918 -2.38,1.391 -4.06,1.391 -1.52,0 -2.71,-0.383 -3.55,-1.09 -2.02,-1.891 -3.68,-3.402 -4.94,-4.492 -1.27,-1.129 -2.64,-2.168 -4.15,-3.121 -1.5,-0.969 -3.07,-1.699 -4.65,-2.129 -1.61,-0.488 -3.37,-0.688 -5.31,-0.688 -2.91,0 -5.53,0.688 -7.93,2.11 -2.4,1.449 -4.31,3.57 -5.78,6.359 -1.44,2.801 -2.16,6.059 -2.21,9.738 h 31.7 c 4.24,0 7.52,0.602 9.85,1.813"
         style="fill:#ffffff;fill-opacity:1;fill-rule:nonzero;stroke:none"
         id="path282" /><path
         d="m 2899,281.539 c -2.38,0 -4.28,-0.789 -5.8,-2.437 -1.45,-1.633 -2.22,-4.032 -2.22,-7.223 v -46.41 c 0,-3.129 0.77,-5.547 2.22,-7.289 1.52,-1.7 3.42,-2.532 5.8,-2.532 2.38,0 4.32,0.813 5.88,2.5 1.54,1.641 2.32,4.102 2.32,7.321 v 46.883 c 0,2.867 -0.78,5.117 -2.32,6.75 -1.56,1.648 -3.5,2.437 -5.88,2.437"
         style="fill:#ffffff;fill-opacity:1;fill-rule:nonzero;stroke:none"
         id="path288" /><path
         d="m 2972.58,231.25 -16.62,26.141 8.61,7.879 c 4.38,3.96 6.59,7.14 6.59,9.511 0,1.918 -0.69,3.551 -2.01,4.84 -1.38,1.277 -3.05,1.918 -5.09,1.918 -1.69,0 -3.13,-0.43 -4.31,-1.301 -1.21,-0.859 -2.9,-2.508 -5.17,-4.859 l -18.22,-19.141 v 39.332 c 0,3.301 -0.74,5.821 -2.21,7.512 -1.48,1.707 -3.43,2.566 -5.93,2.566 -2.55,0 -4.57,-0.918 -5.96,-2.828 -1.35,-1.89 -2.07,-4.621 -2.07,-8.199 V 225.48 c 0,-3.23 0.74,-5.691 2.15,-7.332 1.41,-1.687 3.39,-2.5 5.88,-2.5 2.13,0 4.06,0.832 5.66,2.532 1.65,1.679 2.48,4.07 2.48,7.179 v 12.911 l 8.8,8.3 14.27,-23.531 c 1.82,-2.777 3.3,-4.707 4.36,-5.797 1.06,-1.094 2.61,-1.594 4.58,-1.594 2.27,0 4.13,0.731 5.54,2.204 1.41,1.519 2.13,3.519 2.13,6.097 0,0.891 -0.29,1.903 -0.81,2.891 -0.53,1.012 -1.44,2.449 -2.65,4.41"
         style="fill:#ffffff;fill-opacity:1;fill-rule:nonzero;stroke:none"
         id="path292" /><path
         d="m 2994.5,233.512 c -2.5,0 -4.59,-0.86 -6.3,-2.614 -1.7,-1.726 -2.56,-3.808 -2.56,-6.218 0,-2.871 0.9,-5.098 2.68,-6.66 1.78,-1.59 3.88,-2.372 6.33,-2.372 2.37,0 4.44,0.782 6.24,2.411 1.74,1.57 2.63,3.793 2.63,6.621 0,2.429 -0.89,4.539 -2.63,6.261 -1.8,1.711 -3.91,2.571 -6.39,2.571"
         style="fill:#ffffff;fill-opacity:1;fill-rule:nonzero;stroke:none"
         id="path294" /><path
         d="m 2452.73,252.5 -0.01,0.109 0.01,-0.109"
         style="fill:#ffffff;fill-opacity:1;fill-rule:nonzero;stroke:none"
         id="path302" /><path
         d="m 2453.55,247.332 h 0.01 c -0.3,1.469 -0.55,2.938 -0.73,4.379 0.18,-1.461 0.43,-2.93 0.72,-4.379"
         style="fill:#ffffff;fill-opacity:1;fill-rule:nonzero;stroke:none"
         id="path304" /><path
         d="m 2458.91,232.289 -0.1,0.199 0.1,-0.199"
         style="fill:#ffffff;fill-opacity:1;fill-rule:nonzero;stroke:none"
         id="path306" /><path
         d="m 2458.4,233.289 -0.41,0.832 0.41,-0.832"
         style="fill:#ffffff;fill-opacity:1;fill-rule:nonzero;stroke:none"
         id="path308" /><path
         d="m 2455.06,241.531 c 0.79,-2.5 1.75,-4.922 2.85,-7.242 -1.13,2.371 -2.06,4.793 -2.84,7.242 h -0.01"
         style="fill:#ffffff;fill-opacity:1;fill-rule:nonzero;stroke:none"
         id="path310" /><path
         d="m 2507.36,320.129 -0.76,2.59 c 2.99,0.633 5.24,3.293 5.24,6.472 0,3.629 -2.97,6.59 -6.6,6.59 -3.65,0 -6.61,-2.961 -6.61,-6.59 0,-3.179 2.25,-5.839 5.23,-6.472 l 0.84,-2.887 c -10.22,-1.402 -18.35,-5.391 -18.35,-5.391 l 1.45,-4.402 c 6.17,2.051 11.53,3.301 16.39,3.832 4.76,0.5 8.34,0.719 11.26,0.719 3.14,0 5.44,-0.25 8.09,-0.68 l 0.75,4.75 c 0,0 -7.31,2.262 -16.93,1.469"
         style="fill:#ffffff;fill-opacity:1;fill-rule:nonzero;stroke:none"
         id="path312" /><path
         d="m 2454.53,295.059 c -0.17,-0.239 -4.97,-4.649 -8.76,-12.797 l -0.56,0.75 c -1.13,1.238 -2.72,1.867 -4.73,1.84 h -0.1 c -1.24,0 -2.1,0.41 -2.66,0.918 0.55,0.699 0.89,1.601 0.89,2.582 0,2.308 -1.87,4.179 -4.19,4.179 -2.3,0 -4.17,-1.871 -4.17,-4.179 0,-2.313 1.87,-4.18 4.17,-4.18 l 1.05,0.129 c 1.03,-1.141 2.66,-2.141 5.04,-2.09 1.24,0.008 2.14,-0.313 2.74,-0.973 l 1,-2.668 -0.02,-0.031 c -2.72,-7.437 -1.95,-16.687 -1.95,-16.687 l 6.61,-0.25 c 0.14,3.359 0.62,9.25 2.33,13.929 3.28,9.059 7.41,14.719 7.57,14.949 l 0.04,0.051 0.71,0.891 -1.96,1.418 -3.05,2.219"
         style="fill:#ffffff;fill-opacity:1;fill-rule:nonzero;stroke:none"
         id="path314" /><path
         d="m 2572.94,309.07 c -2.31,0 -4.19,-1.871 -4.19,-4.172 l 0.15,-1.039 c -1.15,-1.039 -2.14,-2.668 -2.1,-5.058 0.01,-1.242 -0.3,-2.129 -0.97,-2.731 l -1.85,-0.879 c -4.92,6.891 -10.97,11.09 -10.97,11.09 l -4.74,-5.082 c 3.58,-3.258 7.24,-7.34 10.8,-12.437 2.46,-3.524 4.99,-8.063 7.1,-12.59 l 6.4,3.039 c 0,0 -2.92,7.219 -7.04,13.699 l 2.07,1.199 c 1.25,1.129 1.87,2.731 1.83,4.731 -0.01,1.301 0.42,2.18 0.93,2.762 0.71,-0.543 1.6,-0.891 2.58,-0.891 2.31,0 4.18,1.879 4.18,4.187 0,2.301 -1.87,4.172 -4.18,4.172"
         style="fill:#ffffff;fill-opacity:1;fill-rule:nonzero;stroke:none"
         id="path316" /><path
         d="m 2556.33,251.57 c -8.8,-4.289 -23.3,-9.961 -42.37,-12.621 -7.49,-1.039 -14.74,-1.418 -21.42,-1.418 -8.69,0 -16.38,0.641 -22.27,1.391 -6.72,0.848 -11.97,1.879 -15.2,2.609 0.78,-2.449 1.71,-4.871 2.84,-7.242 l 0.08,-0.168 0.41,-0.832 0.41,-0.801 0.1,-0.199 c 1.89,-3.57 4.17,-6.84 6.76,-9.68 8.99,-9.847 18.16,-11.398 18.24,-11.41 l 0.15,-0.019 0.13,-0.051 c 0.09,-0.027 8.22,-2.649 20.57,-2.649 12.16,0 24.09,2.45 35.45,7.29 8.43,4.3 16.39,10.851 20.34,16.679 3.05,4.52 5.26,9.34 6.56,14.34 0.69,2.66 1.24,6.922 0.92,11.402 -2.48,-1.671 -6.4,-4.043 -11.7,-6.621"
         style="fill:#ffffff;fill-opacity:1;fill-rule:nonzero;stroke:none"
         id="path318" /><text
         xml:space="preserve"
         id="text1145"
         style="font-size:75px;line-height:1.25;font-family:Kalam;-inkscape-font-specification:'Kalam, Normal';white-space:pre;shape-inside:url(#rect1147);" /><text
         xml:space="preserve"
         id="text1151"
         style="font-size:75px;line-height:1.25;font-family:Kalam;-inkscape-font-specification:'Kalam, Normal';white-space:pre;shape-inside:url(#rect1153);fill:#44aa00;" /></g><text
       xml:space="preserve"
       style="font-style:italic;font-variant:normal;font-weight:normal;font-stretch:normal;font-size:16.5px;line-height:1.25;font-family:Poppins;-inkscape-font-specification:'Poppins, Italic';font-variant-ligatures:normal;font-variant-caps:normal;font-variant-numeric:normal;font-variant-east-asian:normal;fill:#41348d;fill-opacity:1;stroke-width:0.75"
       x="240.17834"
       y="-372.55057"
       id="text1174"
       transform="scale(1,-1)"><tspan
         sodipodi:role="line"
         id="tspan1172"
         x="240.17834"
         y="-372.55057"
         style="font-style:italic;font-variant:normal;font-weight:normal;font-stretch:normal;font-size:16.5px;font-family:Poppins;-inkscape-font-specification:'Poppins, Italic';font-variant-ligatures:normal;font-variant-caps:normal;font-variant-numeric:normal;font-variant-east-asian:normal;fill:#41348d;fill-opacity:1;stroke-width:0.75">flexearn</tspan></text><rect
       style="opacity:0.993;fill:#f1f5ff;fill-opacity:1;stroke:#000000;stroke-width:0.751177;stroke-linecap:square;stroke-opacity:0"
       id="rect1182"
       width="147.81995"
       height="20.231375"
       x="161.43347"
       y="-38.540909"
       transform="scale(1,-1)" /></g><script
     id="mesh_polyfill"
     type="text/javascript">
!function(){const t=&quot;http://www.w3.org/2000/svg&quot;,e=&quot;http://www.w3.org/1999/xlink&quot;,s=&quot;http://www.w3.org/1999/xhtml&quot;,r=2;if(document.createElementNS(t,&quot;meshgradient&quot;).x)return;const n=(t,e,s,r)=&gt;{let n=new x(.5*(e.x+s.x),.5*(e.y+s.y)),o=new x(.5*(t.x+e.x),.5*(t.y+e.y)),i=new x(.5*(s.x+r.x),.5*(s.y+r.y)),a=new x(.5*(n.x+o.x),.5*(n.y+o.y)),h=new x(.5*(n.x+i.x),.5*(n.y+i.y)),l=new x(.5*(a.x+h.x),.5*(a.y+h.y));return[[t,o,a,l],[l,h,i,r]]},o=t=&gt;{let e=t[0].distSquared(t[1]),s=t[2].distSquared(t[3]),r=.25*t[0].distSquared(t[2]),n=.25*t[1].distSquared(t[3]),o=e&gt;s?e:s,i=r&gt;n?r:n;return 18*(o&gt;i?o:i)},i=(t,e)=&gt;Math.sqrt(t.distSquared(e)),a=(t,e)=&gt;t.scale(2/3).add(e.scale(1/3)),h=t=&gt;{let e,s,r,n,o,i,a,h=new g;return t.match(/(\w+\(\s*[^)]+\))+/g).forEach(t=&gt;{let l=t.match(/[\w.-]+/g),d=l.shift();switch(d){case&quot;translate&quot;:2===l.length?e=new g(1,0,0,1,l[0],l[1]):(console.error(&quot;mesh.js: translate does not have 2 arguments!&quot;),e=new g(1,0,0,1,0,0)),h=h.append(e);break;case&quot;scale&quot;:1===l.length?s=new g(l[0],0,0,l[0],0,0):2===l.length?s=new g(l[0],0,0,l[1],0,0):(console.error(&quot;mesh.js: scale does not have 1 or 2 arguments!&quot;),s=new g(1,0,0,1,0,0)),h=h.append(s);break;case&quot;rotate&quot;:if(3===l.length&amp;&amp;(e=new g(1,0,0,1,l[1],l[2]),h=h.append(e)),l[0]){r=l[0]*Math.PI/180;let t=Math.cos(r),e=Math.sin(r);Math.abs(t)&lt;1e-16&amp;&amp;(t=0),Math.abs(e)&lt;1e-16&amp;&amp;(e=0),a=new g(t,e,-e,t,0,0),h=h.append(a)}else console.error(&quot;math.js: No argument to rotate transform!&quot;);3===l.length&amp;&amp;(e=new g(1,0,0,1,-l[1],-l[2]),h=h.append(e));break;case&quot;skewX&quot;:l[0]?(r=l[0]*Math.PI/180,n=Math.tan(r),o=new g(1,0,n,1,0,0),h=h.append(o)):console.error(&quot;math.js: No argument to skewX transform!&quot;);break;case&quot;skewY&quot;:l[0]?(r=l[0]*Math.PI/180,n=Math.tan(r),i=new g(1,n,0,1,0,0),h=h.append(i)):console.error(&quot;math.js: No argument to skewY transform!&quot;);break;case&quot;matrix&quot;:6===l.length?h=h.append(new g(...l)):console.error(&quot;math.js: Incorrect number of arguments for matrix!&quot;);break;default:console.error(&quot;mesh.js: Unhandled transform type: &quot;+d)}}),h},l=t=&gt;{let e=[],s=t.split(/[ ,]+/);for(let t=0,r=s.length-1;t&lt;r;t+=2)e.push(new x(parseFloat(s[t]),parseFloat(s[t+1])));return e},d=(t,e)=&gt;{for(let s in e)t.setAttribute(s,e[s])},c=(t,e,s,r,n)=&gt;{let o,i,a=[0,0,0,0];for(let h=0;h&lt;3;++h)e[h]&lt;t[h]&amp;&amp;e[h]&lt;s[h]||t[h]&lt;e[h]&amp;&amp;s[h]&lt;e[h]?a[h]=0:(a[h]=.5*((e[h]-t[h])/r+(s[h]-e[h])/n),o=Math.abs(3*(e[h]-t[h])/r),i=Math.abs(3*(s[h]-e[h])/n),a[h]&gt;o?a[h]=o:a[h]&gt;i&amp;&amp;(a[h]=i));return a},u=[[1,0,0,0,0,0,0,0,0,0,0,0,0,0,0,0],[0,0,0,0,1,0,0,0,0,0,0,0,0,0,0,0],[-3,3,0,0,-2,-1,0,0,0,0,0,0,0,0,0,0],[2,-2,0,0,1,1,0,0,0,0,0,0,0,0,0,0],[0,0,0,0,0,0,0,0,1,0,0,0,0,0,0,0],[0,0,0,0,0,0,0,0,0,0,0,0,1,0,0,0],[0,0,0,0,0,0,0,0,-3,3,0,0,-2,-1,0,0],[0,0,0,0,0,0,0,0,2,-2,0,0,1,1,0,0],[-3,0,3,0,0,0,0,0,-2,0,-1,0,0,0,0,0],[0,0,0,0,-3,0,3,0,0,0,0,0,-2,0,-1,0],[9,-9,-9,9,6,3,-6,-3,6,-6,3,-3,4,2,2,1],[-6,6,6,-6,-3,-3,3,3,-4,4,-2,2,-2,-2,-1,-1],[2,0,-2,0,0,0,0,0,1,0,1,0,0,0,0,0],[0,0,0,0,2,0,-2,0,0,0,0,0,1,0,1,0],[-6,6,6,-6,-4,-2,4,2,-3,3,-3,3,-2,-1,-2,-1],[4,-4,-4,4,2,2,-2,-2,2,-2,2,-2,1,1,1,1]],f=t=&gt;{let e=[];for(let s=0;s&lt;16;++s){e[s]=0;for(let r=0;r&lt;16;++r)e[s]+=u[s][r]*t[r]}return e},p=(t,e,s)=&gt;{const r=e*e,n=s*s,o=e*e*e,i=s*s*s;return t[0]+t[1]*e+t[2]*r+t[3]*o+t[4]*s+t[5]*s*e+t[6]*s*r+t[7]*s*o+t[8]*n+t[9]*n*e+t[10]*n*r+t[11]*n*o+t[12]*i+t[13]*i*e+t[14]*i*r+t[15]*i*o},y=t=&gt;{let e=[],s=[],r=[];for(let s=0;s&lt;4;++s)e[s]=[],e[s][0]=n(t[0][s],t[1][s],t[2][s],t[3][s]),e[s][1]=[],e[s][1].push(...n(...e[s][0][0])),e[s][1].push(...n(...e[s][0][1])),e[s][2]=[],e[s][2].push(...n(...e[s][1][0])),e[s][2].push(...n(...e[s][1][1])),e[s][2].push(...n(...e[s][1][2])),e[s][2].push(...n(...e[s][1][3]));for(let t=0;t&lt;8;++t){s[t]=[];for(let r=0;r&lt;4;++r)s[t][r]=[],s[t][r][0]=n(e[0][2][t][r],e[1][2][t][r],e[2][2][t][r],e[3][2][t][r]),s[t][r][1]=[],s[t][r][1].push(...n(...s[t][r][0][0])),s[t][r][1].push(...n(...s[t][r][0][1])),s[t][r][2]=[],s[t][r][2].push(...n(...s[t][r][1][0])),s[t][r][2].push(...n(...s[t][r][1][1])),s[t][r][2].push(...n(...s[t][r][1][2])),s[t][r][2].push(...n(...s[t][r][1][3]))}for(let t=0;t&lt;8;++t){r[t]=[];for(let e=0;e&lt;8;++e)r[t][e]=[],r[t][e][0]=s[t][0][2][e],r[t][e][1]=s[t][1][2][e],r[t][e][2]=s[t][2][2][e],r[t][e][3]=s[t][3][2][e]}return r};class x{constructor(t,e){this.x=t||0,this.y=e||0}toString(){return`(x=${this.x}, y=${this.y})`}clone(){return new x(this.x,this.y)}add(t){return new x(this.x+t.x,this.y+t.y)}scale(t){return void 0===t.x?new x(this.x*t,this.y*t):new x(this.x*t.x,this.y*t.y)}distSquared(t){let e=this.x-t.x,s=this.y-t.y;return e*e+s*s}transform(t){let e=this.x*t.a+this.y*t.c+t.e,s=this.x*t.b+this.y*t.d+t.f;return new x(e,s)}}class g{constructor(t,e,s,r,n,o){void 0===t?(this.a=1,this.b=0,this.c=0,this.d=1,this.e=0,this.f=0):(this.a=t,this.b=e,this.c=s,this.d=r,this.e=n,this.f=o)}toString(){return`affine: ${this.a} ${this.c} ${this.e} \n       ${this.b} ${this.d} ${this.f}`}append(t){t instanceof g||console.error(&quot;mesh.js: argument to Affine.append is not affine!&quot;);let e=this.a*t.a+this.c*t.b,s=this.b*t.a+this.d*t.b,r=this.a*t.c+this.c*t.d,n=this.b*t.c+this.d*t.d,o=this.a*t.e+this.c*t.f+this.e,i=this.b*t.e+this.d*t.f+this.f;return new g(e,s,r,n,o,i)}}class w{constructor(t,e){this.nodes=t,this.colors=e}paintCurve(t,e){if(o(this.nodes)&gt;r){const s=n(...this.nodes);let r=[[],[]],o=[[],[]];for(let t=0;t&lt;4;++t)r[0][t]=this.colors[0][t],r[1][t]=(this.colors[0][t]+this.colors[1][t])/2,o[0][t]=r[1][t],o[1][t]=this.colors[1][t];let i=new w(s[0],r),a=new w(s[1],o);i.paintCurve(t,e),a.paintCurve(t,e)}else{let s=Math.round(this.nodes[0].x);if(s&gt;=0&amp;&amp;s&lt;e){let r=4*(~~this.nodes[0].y*e+s);t[r]=Math.round(this.colors[0][0]),t[r+1]=Math.round(this.colors[0][1]),t[r+2]=Math.round(this.colors[0][2]),t[r+3]=Math.round(this.colors[0][3])}}}}class m{constructor(t,e){this.nodes=t,this.colors=e}split(){let t=[[],[],[],[]],e=[[],[],[],[]],s=[[[],[]],[[],[]]],r=[[[],[]],[[],[]]];for(let s=0;s&lt;4;++s){const r=n(this.nodes[0][s],this.nodes[1][s],this.nodes[2][s],this.nodes[3][s]);t[0][s]=r[0][0],t[1][s]=r[0][1],t[2][s]=r[0][2],t[3][s]=r[0][3],e[0][s]=r[1][0],e[1][s]=r[1][1],e[2][s]=r[1][2],e[3][s]=r[1][3]}for(let t=0;t&lt;4;++t)s[0][0][t]=this.colors[0][0][t],s[0][1][t]=this.colors[0][1][t],s[1][0][t]=(this.colors[0][0][t]+this.colors[1][0][t])/2,s[1][1][t]=(this.colors[0][1][t]+this.colors[1][1][t])/2,r[0][0][t]=s[1][0][t],r[0][1][t]=s[1][1][t],r[1][0][t]=this.colors[1][0][t],r[1][1][t]=this.colors[1][1][t];return[new m(t,s),new m(e,r)]}paint(t,e){let s,n=!1;for(let t=0;t&lt;4;++t)if((s=o([this.nodes[0][t],this.nodes[1][t],this.nodes[2][t],this.nodes[3][t]]))&gt;r){n=!0;break}if(n){let s=this.split();s[0].paint(t,e),s[1].paint(t,e)}else{new w([...this.nodes[0]],[...this.colors[0]]).paintCurve(t,e)}}}class b{constructor(t){this.readMesh(t),this.type=t.getAttribute(&quot;type&quot;)||&quot;bilinear&quot;}readMesh(t){let e=[[]],s=[[]],r=Number(t.getAttribute(&quot;x&quot;)),n=Number(t.getAttribute(&quot;y&quot;));e[0][0]=new x(r,n);let o=t.children;for(let t=0,r=o.length;t&lt;r;++t){e[3*t+1]=[],e[3*t+2]=[],e[3*t+3]=[],s[t+1]=[];let r=o[t].children;for(let n=0,o=r.length;n&lt;o;++n){let o=r[n].children;for(let r=0,i=o.length;r&lt;i;++r){let i=r;0!==t&amp;&amp;++i;let h,d=o[r].getAttribute(&quot;path&quot;),c=&quot;l&quot;;null!=d&amp;&amp;(c=(h=d.match(/\s*([lLcC])\s*(.*)/))[1]);let u=l(h[2]);switch(c){case&quot;l&quot;:0===i?(e[3*t][3*n+3]=u[0].add(e[3*t][3*n]),e[3*t][3*n+1]=a(e[3*t][3*n],e[3*t][3*n+3]),e[3*t][3*n+2]=a(e[3*t][3*n+3],e[3*t][3*n])):1===i?(e[3*t+3][3*n+3]=u[0].add(e[3*t][3*n+3]),e[3*t+1][3*n+3]=a(e[3*t][3*n+3],e[3*t+3][3*n+3]),e[3*t+2][3*n+3]=a(e[3*t+3][3*n+3],e[3*t][3*n+3])):2===i?(0===n&amp;&amp;(e[3*t+3][3*n+0]=u[0].add(e[3*t+3][3*n+3])),e[3*t+3][3*n+1]=a(e[3*t+3][3*n],e[3*t+3][3*n+3]),e[3*t+3][3*n+2]=a(e[3*t+3][3*n+3],e[3*t+3][3*n])):(e[3*t+1][3*n]=a(e[3*t][3*n],e[3*t+3][3*n]),e[3*t+2][3*n]=a(e[3*t+3][3*n],e[3*t][3*n]));break;case&quot;L&quot;:0===i?(e[3*t][3*n+3]=u[0],e[3*t][3*n+1]=a(e[3*t][3*n],e[3*t][3*n+3]),e[3*t][3*n+2]=a(e[3*t][3*n+3],e[3*t][3*n])):1===i?(e[3*t+3][3*n+3]=u[0],e[3*t+1][3*n+3]=a(e[3*t][3*n+3],e[3*t+3][3*n+3]),e[3*t+2][3*n+3]=a(e[3*t+3][3*n+3],e[3*t][3*n+3])):2===i?(0===n&amp;&amp;(e[3*t+3][3*n+0]=u[0]),e[3*t+3][3*n+1]=a(e[3*t+3][3*n],e[3*t+3][3*n+3]),e[3*t+3][3*n+2]=a(e[3*t+3][3*n+3],e[3*t+3][3*n])):(e[3*t+1][3*n]=a(e[3*t][3*n],e[3*t+3][3*n]),e[3*t+2][3*n]=a(e[3*t+3][3*n],e[3*t][3*n]));break;case&quot;c&quot;:0===i?(e[3*t][3*n+1]=u[0].add(e[3*t][3*n]),e[3*t][3*n+2]=u[1].add(e[3*t][3*n]),e[3*t][3*n+3]=u[2].add(e[3*t][3*n])):1===i?(e[3*t+1][3*n+3]=u[0].add(e[3*t][3*n+3]),e[3*t+2][3*n+3]=u[1].add(e[3*t][3*n+3]),e[3*t+3][3*n+3]=u[2].add(e[3*t][3*n+3])):2===i?(e[3*t+3][3*n+2]=u[0].add(e[3*t+3][3*n+3]),e[3*t+3][3*n+1]=u[1].add(e[3*t+3][3*n+3]),0===n&amp;&amp;(e[3*t+3][3*n+0]=u[2].add(e[3*t+3][3*n+3]))):(e[3*t+2][3*n]=u[0].add(e[3*t+3][3*n]),e[3*t+1][3*n]=u[1].add(e[3*t+3][3*n]));break;case&quot;C&quot;:0===i?(e[3*t][3*n+1]=u[0],e[3*t][3*n+2]=u[1],e[3*t][3*n+3]=u[2]):1===i?(e[3*t+1][3*n+3]=u[0],e[3*t+2][3*n+3]=u[1],e[3*t+3][3*n+3]=u[2]):2===i?(e[3*t+3][3*n+2]=u[0],e[3*t+3][3*n+1]=u[1],0===n&amp;&amp;(e[3*t+3][3*n+0]=u[2])):(e[3*t+2][3*n]=u[0],e[3*t+1][3*n]=u[1]);break;default:console.error(&quot;mesh.js: &quot;+c+&quot; invalid path type.&quot;)}if(0===t&amp;&amp;0===n||r&gt;0){let e=window.getComputedStyle(o[r]).stopColor.match(/^rgb\s*\(\s*(\d+)\s*,\s*(\d+)\s*,\s*(\d+)\s*\)$/i),a=window.getComputedStyle(o[r]).stopOpacity,h=255;a&amp;&amp;(h=Math.floor(255*a)),e&amp;&amp;(0===i?(s[t][n]=[],s[t][n][0]=Math.floor(e[1]),s[t][n][1]=Math.floor(e[2]),s[t][n][2]=Math.floor(e[3]),s[t][n][3]=h):1===i?(s[t][n+1]=[],s[t][n+1][0]=Math.floor(e[1]),s[t][n+1][1]=Math.floor(e[2]),s[t][n+1][2]=Math.floor(e[3]),s[t][n+1][3]=h):2===i?(s[t+1][n+1]=[],s[t+1][n+1][0]=Math.floor(e[1]),s[t+1][n+1][1]=Math.floor(e[2]),s[t+1][n+1][2]=Math.floor(e[3]),s[t+1][n+1][3]=h):3===i&amp;&amp;(s[t+1][n]=[],s[t+1][n][0]=Math.floor(e[1]),s[t+1][n][1]=Math.floor(e[2]),s[t+1][n][2]=Math.floor(e[3]),s[t+1][n][3]=h))}}e[3*t+1][3*n+1]=new x,e[3*t+1][3*n+2]=new x,e[3*t+2][3*n+1]=new x,e[3*t+2][3*n+2]=new x,e[3*t+1][3*n+1].x=(-4*e[3*t][3*n].x+6*(e[3*t][3*n+1].x+e[3*t+1][3*n].x)+-2*(e[3*t][3*n+3].x+e[3*t+3][3*n].x)+3*(e[3*t+3][3*n+1].x+e[3*t+1][3*n+3].x)+-1*e[3*t+3][3*n+3].x)/9,e[3*t+1][3*n+2].x=(-4*e[3*t][3*n+3].x+6*(e[3*t][3*n+2].x+e[3*t+1][3*n+3].x)+-2*(e[3*t][3*n].x+e[3*t+3][3*n+3].x)+3*(e[3*t+3][3*n+2].x+e[3*t+1][3*n].x)+-1*e[3*t+3][3*n].x)/9,e[3*t+2][3*n+1].x=(-4*e[3*t+3][3*n].x+6*(e[3*t+3][3*n+1].x+e[3*t+2][3*n].x)+-2*(e[3*t+3][3*n+3].x+e[3*t][3*n].x)+3*(e[3*t][3*n+1].x+e[3*t+2][3*n+3].x)+-1*e[3*t][3*n+3].x)/9,e[3*t+2][3*n+2].x=(-4*e[3*t+3][3*n+3].x+6*(e[3*t+3][3*n+2].x+e[3*t+2][3*n+3].x)+-2*(e[3*t+3][3*n].x+e[3*t][3*n+3].x)+3*(e[3*t][3*n+2].x+e[3*t+2][3*n].x)+-1*e[3*t][3*n].x)/9,e[3*t+1][3*n+1].y=(-4*e[3*t][3*n].y+6*(e[3*t][3*n+1].y+e[3*t+1][3*n].y)+-2*(e[3*t][3*n+3].y+e[3*t+3][3*n].y)+3*(e[3*t+3][3*n+1].y+e[3*t+1][3*n+3].y)+-1*e[3*t+3][3*n+3].y)/9,e[3*t+1][3*n+2].y=(-4*e[3*t][3*n+3].y+6*(e[3*t][3*n+2].y+e[3*t+1][3*n+3].y)+-2*(e[3*t][3*n].y+e[3*t+3][3*n+3].y)+3*(e[3*t+3][3*n+2].y+e[3*t+1][3*n].y)+-1*e[3*t+3][3*n].y)/9,e[3*t+2][3*n+1].y=(-4*e[3*t+3][3*n].y+6*(e[3*t+3][3*n+1].y+e[3*t+2][3*n].y)+-2*(e[3*t+3][3*n+3].y+e[3*t][3*n].y)+3*(e[3*t][3*n+1].y+e[3*t+2][3*n+3].y)+-1*e[3*t][3*n+3].y)/9,e[3*t+2][3*n+2].y=(-4*e[3*t+3][3*n+3].y+6*(e[3*t+3][3*n+2].y+e[3*t+2][3*n+3].y)+-2*(e[3*t+3][3*n].y+e[3*t][3*n+3].y)+3*(e[3*t][3*n+2].y+e[3*t+2][3*n].y)+-1*e[3*t][3*n].y)/9}}this.nodes=e,this.colors=s}paintMesh(t,e){let s=(this.nodes.length-1)/3,r=(this.nodes[0].length-1)/3;if(&quot;bilinear&quot;===this.type||s&lt;2||r&lt;2){let n;for(let o=0;o&lt;s;++o)for(let s=0;s&lt;r;++s){let r=[];for(let t=3*o,e=3*o+4;t&lt;e;++t)r.push(this.nodes[t].slice(3*s,3*s+4));let i=[];i.push(this.colors[o].slice(s,s+2)),i.push(this.colors[o+1].slice(s,s+2)),(n=new m(r,i)).paint(t,e)}}else{let n,o,a,h,l,d,u;const x=s,g=r;s++,r++;let w=new Array(s);for(let t=0;t&lt;s;++t){w[t]=new Array(r);for(let e=0;e&lt;r;++e)w[t][e]=[],w[t][e][0]=this.nodes[3*t][3*e],w[t][e][1]=this.colors[t][e]}for(let t=0;t&lt;s;++t)for(let e=0;e&lt;r;++e)0!==t&amp;&amp;t!==x&amp;&amp;(n=i(w[t-1][e][0],w[t][e][0]),o=i(w[t+1][e][0],w[t][e][0]),w[t][e][2]=c(w[t-1][e][1],w[t][e][1],w[t+1][e][1],n,o)),0!==e&amp;&amp;e!==g&amp;&amp;(n=i(w[t][e-1][0],w[t][e][0]),o=i(w[t][e+1][0],w[t][e][0]),w[t][e][3]=c(w[t][e-1][1],w[t][e][1],w[t][e+1][1],n,o));for(let t=0;t&lt;r;++t){w[0][t][2]=[],w[x][t][2]=[];for(let e=0;e&lt;4;++e)n=i(w[1][t][0],w[0][t][0]),o=i(w[x][t][0],w[x-1][t][0]),w[0][t][2][e]=n&gt;0?2*(w[1][t][1][e]-w[0][t][1][e])/n-w[1][t][2][e]:0,w[x][t][2][e]=o&gt;0?2*(w[x][t][1][e]-w[x-1][t][1][e])/o-w[x-1][t][2][e]:0}for(let t=0;t&lt;s;++t){w[t][0][3]=[],w[t][g][3]=[];for(let e=0;e&lt;4;++e)n=i(w[t][1][0],w[t][0][0]),o=i(w[t][g][0],w[t][g-1][0]),w[t][0][3][e]=n&gt;0?2*(w[t][1][1][e]-w[t][0][1][e])/n-w[t][1][3][e]:0,w[t][g][3][e]=o&gt;0?2*(w[t][g][1][e]-w[t][g-1][1][e])/o-w[t][g-1][3][e]:0}for(let s=0;s&lt;x;++s)for(let r=0;r&lt;g;++r){let n=i(w[s][r][0],w[s+1][r][0]),o=i(w[s][r+1][0],w[s+1][r+1][0]),c=i(w[s][r][0],w[s][r+1][0]),x=i(w[s+1][r][0],w[s+1][r+1][0]),g=[[],[],[],[]];for(let t=0;t&lt;4;++t){(d=[])[0]=w[s][r][1][t],d[1]=w[s+1][r][1][t],d[2]=w[s][r+1][1][t],d[3]=w[s+1][r+1][1][t],d[4]=w[s][r][2][t]*n,d[5]=w[s+1][r][2][t]*n,d[6]=w[s][r+1][2][t]*o,d[7]=w[s+1][r+1][2][t]*o,d[8]=w[s][r][3][t]*c,d[9]=w[s+1][r][3][t]*x,d[10]=w[s][r+1][3][t]*c,d[11]=w[s+1][r+1][3][t]*x,d[12]=0,d[13]=0,d[14]=0,d[15]=0,u=f(d);for(let e=0;e&lt;9;++e){g[t][e]=[];for(let s=0;s&lt;9;++s)g[t][e][s]=p(u,e/8,s/8),g[t][e][s]&gt;255?g[t][e][s]=255:g[t][e][s]&lt;0&amp;&amp;(g[t][e][s]=0)}}h=[];for(let t=3*s,e=3*s+4;t&lt;e;++t)h.push(this.nodes[t].slice(3*r,3*r+4));l=y(h);for(let s=0;s&lt;8;++s)for(let r=0;r&lt;8;++r)(a=new m(l[s][r],[[[g[0][s][r],g[1][s][r],g[2][s][r],g[3][s][r]],[g[0][s][r+1],g[1][s][r+1],g[2][s][r+1],g[3][s][r+1]]],[[g[0][s+1][r],g[1][s+1][r],g[2][s+1][r],g[3][s+1][r]],[g[0][s+1][r+1],g[1][s+1][r+1],g[2][s+1][r+1],g[3][s+1][r+1]]]])).paint(t,e)}}}transform(t){if(t instanceof x)for(let e=0,s=this.nodes.length;e&lt;s;++e)for(let s=0,r=this.nodes[0].length;s&lt;r;++s)this.nodes[e][s]=this.nodes[e][s].add(t);else if(t instanceof g)for(let e=0,s=this.nodes.length;e&lt;s;++e)for(let s=0,r=this.nodes[0].length;s&lt;r;++s)this.nodes[e][s]=this.nodes[e][s].transform(t)}scale(t){for(let e=0,s=this.nodes.length;e&lt;s;++e)for(let s=0,r=this.nodes[0].length;s&lt;r;++s)this.nodes[e][s]=this.nodes[e][s].scale(t)}}document.querySelectorAll(&quot;rect,circle,ellipse,path,text&quot;).forEach((r,n)=&gt;{let o=r.getAttribute(&quot;id&quot;);o||(o=&quot;patchjs_shape&quot;+n,r.setAttribute(&quot;id&quot;,o));const i=r.style.fill.match(/^url\(\s*&quot;?\s*#([^\s&quot;]+)&quot;?\s*\)/),a=r.style.stroke.match(/^url\(\s*&quot;?\s*#([^\s&quot;]+)&quot;?\s*\)/);if(i&amp;&amp;i[1]){const a=document.getElementById(i[1]);if(a&amp;&amp;&quot;meshgradient&quot;===a.nodeName){const i=r.getBBox();let l=document.createElementNS(s,&quot;canvas&quot;);d(l,{width:i.width,height:i.height});const c=l.getContext(&quot;2d&quot;);let u=c.createImageData(i.width,i.height);const f=new b(a);&quot;objectBoundingBox&quot;===a.getAttribute(&quot;gradientUnits&quot;)&amp;&amp;f.scale(new x(i.width,i.height));const p=a.getAttribute(&quot;gradientTransform&quot;);null!=p&amp;&amp;f.transform(h(p)),&quot;userSpaceOnUse&quot;===a.getAttribute(&quot;gradientUnits&quot;)&amp;&amp;f.transform(new x(-i.x,-i.y)),f.paintMesh(u.data,l.width),c.putImageData(u,0,0);const y=document.createElementNS(t,&quot;image&quot;);d(y,{width:i.width,height:i.height,x:i.x,y:i.y});let g=l.toDataURL();y.setAttributeNS(e,&quot;xlink:href&quot;,g),r.parentNode.insertBefore(y,r),r.style.fill=&quot;none&quot;;const w=document.createElementNS(t,&quot;use&quot;);w.setAttributeNS(e,&quot;xlink:href&quot;,&quot;#&quot;+o);const m=&quot;patchjs_clip&quot;+n,M=document.createElementNS(t,&quot;clipPath&quot;);M.setAttribute(&quot;id&quot;,m),M.appendChild(w),r.parentElement.insertBefore(M,r),y.setAttribute(&quot;clip-path&quot;,&quot;url(#&quot;+m+&quot;)&quot;),u=null,l=null,g=null}}if(a&amp;&amp;a[1]){const o=document.getElementById(a[1]);if(o&amp;&amp;&quot;meshgradient&quot;===o.nodeName){const i=parseFloat(r.style.strokeWidth.slice(0,-2))*(parseFloat(r.style.strokeMiterlimit)||parseFloat(r.getAttribute(&quot;stroke-miterlimit&quot;))||1),a=r.getBBox(),l=Math.trunc(a.width+i),c=Math.trunc(a.height+i),u=Math.trunc(a.x-i/2),f=Math.trunc(a.y-i/2);let p=document.createElementNS(s,&quot;canvas&quot;);d(p,{width:l,height:c});const y=p.getContext(&quot;2d&quot;);let g=y.createImageData(l,c);const w=new b(o);&quot;objectBoundingBox&quot;===o.getAttribute(&quot;gradientUnits&quot;)&amp;&amp;w.scale(new x(l,c));const m=o.getAttribute(&quot;gradientTransform&quot;);null!=m&amp;&amp;w.transform(h(m)),&quot;userSpaceOnUse&quot;===o.getAttribute(&quot;gradientUnits&quot;)&amp;&amp;w.transform(new x(-u,-f)),w.paintMesh(g.data,p.width),y.putImageData(g,0,0);const M=document.createElementNS(t,&quot;image&quot;);d(M,{width:l,height:c,x:0,y:0});let S=p.toDataURL();M.setAttributeNS(e,&quot;xlink:href&quot;,S);const k=&quot;pattern_clip&quot;+n,A=document.createElementNS(t,&quot;pattern&quot;);d(A,{id:k,patternUnits:&quot;userSpaceOnUse&quot;,width:l,height:c,x:u,y:f}),A.appendChild(M),o.parentNode.appendChild(A),r.style.stroke=&quot;url(#&quot;+k+&quot;)&quot;,g=null,p=null,S=null}}})}();
</script></svg>
