<?xml version="1.0" encoding="utf-8"?>
<!-- Generator: Adobe Illustrator 22.0.1, SVG Export Plug-In . SVG Version: 6.00 Build 0)  -->
<svg xmlns="http://www.w3.org/2000/svg" xmlns:xlink="http://www.w3.org/1999/xlink" version="1.1" id="Layer_1" x="0px" y="0px" viewBox="0 0 256 256" style="enable-background:new 0 0 256 256;" xml:space="preserve" width="512" height="512">
<style type="text/css">
	.st0{fill:#3A312A;}
	.st1{fill:#D7E057;}
	.st2{fill:#F16C7A;}
	.st3{fill:#FCE8CB;}
	.st4{fill:#87796F;}
	.st5{fill:#8AC6DD;}
	.st6{fill:#CE4E61;}
	.st7{fill:#6CA8BF;}
	.st8{fill:#B9C239;}
	.st9{fill:#DECAAD;}
	.st10{fill:#695B51;}
	.st11{fill-rule:evenodd;clip-rule:evenodd;fill:#FCE8CB;}
	.st12{fill:#F5978A;}
	.st13{fill:#68A8BC;}
	.st14{fill:#B9BC39;}
	.st15{fill:#6B5B51;}
	.st16{fill:#D34E5C;}
	.st17{fill-rule:evenodd;clip-rule:evenodd;fill:#87796F;}
	.st18{fill-rule:evenodd;clip-rule:evenodd;fill:#F16C7A;}
</style>
<g>
	<g>
		<g>
			<path class="st5" d="M209.8,16.448h-164c-16.292,0-29.5,13.208-29.5,29.5c0,16.293,13.208,29.5,29.5,29.5h164     c16.292,0,29.5-13.207,29.5-29.5C239.3,29.655,226.093,16.448,209.8,16.448z"/>
		</g>
	</g>
	<g>
		<g>
			<path class="st0" d="M209.8,14.948h-38.659c-0.828,0-1.5,0.671-1.5,1.5s0.672,1.5,1.5,1.5H209.8c15.439,0,28,12.561,28,28     s-12.561,28-28,28h-164c-15.439,0-28-12.561-28-28s12.561-28,28-28h110.661c0.828,0,1.5-0.671,1.5-1.5s-0.672-1.5-1.5-1.5H45.8     c-17.094,0-31,13.907-31,31s13.906,31,31,31h164c17.094,0,31-13.907,31-31S226.894,14.948,209.8,14.948z"/>
		</g>
	</g>
	<g>
		<g>
			<path class="st3" d="M85.889,200.825H72.5v-8.701c-3.703,2.567-7.535,4.082-11.253,4.082c-3.567,0-7.331-1.53-11.019-4.128     h-0.227v8.747H36.604c-11.193,0-20.265,9.072-20.265,20.265v18.365h89.814V221.09C106.154,209.897,97.082,200.825,85.889,200.825     z"/>
		</g>
	</g>
	<g>
		<g>
			<path class="st0" d="M85.889,199.325H74v-7.201c0-0.558-0.31-1.07-0.805-1.329c-0.494-0.258-1.091-0.222-1.55,0.096     c-3.651,2.531-7.149,3.815-10.398,3.815c-3.108,0-6.525-1.297-10.154-3.854c-0.253-0.178-0.555-0.274-0.864-0.274h-0.228     c-0.828,0-1.5,0.671-1.5,1.5v7.247H36.604c-12.001,0-21.765,9.764-21.765,21.765v18.364c0,0.829,0.672,1.5,1.5,1.5h37.183     c0.828,0,1.5-0.671,1.5-1.5s-0.672-1.5-1.5-1.5H17.84V221.09c0-10.347,8.418-18.765,18.765-18.765h13.396     c0.828,0,1.5-0.671,1.5-1.5v-6.135c3.384,2.003,6.653,3.016,9.746,3.016c3.138,0,6.409-0.961,9.753-2.863v5.982     c0,0.829,0.672,1.5,1.5,1.5h13.389c10.348,0,18.766,8.418,18.766,18.765v16.864H68.287c-0.828,0-1.5,0.671-1.5,1.5     s0.672,1.5,1.5,1.5h37.867c0.828,0,1.5-0.671,1.5-1.5V221.09C107.654,209.088,97.891,199.325,85.889,199.325z"/>
		</g>
	</g>
	<g>
		<g>
			<path class="st5" d="M85.889,200.819h-3.203l0.083,0.061l-13.927,18.47l-7.187-5.415l-7.187,5.415l-13.927-18.47l0.083-0.061     h-4.021c-11.193,0-20.265,9.073-20.265,20.265v18.372h89.814v-18.372C106.154,209.891,97.082,200.819,85.889,200.819z"/>
		</g>
	</g>
	<g>
		<g>
			<path class="st0" d="M85.89,199.319h-3.204c-0.65,0-1.228,0.42-1.428,1.039c-0.006,0.019-0.012,0.038-0.017,0.058L68.548,217.25     l-5.989-4.513c-0.533-0.402-1.271-0.402-1.805,0l-5.989,4.513L42.07,200.413c-0.006-0.02-0.012-0.04-0.019-0.059     c-0.201-0.617-0.776-1.035-1.426-1.035h-4.021c-12.001,0-21.765,9.764-21.765,21.765v18.372c0,0.829,0.672,1.5,1.5,1.5h37.183     c0.828,0,1.5-0.671,1.5-1.5s-0.672-1.5-1.5-1.5H17.84v-16.872c0-10.347,8.418-18.765,18.765-18.765h3.146l13.522,17.934     c0.498,0.661,1.438,0.793,2.1,0.295l6.284-4.735l6.284,4.735c0.661,0.499,1.603,0.368,2.1-0.295l13.522-17.934h2.327     c10.347,0,18.765,8.418,18.765,18.765v16.872H68.287c-0.828,0-1.5,0.671-1.5,1.5s0.672,1.5,1.5,1.5h37.867     c0.828,0,1.5-0.671,1.5-1.5v-18.372C107.654,209.083,97.891,199.319,85.89,199.319z"/>
		</g>
	</g>
	<g>
		<g>
			<path class="st11" d="M26.449,142.615c-4.404,0-7.974,3.57-7.974,7.974c0,4.404,3.57,7.974,7.974,7.974     c4.404,0,7.974-3.57,7.974-7.974C34.423,146.185,30.853,142.615,26.449,142.615z"/>
		</g>
	</g>
	<g>
		<g>
			<path class="st0" d="M26.449,141.115c-5.224,0-9.474,4.25-9.474,9.474c0,5.224,4.25,9.474,9.474,9.474s9.474-4.25,9.474-9.474     C35.923,145.365,31.673,141.115,26.449,141.115z M26.449,157.063c-3.569,0-6.474-2.904-6.474-6.474     c0-3.569,2.904-6.474,6.474-6.474s6.474,2.904,6.474,6.474C32.923,154.159,30.019,157.063,26.449,157.063z"/>
		</g>
	</g>
	<g>
		<g>
			<circle class="st11" cx="96.047" cy="150.589" r="7.974"/>
		</g>
	</g>
	<g>
		<g>
			<path class="st0" d="M96.047,141.115c-5.224,0-9.474,4.25-9.474,9.474c0,5.224,4.25,9.474,9.474,9.474s9.474-4.25,9.474-9.474     C105.521,145.365,101.271,141.115,96.047,141.115z M96.047,157.063c-3.569,0-6.474-2.904-6.474-6.474     c0-3.569,2.904-6.474,6.474-6.474s6.474,2.904,6.474,6.474C102.521,154.159,99.616,157.063,96.047,157.063z"/>
		</g>
	</g>
	<g>
		<g>
			<path class="st3" d="M61.248,111.37c-19.522,0-35.349,15.826-35.349,35.349c0,19.523,19.554,49.488,35.349,49.488     c16.547,0,35.349-29.966,35.349-49.488C96.597,127.196,80.771,111.37,61.248,111.37z"/>
		</g>
	</g>
	<g>
		<g>
			<path class="st0" d="M61.248,109.87c-20.318,0-36.849,16.53-36.849,36.849c0,9.577,4.604,22.19,12.018,32.918     c7.935,11.484,16.985,18.07,24.831,18.07c8.133,0,17.289-6.589,25.119-18.079c7.235-10.616,11.729-23.226,11.729-32.91     C98.097,126.4,81.566,109.87,61.248,109.87z M83.888,177.938c-7.155,10.5-15.619,16.768-22.64,16.768     c-14.938,0-33.849-29.754-33.849-47.988c0-18.664,15.185-33.849,33.849-33.849s33.849,15.185,33.849,33.849     C95.097,155.831,90.802,167.794,83.888,177.938z"/>
		</g>
	</g>
	<g>
		<g>
			<path class="st0" d="M48.768,142.869c-1.905,0-3.45,1.545-3.45,3.45s1.545,3.45,3.45,3.45c1.906,0,3.45-1.545,3.45-3.45     S50.674,142.869,48.768,142.869z"/>
		</g>
	</g>
	<g>
		<g>
			<path class="st0" d="M73.728,142.869c-1.906,0-3.45,1.545-3.45,3.45s1.544,3.45,3.45,3.45c1.906,0,3.45-1.545,3.45-3.45     S75.634,142.869,73.728,142.869z"/>
		</g>
	</g>
	<g>
		<g>
			<path class="st12" d="M41.872,152.134c-3.282,0-5.943,1.989-5.943,4.443c0,2.454,2.661,4.443,5.943,4.443     c3.282,0,5.943-1.989,5.943-4.443C47.816,154.123,45.155,152.134,41.872,152.134z"/>
		</g>
	</g>
	<g>
		<g>
			<path class="st12" d="M80.624,152.134c-3.282,0-5.943,1.989-5.943,4.443c0,2.454,2.661,4.443,5.943,4.443     s5.943-1.989,5.943-4.443C86.567,154.123,83.906,152.134,80.624,152.134z"/>
		</g>
	</g>
	<g>
		<g>
			<path class="st4" d="M98.243,138.548c0-19.319-16.381-34.98-36.587-34.98s-36.587,15.661-36.587,34.98     c0,2.044,0.37,3.568,1.057,5.471c0.324,0.897,5.563-1.969,6.009-2.282c2.231-1.571,4.054-3.699,5.416-6.053     c0.563-0.979,1.033-1.974,1.411-2.97c1.206-3.177,4.483-12.02,7.81-11.326c4.462,0.93,9.519,1.456,14.883,1.456     s10.422-0.525,14.883-1.456c3.327-0.694,6.604,8.148,7.81,11.326c0.378,0.996,0.848,1.992,1.411,2.97     c2.251,3.893,6.052,7.6,10.677,8.274c0.011-0.223,0.294-0.3,0.504-0.376C98.456,143.033,98.243,139.761,98.243,138.548z"/>
		</g>
	</g>
	<g>
		<g>
			<path class="st0" d="M99.747,138.936l-0.004-0.388c0-20.115-17.086-36.48-38.087-36.48c-21.002,0-38.088,16.365-38.088,36.48     c0,2.329,0.458,4.075,1.146,5.981c0.186,0.511,0.597,0.9,1.13,1.068c0.166,0.052,0.356,0.076,0.566,0.076     c2.216,0,6.544-2.68,6.587-2.71c2.289-1.611,4.313-3.869,5.854-6.531c0.593-1.028,1.102-2.101,1.514-3.187l0.077-0.204     c3.827-10.093,5.688-10.255,6.024-10.186c4.733,0.987,9.844,1.487,15.189,1.487c5.345,0,10.455-0.5,15.188-1.487     c0.335-0.071,2.198,0.093,6.026,10.188l0.076,0.202c0.412,1.086,0.921,2.159,1.515,3.189c2.882,4.987,7.278,8.354,11.759,9.008     c0.418,0.06,0.842-0.057,1.168-0.325c0.063-0.051,0.121-0.108,0.174-0.168C99.822,144.026,99.773,140.723,99.747,138.936z      M96.379,142.19c-0.14,0.049-0.267,0.104-0.382,0.163c-3.358-0.751-6.659-3.477-8.937-7.417c-0.513-0.89-0.953-1.817-1.309-2.754     l-0.076-0.201c-2.561-6.753-5.497-12.897-9.442-12.061c-4.533,0.945-9.438,1.424-14.577,1.424     c-5.141,0-10.045-0.479-14.578-1.424c-3.971-0.831-6.881,5.308-9.44,12.059l-0.077,0.203c-0.355,0.938-0.796,1.864-1.307,2.751     c-1.323,2.286-3.046,4.215-4.971,5.57c-0.539,0.355-2.811,1.532-4.09,1.999c-0.4-1.269-0.625-2.437-0.625-3.953     c0-18.461,15.74-33.48,35.088-33.48c19.347,0,35.087,15.019,35.087,33.48l0.005,0.432     C96.781,141.289,96.551,142.015,96.379,142.19z"/>
		</g>
	</g>
	<g>
		<g>
			
				<rect x="46.598" y="195.828" transform="matrix(0.7986 -0.6019 0.6019 0.7986 -114.5264 72.5324)" class="st4" width="9.037" height="23.132"/>
		</g>
	</g>
	<g>
		<g>
			<path class="st0" d="M62.884,213.008l-13.922-18.474c-0.24-0.318-0.596-0.527-0.989-0.583c-0.4-0.057-0.795,0.048-1.111,0.288     l-7.217,5.439c-0.662,0.499-0.794,1.439-0.296,2.101l13.922,18.473c0.295,0.391,0.744,0.597,1.199,0.597     c0.314,0,0.632-0.098,0.901-0.302l7.217-5.438c0.318-0.239,0.527-0.595,0.583-0.989     C63.227,213.726,63.123,213.326,62.884,213.008z M54.764,217.249l-12.116-16.078l4.821-3.633l12.116,16.078L54.764,217.249z"/>
		</g>
	</g>
	<g>
		<g>
			
				<rect x="60.63" y="202.875" transform="matrix(0.6019 -0.7986 0.7986 0.6019 -136.8808 140.2278)" class="st4" width="23.132" height="9.037"/>
		</g>
	</g>
	<g>
		<g>
			<path class="st0" d="M83.668,199.679l-7.217-5.439c-0.316-0.239-0.713-0.345-1.111-0.288c-0.394,0.055-0.749,0.265-0.989,0.583     l-13.922,18.474c-0.239,0.318-0.343,0.718-0.287,1.111c0.056,0.394,0.265,0.75,0.583,0.989l7.217,5.438     c0.27,0.204,0.587,0.302,0.901,0.302c0.455,0,0.904-0.206,1.199-0.597l13.922-18.473     C84.462,201.118,84.33,200.177,83.668,199.679z M68.549,217.249l-4.821-3.633l12.116-16.078l4.821,3.633L68.549,217.249z"/>
		</g>
	</g>
	<g>
		<g>
			<path class="st0" d="M33.163,223.441c-0.828,0-1.5,0.671-1.5,1.5v14.515c0,0.829,0.672,1.5,1.5,1.5s1.5-0.671,1.5-1.5v-14.515     C34.663,224.112,33.991,223.441,33.163,223.441z"/>
		</g>
	</g>
	<g>
		<g>
			<path class="st0" d="M90.148,223.441c-0.828,0-1.5,0.671-1.5,1.5v14.515c0,0.829,0.672,1.5,1.5,1.5s1.5-0.671,1.5-1.5v-14.515     C91.648,224.112,90.977,223.441,90.148,223.441z"/>
		</g>
	</g>
	<g>
		<g>
			<path class="st4" d="M60.995,90.871c-24.918,14.659-39.381-13.52-39.381-0.669c0,4.062,1.636,8.114,3.785,11.8l5.947,8.43     c6,7.555,13.178,15.611,21.847,18.076c13.963,3.97,38.677-0.983,38.677-21.08C91.869,94.577,81.098,79.045,60.995,90.871z"/>
		</g>
	</g>
	<g>
		<g>
			<path class="st0" d="M82.915,87.392c-4.386-2.509-11.883-4.166-22.681,2.187c-14.253,8.384-24.897,2.002-31.255-1.812     c-3.207-1.924-5.327-3.194-7.138-2.168c-1.531,0.867-1.728,2.916-1.728,4.604c0,3.843,1.305,7.95,3.988,12.555     c0.021,0.038,0.045,0.074,0.07,0.109l5.947,8.43c0.017,0.023,0.033,0.046,0.051,0.068c6.477,8.156,13.699,16.052,22.611,18.586     c2.985,0.849,6.494,1.314,10.181,1.314c7.516,0,15.771-1.937,21.828-6.512c5.612-4.238,8.578-10.229,8.578-17.325     C93.369,100.431,90.137,91.522,82.915,87.392z M82.983,122.36c-8.246,6.229-21.022,7.083-29.381,4.706     c-8.085-2.299-14.897-9.781-21.056-17.532l-5.885-8.342c-2.387-4.11-3.548-7.706-3.548-10.989c0-1.244,0.151-1.767,0.232-1.958     c0.71,0.068,2.574,1.186,4.09,2.095c6.477,3.885,18.53,11.113,34.319,1.825c7.566-4.452,14.368-5.2,19.67-2.168     c6.178,3.533,8.943,11.301,8.943,17.433C90.369,113.634,87.884,118.658,82.983,122.36z"/>
		</g>
	</g>
	<g>
		<g>
			<path class="st0" d="M71.541,167.907c-0.777-0.291-1.64,0.103-1.931,0.878c-0.662,1.766-3.262,5.106-8.363,5.106     c-4.043,0-6.717-1.66-8.413-5.224c-0.355-0.748-1.251-1.066-1.999-0.71c-0.748,0.356-1.065,1.251-0.71,1.999     c2.19,4.602,5.933,6.935,11.122,6.935c5.86,0,9.899-3.656,11.172-7.053C72.71,169.062,72.316,168.198,71.541,167.907z"/>
		</g>
	</g>
	<g>
		<g>
			<path class="st3" d="M218.556,200.825h-13.389v-8.701c-3.703,2.567-7.535,4.082-11.253,4.082c-3.567,0-7.331-1.53-11.019-4.128     h-0.227v8.747h-13.396c-11.193,0-20.265,9.072-20.265,20.265v18.364h89.814V221.09     C238.821,209.897,229.748,200.825,218.556,200.825z"/>
		</g>
	</g>
	<g>
		<g>
			<path class="st0" d="M218.556,199.325h-11.889v-7.201c0-0.558-0.31-1.07-0.805-1.329c-0.494-0.258-1.09-0.222-1.55,0.096     c-3.65,2.531-7.149,3.814-10.399,3.814c-3.107,0-6.524-1.296-10.154-3.854c-0.253-0.178-0.555-0.274-0.864-0.274h-0.227     c-0.828,0-1.5,0.671-1.5,1.5v7.247h-11.896c-12.002,0-21.766,9.764-21.766,21.765v18.364c0,0.829,0.672,1.5,1.5,1.5h89.814     c0.828,0,1.5-0.671,1.5-1.5V221.09C240.32,209.088,230.557,199.325,218.556,199.325z M237.32,237.954h-86.814V221.09     c0-10.347,8.418-18.765,18.766-18.765h13.396c0.828,0,1.5-0.671,1.5-1.5v-6.135c3.384,2.002,6.653,3.015,9.745,3.015     c3.139,0,6.41-0.961,9.754-2.863v5.982c0,0.829,0.672,1.5,1.5,1.5h13.389c10.347,0,18.765,8.418,18.765,18.765V237.954z"/>
		</g>
	</g>
	<g>
		<g>
			<path class="st1" d="M218.556,200.819h-3.203l0.083,0.061l-13.927,18.47l-7.187-5.415l-7.187,5.415l-13.926-18.47l0.083-0.061     h-4.021c-11.193,0-20.265,9.072-20.265,20.265v18.372h89.814v-18.372C238.821,209.891,229.749,200.819,218.556,200.819z"/>
		</g>
	</g>
	<g>
		<g>
			<path class="st0" d="M218.556,199.319h-3.203c-0.649,0-1.225,0.418-1.426,1.035c-0.007,0.02-0.013,0.04-0.019,0.059     l-12.693,16.836l-5.99-4.513c-0.533-0.402-1.271-0.402-1.805,0l-5.989,4.512l-12.693-16.836c-0.006-0.02-0.012-0.04-0.019-0.059     c-0.201-0.617-0.776-1.035-1.426-1.035h-4.021c-12.001,0-21.765,9.764-21.765,21.765v18.372c0,0.829,0.672,1.5,1.5,1.5h89.814     c0.828,0,1.5-0.671,1.5-1.5v-18.372C240.321,209.083,230.558,199.319,218.556,199.319z M237.321,237.956h-86.814v-16.872     c0-10.347,8.418-18.765,18.765-18.765h3.146l13.521,17.934c0.496,0.661,1.437,0.793,2.1,0.295l6.284-4.735l6.285,4.735     c0.662,0.499,1.604,0.368,2.1-0.295l13.521-17.934h2.327c10.348,0,18.766,8.418,18.766,18.765V237.956z"/>
		</g>
	</g>
	<g>
		<g>
			<path class="st11" d="M159.116,142.615c-4.404,0-7.974,3.57-7.974,7.974c0,4.404,3.57,7.974,7.974,7.974     c4.404,0,7.974-3.57,7.974-7.974C167.09,146.185,163.52,142.615,159.116,142.615z"/>
		</g>
	</g>
	<g>
		<g>
			<path class="st0" d="M159.116,141.115c-5.224,0-9.474,4.25-9.474,9.474c0,5.224,4.25,9.474,9.474,9.474s9.474-4.25,9.474-9.474     C168.59,145.365,164.34,141.115,159.116,141.115z M159.116,157.063c-3.569,0-6.474-2.904-6.474-6.474     c0-3.569,2.904-6.474,6.474-6.474s6.474,2.904,6.474,6.474C165.59,154.159,162.686,157.063,159.116,157.063z"/>
		</g>
	</g>
	<g>
		<g>
			<path class="st11" d="M228.714,142.615c-4.404,0-7.974,3.57-7.974,7.974c0,4.404,3.57,7.974,7.974,7.974     c4.404,0,7.974-3.57,7.974-7.974C236.687,146.185,233.117,142.615,228.714,142.615z"/>
		</g>
	</g>
	<g>
		<g>
			<path class="st0" d="M228.714,141.115c-5.225,0-9.475,4.25-9.475,9.474c0,5.224,4.25,9.474,9.475,9.474     c5.224,0,9.474-4.25,9.474-9.474C238.188,145.365,233.938,141.115,228.714,141.115z M228.714,157.063     c-3.57,0-6.475-2.904-6.475-6.474c0-3.569,2.904-6.474,6.475-6.474c3.569,0,6.474,2.904,6.474,6.474     C235.188,154.159,232.283,157.063,228.714,157.063z"/>
		</g>
	</g>
	<g>
		<g>
			<path class="st3" d="M193.915,111.37c-19.522,0-35.349,15.826-35.349,35.349c0,19.523,19.554,49.488,35.349,49.488     c16.547,0,35.349-29.966,35.349-49.488C229.263,127.196,213.437,111.37,193.915,111.37z"/>
		</g>
	</g>
	<g>
		<g>
			<path class="st0" d="M193.915,109.87c-20.318,0-36.849,16.53-36.849,36.849c0,9.577,4.604,22.19,12.018,32.918     c7.935,11.484,16.985,18.07,24.831,18.07c8.133,0,17.289-6.589,25.119-18.079c7.235-10.616,11.729-23.226,11.729-32.91     C230.764,126.4,214.233,109.87,193.915,109.87z M216.555,177.938c-7.155,10.5-15.619,16.768-22.64,16.768     c-14.938,0-33.849-29.754-33.849-47.988c0-18.664,15.185-33.849,33.849-33.849s33.849,15.185,33.849,33.849     C227.764,155.831,223.469,167.794,216.555,177.938z"/>
		</g>
	</g>
	<g>
		<g>
			<path class="st0" d="M181.435,142.869c-1.906,0-3.45,1.545-3.45,3.45s1.545,3.45,3.45,3.45s3.45-1.545,3.45-3.45     S183.34,142.869,181.435,142.869z"/>
		</g>
	</g>
	<g>
		<g>
			<circle class="st0" cx="206.395" cy="146.319" r="3.45"/>
		</g>
	</g>
	<g>
		<g>
			<path class="st12" d="M174.539,152.134c-3.282,0-5.943,1.989-5.943,4.443c0,2.454,2.661,4.443,5.943,4.443     c3.282,0,5.943-1.989,5.943-4.443C180.482,154.123,177.821,152.134,174.539,152.134z"/>
		</g>
	</g>
	<g>
		<g>
			<path class="st12" d="M213.29,152.134c-3.282,0-5.943,1.989-5.943,4.443c0,2.454,2.661,4.443,5.943,4.443     c3.282,0,5.943-1.989,5.943-4.443C219.234,154.123,216.573,152.134,213.29,152.134z"/>
		</g>
	</g>
	<g>
		<g>
			<path class="st4" d="M230.91,138.548c0-19.319-16.381-34.98-36.587-34.98c-20.206,0-36.587,15.661-36.587,34.98     c0,2.044,0.37,3.568,1.057,5.471c0.324,0.897,5.563-1.969,6.009-2.282c2.231-1.571,4.054-3.699,5.416-6.053     c0.563-0.979,1.033-1.974,1.411-2.97c1.206-3.177,4.483-12.02,7.81-11.326c4.462,0.93,9.519,1.456,14.883,1.456     c5.365,0,10.422-0.525,14.884-1.456c3.327-0.694,6.604,8.148,7.81,11.326c0.378,0.996,0.848,1.992,1.411,2.97     c2.25,3.893,6.052,7.6,10.677,8.274c0.012-0.223,0.294-0.3,0.504-0.376C231.123,143.033,230.91,139.761,230.91,138.548z"/>
		</g>
	</g>
	<g>
		<g>
			<path class="st0" d="M232.414,138.935l-0.004-0.387c0-20.115-17.086-36.48-38.088-36.48c-21.001,0-38.087,16.365-38.087,36.48     c0,2.329,0.458,4.075,1.146,5.981c0.186,0.511,0.597,0.9,1.13,1.068c0.166,0.052,0.356,0.076,0.566,0.076     c2.216,0,6.544-2.68,6.587-2.71c2.289-1.612,4.312-3.869,5.853-6.531c0.594-1.032,1.104-2.104,1.515-3.188l0.074-0.195     c3.827-10.101,5.694-10.257,6.027-10.194c4.733,0.987,9.844,1.487,15.188,1.487c5.346,0,10.456-0.5,15.189-1.487     c0.337-0.07,2.2,0.094,6.027,10.194l0.074,0.195c0.411,1.083,0.921,2.155,1.516,3.189c2.883,4.987,7.278,8.354,11.759,9.008     c0.416,0.06,0.842-0.057,1.168-0.325c0.063-0.051,0.121-0.108,0.174-0.168C232.488,144.026,232.44,140.723,232.414,138.935z      M229.046,142.19c-0.14,0.049-0.267,0.104-0.382,0.163c-3.358-0.751-6.659-3.477-8.937-7.417c-0.515-0.894-0.955-1.82-1.31-2.754     l-0.073-0.194c-2.56-6.757-5.479-12.902-9.444-12.068c-4.533,0.945-9.438,1.424-14.578,1.424c-5.14,0-10.044-0.479-14.577-1.424     c-3.978-0.833-6.886,5.313-9.444,12.068l-0.073,0.193c-0.354,0.934-0.795,1.861-1.308,2.751c-1.323,2.286-3.046,4.214-4.97,5.57     c-0.539,0.355-2.811,1.532-4.09,1.999c-0.4-1.269-0.625-2.437-0.625-3.953c0-18.461,15.74-33.48,35.087-33.48     c19.348,0,35.088,15.019,35.088,33.48l0.005,0.431C229.448,141.289,229.218,142.015,229.046,142.19z"/>
		</g>
	</g>
	<g>
		<g>
			
				<rect x="179.264" y="195.828" transform="matrix(0.7986 -0.6019 0.6019 0.7986 -87.8085 152.3807)" class="st4" width="9.037" height="23.132"/>
		</g>
	</g>
	<g>
		<g>
			<path class="st0" d="M195.551,213.008l-13.923-18.474c-0.499-0.662-1.441-0.795-2.101-0.295l-7.217,5.439     c-0.318,0.239-0.527,0.595-0.583,0.989s0.048,0.793,0.287,1.111l13.923,18.473c0.295,0.391,0.744,0.597,1.199,0.597     c0.314,0,0.632-0.098,0.901-0.302l7.217-5.438c0.318-0.239,0.527-0.595,0.583-0.989     C195.894,213.726,195.79,213.326,195.551,213.008z M187.431,217.249l-12.117-16.078l4.821-3.633l12.117,16.078L187.431,217.249z"/>
		</g>
	</g>
	<g>
		<g>
			
				<rect x="193.297" y="202.875" transform="matrix(0.6019 -0.7986 0.7986 0.6019 -84.0608 246.1757)" class="st4" width="23.132" height="9.036"/>
		</g>
	</g>
	<g>
		<g>
			<path class="st0" d="M216.335,199.679l-7.216-5.439c-0.317-0.239-0.714-0.345-1.112-0.288c-0.394,0.055-0.749,0.265-0.989,0.583     l-13.923,18.474c-0.239,0.318-0.343,0.718-0.287,1.111c0.056,0.394,0.265,0.75,0.583,0.989l7.217,5.438     c0.27,0.204,0.587,0.302,0.901,0.302c0.455,0,0.904-0.206,1.199-0.597l13.922-18.473     C217.128,201.118,216.996,200.177,216.335,199.679z M201.215,217.249l-4.821-3.633l12.117-16.078l4.82,3.633L201.215,217.249z"/>
		</g>
	</g>
	<g>
		<g>
			<path class="st0" d="M165.83,223.441c-0.828,0-1.5,0.671-1.5,1.5v14.515c0,0.829,0.672,1.5,1.5,1.5s1.5-0.671,1.5-1.5v-14.515     C167.33,224.112,166.658,223.441,165.83,223.441z"/>
		</g>
	</g>
	<g>
		<g>
			<path class="st0" d="M222.815,223.441c-0.828,0-1.5,0.671-1.5,1.5v14.515c0,0.829,0.672,1.5,1.5,1.5s1.5-0.671,1.5-1.5v-14.515     C224.315,224.112,223.644,223.441,222.815,223.441z"/>
		</g>
	</g>
	<g>
		<g>
			<path class="st0" d="M204.206,167.907c-0.774-0.291-1.641,0.103-1.931,0.879c-0.66,1.766-3.259,5.105-8.361,5.105     c-4.043,0-6.717-1.66-8.413-5.224c-0.355-0.748-1.25-1.066-1.999-0.71c-0.748,0.356-1.065,1.251-0.71,1.999     c2.19,4.602,5.933,6.935,11.122,6.935c5.861,0,9.899-3.656,11.172-7.054C205.376,169.062,204.982,168.197,204.206,167.907z"/>
		</g>
	</g>
	<g>
		<g>
			<path class="st17" d="M194.948,91.414c-21.078,0-28.668,8.032-28.668,17.94c0,9.907,7.59,17.939,28.668,17.939     c21.078,0,38.165-17.939,38.165-17.939S216.026,91.414,194.948,91.414z"/>
		</g>
	</g>
	<g>
		<g>
			<path class="st0" d="M234.199,108.318c-0.716-0.751-17.777-18.405-39.251-18.405c-26.249,0-30.168,12.179-30.168,19.439     s3.919,19.439,30.168,19.439c21.474,0,38.535-17.653,39.251-18.405C234.751,109.808,234.751,108.898,234.199,108.318z      M194.948,125.792c-17.773,0-27.168-5.685-27.168-16.439s9.395-16.439,27.168-16.439c17.271,0,32.029,12.684,36.02,16.44     C226.982,113.111,212.245,125.792,194.948,125.792z"/>
		</g>
	</g>
	<g>
		<g>
			<rect x="89.364" y="140.242" class="st4" width="75.867" height="86.835"/>
		</g>
	</g>
	<g>
		<g>
			<path class="st0" d="M165.231,138.742H89.364c-0.828,0-1.5,0.671-1.5,1.5v86.835c0,0.829,0.672,1.5,1.5,1.5h75.867     c0.828,0,1.5-0.671,1.5-1.5v-86.835C166.731,139.413,166.06,138.742,165.231,138.742z M163.731,225.577H90.864v-83.835h72.867     V225.577z"/>
		</g>
	</g>
	<g>
		<g>
			<path class="st3" d="M152.442,210h-13.389v-8.701c-3.703,2.568-7.535,4.082-11.253,4.082c-3.567,0-7.331-1.53-11.019-4.128     h-0.227V210h-13.397c-11.192,0-20.265,9.072-20.265,20.265v9.191h89.814v-9.191C172.707,219.072,163.635,210,152.442,210z"/>
		</g>
	</g>
	<g>
		<g>
			<path class="st0" d="M152.442,208.5h-11.89v-7.201c0-0.558-0.31-1.07-0.805-1.329c-0.494-0.258-1.091-0.222-1.55,0.096     c-3.651,2.531-7.149,3.815-10.398,3.815c-3.107,0-6.524-1.297-10.154-3.854c-0.253-0.178-0.555-0.274-0.864-0.274h-0.228     c-0.828,0-1.5,0.671-1.5,1.5v7.247h-11.896c-12.001,0-21.765,9.764-21.765,21.765v9.191c0,0.829,0.672,1.5,1.5,1.5h89.814     c0.828,0,1.5-0.671,1.5-1.5v-9.191C174.207,218.263,164.443,208.5,152.442,208.5z M171.207,237.956H84.393v-7.691     c0-10.347,8.418-18.765,18.765-18.765h13.396c0.828,0,1.5-0.671,1.5-1.5v-6.135c3.385,2.003,6.654,3.016,9.746,3.016     c3.138,0,6.409-0.961,9.753-2.863V210c0,0.829,0.672,1.5,1.5,1.5h13.39c10.347,0,18.765,8.418,18.765,18.765V237.956z"/>
		</g>
	</g>
	<g>
		<g>
			<path class="st2" d="M152.442,209.993h-3.203l0.083,0.061l-13.927,18.47l-7.187-5.415l-7.187,5.415l-13.926-18.47l0.083-0.061     h-4.021c-11.193,0-20.265,9.073-20.265,20.265v9.197h89.814v-9.197C172.707,219.066,163.635,209.993,152.442,209.993z"/>
		</g>
	</g>
	<g>
		<g>
			<path class="st0" d="M152.442,208.494h-3.203c-0.649,0-1.225,0.418-1.426,1.035c-0.007,0.02-0.013,0.04-0.019,0.059     l-12.694,16.836l-5.989-4.513c-0.533-0.402-1.271-0.402-1.805,0l-5.989,4.513l-12.694-16.836c-0.006-0.02-0.012-0.04-0.019-0.059     c-0.201-0.617-0.776-1.035-1.426-1.035h-4.021c-12.002,0-21.766,9.764-21.766,21.765v9.197c0,0.829,0.672,1.5,1.5,1.5h89.814     c0.828,0,1.5-0.671,1.5-1.5v-9.197C174.207,218.257,164.443,208.494,152.442,208.494z M171.207,237.956H84.393v-7.697     c0-10.347,8.418-18.765,18.766-18.765h3.145l13.522,17.934c0.498,0.661,1.439,0.793,2.1,0.295l6.284-4.735l6.284,4.735     c0.661,0.499,1.603,0.367,2.1-0.295l13.522-17.934h2.327c10.347,0,18.765,8.418,18.765,18.765V237.956z"/>
		</g>
	</g>
	<g>
		<g>
			<circle class="st11" cx="93.002" cy="159.764" r="7.974"/>
		</g>
	</g>
	<g>
		<g>
			<path class="st0" d="M93.002,150.29c-5.224,0-9.474,4.25-9.474,9.474c0,5.224,4.25,9.474,9.474,9.474     c5.225,0,9.475-4.25,9.475-9.474C102.477,154.54,98.227,150.29,93.002,150.29z M93.002,166.238c-3.569,0-6.474-2.904-6.474-6.474     c0-3.569,2.904-6.474,6.474-6.474c3.57,0,6.475,2.904,6.475,6.474C99.477,163.333,96.572,166.238,93.002,166.238z"/>
		</g>
	</g>
	<g>
		<g>
			
				<rect x="113.151" y="205.003" transform="matrix(0.7986 -0.6019 0.6019 0.7986 -106.6458 114.4372)" class="st4" width="9.037" height="23.132"/>
		</g>
	</g>
	<g>
		<g>
			<path class="st0" d="M129.437,222.183l-13.922-18.474c-0.24-0.318-0.596-0.527-0.989-0.583c-0.4-0.055-0.795,0.048-1.111,0.288     l-7.217,5.439c-0.662,0.499-0.794,1.439-0.296,2.101l13.922,18.473c0.295,0.391,0.744,0.597,1.199,0.597     c0.314,0,0.632-0.098,0.901-0.302l7.217-5.438c0.318-0.239,0.527-0.595,0.583-0.989     C129.779,222.901,129.676,222.501,129.437,222.183z M121.316,226.424L109.2,210.346l4.821-3.633l12.116,16.078L121.316,226.424z"/>
		</g>
	</g>
	<g>
		<g>
			
				<rect x="127.183" y="212.05" transform="matrix(0.6019 -0.7986 0.7986 0.6019 -117.7104 197.03)" class="st4" width="23.132" height="9.036"/>
		</g>
	</g>
	<g>
		<g>
			<path class="st0" d="M150.221,208.854l-7.217-5.439c-0.316-0.24-0.713-0.343-1.111-0.288c-0.394,0.055-0.749,0.265-0.989,0.583     l-13.922,18.474c-0.239,0.318-0.343,0.718-0.287,1.111c0.056,0.394,0.265,0.75,0.583,0.989l7.217,5.438     c0.27,0.204,0.587,0.302,0.901,0.302c0.455,0,0.904-0.206,1.199-0.597l13.922-18.473     C151.015,210.292,150.883,209.352,150.221,208.854z M135.102,226.424l-4.821-3.633l12.116-16.078l4.821,3.633L135.102,226.424z"/>
		</g>
	</g>
	<g>
		<g>
			<circle class="st11" cx="162.58" cy="159.589" r="7.974"/>
		</g>
	</g>
	<g>
		<g>
			<path class="st0" d="M162.58,150.115c-5.225,0-9.475,4.25-9.475,9.474c0,5.224,4.25,9.474,9.475,9.474     c5.224,0,9.474-4.25,9.474-9.474C172.054,154.365,167.804,150.115,162.58,150.115z M162.58,166.063     c-3.57,0-6.475-2.904-6.475-6.474c0-3.569,2.904-6.474,6.475-6.474c3.569,0,6.474,2.904,6.474,6.474     C169.054,163.159,166.149,166.063,162.58,166.063z"/>
		</g>
	</g>
	<g>
		<g>
			<path class="st3" d="M127.801,120.544c-19.522,0-35.349,15.826-35.349,35.349c0,19.523,19.554,49.488,35.349,49.488     c16.547,0,35.349-29.966,35.349-49.488C163.15,136.371,147.324,120.544,127.801,120.544z"/>
		</g>
	</g>
	<g>
		<g>
			<path class="st0" d="M127.801,119.044c-20.318,0-36.849,16.53-36.849,36.849c0,9.577,4.604,22.19,12.018,32.918     c7.936,11.484,16.986,18.07,24.831,18.07c8.133,0,17.289-6.589,25.119-18.079c7.235-10.616,11.729-23.226,11.729-32.91     C164.649,135.575,148.119,119.044,127.801,119.044z M150.44,187.113c-7.155,10.5-15.619,16.768-22.64,16.768     c-14.938,0-33.849-29.754-33.849-47.988c0-18.664,15.185-33.849,33.849-33.849s33.849,15.185,33.849,33.849     C161.649,165.006,157.354,176.969,150.44,187.113z"/>
		</g>
	</g>
	<g>
		<g>
			<path class="st0" d="M115.321,152.044c-1.906,0-3.45,1.545-3.45,3.45s1.545,3.45,3.45,3.45c1.905,0,3.45-1.545,3.45-3.45     S117.226,152.044,115.321,152.044z"/>
		</g>
	</g>
	<g>
		<g>
			<path class="st0" d="M140.281,152.044c-1.906,0-3.45,1.545-3.45,3.45s1.545,3.45,3.45,3.45s3.45-1.545,3.45-3.45     S142.187,152.044,140.281,152.044z"/>
		</g>
	</g>
	<g>
		<g>
			<path class="st12" d="M108.425,161.309c-3.282,0-5.943,1.989-5.943,4.443c0,2.454,2.661,4.443,5.943,4.443     s5.943-1.989,5.943-4.443C114.369,163.298,111.708,161.309,108.425,161.309z"/>
		</g>
	</g>
	<g>
		<g>
			<path class="st12" d="M147.177,161.309c-3.282,0-5.943,1.989-5.943,4.443c0,2.454,2.661,4.443,5.943,4.443     c3.282,0,5.943-1.989,5.943-4.443C153.12,163.298,150.459,161.309,147.177,161.309z"/>
		</g>
	</g>
	<g>
		<g>
			<path class="st0" d="M138.094,177.082c-0.777-0.291-1.64,0.103-1.931,0.878c-0.662,1.766-3.262,5.106-8.363,5.106     c-4.043,0-6.717-1.66-8.413-5.224c-0.355-0.748-1.25-1.067-1.999-0.71c-0.748,0.356-1.065,1.251-0.71,1.999     c2.19,4.602,5.933,6.935,11.122,6.935c5.86,0,9.899-3.656,11.172-7.053C139.263,178.237,138.869,177.373,138.094,177.082z"/>
		</g>
	</g>
	<g>
		<g>
			<path class="st4" d="M156.886,114.951c-7.427-7.847-17.939-12.742-29.591-12.742c-4.358,0-8.553,0.685-12.484,1.958     c3.114,7.221,6.794,14.155,11.807,20.191c2.304,2.768,4.858,5.322,7.56,7.692c2.201,1.958,4.505,3.805,6.846,5.58     c7.979,6.058,16.592,11.417,25.645,15.782c0.891-3.342,1.362-6.853,1.362-10.475C168.03,132.095,163.798,122.246,156.886,114.951     z"/>
		</g>
	</g>
	<g>
		<g>
			<path class="st0" d="M157.976,113.92c-8.063-8.519-18.959-13.21-30.681-13.21c-4.43,0-8.786,0.683-12.946,2.031     c-0.402,0.13-0.73,0.424-0.904,0.809c-0.175,0.385-0.179,0.825-0.011,1.213c3.714,8.613,7.537,15.145,12.031,20.556     c2.219,2.666,4.817,5.311,7.716,7.854c2.021,1.798,4.29,3.648,6.936,5.654c8.262,6.273,16.977,11.635,25.901,15.938     c0.206,0.099,0.429,0.149,0.651,0.149c0.214,0,0.428-0.045,0.626-0.137c0.406-0.187,0.708-0.545,0.823-0.977     c0.938-3.515,1.412-7.169,1.412-10.861C169.53,132.089,165.427,121.784,157.976,113.92z M165.649,151.242     c-8.162-4.071-16.134-9.046-23.72-14.807c-2.584-1.958-4.793-3.759-6.763-5.512c-2.789-2.447-5.277-4.979-7.395-7.523     c-4.036-4.859-7.523-10.7-10.907-18.283c3.375-0.935,6.876-1.407,10.43-1.407c10.889,0,21.011,4.358,28.502,12.273     c6.922,7.305,10.733,16.877,10.733,26.955C166.53,145.748,166.234,148.533,165.649,151.242z"/>
		</g>
	</g>
	<g>
		<g>
			<path class="st4" d="M127.295,102.209c-4.358,0-8.553,0.685-12.484,1.958c-16.385,5.263-28.244,20.633-28.244,38.77     c0,3.835,0.53,7.545,1.524,11.063c16.069-5.896,31.77-12.978,46.086-21.95c8.075-5.057,15.701-10.71,22.708-17.099     C149.459,107.104,138.947,102.209,127.295,102.209z"/>
		</g>
	</g>
	<g>
		<g>
			<path class="st0" d="M157.976,113.92c-8.063-8.519-18.959-13.21-30.681-13.21c-4.43,0-8.786,0.683-12.943,2.03     c-17.516,5.626-29.284,21.781-29.284,40.198c0,3.897,0.531,7.757,1.58,11.471c0.113,0.402,0.39,0.738,0.762,0.928     c0.213,0.109,0.447,0.164,0.682,0.164c0.175,0,0.35-0.03,0.517-0.092c18.055-6.625,33.222-13.85,46.366-22.087     c8.455-5.295,16.167-11.103,22.923-17.262c0.298-0.271,0.474-0.651,0.488-1.053S158.252,114.212,157.976,113.92z M133.381,130.78     c-12.589,7.889-27.08,14.845-44.255,21.24c-0.703-2.96-1.059-6.008-1.059-9.082c0-17.109,10.932-32.116,27.205-37.343     c3.862-1.251,7.907-1.885,12.022-1.885c10.375,0,20.054,3.957,27.423,11.176C148.376,120.538,141.205,125.879,133.381,130.78z"/>
		</g>
	</g>
	<g>
		<g>
			<path class="st0" d="M82.37,28.357c1.293,1.377,2.208,3.112,2.583,5.04l4.49-5.389L82.37,28.357z"/>
		</g>
	</g>
	<g>
		<g>
			<path class="st0" d="M90.785,27.339c-0.266-0.533-0.797-0.874-1.416-0.829l-7.073,0.349c-0.584,0.029-1.098,0.394-1.316,0.937     c-0.219,0.542-0.104,1.162,0.297,1.588c1.129,1.203,1.892,2.689,2.205,4.3c0.111,0.568,0.539,1.022,1.101,1.166     c0.123,0.032,0.248,0.047,0.372,0.047c0.438,0,0.863-0.193,1.152-0.54l4.489-5.389C90.977,28.511,91.052,27.872,90.785,27.339z      M85.527,30.365c-0.103-0.218-0.212-0.434-0.328-0.645l0.903-0.045L85.527,30.365z"/>
		</g>
	</g>
	<g>
		<g>
			<path class="st3" d="M85.146,35.367c0-5.655-4.584-10.239-10.238-10.239c-5.655,0-10.238,4.584-10.238,10.239     c0,0.535,0.053,1.057,0.133,1.57c-0.386,0.094-0.769,0.2-1.146,0.331c-0.324-0.208-0.647-0.425-0.968-0.651     c-7.425-5.237-10.711-13.359-13.445-9.483c-1.927,2.732-0.603,7.208,2.944,11.447c-4.5-2.594-7.407-4.789-8.408-1.705     c-1.064,3.277,1.719,7.303,6.634,10.336c-4.63-0.418-7.721-0.869-7.336,2.135c0.375,2.926,3.531,5.144,8.031,6.126     c-0.292,1.345-9.007,5.14-8.064,7.448c1.488,3.642,10.782,4.759,17.567,3.085c5.944-1.057,12.949-4.83,16.079-7.96     c3.659-3.659,4.588-9.009,2.798-13.532C82.839,42.832,85.146,39.373,85.146,35.367z"/>
		</g>
	</g>
	<g>
		<g>
			<path class="st0" d="M86.646,35.367c0-6.473-5.266-11.738-11.738-11.738c-6.389,0-11.602,5.131-11.735,11.488     c-2.624-1.926-4.743-4.26-6.461-6.152c-2.353-2.592-4.026-4.453-6.082-4.34c-1.008,0.062-1.887,0.615-2.612,1.644     c-1.494,2.118-1.515,5.028-0.188,8.175c-1.3-0.561-2.424-0.769-3.467-0.374c-0.945,0.357-1.621,1.146-2.01,2.343     c-0.925,2.849,0.314,6.086,3.291,9.008c-1.388,0.054-2.475,0.35-3.237,1.141c-0.702,0.727-0.977,1.729-0.817,2.977     c0.362,2.826,2.706,5.184,6.43,6.589c-0.271,0.178-0.543,0.354-0.792,0.514c-3.254,2.104-6.62,4.278-5.57,6.846     c1.387,3.393,6.857,4.783,12.289,4.783c2.442,0,4.878-0.281,6.93-0.789c6.473-1.152,13.664-5.163,16.876-8.376     c3.662-3.662,4.993-9,3.557-13.908C84.63,43.045,86.646,39.386,86.646,35.367z M78.814,43.173     c-0.694,0.349-1.008,1.17-0.722,1.893c1.629,4.115,0.662,8.793-2.464,11.919c-2.822,2.822-9.467,6.509-15.377,7.564     c-6.694,1.65-14.473,0.242-15.738-2.029c0.451-0.846,3.058-2.53,4.341-3.359c2.409-1.557,3.484-2.291,3.719-3.371     c0.176-0.809-0.337-1.607-1.146-1.784c-3.961-0.865-6.591-2.724-6.863-4.851c-0.048-0.374,0.004-0.512-0.001-0.512     c0.461-0.424,3.075-0.182,4.984-0.006l0.729,0.067c0.708,0.062,1.338-0.359,1.558-1.021c0.22-0.66-0.043-1.385-0.635-1.75     c-4.378-2.701-6.787-6.156-5.995-8.597c0.116-0.358,0.223-0.461,0.219-0.463c0.587-0.195,2.857,1.148,4.508,2.123     c0.48,0.284,0.982,0.58,1.506,0.882c0.63,0.363,1.432,0.223,1.897-0.335c0.468-0.557,0.469-1.369,0.002-1.927     c-3.183-3.802-4.309-7.578-2.869-9.62c0.217-0.307,0.349-0.375,0.346-0.378c0.625,0,2.389,1.943,3.677,3.361     c1.898,2.092,4.263,4.696,7.332,6.861c0.338,0.238,0.679,0.466,1.021,0.687c0.387,0.25,0.87,0.308,1.306,0.156     c0.332-0.116,0.67-0.208,1.01-0.291c0.756-0.185,1.244-0.917,1.126-1.686c-0.078-0.51-0.115-0.937-0.115-1.341     c0-4.818,3.92-8.738,8.738-8.738s8.738,3.92,8.738,8.738C83.646,38.688,81.795,41.679,78.814,43.173z"/>
		</g>
	</g>
	<g>
		<g>
			<path class="st0" d="M76.078,28.526c-0.92,0-1.667,0.746-1.667,1.667c0,0.92,0.746,1.667,1.667,1.667     c0.921,0,1.667-0.746,1.667-1.667C77.745,29.272,76.998,28.526,76.078,28.526z"/>
		</g>
	</g>
	<g>
		<g>
			<path class="st1" d="M127.782,25.661c-11.607,0-21.016,8.352-21.016,18.654c0,4.792,2.038,9.161,5.384,12.465l-3.202,8.07     c-0.316,0.796,0.44,1.599,1.254,1.331l11.883-3.911c1.813,0.452,3.722,0.699,5.698,0.699c7.875,0,14.733-3.847,18.333-9.537     c1.039-1.629,1.806-3.409,2.24-5.296c0.289-1.234,0.443-2.511,0.443-3.821C148.798,34.013,139.389,25.661,127.782,25.661z"/>
		</g>
	</g>
	<g>
		<g>
			<path class="st0" d="M127.782,24.161c-12.415,0-22.516,9.041-22.516,20.154c0,4.695,1.815,9.208,5.133,12.811l-2.845,7.17     c-0.364,0.915-0.171,1.929,0.504,2.646c0.486,0.516,1.14,0.792,1.817,0.792c0.265,0,0.532-0.042,0.795-0.128l11.479-3.778     c1.844,0.426,3.736,0.642,5.633,0.642c8.097,0,15.606-3.922,19.598-10.23c1.152-1.807,1.972-3.746,2.436-5.763     c0.32-1.363,0.482-2.763,0.482-4.161C150.298,33.202,140.197,24.161,127.782,24.161z M146.895,47.793     c-0.001,0.002-0.001,0.005-0.002,0.007c-0.387,1.683-1.074,3.307-2.045,4.831c-3.449,5.452-9.988,8.838-17.065,8.838     c-1.799,0-3.594-0.22-5.334-0.655c-0.272-0.068-0.563-0.058-0.832,0.03l-10.887,3.583l2.815-7.095     c0.222-0.56,0.088-1.197-0.341-1.621c-3.184-3.145-4.938-7.192-4.938-11.398c0-9.459,8.755-17.154,19.516-17.154     s19.516,7.695,19.516,17.154C147.298,45.484,147.162,46.654,146.895,47.793z"/>
		</g>
	</g>
	<g>
		<g>
			<path class="st3" d="M116.251,41.15c-1.844,0-3.338,1.494-3.338,3.338c0,1.843,1.494,3.338,3.338,3.338     c1.843,0,3.338-1.494,3.338-3.338C119.589,42.645,118.095,41.15,116.251,41.15z"/>
		</g>
	</g>
	<g>
		<g>
			<path class="st0" d="M116.251,39.65c-2.668,0-4.838,2.17-4.838,4.838s2.17,4.838,4.838,4.838s4.838-2.17,4.838-4.838     S118.919,39.65,116.251,39.65z M116.251,46.326c-1.014,0-1.838-0.825-1.838-1.838s0.824-1.838,1.838-1.838     s1.838,0.825,1.838,1.838S117.265,46.326,116.251,46.326z"/>
		</g>
	</g>
	<g>
		<g>
			<path class="st3" d="M127.782,41.15c-1.843,0-3.338,1.494-3.338,3.338c0,1.843,1.494,3.338,3.338,3.338     c1.844,0,3.338-1.494,3.338-3.338C131.12,42.645,129.626,41.15,127.782,41.15z"/>
		</g>
	</g>
	<g>
		<g>
			<path class="st0" d="M127.782,39.65c-2.668,0-4.838,2.17-4.838,4.838s2.17,4.838,4.838,4.838s4.838-2.17,4.838-4.838     S130.45,39.65,127.782,39.65z M127.782,46.326c-1.014,0-1.838-0.825-1.838-1.838s0.824-1.838,1.838-1.838     s1.838,0.825,1.838,1.838S128.796,46.326,127.782,46.326z"/>
		</g>
	</g>
	<g>
		<g>
			<path class="st3" d="M139.313,41.15c-1.844,0-3.338,1.494-3.338,3.338c0,1.843,1.495,3.338,3.338,3.338     c1.843,0,3.338-1.494,3.338-3.338C142.651,42.645,141.156,41.15,139.313,41.15z"/>
		</g>
	</g>
	<g>
		<g>
			<path class="st0" d="M139.313,39.65c-2.668,0-4.838,2.17-4.838,4.838s2.17,4.838,4.838,4.838s4.838-2.17,4.838-4.838     S141.98,39.65,139.313,39.65z M139.313,46.326c-1.014,0-1.838-0.825-1.838-1.838s0.824-1.838,1.838-1.838     s1.838,0.825,1.838,1.838S140.326,46.326,139.313,46.326z"/>
		</g>
	</g>
	<g>
		<g>
			<path class="st4" d="M198.709,31.278l-8.102,4.083l-2.704,1.362l-8.741,4.405c0.95,0.995,1.614,2.265,1.855,3.681l19.502-9.825     C199.581,33.976,198.934,32.698,198.709,31.278z"/>
		</g>
	</g>
	<g>
		<g>
			<path class="st0" d="M201.617,33.963c-0.761-0.818-1.254-1.827-1.427-2.919c-0.075-0.473-0.371-0.882-0.797-1.101     c-0.427-0.219-0.933-0.22-1.359-0.004l-19.547,9.85c-0.425,0.214-0.723,0.616-0.804,1.084c-0.08,0.468,0.065,0.947,0.394,1.291     c0.771,0.807,1.275,1.809,1.461,2.897c0.08,0.469,0.378,0.873,0.803,1.087c0.212,0.107,0.444,0.161,0.676,0.161     s0.463-0.054,0.675-0.161l19.502-9.825c0.422-0.212,0.719-0.61,0.802-1.075S201.938,34.309,201.617,33.963z M181.941,42.664     c-0.146-0.344-0.315-0.679-0.506-1.002l7.143-3.599l9.188-4.63c0.143,0.347,0.309,0.684,0.496,1.008L181.941,42.664z"/>
		</g>
	</g>
	<g>
		<g>
			<path class="st4" d="M192.778,53.02l-2.716-1.347l-9.037-4.483c-0.235,1.418-0.89,2.694-1.834,3.693l19.527,9.687     c0.233-1.418,0.888-2.694,1.832-3.696L192.778,53.02z"/>
		</g>
	</g>
	<g>
		<g>
			<path class="st0" d="M202.026,56.611c-0.084-0.468-0.384-0.869-0.81-1.08l-19.524-9.685c-0.427-0.211-0.926-0.208-1.351,0.008     c-0.423,0.217-0.719,0.621-0.796,1.09c-0.182,1.094-0.682,2.1-1.446,2.909c-0.326,0.346-0.47,0.826-0.386,1.294     c0.083,0.468,0.384,0.869,0.81,1.08l19.527,9.687c0.211,0.104,0.438,0.156,0.667,0.156c0.235,0,0.47-0.055,0.685-0.166     c0.424-0.217,0.719-0.622,0.796-1.092c0.179-1.092,0.678-2.098,1.443-2.909C201.967,57.558,202.11,57.079,202.026,56.611z      M197.779,58.43l-16.317-8.095c0.188-0.324,0.355-0.66,0.5-1.006l7.434,3.688l8.884,4.407     C198.091,57.748,197.924,58.084,197.779,58.43z"/>
		</g>
	</g>
	<g>
		<g>
			<path class="st2" d="M205.71,23.069c-3.916,0-7.09,3.174-7.09,7.09s3.174,7.09,7.09,7.09c3.915,0,7.09-3.174,7.09-7.09     S209.626,23.069,205.71,23.069z"/>
		</g>
	</g>
	<g>
		<g>
			<path class="st0" d="M205.71,21.569c-4.736,0-8.59,3.853-8.59,8.589s3.854,8.59,8.59,8.59s8.59-3.854,8.59-8.59     S210.446,21.569,205.71,21.569z M205.71,35.748c-3.082,0-5.59-2.508-5.59-5.59s2.508-5.589,5.59-5.589s5.59,2.507,5.59,5.589     S208.792,35.748,205.71,35.748z"/>
		</g>
	</g>
	<g>
		<g>
			<path class="st3" d="M205.71,54.647c-3.916,0-7.09,3.174-7.09,7.09s3.174,7.09,7.09,7.09c3.915,0,7.09-3.174,7.09-7.09     S209.626,54.647,205.71,54.647z"/>
		</g>
	</g>
	<g>
		<g>
			<path class="st0" d="M205.71,53.147c-4.736,0-8.59,3.854-8.59,8.59s3.854,8.59,8.59,8.59s8.59-3.854,8.59-8.59     S210.446,53.147,205.71,53.147z M205.71,67.327c-3.082,0-5.59-2.508-5.59-5.59s2.508-5.59,5.59-5.59s5.59,2.508,5.59,5.59     S208.792,67.327,205.71,67.327z"/>
		</g>
	</g>
	<g>
		<g>
			<circle class="st1" cx="174.031" cy="46.021" r="7.09"/>
		</g>
	</g>
	<g>
		<g>
			<path class="st0" d="M174.031,37.432c-4.736,0-8.59,3.854-8.59,8.59s3.854,8.589,8.59,8.589s8.59-3.853,8.59-8.589     S178.768,37.432,174.031,37.432z M174.031,51.611c-3.082,0-5.59-2.507-5.59-5.589s2.508-5.59,5.59-5.59s5.59,2.508,5.59,5.59     S177.113,51.611,174.031,51.611z"/>
		</g>
	</g>
</g>
</svg>
