<?xml version="1.0" encoding="UTF-8" standalone="no"?>
<svg
   xmlns:dc="http://purl.org/dc/elements/1.1/"
   xmlns:cc="http://creativecommons.org/ns#"
   xmlns:rdf="http://www.w3.org/1999/02/22-rdf-syntax-ns#"
   xmlns:svg="http://www.w3.org/2000/svg"
   xmlns="http://www.w3.org/2000/svg"
   xmlns:sodipodi="http://sodipodi.sourceforge.net/DTD/sodipodi-0.dtd"
   xmlns:inkscape="http://www.inkscape.org/namespaces/inkscape"
   id="Capa_1"
   enable-background="new 0 0 512 512"
   height="512"
   viewBox="0 0 512 512"
   width="512"
   version="1.1"
   sodipodi:docname="salary.svg"
   inkscape:version="1.0 (4035a4fb49, 2020-05-01)">
  <metadata
     id="metadata85">
    <rdf:RDF>
      <cc:Work
         rdf:about="">
        <dc:format>image/svg+xml</dc:format>
        <dc:type
           rdf:resource="http://purl.org/dc/dcmitype/StillImage" />
      </cc:Work>
    </rdf:RDF>
  </metadata>
  <defs
     id="defs83" />
  <sodipodi:namedview
     inkscape:document-rotation="0"
     pagecolor="#ffffff"
     bordercolor="#666666"
     borderopacity="1"
     objecttolerance="10"
     gridtolerance="10"
     guidetolerance="10"
     inkscape:pageopacity="0"
     inkscape:pageshadow="2"
     inkscape:window-width="1296"
     inkscape:window-height="704"
     id="namedview81"
     showgrid="false"
     inkscape:zoom="1.0898437"
     inkscape:cx="105.87462"
     inkscape:cy="326.84025"
     inkscape:window-x="70"
     inkscape:window-y="27"
     inkscape:window-maximized="1"
     inkscape:current-layer="g68" />
  <g
     id="g78">
    <g
       id="g74">
      <g
         id="g26">
        <g
           id="g10">
          <g
             id="g4">
            <path
               d="m230.094 94.206c-2.373 0-4.714-1.089-6.229-3.148-7.026-9.546-19.528-20.497-39.201-18.396-23.161 2.467-40.361-4.904-50.713-11.521-3.595-2.298-4.646-7.075-2.349-10.67 2.297-3.596 7.076-4.646 10.67-2.349 8.269 5.284 22.052 11.171 40.756 9.175 28.388-3.014 45.567 14.118 53.282 24.603 2.529 3.436 1.793 8.273-1.644 10.802-1.379 1.014-2.982 1.504-4.572 1.504z"
               fill="#ffd064"
               id="path2" />
          </g>
          <g
             id="g8">
            <path
               d="m149.207 135.233c-1.379 0-2.773-.368-4.035-1.143-3.637-2.232-4.774-6.989-2.542-10.626 9.903-16.133 28.051-27.221 52.483-32.065 17.814-3.531 32.761-2.564 33.387-2.52 4.257.292 7.471 3.979 7.179 8.236-.292 4.254-3.988 7.444-8.227 7.18-.536-.036-52.996-3.146-71.654 27.252-1.458 2.377-3.995 3.686-6.591 3.686z"
               fill="#ffd064"
               id="path6" />
          </g>
        </g>
        <g
           id="g24">
          <g
             id="g22">
            <path
               d="m265.662 431.277c126.881 0 197.039-186.11-3.326-329.853-4.984-3.576-7.944-9.333-7.877-15.467.055-5.069 1.661-9.99 4.568-14.143 9.38-13.395 22.882-36.309 30.979-54.765 1.939-4.42-.836-9.174-6.023-9.174-12.035.001-12.035-7.875-24.07-7.875s-12.035 7.876-24.071 7.876c-10.256 0-14.464-8.824-19.45-2.406-14.542 18.716 35.266 84.533 35.266 84.533-219.974 144.61-149.047 341.275-19.171 341.275h33.175z"
               fill="#eabc6b"
               id="path12" />
            <g
               id="g16">
              <path
                 d="m315.54 90.002s50.547-65.604 36.012-84.423c-4.954-6.414-9.178 2.297-19.423 2.297-12.037-.001-12.037-7.876-24.074-7.876-12.036 0-12.036 7.875-24.072 7.875-.593 0-1.134-.033-1.671-.07-4.836 20.73-26.629 53.025-39.1 70.317 4.911 7.207 8.447 11.879 8.447 11.879-2.934 1.929-5.806 3.869-8.637 5.816 210.171 144.459 139.847 335.459 11.31 335.459h81.158c130.269.001 200.757-196.183-19.95-341.274z"
                 fill="#e8ae4d"
                 id="path14" />
            </g>
            <g
               id="g20">
              <path
                 d="m324.939 113.336c-29.371 7.418-58.388 7.418-87.764 0-10.224-2.582-16.02-14.079-12.341-24.53.041-.117.082-.234.123-.351 3.085-8.762 11.834-13.679 20.409-11.526 24.05 6.038 47.324 6.04 71.381 0 8.575-2.153 17.324 2.764 20.409 11.526.041.117.082.234.123.351 3.68 10.451-2.116 21.948-12.34 24.53z"
                 fill="#ffe07d"
                 id="path18" />
            </g>
          </g>
        </g>
      </g>
      <g
         id="g72"
         transform="matrix(0.99314679,-0.01053106,0,1,0.05475711,2.6959555)">
        <g
           id="g70">
          <g
             id="g68">
            <g
               id="g66">
              <g
                 id="g64">
                <g
                   id="g62">
                  <g
                     id="g60">
                    <g
                       id="g58">
                      <g
                         id="g56">
                        <g
                           id="g54">
                          <g
                             id="g50">
                            <g
                               id="g48">
                              <g
                                 id="g30">
                                <path
                                   d="m 48.777,465.019 111.856,41.634 c 9.5,3.536 19.555,5.347 29.692,5.347 h 115.276 c 16.132,0 31.932,-4.584 45.559,-13.219 l 144.337,-91.46 c 9.523,-8.456 11.288,-22.666 4.124,-33.195 -7.839,-11.52 -20.806,-13.522 -35.075,-6.775 l -140.526,61.874 0.166,-22.799 c -1.861,-18.714 -16.27,-33.733 -34.89,-36.367 L 203.72,360.206 C 183.979,357.413 174.115,350.797 156.905,340.73 133.41,326.986 106.68,319.742 79.46,319.742 H 48.777 Z"
                                   fill="#ffddce"
                                   id="path28" />
                              </g>
                              <path
                                 d="m 153.84,484.469 c 9.987,3.717 20.558,5.621 31.214,5.621 H 306.24 c 12.902,0 25.598,-2.796 37.243,-8.127 l 84.739,-53.696 c 7.873,-4.989 12.871,-13.673 12.615,-22.99 -0.136,-4.941 -1.646,-9.887 -4.605,-14.235 0,0 -2.58,-4.421 -5.231,-8.921 l -106.981,47.104 0.166,-22.799 c -1.861,-18.714 -16.27,-33.733 -34.89,-36.367 L 203.72,360.206 C 183.979,357.413 174.115,350.797 156.905,340.73 133.41,326.986 106.68,319.742 79.46,319.742 H 48.777 v 125.621 z"
                                 fill="#ffddce"
                                 id="path32" />
                              <path
                                 d="m 499.62,374.126 c -7.839,-11.52 -20.806,-13.522 -35.075,-6.775 l -38.653,17.019 c 1.872,2.963 3.361,5.328 3.361,5.328 7.164,10.529 5.399,24.739 -4.124,33.195 l -84.103,53.292 c -11.077,5.071 -23.154,7.731 -35.427,7.731 H 190.325 c -10.137,0 -20.192,-1.811 -29.692,-5.347 L 48.777,436.934 v 28.084 l 111.856,41.635 c 9.5,3.536 19.555,5.347 29.692,5.347 h 94.182 21.095 c 16.132,0 31.932,-4.584 45.559,-13.219 l 144.337,-91.46 c 9.521,-8.456 11.287,-22.667 4.122,-33.195 z"
                                 fill="#ffcbbe"
                                 id="path34" />
                              <g
                                 id="g38">
                                <path
                                   d="m 313.694,382.938 -0.004,0.55 0.363,-0.16 c -0.118,-0.132 -0.24,-0.259 -0.359,-0.39 z"
                                   fill="#f5dbcc"
                                   id="path36" />
                              </g>
                              <g
                                 id="g46">
                                <g
                                   id="g44">
                                <g
                                   id="g42">
                                <path
                                   d="M 324.019,429.211 H 236.64 c -4.267,0 -7.726,-3.458 -7.726,-7.726 0,-4.268 3.458,-7.726 7.726,-7.726 h 87.492 z"
                                   fill="#ffcbbe"
                                   id="path40" />
                                </g>
                                </g>
                              </g>
                            </g>
                          </g>
                          <path
                             d="m 72.846,487.299 c 0,8.116 -6.579,14.695 -14.695,14.695 H 22.685 c -8.116,0 -14.695,-6.579 -14.695,-14.695 V 307.363 c 0,-8.116 6.579,-14.695 14.695,-14.695 h 35.466 c 8.116,0 14.695,6.579 14.695,14.695 z"
                             fill="#407093"
                             id="path52"
                             style="fill:#33a4fb;fill-opacity:1" />
                        </g>
                      </g>
                    </g>
                  </g>
                </g>
              </g>
            </g>
          </g>
        </g>
      </g>
    </g>
    <path
       d="m300.616 239.427c-3.538-1.251-6.794-2.447-9.798-3.602v-49.26c9.138 1.515 14.624 6.242 15.026 6.599 3.139 2.854 7.995 2.644 10.875-.479 2.893-3.137 2.696-8.023-.441-10.917-.543-.503-10.005-9.027-25.461-10.807v-10.985c0-4.267-3.458-7.726-7.726-7.726s-7.726 3.458-7.726 7.726v11.611c-1.863.357-3.771.811-5.732 1.401-13.106 3.947-22.902 15.185-25.567 29.326-2.418 12.832 1.65 25.173 10.618 32.207 5.148 4.038 11.63 7.735 20.681 11.687v61.102c-8.941-.375-14.432-2.059-24.029-8.336-3.571-2.335-8.358-1.335-10.694 2.236-2.336 3.57-1.335 8.358 2.236 10.694 12.612 8.251 21.043 10.403 32.487 10.848v12.264c0 4.267 3.458 7.726 7.726 7.726s7.726-3.458 7.726-7.726v-12.807c21.688-3.519 34.344-21.074 37.096-37.45 3.442-20.461-7.275-38.254-27.297-45.332zm-36.396-17.065c-4.411-3.459-6.314-10.045-4.968-17.187 1.247-6.623 5.801-14.67 14.839-17.392.43-.13.853-.242 1.276-.355v41.733c-4.627-2.309-8.255-4.531-11.147-6.799zm48.457 59.833c-1.705 10.139-9.147 20.963-21.859 24.221v-54.094c1.503.55 3.039 1.105 4.647 1.673 19.227 6.796 18.035 23.303 17.212 28.2z"
       fill="#fff"
       id="path76" />
  </g>
</svg>
