<?xml version="1.0" encoding="UTF-8" standalone="no"?>
<svg
   xmlns:dc="http://purl.org/dc/elements/1.1/"
   xmlns:cc="http://creativecommons.org/ns#"
   xmlns:rdf="http://www.w3.org/1999/02/22-rdf-syntax-ns#"
   xmlns:svg="http://www.w3.org/2000/svg"
   xmlns="http://www.w3.org/2000/svg"
   xmlns:sodipodi="http://sodipodi.sourceforge.net/DTD/sodipodi-0.dtd"
   xmlns:inkscape="http://www.inkscape.org/namespaces/inkscape"
   inkscape:version="1.0 (4035a4fb49, 2020-05-01)"
   sodipodi:docname="share.svg"
   viewBox="0 0 3560 2666.6667"
   height="2666.6667"
   width="3560"
   xml:space="preserve"
   id="svg2"
   version="1.1"><metadata
     id="metadata8"><rdf:RDF><cc:Work
         rdf:about=""><dc:format>image/svg+xml</dc:format><dc:type
           rdf:resource="http://purl.org/dc/dcmitype/StillImage" /><dc:title></dc:title></cc:Work></rdf:RDF></metadata><defs
     id="defs6" /><sodipodi:namedview
     inkscape:current-layer="g12"
     inkscape:window-maximized="1"
     inkscape:window-y="27"
     inkscape:window-x="70"
     inkscape:cy="1333.3334"
     inkscape:cx="1780"
     inkscape:zoom="0.20924999"
     showgrid="false"
     id="namedview4"
     inkscape:window-height="704"
     inkscape:window-width="1296"
     inkscape:pageshadow="2"
     inkscape:pageopacity="0"
     guidetolerance="10"
     gridtolerance="10"
     objecttolerance="10"
     borderopacity="1"
     bordercolor="#666666"
     pagecolor="#ffffff" /><g
     transform="matrix(1.3333333,0,0,-1.3333333,0,2666.6667)"
     inkscape:label="ink_ext_XXXXXX"
     inkscape:groupmode="layer"
     id="g10"><g
       transform="scale(0.1)"
       id="g12"><g
         transform="scale(1.63804)"
         id="g14"><path
           id="path16"
           style="fill:#ffffff;fill-opacity:1;fill-rule:nonzero;stroke:none"
           d="M 16300,0 H 0 V 12209.7 H 16300 V 0" /></g><g
         transform="scale(1.63432)"
         id="g18"><path
           id="path20"
           style="fill:#e3eaff;fill-opacity:1;fill-rule:nonzero;stroke:none"
           d="M 2478.03,360.395 C 1366.97,1570.19 -151.537,2819.34 443.906,4706.24 835.552,5947.37 1795.83,6293.32 2594.03,7058.63 c 393.94,377.69 146.17,927.45 138.86,1473.08 -16.7,1397.32 1542.7,2481.59 2976.36,2458.99 1552.86,-24.5 2225.06,-1585.72 3527.69,-1669.45 511.53,-7.85 969.56,292.35 1422.16,530.81 1340.9,706.54 3468.7,255.94 3576.2,-1452.74 27.8,-922.79 -1022.5,-2407.41 29.8,-2892.74 C 15103.8,5119.75 15951,4977.3 16102.2,3593.79 16300,1782.95 15254.2,789.076 13891.4,323.07 L 2478.03,360.395" /></g><path
         id="path22"
         style="fill:#ffffff;fill-opacity:1;fill-rule:nonzero;stroke:none"
         d="m 5237.39,11843.5 h 2526.8 c 312.77,0 566.32,-253.6 566.32,-566.3 v -1177.9 c 0,-312.8 -253.55,-566.4 -566.32,-566.4 h -18.75 l 202.8,-679.4 c 8.93,-29.8 -25.59,-53.7 -50.39,-34.8 l -936.22,714.2 H 5237.39 c -312.77,0 -566.32,253.6 -566.32,566.4 v 1177.9 c 0,312.7 253.55,566.3 566.32,566.3" /><path
         id="path24"
         style="fill:#e3eaff;fill-opacity:1;fill-rule:nonzero;stroke:none"
         d="M 7763.01,10854.4 H 5337.07 c -154.82,0 -280.32,125.5 -280.32,280.3 v 0 c 0,154.8 125.5,280.3 280.32,280.3 h 2425.94 c 154.82,0 280.32,-125.5 280.32,-280.3 v 0 c 0,-154.8 -125.5,-280.3 -280.32,-280.3" /><path
         id="path26"
         style="fill:#e3eaff;fill-opacity:1;fill-rule:nonzero;stroke:none"
         d="M 7763.01,9998.3 H 5337.07 c -154.82,0 -280.32,125.5 -280.32,280.3 v 0 c 0,154.9 125.5,280.3 280.32,280.3 h 2425.94 c 154.82,0 280.32,-125.4 280.32,-280.3 v 0 c 0,-154.8 -125.5,-280.3 -280.32,-280.3" /><g
         transform="scale(1.30789)"
         id="g28"><path
           id="path30"
           style="fill:#ffffff;fill-opacity:1;fill-rule:nonzero;stroke:none"
           d="m 15827.8,11486.5 h -2106.9 c -260.9,0 -472.3,-211.5 -472.3,-472.3 v -982.1 c 0,-260.82 211.4,-472.25 472.3,-472.25 h 15.6 l -169.1,-566.52 c -7.5,-24.91 21.3,-44.8 42,-29.02 l 780.7,595.54 h 1437.7 c 260.8,0 472.2,211.43 472.2,472.25 v 982.1 c 0,260.8 -211.4,472.3 -472.2,472.3" /></g><g
         transform="scale(1.28386)"
         id="g32"><path
           id="path34"
           style="fill:#e3eaff;fill-opacity:1;fill-rule:nonzero;stroke:none"
           d="m 16105.9,10855.8 h -2161.1 c -107.1,0 -194.1,86.9 -194.1,194.1 v 48.5 c 0,107.2 87,194.1 194.1,194.1 h 2161.1 c 107.2,0 194.1,-86.9 194.1,-194.1 v -48.5 c 0,-107.2 -86.9,-194.1 -194.1,-194.1" /></g><g
         transform="scale(1.20268)"
         id="g36"><path
           id="path38"
           style="fill:#e3eaff;fill-opacity:1;fill-rule:nonzero;stroke:none"
           d="m 16066.9,10883.8 h -1080.3 c -128.7,0 -233.1,104.3 -233.1,233 v 0 c 0,128.8 104.4,233.1 233.1,233.1 h 1080.3 c 128.7,0 233.1,-104.3 233.1,-233.1 v 0 c 0,-128.7 -104.4,-233 -233.1,-233" /></g><path
         id="path40"
         style="fill:#ffffff;fill-opacity:1;fill-rule:nonzero;stroke:none"
         d="m 2629.69,3956.9 c -141.6,0 -236.77,106.8 -236.77,236.7 0,111.5 95.17,218.2 236.77,218.2 123.02,0 218.19,-106.7 218.19,-218.2 0,-127.6 -90.53,-236.7 -218.19,-236.7 z m -318.01,1548.2 c 104.45,78.9 229.8,118.4 376.04,118.4 315.68,0 482.81,-171.8 482.81,-413.2 0,-139.2 -67.31,-280.8 -204.27,-422.4 -174.09,-183.4 -299.43,-273.9 -378.35,-273.9 -76.61,0 -132.31,60.3 -132.31,132.3 0,65 60.35,129.9 164.8,225.1 6.97,7 13.93,14 18.57,16.3 118.38,109.1 155.52,169.4 155.52,243.7 0,92.9 -62.67,143.9 -153.2,143.9 -41.78,0 -90.52,-9.3 -148.56,-27.8 -58.02,-18.6 -99.81,-27.9 -125.34,-27.9 -65,0 -139.27,55.7 -139.27,148.6 0,48.7 27.85,95.1 83.56,136.9" /><g
         transform="scale(1.33988)"
         id="g42"><path
           id="path44"
           style="fill:#ffffff;fill-opacity:1;fill-rule:nonzero;stroke:none"
           d="m 16034.5,7236.19 c -69.5,0 -116.2,52.46 -116.2,116.28 0,54.63 46.7,107.02 116.2,107.02 60.4,0 107.1,-52.39 107.1,-107.02 0,-62.7 -44.4,-116.28 -107.1,-116.28 z m -156,759.95 c 51.2,38.73 112.7,58.1 184.5,58.1 155,0 237,-84.31 237,-202.8 0,-68.36 -33.1,-137.86 -100.3,-207.35 -85.4,-90.01 -147,-134.43 -185.7,-134.43 -37.6,0 -64.9,29.62 -64.9,64.93 0,31.9 29.6,63.81 80.9,110.51 3.4,3.42 6.8,6.84 9.1,7.98 58.1,53.55 76.3,83.16 76.3,119.63 0,45.57 -30.7,70.63 -75.2,70.63 -20.4,0 -44.4,-4.56 -72.9,-13.67 -28.5,-9.11 -49,-13.67 -61.5,-13.67 -32,0 -68.4,27.34 -68.4,72.91 0,23.93 13.7,46.72 41.1,67.23" /></g><g
         transform="scale(1.59104)"
         id="g46"><path
           id="path48"
           style="fill:#ffffff;fill-opacity:1;fill-rule:nonzero;stroke:none"
           d="m 16241.7,3188.05 h -1821.6 c -32.2,0 -58.3,26.08 -58.3,58.32 v 1567.98 c 0,32.24 26.1,58.32 58.3,58.32 32.2,0 58.3,-26.08 58.3,-58.32 V 3304.7 h 1763.3 c 32.2,0 58.3,-26.15 58.3,-58.33 0,-32.24 -26.1,-58.32 -58.3,-58.32" /></g><g
         transform="scale(1.54807)"
         id="g50"><path
           id="path52"
           style="fill:#ffffff;fill-opacity:1;fill-rule:nonzero;stroke:none"
           d="m 14962,3670.43 c -15,0 -30,5.62 -41.7,16.86 -23.7,23 -24.4,60.92 -1.4,84.75 l 605.1,625.88 c 20,20.67 51.7,24.22 75.7,8.65 l 286.2,-185.58 301.7,350.56 c 21.6,25.06 59.4,27.91 84.5,6.33 25.1,-21.57 27.9,-59.42 6.3,-84.49 l -335.8,-390.29 c -19.6,-22.67 -52.9,-27.46 -78,-11.18 l -288.7,187.27 -570.8,-590.48 c -11.8,-12.14 -27.4,-18.28 -43.1,-18.28" /></g><g
         transform="scale(1.55944)"
         id="g54"><path
           id="path56"
           style="fill:#ffffff;fill-opacity:1;fill-rule:nonzero;stroke:none"
           d="m 16161,4283.14 -84.7,171.72 -182.4,58.23 406.1,201.68 -139,-431.63" /></g><path
         id="path58"
         style="fill:#ffffff;fill-opacity:1;fill-rule:nonzero;stroke:none"
         d="m 6370.1,15087.4 c -224.3,0 -406.79,-182.4 -406.79,-406.7 0,-224.3 182.49,-406.8 406.79,-406.8 224.3,0 406.79,182.5 406.79,406.8 0,224.3 -182.49,406.7 -406.79,406.7 z m 0,-968.2 c -309.57,0 -561.42,251.9 -561.42,561.5 0,309.5 251.85,561.4 561.42,561.4 309.57,0 561.42,-251.9 561.42,-561.4 0,-309.6 -251.85,-561.5 -561.42,-561.5" /><g
         transform="scale(1.46683)"
         id="g60"><path
           id="path62"
           style="fill:#e3eaff;fill-opacity:1;fill-rule:nonzero;stroke:none"
           d="m 16019.7,7062.85 c -112,0 -203.2,-91.13 -203.2,-203.14 0,-112.02 91.2,-203.1 203.2,-203.1 112,0 203.1,91.08 203.1,203.1 0,112.01 -91.1,203.14 -203.1,203.14 z m 0,-483.48 c -154.7,0 -280.4,125.78 -280.4,280.34 0,154.58 125.7,280.35 280.4,280.35 154.5,0 280.3,-125.77 280.3,-280.35 0,-154.56 -125.8,-280.34 -280.3,-280.34" /></g><path
         id="path64"
         style="fill:#ffffff;fill-opacity:1;fill-rule:nonzero;stroke:none"
         d="m 1909.73,8033.3 c -147.52,0 -267.53,-120 -267.53,-267.5 0,-147.6 120.01,-267.6 267.53,-267.6 147.52,0 267.54,120 267.54,267.6 0,147.5 -120.02,267.5 -267.54,267.5 z m 0,-636.8 c -203.59,0 -369.23,165.7 -369.23,369.3 0,203.6 165.64,369.2 369.23,369.2 203.6,0 369.23,-165.6 369.23,-369.2 0,-203.6 -165.63,-369.3 -369.23,-369.3" /><g
         transform="scale(1.33145)"
         id="g66"><path
           id="path68"
           style="fill:#ffffff;fill-opacity:1;fill-rule:nonzero;stroke:none"
           d="m 16300,11834.4 c 0,-83.4 -67.5,-150.9 -150.8,-150.9 -83.4,0 -150.9,67.5 -150.9,150.9 0,83.3 67.5,150.8 150.9,150.8 83.3,0 150.8,-67.5 150.8,-150.8" /></g><path
         id="path70"
         style="fill:#e3eaff;fill-opacity:1;fill-rule:nonzero;stroke:none"
         d="m 4095.13,12037.6 c 0,-218.2 -176.84,-395 -394.98,-395 -218.14,0 -394.98,176.8 -394.98,395 0,218.1 176.84,395 394.98,395 218.14,0 394.98,-176.9 394.98,-395" /><g
         transform="scale(1.40509)"
         id="g72"><path
           id="path74"
           style="fill:#e3eaff;fill-opacity:1;fill-rule:nonzero;stroke:none"
           d="m 16300,11768.4 c 0,-116.7 -94.7,-211.3 -211.4,-211.3 -116.7,0 -211.3,94.6 -211.3,211.3 0,116.7 94.6,211.3 211.3,211.3 116.7,0 211.4,-94.6 211.4,-211.3" /></g><g
         transform="scale(1.49424)"
         id="g76"><path
           id="path78"
           style="fill:#e3eaff;fill-opacity:1;fill-rule:nonzero;stroke:none"
           d="m 16300,6294.58 c 0,-93.7 -76,-169.66 -169.7,-169.66 -93.6,0 -169.5,75.96 -169.5,169.66 0,93.69 75.9,169.58 169.5,169.58 93.7,0 169.7,-75.89 169.7,-169.58" /></g><g
         transform="scale(1.35964)"
         id="g80"><path
           id="path82"
           style="fill:#ffffff;fill-opacity:1;fill-rule:nonzero;stroke:none"
           d="m 16300,11032.5 c 0,-128.4 -104.1,-232.4 -232.4,-232.4 -128.4,0 -232.4,104 -232.4,232.4 0,128.4 104,232.4 232.4,232.4 128.3,0 232.4,-104 232.4,-232.4" /></g><path
         id="path84"
         style="fill:#ffffff;fill-opacity:1;fill-rule:nonzero;stroke:none"
         d="m 7628.74,15574.1 c 0,-177 -143.51,-320.5 -320.53,-320.5 -177.03,0 -320.53,143.5 -320.53,320.5 0,177 143.5,320.5 320.53,320.5 177.02,0 320.53,-143.5 320.53,-320.5" /><g
         transform="scale(1.40485)"
         id="g86"><path
           id="path88"
           style="fill:#201d40;fill-opacity:1;fill-rule:nonzero;stroke:none"
           d="M 16220.2,296.048 H 2715.05 c -44.06,0 -79.77,35.733 -79.77,79.794 v 0 c 0,44.063 35.71,79.796 79.77,79.796 H 16220.2 c 44.1,0 79.8,-35.733 79.8,-79.796 v 0 c 0,-44.061 -35.7,-79.794 -79.8,-79.794" /></g><path
         id="path90"
         style="fill:#f37a50;fill-opacity:1;fill-rule:nonzero;stroke:none"
         d="m 10090.2,10230.5 h 0.4 l 291.2,-1.1 65.9,-687.8 -339.9,-179.5 -362.55,177.5 58.59,689.8 286.36,1.1" /><path
         id="path92"
         style="fill:#f37a50;fill-opacity:1;fill-rule:nonzero;stroke:none"
         d="m 9290.13,10534.1 c 179.24,-447.9 609.7,-696.9 961.47,-556.1 351.8,140.8 491.6,618 312.4,1065.8 -179.2,447.9 -609.71,696.9 -961.48,556.1 -351.76,-140.8 -491.62,-618 -312.39,-1065.8" /><path
         id="path94"
         style="fill:#000000;fill-opacity:1;fill-rule:nonzero;stroke:none"
         d="m 10411,10896.9 c 20.8,-29.9 61.9,-37.3 91.7,-16.5 29.9,20.8 37.3,61.8 16.5,91.7 -20.8,29.9 -61.8,37.3 -91.7,16.5 -29.9,-20.8 -37.3,-61.9 -16.5,-91.7" /><path
         id="path96"
         style="fill:#000000;fill-opacity:1;fill-rule:nonzero;stroke:none"
         d="m 9917.5,10695.4 c 22.49,-32.3 66.94,-40.3 99.3,-17.8 32.3,22.5 40.3,66.9 17.8,99.3 -22.5,32.3 -66.94,40.3 -99.28,17.8 -32.34,-22.5 -40.32,-66.9 -17.82,-99.3" /><path
         id="path98"
         style="fill:#de623c;fill-opacity:1;fill-rule:nonzero;stroke:none"
         d="m 10311,10791.7 c 89,-70.2 200.4,-155 200.4,-155 0,0 1.2,-107.3 -124.3,-153.9 45.4,41.2 85.2,96 38,159.3 -47.3,63.2 -114.1,149.6 -114.1,149.6" /><path
         id="path100"
         style="fill:#201d40;fill-opacity:1;fill-rule:nonzero;stroke:none"
         d="m 9787.64,10738.3 c -2.53,0 -5.1,0.3 -7.66,0.9 -17.66,4.2 -28.56,22 -24.35,39.6 11.51,48.3 59.77,139.6 160.03,140.1 18.3,-0.2 32.95,-14.6 33.04,-32.8 0.08,-18.1 -14.56,-32.9 -32.72,-33 -74.25,-0.3 -96.18,-88.6 -96.39,-89.5 -3.6,-15.1 -17.08,-25.3 -31.95,-25.3" /><path
         id="path102"
         style="fill:#201d40;fill-opacity:1;fill-rule:nonzero;stroke:none"
         d="m 10342,11036.2 c -4.7,0 -9.5,1.2 -13.8,3.8 -13.1,7.6 -17.4,24.4 -9.8,37.5 1.2,2 30,50.2 84.4,60.3 37.2,6.9 75.6,-5.3 114.2,-36.2 11.8,-9.4 13.7,-26.7 4.3,-38.5 -9.5,-11.8 -26.7,-13.7 -38.5,-4.3 -25.6,20.5 -49.2,29 -70,25.1 -29.6,-5.5 -47,-33.8 -47.1,-34.1 -5.1,-8.7 -14.3,-13.6 -23.7,-13.6" /><path
         id="path104"
         style="fill:#201d40;fill-opacity:1;fill-rule:nonzero;stroke:none"
         d="m 9045.37,10868.6 c -151.6,431.6 217.68,679.7 217.68,679.7 0,0 -99.08,8.9 -110.91,148 74.16,-23.1 157.29,-21.5 230.35,5 492.22,178.2 831.11,175.8 831.11,-34.8 0,-75 325.1,-23.6 297.8,-527.9 2,35.6 -114.2,242.9 -224,263.6 -110.1,20.8 -10.6,-126 -240,-157.5 -231.47,-31.8 -401.66,24.4 -543.04,-106.1 -110.63,-113.8 -138.06,-693.2 -121.23,-728 -38.57,79.9 -271.14,268.3 -337.76,458" /><path
         id="path106"
         style="fill:#201d40;fill-opacity:1;fill-rule:nonzero;stroke:none"
         d="m 10631.8,10791.7 c 0,0 20.9,-262.8 -17,-344.1 -39.4,105.4 -124.1,-6.3 -203.6,-16.8 -192.2,-25.4 -538.89,38.7 -573.25,-249.6 -234.84,-74.3 -454.82,428.4 -454.82,428.4 -13.5,-561.6 397.47,-880.5 988.87,-787.1 389.7,61.6 425.8,604.1 259.8,969.2" /><path
         id="path108"
         style="fill:#de623c;fill-opacity:1;fill-rule:nonzero;stroke:none"
         d="m 10226.7,10253.2 c -38,9.1 -77.6,24.6 -118.6,46.5 -10.7,5.7 -14.7,19 -9,29.7 5.7,10.7 19,14.7 29.6,9 91,-48.6 172.6,-62.5 242.4,-41.1 86.4,26.3 125.9,99.1 126.3,99.8 5.6,10.7 18.9,14.8 29.6,9.2 10.6,-5.6 14.8,-18.8 9.2,-29.5 -1.9,-3.7 -47.5,-89.2 -151.5,-121.2 -48.7,-15.1 -101.6,-15.8 -158,-2.4" /><path
         id="path110"
         style="fill:#f37a50;fill-opacity:1;fill-rule:nonzero;stroke:none"
         d="m 9377.57,10605.9 c 98.91,-55.6 142.23,-166.2 96.77,-247.1 -45.46,-81 -162.5,-101.6 -261.41,-46 -98.9,55.5 -142.22,166.2 -96.76,247.1 45.46,81 162.5,101.5 261.4,46" /><path
         id="path112"
         style="fill:#de623c;fill-opacity:1;fill-rule:nonzero;stroke:none"
         d="m 9362.53,10363.4 c 3.06,2.2 5.67,5 7.56,8.5 27.19,50.4 22.74,101.7 -11.91,137.3 -35.48,36.4 -92.75,46.9 -136.18,24.9 -12.22,-6.2 -17.11,-21.1 -10.93,-33.3 6.19,-12.2 21.11,-17.1 33.34,-10.9 23.79,12 58.15,5.3 78.23,-15.3 19.28,-19.8 20.64,-47.9 3.81,-79.1 -6.51,-12 -2.02,-27.1 10.03,-33.6 8.55,-4.6 18.6,-3.7 26.05,1.5" /><path
         id="path114"
         style="fill:#000000;fill-opacity:1;fill-rule:nonzero;stroke:none"
         d="m 10427.2,1044.8 c 62,168.3 194.4,187 194.4,187 257.5,-355.3 889.9,-137.2 868.9,-617.8 -961.6,6.199 -1361.2,0 -1361.2,0 1.2,110.398 20.3,372.301 42.4,474.9 l 50.2,-9.2 205.3,-34.9" /><path
         id="path116"
         style="fill:#000000;fill-opacity:1;fill-rule:nonzero;stroke:none"
         d="m 8988.45,1035.5 c 61.97,168.3 194.44,187 194.44,187 257.5,-355.301 889.81,-137.3 868.91,-617.801 -961.61,6.203 -1361.26,0 -1361.26,0 1.27,110.403 20.28,372.301 42.46,474.901 l 50.11,-9.2 205.34,-34.9" /><path
         id="path118"
         style="fill:#201d40;fill-opacity:1;fill-rule:nonzero;stroke:none"
         d="m 11066.8,6655.7 c 0,0 156.1,-2277.1 92.7,-2783.3 -63.5,-506.2 -288,-1155.3 -262.6,-2829.7 -313.5,-78.497 -767.6,0 -767.6,0 0,0 -67.4,1893.3 264,2739 -134.7,821.5 -567.12,2703 -567.12,2703 l 1240.62,171" /><path
         id="path120"
         style="fill:#2c2858;fill-opacity:1;fill-rule:nonzero;stroke:none"
         d="m 10473.4,6593.5 c 0,0 -315.2,-2556.4 -469.5,-3041.3 -154.36,-484.9 -455.32,-894.9 -734.7,-2544.4 -322.15,-16.097 -622.14,0 -622.14,0 0,0 43.48,2092.4 545.21,2568.2 16.98,833 -81.13,3001 -81.13,3001 l 1362.26,16.5" /><path
         id="path122"
         style="fill:#e62552;fill-opacity:1;fill-rule:nonzero;stroke:none"
         d="m 9020.14,9494.8 c 0,0 547.54,191.6 730.12,103.7 567.34,-273.1 697.44,0 697.44,0 181.3,-15.6 728.6,-103.7 728.6,-103.7 0,-611.2 40.8,-1224.5 29.7,-1687 -7.9,-402.7 68.9,-1498.8 68.9,-1498.8 0,0 -603.7,-158.2 -1174.7,-162.4 -571.11,3.8 -1152.34,156 -1152.34,156 0,0 30.51,1110.1 55.87,1522.7 -8.24,462.5 16.41,1059.9 16.41,1669.5" /><path
         id="path124"
         style="fill:#c4204a;fill-opacity:1;fill-rule:nonzero;stroke:none"
         d="m 12149.6,8586.4 c -226,539.2 -896.7,882.2 -973.3,908.4 l -155.6,-692.3 c 322.2,-190.5 556.1,-396.6 556.1,-396.6 -39.7,-192.8 -33.1,-381.8 -144.6,-625.6 0,0 96.9,133.7 216.4,54.6 116.2,-76.9 330,80.1 330,80.1 0,0 343.6,259.6 171,671.4" /><path
         id="path126"
         style="fill:#95a6db;fill-opacity:1;fill-rule:nonzero;stroke:none"
         d="m 12023.6,7223.7 c 3.9,-1.2 7.9,-1.9 11.8,-2.3 h 12.8 c 23.6,2.5 44.6,18.6 52,42.6 l 602.5,1942.5 c 1.3,3.9 2,7.9 2.4,11.8 0.3,2.6 0.2,5.1 0.1,7.6 0,1.6 0.2,3.1 0,4.7 -0.1,1.3 -0.5,2.6 -0.8,4 -3.6,22 -19,41.3 -41.9,48.5 -3.7,1.1 -7.5,2 -11.4,2.4 -4.5,0.5 -8.8,0.5 -13.1,0 h -1516.7 l -607.8,-2064.1 h 1511.2 l -1.1,2.3" /><path
         id="path128"
         style="fill:#768fdb;fill-opacity:1;fill-rule:nonzero;stroke:none"
         d="m 11135.1,9283.1 c -32.3,10 -66.6,-8 -76.6,-40.3 l -598.7,-1937.6 -1.4,-4.6 c -9.9,-32.1 8,-66.2 40,-76.3 l 0.1,-0.2 c 32.3,-10 66.6,8 76.6,40.3 l 600.3,1942.1 c 10,32.3 -8,66.6 -40.3,76.6" /><path
         id="path130"
         style="fill:#f37a50;fill-opacity:1;fill-rule:nonzero;stroke:none"
         d="m 12281,8050.7 c 5.6,3.8 11.8,6.2 18.1,7.9 -0.6,1 -1.3,1.9 -2,2.8 -37.7,56.9 -35.2,125 5.6,152.1 6.7,4.4 14.1,7.3 21.8,9.1 -10.6,42.1 -1.1,82.4 28.1,101.7 11.6,7.6 25,11.1 39.1,10.9 -13.3,41.4 -2.7,84.9 29.9,106.5 40.9,27.1 100.1,9.6 132.3,-39 32.2,-48.6 25.2,-109.9 -15.6,-136.9 -10.4,-6.9 -21.9,-10.8 -33.9,-12.2 27.2,-53 21.7,-111 -15.2,-135.4 -6.7,-4.5 -14,-7.4 -21.8,-9.2 10.7,-42.1 1.1,-82.3 -28,-101.6 -10.8,-7.2 -23.1,-10.6 -36.2,-11 13.5,-36.2 5,-75.2 -23.7,-94.3 -34.5,-22.8 -84.5,-8.1 -111.7,33 -27.2,41 -21.3,92.8 13.2,115.6" /><path
         id="path132"
         style="fill:#f37a50;fill-opacity:1;fill-rule:nonzero;stroke:none"
         d="m 10416.3,8173.5 138.3,80.1 c 0,0 38.2,196.1 260.3,200.8 -25.5,-82.2 -62.1,-200.8 -62.1,-200.8 0,0 109.3,-84.8 368.5,60.4 253.3,56.9 145.1,-127.8 229.1,-141.1 123.9,-19.6 -90.3,-263.1 -343.3,-300.3 -327.4,-48.2 -366.2,18.8 -366.2,18.8 l -185.2,-64.7 -39.4,346.8" /><path
         id="path134"
         style="fill:#8a284c;fill-opacity:1;fill-rule:nonzero;stroke:none"
         d="m 9136.89,7964 c 462.12,32.3 1250.41,260.5 1250.41,260.5 126.2,-193.5 91.3,-450.5 91.3,-450.5 -717.65,-629.2 -1797.73,-832.6 -2129.12,-681.1 -302.55,138.2 -88.97,1980 670.66,2401.9 v 0 C 9280.56,9054.1 9136.89,7964 9136.89,7964" /><g
         transform="scale(1.04767)"
         id="g136"><path
           id="path138"
           style="fill:#000000;fill-opacity:1;fill-rule:nonzero;stroke:none"
           d="m 15830.1,1160.29 c -245.8,-327.781 -849.3,-126.67 -829.4,-570.028 917.9,5.723 1299.3,0 1299.3,0 -1.1,101.844 -19.3,343.521 -40.5,438.208 l -429.4,131.82" /></g><g
         transform="scale(1.13594)"
         id="g140"><path
           id="path142"
           style="fill:#000000;fill-opacity:1;fill-rule:nonzero;stroke:none"
           d="m 15866.5,1062.29 c -226.6,-302.395 -783.3,-116.908 -764.9,-525.822 846.6,5.286 1198.4,0 1198.4,0 -1.1,93.934 -17.9,316.831 -37.4,404.159 l -396.1,121.663" /></g><g
         transform="scale(1.06628)"
         id="g144"><path
           id="path146"
           style="fill:#201d40;fill-opacity:1;fill-rule:nonzero;stroke:none"
           d="m 15136.4,6057.72 c 0,0 -146.4,-2064.57 -86.8,-2523.55 59.4,-458.98 270.1,-1047.38 246.2,-2565.565 294,-71.184 719.8,0 719.8,0 0,0 63.3,1716.625 -247.5,2483.405 126.4,744.75 531.9,2450.59 531.9,2450.59 l -1163.6,155.12" /></g><g
         transform="scale(1.14376)"
         id="g148"><path
           id="path150"
           style="fill:#2c2858;fill-opacity:1;fill-rule:nonzero;stroke:none"
           d="m 14629.8,5594.7 c 0,0 275.7,-2160.76 410.6,-2570.55 134.9,-409.88 398.1,-756.37 642.2,-2150.627 281.8,-13.64 617.4,55.693 617.4,55.693 0,0 -111.4,1712.854 -550,2115.034 -14.9,704.09 70.9,2536.55 70.9,2536.55 l -1191.1,13.9" /></g><g
         transform="scale(1.11582)"
         id="g152"><path
           id="path154"
           style="fill:#f37a50;fill-opacity:1;fill-rule:nonzero;stroke:none"
           d="m 16146.9,9358.37 c -153.1,-382.69 -520.9,-595.37 -821.5,-475.09 -300.5,120.25 -420.1,527.98 -266.9,910.65 153.1,382.67 521,595.37 821.4,475.17 300.6,-120.3 420.1,-528.06 267,-910.73" /></g><g
         transform="scale(1.04099)"
         id="g156"><path
           id="path158"
           style="fill:#000000;fill-opacity:1;fill-rule:nonzero;stroke:none"
           d="m 16281,10363.3 c -19,-27.3 -56.6,-34.1 -84,-15.1 -27.4,19.1 -34.1,56.7 -15.1,84 19.1,27.4 56.6,34.1 84,15.1 27.4,-19 34.1,-56.6 15.1,-84" /></g><g
         transform="scale(1.06996)"
         id="g160"><path
           id="path162"
           style="fill:#000000;fill-opacity:1;fill-rule:nonzero;stroke:none"
           d="m 16279.9,9903.24 c -20,-28.82 -59.6,-35.93 -88.4,-15.88 -28.8,20.05 -35.9,59.65 -15.9,88.47 20,28.77 59.6,35.87 88.5,15.88 28.8,-20.05 35.9,-59.65 15.8,-88.47" /></g><g
         transform="scale(1.04563)"
         id="g164"><path
           id="path166"
           style="fill:#de623c;fill-opacity:1;fill-rule:nonzero;stroke:none"
           d="m 16300,10221.5 c -81.2,-64.1 -182.8,-141.3 -182.8,-141.3 0,0 -1,-97.93 113.5,-140.38 -41.4,37.56 -77.8,87.48 -34.7,145.18 43.1,57.7 104,136.5 104,136.5" /></g><g
         transform="scale(1.07836)"
         id="g168"><path
           id="path170"
           style="fill:#000000;fill-opacity:1;fill-rule:nonzero;stroke:none"
           d="m 16267.9,9864.04 c -13.1,0 -25,8.99 -28.2,22.34 -0.8,3.09 -20.3,78.84 -85.2,79.14 -16,0.09 -29,13.16 -28.9,29.22 0.1,16.06 13.2,29.06 29.2,28.96 88.6,-0.5 131.3,-81.19 141.5,-123.83 3.7,-15.61 -5.9,-31.29 -21.5,-35.02 -2.3,-0.54 -4.6,-0.81 -6.9,-0.81" /></g><g
         transform="scale(1.04564)"
         id="g172"><path
           id="path174"
           style="fill:#000000;fill-opacity:1;fill-rule:nonzero;stroke:none"
           d="m 16271.5,10444.3 c -8.5,0 -16.8,4.4 -21.5,12.2 -0.4,0.8 -16.6,26.6 -43.3,31.4 -19,3.3 -40.3,-4.4 -63.5,-23 -10.8,-8.6 -26.5,-6.8 -35.1,3.9 -8.6,10.8 -6.9,26.5 3.9,35.2 35.2,28.1 70.2,39.2 104,32.9 49.7,-9.1 76,-53.1 77,-55 7,-11.9 3,-27.2 -8.9,-34.2 -4,-2.3 -8.3,-3.4 -12.6,-3.4" /></g><g
         transform="scale(1.13758)"
         id="g176"><path
           id="path178"
           style="fill:#000000;fill-opacity:1;fill-rule:nonzero;stroke:none"
           d="m 15733.2,9140.18 c -108.6,349.26 28.7,534.82 28.7,534.82 -93.2,18.68 -129.5,-13.58 -129.5,-13.58 -50.9,104.45 -11.4,179.31 -11.4,179.31 -192.8,75.13 -288.8,-49.69 -462.7,-91.75 -238.2,-57.6 -532.4,37.4 -559.9,328.12 -4,42.1 42.3,69.4 77.4,45.8 32.7,-21.8 75.9,-39.4 129.8,-37.9 0,0 -49.9,56.3 -52.5,134.2 -1.4,42.9 49,66.1 81.9,38.6 49.5,-41.2 141.5,-80.1 305.3,-49.5 109,20.5 358.4,195.1 513.9,161 127.1,-27.9 227.9,-136.1 271.3,-290.8 0,0 312.4,-32.4 343.7,-376.18 30.8,-337.74 -360.5,-596.89 -360.5,-596.89 l -175.5,34.75" /></g><g
         transform="scale(1.11302)"
         id="g180"><path
           id="path182"
           style="fill:#f37a50;fill-opacity:1;fill-rule:nonzero;stroke:none"
           d="m 16036.8,9401.35 c -84.6,-47.91 -121.3,-142.82 -82.2,-212.02 39.3,-69.17 139.6,-86.42 224.1,-38.52 84.6,47.9 121.3,142.82 82.1,212.01 -39.2,69.18 -139.5,86.43 -224,38.53" /></g><g
         transform="scale(1.10517)"
         id="g184"><path
           id="path186"
           style="fill:#de623c;fill-opacity:1;fill-rule:nonzero;stroke:none"
           d="m 16164.5,9259.03 c -2.7,1.85 -4.9,4.31 -6.6,7.33 -23.6,43.34 -20,87.61 9.8,118.42 30.5,31.55 79.9,40.79 117.5,21.96 10.5,-5.31 14.8,-18.15 9.5,-28.71 -5.3,-10.57 -18.2,-14.84 -28.7,-9.54 -20.7,10.32 -50.2,4.41 -67.5,-13.45 -16.6,-17.14 -17.7,-41.37 -3,-68.2 5.6,-10.38 1.8,-23.38 -8.6,-29.03 -7.3,-4.01 -16,-3.25 -22.4,1.22" /></g><g
         transform="scale(1.0611)"
         id="g188"><path
           id="path190"
           style="fill:#ffffff;fill-opacity:1;fill-rule:nonzero;stroke:none"
           d="m 15900.6,9666.23 c -8.8,14.18 3.6,31.84 19.9,28.4 41.4,-8.72 109.9,-21.7 175.8,-27.59 66.1,-5.89 135.8,-5.27 178.1,-3.99 16.6,0.49 25.6,-19.06 14.6,-31.49 -34,-38.22 -102.3,-94.74 -203.4,-85.71 -101.2,9.02 -158.3,76.74 -185,120.38" /></g><g
         transform="scale(1.00839)"
         id="g192"><path
           id="path194"
           style="fill:#201d40;fill-opacity:1;fill-rule:nonzero;stroke:none"
           d="m 16284,9616.69 c 0,0 16,43.14 -1356.4,32.03 l -367.9,-434.85 c 380.8,-305.34 1656.1,-359.58 1656.1,-359.58 l 68.2,762.4" /></g><g
         transform="scale(1.09094)"
         id="g196"><path
           id="path198"
           style="fill:#95a6db;fill-opacity:1;fill-rule:nonzero;stroke:none"
           d="m 15512.9,8921.67 400,37.4 387.1,-107.98 -436.1,-448.78 -351,519.36" /></g><g
         transform="scale(1.08734)"
         id="g200"><path
           id="path202"
           style="fill:#f37a50;fill-opacity:1;fill-rule:nonzero;stroke:none"
           d="m 15703.4,8744.57 c 163.6,-134.27 197,-227.07 544.5,-47.54 l 52.1,534.26 -565.7,44.61 -30.9,-531.33" /></g><g
         transform="scale(1.12482)"
         id="g204"><path
           id="path206"
           style="fill:#95a6db;fill-opacity:1;fill-rule:nonzero;stroke:none"
           d="m 15908.6,8376.61 v 0 l -115,45.52 15.4,162.34 -319,-256.13 -90.1,-14.31 -86,30.13 -268.3,308.76 -13.8,-162.51 -101.4,-20.36 v 0 l -366,-59.21 -43.5,-2030.99 -144.4,-690.95 c 485.6,-161.54 1028.5,-201.81 1562.3,-128.2 l -18,693.62 379.2,1984.85 -391.4,137.44" /></g><g
         transform="scale(1.06612)"
         id="g208"><path
           id="path210"
           style="fill:#2c2858;fill-opacity:1;fill-rule:nonzero;stroke:none"
           d="m 16173.9,8555.35 -241.8,-1636.03 133.9,-186.1 174.6,134.14 59.4,1674.39 -126.1,13.6" /></g><g
         transform="scale(1.0686)"
         id="g212"><path
           id="path214"
           style="fill:#2c2858;fill-opacity:1;fill-rule:nonzero;stroke:none"
           d="m 16121.9,8728.14 88.3,23.3 89.8,-39.21 -38,-193.52 -126.5,11.32 -13.6,198.11" /></g><g
         transform="scale(1.03789)"
         id="g216"><path
           id="path218"
           style="fill:#2c2858;fill-opacity:1;fill-rule:nonzero;stroke:none"
           d="m 16300,9363.61 -62.3,-2029.98 -268.8,-1307.17 c 0,0 -424.9,42.78 -686,291.26 l 334.7,984.02 114.3,2056.48 568.1,5.39" /></g><g
         transform="scale(1.03789)"
         id="g220"><path
           id="path222"
           style="fill:#494c7f;fill-opacity:1;fill-rule:nonzero;stroke:none"
           d="m 16300,9363.61 -62,-2002.81 -309.2,1534.94 371.2,467.87" /></g><g
         transform="scale(1.12594)"
         id="g224"><path
           id="path226"
           style="fill:#2c2858;fill-opacity:1;fill-rule:nonzero;stroke:none"
           d="M 15822.6,8511.74 15314,5478.01 c 0,0 675,-82.96 952.5,99.56 l -150.6,997.3 184.1,1693.08 -477.4,243.79" /></g><g
         transform="scale(1.1092)"
         id="g228"><path
           id="path230"
           style="fill:#494c7f;fill-opacity:1;fill-rule:nonzero;stroke:none"
           d="m 16061.4,8640.22 -301.7,-1805 540.3,1361.8 -238.6,443.2" /></g><path
         id="path232"
         style="fill:#f37a50;fill-opacity:1;fill-rule:nonzero;stroke:none"
         d="m 14031,11592.4 c 30.4,-106.5 39.5,-221.5 174.7,-278.9 0,0 -20,-353.7 -5,-643.8 0,0 327.1,368.9 327,369.2 -18.7,116.9 -33.9,338 -15.9,463.6 4.7,32.6 11.1,65 16.2,97.7 14.1,79.3 37.4,160.5 -10.9,256.2 -186.7,369.8 -123.9,491.5 -149.6,509.5 -41.8,18.5 -140,-56 -84.5,-237.7 53.8,-175.8 40.5,-262.1 40.5,-262.1 0,0 -141.1,26.6 -191.1,-22.7 -22.8,-22.5 -137,-126.3 -101.4,-251" /><path
         id="path234"
         style="fill:#201d40;fill-opacity:1;fill-rule:nonzero;stroke:none"
         d="m 14106.9,11093.9 c 190.6,63.6 291,92.2 439.3,92.2 350.5,-1044.5 600.3,-1438.1 496.1,-1738 -86.9,-250 -361.8,-230 -496.1,-42.6 -177.4,247.1 -334.3,1185.9 -439.3,1688.4" /><g
         transform="scale(1.27414)"
         id="g236"><path
           id="path238"
           style="fill:#201d40;fill-opacity:1;fill-rule:nonzero;stroke:none"
           d="m 14404.1,7306.25 866.6,-1355.89 1029.3,-581.17 -317.2,-315.9 -1032.7,452.7 -708.7,999.96 162.7,800.3" /></g><g
         transform="scale(1.06271)"
         id="g240"><path
           id="path242"
           style="fill:#ffffff;fill-opacity:1;fill-rule:nonzero;stroke:none"
           d="m 16300,8799.94 c 0,0 -152.8,-154.32 -293.4,-193.84 l -166.2,439.44 84.5,113.11 375.1,-358.71" /></g><g
         transform="scale(1.09506)"
         id="g244"><path
           id="path246"
           style="fill:#ffffff;fill-opacity:1;fill-rule:nonzero;stroke:none"
           d="m 15818.6,8540.03 c 0,0 84.5,-145.29 246.7,-235.79 l 234.7,389.75 -61.3,123.83 -420.1,-277.79" /></g><g
         transform="scale(1.16163)"
         id="g248"><path
           id="path250"
           style="fill:#95a6db;fill-opacity:1;fill-rule:nonzero;stroke:none"
           d="M 15946.7,3816.72 H 7646.48 c -195.08,0 -353.22,106.4 -353.22,237.68 v 0 c 0,131.28 158.14,237.69 353.22,237.69 h 8300.22 c 195.1,0 353.3,-106.41 353.3,-237.69 v 0 c 0,-131.28 -158.2,-237.68 -353.3,-237.68" /></g><path
         id="path252"
         style="fill:#95a6db;fill-opacity:1;fill-rule:nonzero;stroke:none"
         d="m 12496,542.902 v 0 c -103.3,0 -165.4,114.7 -109,201.2 L 14932.8,4645.4 15150.7,4503.2 12605,601.898 c -24,-36.796 -65,-58.996 -109,-58.996" /><path
         id="path254"
         style="fill:#95a6db;fill-opacity:1;fill-rule:nonzero;stroke:none"
         d="m 14910.5,542.902 v 0 c 103.3,0 165.4,114.7 108.9,201.2 l -2545.7,3901.298 -218,-142.2 2545.8,-3901.302 c 24,-36.796 65,-58.996 109,-58.996" /><g
         transform="scale(1.16764)"
         id="g256"><path
           id="path258"
           style="fill:#768fdb;fill-opacity:1;fill-rule:nonzero;stroke:none"
           d="m 16193.2,517.88 v 0 c -58.9,0 -106.7,47.789 -106.7,106.712 V 2515.84 H 16300 V 624.592 c 0,-58.923 -47.8,-106.712 -106.8,-106.712" /></g><g
         transform="scale(1.22129)"
         id="g260"><path
           id="path262"
           style="fill:#768fdb;fill-opacity:1;fill-rule:nonzero;stroke:none"
           d="m 16198,495.13 v 0 c -56.4,0 -102,45.69 -102,102.024 V 2405.32 h 204 V 597.154 c 0,-56.334 -45.7,-102.024 -102,-102.024" /></g><g
         transform="scale(1.2917)"
         id="g264"><path
           id="path266"
           style="fill:#768fdb;fill-opacity:1;fill-rule:nonzero;stroke:none"
           d="m 16203.5,468.142 v 0 c -53.2,0 -96.5,43.2 -96.5,96.464 V 2274.21 h 193 V 564.606 c 0,-53.264 -43.2,-96.464 -96.5,-96.464" /></g><g
         transform="scale(1.34536)"
         id="g268"><path
           id="path270"
           style="fill:#768fdb;fill-opacity:1;fill-rule:nonzero;stroke:none"
           d="m 16207.3,449.472 v 0 c -51.1,0 -92.6,41.476 -92.6,92.616 V 2183.51 H 16300 V 542.088 c 0,-51.14 -41.5,-92.616 -92.7,-92.616" /></g><g
         transform="scale(1.28963)"
         id="g272"><path
           id="path274"
           style="fill:#95a6db;fill-opacity:1;fill-rule:nonzero;stroke:none"
           d="M 15838.4,4819.15 V 2781.43 c 0,-23.19 -18.8,-41.95 -42,-41.95 h -1263.3 c -127.5,0 -230.9,-103.37 -230.9,-230.85 v 0 c 0,-127.47 103.4,-230.76 230.9,-230.76 h 1305.3 230.8 c 127.5,0 230.8,103.29 230.8,230.76 v 230.85 2079.67 c 0,127.4 -103.3,230.76 -230.8,230.76 v 0 c -127.4,0 -230.8,-103.36 -230.8,-230.76" /></g><g
         transform="scale(1.3504)"
         id="g276"><path
           id="path278"
           style="fill:#95a6db;fill-opacity:1;fill-rule:nonzero;stroke:none"
           d="m 16300,2580.42 h -953.9 V 4822.65 H 16300 V 2580.42" /></g><g
         transform="scale(1.36866)"
         id="g280"><path
           id="path282"
           style="fill:#768fdb;fill-opacity:1;fill-rule:nonzero;stroke:none"
           d="M 15865,4540.88 V 2620.82 c 0,-21.85 -17.6,-39.53 -39.5,-39.53 h -1190.4 c -120.1,0 -217.5,-97.39 -217.5,-217.51 v 0 c 0,-120.12 97.4,-217.44 217.5,-217.44 h 1229.9 217.6 c 120,0 217.4,97.32 217.4,217.44 v 217.51 1959.59 c 0,120.04 -97.4,217.44 -217.4,217.44 v 0 c -120.2,0 -217.6,-97.4 -217.6,-217.44" /></g><path
         id="path284"
         style="fill:#768fdb;fill-opacity:1;fill-rule:nonzero;stroke:none"
         d="m 8376.51,604.699 v 0 c 68.84,0 124.64,55.801 124.64,124.602 V 2937.6 H 8251.88 V 729.301 c 0,-68.801 55.8,-124.602 124.63,-124.602" /><path
         id="path286"
         style="fill:#768fdb;fill-opacity:1;fill-rule:nonzero;stroke:none"
         d="m 7501.95,604.699 v 0 c 68.84,0 124.63,55.801 124.63,124.602 V 2937.6 H 7377.31 V 729.301 c 0,-68.801 55.81,-124.602 124.64,-124.602" /><path
         id="path288"
         style="fill:#768fdb;fill-opacity:1;fill-rule:nonzero;stroke:none"
         d="m 6354.38,604.699 v 0 c 68.83,0 124.64,55.801 124.64,124.602 V 2937.6 H 6229.75 V 729.301 c 0,-68.801 55.8,-124.602 124.63,-124.602" /><path
         id="path290"
         style="fill:#768fdb;fill-opacity:1;fill-rule:nonzero;stroke:none"
         d="m 5479.82,604.699 v 0 c 68.83,0 124.63,55.801 124.63,124.602 V 2937.6 H 5355.19 V 729.301 c 0,-68.801 55.8,-124.602 124.63,-124.602" /><path
         id="path292"
         style="fill:#95a6db;fill-opacity:1;fill-rule:nonzero;stroke:none"
         d="M 6858.84,6214.9 V 3587 c 0,-29.9 24.24,-54.1 54.14,-54.1 h 1629.31 c 164.39,0 297.65,-133.3 297.65,-297.7 v 0 c 0,-164.4 -133.26,-297.6 -297.65,-297.6 H 6858.84 6561.19 c -164.38,0 -297.64,133.2 -297.64,297.6 v 297.7 2682 c 0,164.3 133.26,297.6 297.64,297.6 h 0.01 c 164.38,0 297.64,-133.3 297.64,-297.6" /><path
         id="path294"
         style="fill:#95a6db;fill-opacity:1;fill-rule:nonzero;stroke:none"
         d="M 5273,3484.6 H 6561.2 V 6512.5 H 5273 V 3484.6" /><path
         id="path296"
         style="fill:#768fdb;fill-opacity:1;fill-rule:nonzero;stroke:none"
         d="M 5570.64,6214.9 V 3587 c 0,-29.9 24.25,-54.1 54.15,-54.1 H 7254.1 c 164.39,0 297.64,-133.3 297.64,-297.7 v 0 c 0,-164.4 -133.25,-297.6 -297.64,-297.6 H 5570.64 5273 c -164.38,0 -297.64,133.2 -297.64,297.6 v 297.7 2682 c 0,164.3 133.26,297.6 297.64,297.6 v 0 c 164.39,0 297.64,-133.3 297.64,-297.6" /><g
         transform="scale(1.36059)"
         id="g298"><path
           id="path300"
           style="fill:#2c2858;fill-opacity:1;fill-rule:nonzero;stroke:none"
           d="m 14525,5305.86 c -202,72.91 -514.1,232.26 -306.7,523.45 207.4,291.28 202.1,164.12 127.5,517.87 -74.7,353.74 176.8,632 416.6,561.59 239.8,-70.41 301,-264.44 594.9,-215.35 293.9,49.1 538.2,-225.78 427.6,-464.2 -110.7,-238.36 -157.9,-353.09 -54.5,-485.09 103.5,-131.93 569.6,-274.07 375.2,-590.18 -194.4,-316.12 -283.6,-296.72 -216,-458.7 67.5,-162.07 -88.2,-346.54 -358.5,-321.33 -270.2,25.13 -514.8,127.36 -613.9,429.08 -99.1,301.7 -392.2,502.86 -392.2,502.86" /></g><g
         transform="scale(1.15376)"
         id="g302"><path
           id="path304"
           style="fill:#f37a50;fill-opacity:1;fill-rule:nonzero;stroke:none"
           d="m 16286,838.562 -188.3,-56.249 -141.8,145.004 c 6.8,10.052 0.3,107.123 -21.7,210.613 l 351.8,58.33 c 14,-107.12 0,-249.441 0,-357.698" /></g><g
         transform="scale(1.15477)"
         id="g306"><path
           id="path308"
           style="fill:#e62552;fill-opacity:1;fill-rule:nonzero;stroke:none"
           d="m 16085.1,815.492 c -44.8,117.424 -140.4,130.502 -140.4,130.502 -185.8,-247.845 -642.2,-95.778 -627.1,-430.999 694,4.245 982.4,0 982.4,0 -0.9,76.987 -14.6,259.708 -30.7,331.236 l -36.1,-6.407 -148.1,-24.332" /></g><g
         transform="scale(1.0679)"
         id="g310"><path
           id="path312"
           style="fill:#f37a50;fill-opacity:1;fill-rule:nonzero;stroke:none"
           d="m 16242.6,868.157 -211.8,-14.419 -121.9,129.69 c 9.6,8.992 32.6,169.592 34.1,283.832 l 357,-15.82 c -10.7,-116.31 -31.7,-269.135 -57.4,-383.283" /></g><g
         transform="scale(1.06699)"
         id="g314"><path
           id="path316"
           style="fill:#e62552;fill-opacity:1;fill-rule:nonzero;stroke:none"
           d="m 16067.4,882.576 c -48.5,127.084 -151.9,141.234 -151.9,141.234 -201.2,-268.23 -695.1,-103.654 -678.7,-466.45 751.1,4.594 1063.2,0 1063.2,0 -0.9,83.32 -15.8,281.072 -33.2,358.483 l -39.1,-6.934 -160.3,-26.333" /></g><g
         transform="scale(1.30507)"
         id="g318"><path
           id="path320"
           style="fill:#0e6a41;fill-opacity:1;fill-rule:nonzero;stroke:none"
           d="m 15043.4,3608.32 c -473.1,-63.68 -1805.8,-557.59 -1880.2,-646.94 -153.4,-184.59 -72.5,-1188.83 -145.4,-2017.52 l 387.4,-22.835 c 185.6,674.835 170.8,966.085 254.7,1740.135 0,0 1522.6,-114.01 2072.8,257.39 567.3,382.89 -306.8,780.49 -689.3,689.77" /></g><g
         transform="scale(1.16965)"
         id="g322"><path
           id="path324"
           style="fill:#de623c;fill-opacity:1;fill-rule:nonzero;stroke:none"
           d="m 16097.1,5123.84 c 124.8,-21.29 172.8,-121.4 202.9,-305.73 -475.3,-280 -1181.3,-299.92 -1181.3,-299.92 l -225,111.32 c 0,0 566.1,203.9 1203.4,494.33" /></g><g
         transform="scale(1.27278)"
         id="g326"><path
           id="path328"
           style="fill:#de623c;fill-opacity:1;fill-rule:nonzero;stroke:none"
           d="m 15987.1,5192.81 c -191.2,-277.74 -923.4,-875.01 -1044.6,-893.79 l -146.8,410.91 c 0,0 714.8,773.82 845,910.53 224.8,237.35 659.3,25.22 346.4,-427.65" /></g><g
         transform="scale(1.25506)"
         id="g330"><path
           id="path332"
           style="fill:#ff4f78;fill-opacity:1;fill-rule:nonzero;stroke:none"
           d="m 15396.2,5311.24 c 155.5,167.48 357.9,545.47 621.3,518.62 263.5,-26.85 282.5,-306.44 203.1,-456.95 -79.4,-150.51 -353.6,-521.49 -353.6,-521.49 l -470.8,459.82" /></g><g
         transform="scale(1.20265)"
         id="g334"><path
           id="path336"
           style="fill:#f37a50;fill-opacity:1;fill-rule:nonzero;stroke:none"
           d="m 16116.9,4803.23 c 116.6,-40.17 183.1,-407.19 150.3,-435.29 -499.5,-197.82 -1538.9,16.13 -1538.9,16.13 l -55.2,188.25 c 0,0 787,48.22 1443.8,230.91" /></g><g
         transform="scale(1.31164)"
         id="g338"><path
           id="path340"
           style="fill:#e62552;fill-opacity:1;fill-rule:nonzero;stroke:none"
           d="m 16284.8,3307.3 c -104.8,540.39 -149.9,731.91 -193.5,986.24 -107.5,628.6 208.7,1070.34 -333.4,1371.56 l -395,-63.66 c -319.4,-336.06 -516.1,-641.1 -533,-851.83 -23.1,-271.79 246.6,-419.32 246.6,-419.32 l -108.6,-740.06 c 0,0 -25.4,-60.38 420,-144.55 445.4,-84.17 896.9,-138.38 896.9,-138.38" /></g><g
         transform="scale(1.30872)"
         id="g342"><path
           id="path344"
           style="fill:#f37a50;fill-opacity:1;fill-rule:nonzero;stroke:none"
           d="m 15995.7,4973.42 c -185.9,-273.25 -980.2,-967.67 -1099.5,-973.86 l -85.5,414.38 c 0,0 721.6,845.64 848.1,980.19 218.7,233.44 641.2,24.76 336.9,-420.71" /></g><g
         transform="scale(1.29895)"
         id="g346"><path
           id="path348"
           style="fill:#ff4f78;fill-opacity:1;fill-rule:nonzero;stroke:none"
           d="m 15350.9,5008.89 c 139.8,203.32 421.7,578.46 676.2,552.52 254.5,-25.94 272.9,-296.09 196.2,-441.51 -76.7,-145.42 -341.6,-503.87 -341.6,-503.87 l -530.8,392.86" /></g><g
         transform="scale(1.08669)"
         id="g350"><path
           id="path352"
           style="fill:#f37a50;fill-opacity:1;fill-rule:nonzero;stroke:none"
           d="m 16238.9,5060.24 c -175.9,43.25 -558.2,171.72 -712.2,-230.97 38.6,-73.99 180.2,108.49 241,125.42 96.6,26.87 179.4,-23.83 252.4,-93.67 104.8,-100.13 279.9,-9.12 279.9,-9.12 l -61.1,208.34" /></g><g
         transform="scale(1.08828)"
         id="g354"><path
           id="path356"
           style="fill:#ff4f78;fill-opacity:1;fill-rule:nonzero;stroke:none"
           d="m 16078.5,4585.58 h -1649.7 v 221.54 H 16300 v 0 c 0,-122.31 -99.1,-221.54 -221.5,-221.54" /></g><path
         id="path358"
         style="fill:#ff4f78;fill-opacity:1;fill-rule:nonzero;stroke:none"
         d="m 14779.5,6504.8 923.1,-1514.4 213.4,112.2 -1035.3,1727.8 v 0 c -117.9,-62 -163.2,-207.7 -101.2,-325.6" /><g
         transform="scale(1.28793)"
         id="g360"><path
           id="path362"
           style="fill:#f37a50;fill-opacity:1;fill-rule:nonzero;stroke:none"
           d="m 16232.2,6293.81 c -67.8,-283.09 -302.9,-469.43 -525.3,-416.25 -222.3,53.26 -347.6,325.95 -279.8,609.04 67.7,283.09 302.9,469.36 525.3,416.17 222.3,-53.27 347.6,-325.87 279.8,-608.96" /></g><g
         transform="scale(1.27407)"
         id="g364"><path
           id="path366"
           style="fill:#f37a50;fill-opacity:1;fill-rule:nonzero;stroke:none"
           d="m 16300,6211.53 -373.5,-231.55 c 0,0 -33.1,-165.06 -49.7,-218.59 -34.2,-110.51 96.6,-158.86 207.2,-90.03 110.6,68.84 138.7,160.83 138.7,160.83 l 77.3,379.34" /></g><g
         transform="scale(1.2914)"
         id="g368"><path
           id="path370"
           style="fill:#2c2858;fill-opacity:1;fill-rule:nonzero;stroke:none"
           d="m 15360.2,6576.98 c 104.8,-8.99 331.6,9.14 414.4,107.25 59,-199.17 309.7,-388.81 517.1,-477.7 8.3,204.35 6.8,580.38 -359.6,736.56 -287.8,122.74 -571.9,-366.11 -571.9,-366.11" /></g><g
         transform="scale(1.22796)"
         id="g372"><path
           id="path374"
           style="fill:#000000;fill-opacity:1;fill-rule:nonzero;stroke:none"
           d="m 16289.7,6725.36 c -10.2,-20.6 -35.3,-28.98 -55.9,-18.73 -20.6,10.27 -29,35.27 -18.7,55.95 10.2,20.6 35.3,28.99 55.9,18.73 20.6,-10.26 29,-35.34 18.7,-55.95" /></g><g
         transform="scale(1.2527)"
         id="g376"><path
           id="path378"
           style="fill:#000000;fill-opacity:1;fill-rule:nonzero;stroke:none"
           d="m 16289.1,6513.37 c -10.9,-21.87 -37.4,-30.81 -59.3,-19.87 -21.8,10.85 -30.8,37.44 -19.8,59.31 10.8,21.87 37.4,30.73 59.3,19.88 21.8,-10.94 30.7,-37.44 19.8,-59.32" /></g><g
         transform="scale(1.2575)"
         id="g380"><path
           id="path382"
           style="fill:#2c2858;fill-opacity:1;fill-rule:nonzero;stroke:none"
           d="m 16275.7,6525.03 c -3,1.51 -5.5,3.97 -7,7.23 -22.1,47.64 -81.8,56.94 -82.4,57.02 -8.4,1.27 -14.2,8.99 -13,17.42 1.2,8.35 8.9,14.15 17.3,12.96 3.2,-0.4 76.7,-11.53 105.9,-74.51 3.5,-7.64 0.2,-16.78 -7.5,-20.36 -4.3,-1.99 -9.3,-1.83 -13.3,0.24" /></g><g
         transform="scale(1.22922)"
         id="g384"><path
           id="path386"
           style="fill:#2c2858;fill-opacity:1;fill-rule:nonzero;stroke:none"
           d="m 16182.2,6778.85 c -1.5,0.73 -2.9,1.79 -4.1,3.01 -6.1,6.18 -6.1,16.1 0,22.21 48,47.26 106.9,27.66 109.4,26.76 8.1,-2.77 12.5,-11.71 9.7,-19.93 -2.8,-8.13 -11.8,-12.53 -19.9,-9.68 -1.9,0.57 -43.4,13.75 -77.1,-19.53 -4.9,-4.79 -12.1,-5.77 -18,-2.84" /></g><g
         transform="scale(1.23214)"
         id="g388"><path
           id="path390"
           style="fill:#de623c;fill-opacity:1;fill-rule:nonzero;stroke:none"
           d="m 16261.2,6612.15 c -22.8,-23.46 -42.8,-47.64 -64.6,-61.36 -7.3,-4.62 -9.7,-14.36 -5.4,-21.91 17.6,-31.17 68.9,-56.9 100.4,-70.28 4.7,-1.95 8.4,4.05 4.7,7.38 -31.8,27.92 -45.5,48.37 -51.2,59.65 -2.9,5.6 -2.8,12.18 0,17.78 6.5,12.9 19.5,39.2 28.3,60.87 3.1,7.54 -6.5,13.71 -12.2,7.87" /></g><g
         transform="scale(1.28949)"
         id="g392"><path
           id="path394"
           style="fill:#f37a50;fill-opacity:1;fill-rule:nonzero;stroke:none"
           d="m 16105.7,6284.34 c -53.9,-41.95 -69.8,-111.75 -35.5,-155.95 34.4,-44.13 106,-45.91 159.9,-3.96 54,42.04 69.9,111.83 35.5,156.03 -34.3,44.13 -105.9,45.91 -159.9,3.88" /></g><g
         transform="scale(1.28292)"
         id="g396"><path
           id="path398"
           style="fill:#de623c;fill-opacity:1;fill-rule:nonzero;stroke:none"
           d="m 16219.1,6172.64 c -2,1.01 -3.8,2.49 -5.3,4.44 -20.8,27.75 -22.8,58.85 -5.2,83.33 17.9,25.01 51.3,36.4 79.2,27.2 8,-2.65 12.2,-11.15 9.6,-19.02 -2.5,-7.87 -11,-12.16 -19,-9.51 -15.3,5.07 -35.3,-2.11 -45.4,-16.21 -9.8,-13.64 -8.1,-30.56 4.8,-47.71 5,-6.62 3.7,-16.05 -3,-21.04 -4.6,-3.51 -10.8,-3.9 -15.7,-1.48" /></g><g
         transform="scale(1.33685)"
         id="g400"><path
           id="path402"
           style="fill:#3f964f;fill-opacity:1;fill-rule:nonzero;stroke:none"
           d="m 15202.6,3438.31 c -461.9,-62.16 -1764.9,-484.49 -1837.5,-571.71 -149.7,-180.2 183.7,-951.79 290.4,-1945.177 h 445.8 c -4.7,707.787 51.9,1358.947 -165.9,1589.637 0,0 1248.9,83.41 1871.6,83.41 317.4,0 493,1072.44 -604.4,843.84" /></g><g
         transform="scale(1.24802)"
         id="g404"><path
           id="path406"
           style="fill:#ffffff;fill-opacity:1;fill-rule:nonzero;stroke:none"
           d="m 16033.4,6282.17 c -6.6,8.89 0.6,21.39 11.6,20.03 27.9,-3.36 74.2,-7.93 118.4,-8.01 44.1,0 90.4,4.48 118.4,7.77 11.1,1.28 18.2,-11.14 11.5,-20.03 -20.3,-27.41 -62.3,-68.91 -130,-68.83 -67.7,0.08 -109.6,41.67 -129.9,69.07" /></g><path
         id="path408"
         style="fill:#f37a50;fill-opacity:1;fill-rule:nonzero;stroke:none"
         d="m 8153.71,5616.1 c -117.9,-78.5 -85.26,-506.1 -40.74,-527.8 613.08,-74.9 1648.61,433 1648.61,433 l 40.55,227.2 c 0,0 -864.86,-144.8 -1648.42,-132.4" /><path
         id="path410"
         style="fill:#f37a50;fill-opacity:1;fill-rule:nonzero;stroke:none"
         d="M 6806.61,6357.4 C 7025.78,6007 7985.11,5100.7 8133.99,5087.2 l 126.79,513.8 c 0,0 -861.14,1091.8 -1012.86,1266.1 -262.01,302.3 -800.22,61.9 -441.31,-509.7" /><path
         id="path412"
         style="fill:#2c2858;fill-opacity:1;fill-rule:nonzero;stroke:none"
         d="m 7330.9,8230.2 c 26.36,358.9 -77.39,675.9 -363.52,837.4 -290.01,163.6 -653.32,3.1 -653.32,3.1 v 0 c -0.03,0 -307.52,109.4 -586.21,-197.6 -278.69,-307 -67.88,-577.1 -181.9,-801 -67.52,-132.6 -410.83,-160 -322.15,-591.8 25.58,-124.6 175.38,-208.4 302.26,-216.7 222.92,-14.7 430.51,71.5 520.88,-14.7 297.77,-284 957.66,-181.3 1050.01,78.5 28.64,80.5 622.23,-75.3 563.01,473.3 -30,278 -352.61,108.9 -329.06,429.5" /><path
         id="path414"
         style="fill:#f37a50;fill-opacity:1;fill-rule:nonzero;stroke:none"
         d="m 6786.96,7070.2 -471.28,87 -176.72,-235.1 375.58,-770 552.42,468.8 -280,449.3" /><path
         id="path416"
         style="fill:#3f964f;fill-opacity:1;fill-rule:nonzero;stroke:none"
         d="m 7397.86,5213.6 c -8.06,146.5 228.72,748.2 104.09,1051 -90.78,243.6 -242.42,652.6 -428.13,720.8 -87.62,32.2 -177.67,54.6 -286.86,84.8 0,0 61.6,-307 -66.74,-317.3 -247.05,-19.8 -404.54,404.3 -404.54,404.3 -133.19,12.7 -744.19,-188 -743.9,-238.2 1.45,-392.9 320.72,-966.3 425.12,-1391.2 41.08,-458.8 -119.01,-1007.9 -119.59,-1060.1 0,0 982.89,-276.4 1565.53,44.4 12.18,44.7 -33.86,499.2 -44.98,701.5" /><path
         id="path418"
         style="fill:#3f964f;fill-opacity:1;fill-rule:nonzero;stroke:none"
         d="m 6025.17,4939.1 c 0,0 -216.99,-547.4 -269.9,-892 -52.91,-344.6 245.71,-565.7 245.71,-565.7 h 2483.37 c 0,0 265.86,431.1 189.28,728.9 -76.58,297.7 -252.71,345 -252.71,345 l -2395.75,383.8" /><path
         id="path420"
         style="fill:#de623c;fill-opacity:1;fill-rule:nonzero;stroke:none"
         d="m 8517.61,4570.6 c -317.06,44.7 -1237.24,-312.7 -1629.6,-1089.2 h 1097.68 l 531.92,1089.2" /><path
         id="path422"
         style="fill:#de623c;fill-opacity:1;fill-rule:nonzero;stroke:none"
         d="m 8169.91,4284.8 c 40.98,44.8 78.18,100.1 110.92,157.8 92.53,163 315.58,190.6 441.52,51.7 457.68,-504.6 1433.35,-1654.9 1650.85,-1798.1 61.5,-40.4 420.1,-246.9 761,-206.1 0,0 168.3,-64 56.2,-197.7 -57.7,-68.7 -924.1,-139.8 -924.1,-139.8 l -67.5,254.4 c -504.29,373.2 -1132.08,346.4 -1664.39,1028.7 -293.12,375.8 -364.5,849.1 -364.5,849.1" /><path
         id="path424"
         style="fill:#e62552;fill-opacity:1;fill-rule:nonzero;stroke:none"
         d="m 10441.8,2005.8 348.6,-226.2 47.9,57.1 -282.7,263.7 c 160.6,126.7 532.7,21 532.7,21 121.8,78.7 359.4,334 383.9,470.8 -78.1,97.2 -337.9,-102.8 -337.9,-102.8 9.5,-43.3 -72.6,-193.4 -137.9,-219 -283.9,-61.3 -566.8,19.4 -797.6,136.6 0,0 -192.9,-292.3 243,-401.2" /><path
         id="path426"
         style="fill:#f37a50;fill-opacity:1;fill-rule:nonzero;stroke:none"
         d="m 8164.83,4216.2 c -63.49,-17.1 -110.85,-70.2 -120.03,-135.3 -24.83,-176.2 -153.06,-532.8 20.41,-906.3 425.9,-917 677.35,-1521.2 722.02,-1757.8 -111.24,-208.4 332.35,-777.499 338.96,-814.8 l 319.27,100 c 0,0 -183.2,272.5 -249.16,379.2 -157.07,254.1 -182.76,565.9 -208.29,807.6 -108.99,1031.9 78.41,1683.4 -668.22,2288.7 -44.15,35.8 -100.06,53.5 -154.96,38.7" /><path
         id="path428"
         style="fill:#e62552;fill-opacity:1;fill-rule:nonzero;stroke:none"
         d="m 8628.18,980.301 31.47,-414.399 74.47,-3.5 38.23,384.797 c 198.17,-50.898 339.69,-410.898 339.69,-410.898 136.48,-49.102 483.54,-83.199 607.16,-19.801 30.01,121.102 -286.62,206.402 -286.62,206.402 C 9403.92,689 9234.8,663.301 9174.81,699.699 8953.98,888.301 8833.99,1162.1 8787.23,1416.8 c 0,0 -336.82,-23.9 -159.05,-436.499" /><path
         id="path430"
         style="fill:#f37a50;fill-opacity:1;fill-rule:nonzero;stroke:none"
         d="m 6667.87,7455.1 -382.67,57.3 30.48,-355.2 c 0,0 73.25,-160.9 158.21,-171.8 l 313.07,84.8 -119.09,384.9" /><path
         id="path432"
         style="fill:#f37a50;fill-opacity:1;fill-rule:nonzero;stroke:none"
         d="m 5931.13,7968.7 c 98.79,-412.6 441.57,-684.1 765.61,-606.6 324.04,77.6 506.64,475 407.85,887.6 -98.78,412.5 -441.56,684.1 -765.6,606.5 -324.04,-77.6 -506.65,-474.9 -407.86,-887.5" /><path
         id="path434"
         style="fill:#000000;fill-opacity:1;fill-rule:nonzero;stroke:none"
         d="m 6952.74,8141.3 c 14.27,-28.7 49.06,-40.3 77.7,-26 28.65,14.2 40.3,49 26.03,77.6 -14.26,28.7 -49.05,40.4 -77.7,26.1 -28.64,-14.3 -40.3,-49.1 -26.03,-77.7" /><path
         id="path436"
         style="fill:#000000;fill-opacity:1;fill-rule:nonzero;stroke:none"
         d="m 6497.6,8029 c 15.45,-31 53.11,-43.6 84.12,-28.2 31,15.5 43.62,53.1 28.18,84.1 -15.45,31.1 -53.11,43.7 -84.11,28.2 -31.02,-15.4 -43.63,-53.1 -28.19,-84.1" /><path
         id="path438"
         style="fill:#2c2858;fill-opacity:1;fill-rule:nonzero;stroke:none"
         d="m 6428.25,8081 c 4.27,2.1 7.89,5.6 10.05,10.3 31.43,67.8 116.37,81 117.23,81.2 11.89,1.7 20.16,12.8 18.44,24.7 -1.71,11.9 -12.7,20.1 -24.6,18.5 -4.44,-0.7 -109.12,-16.4 -150.65,-106.1 -5.06,-10.9 -0.31,-23.8 10.62,-28.9 6.26,-2.9 13.18,-2.6 18.91,0.3" /><path
         id="path440"
         style="fill:#2c2858;fill-opacity:1;fill-rule:nonzero;stroke:none"
         d="m 7079.12,8225.3 c 2.1,1 4.05,2.4 5.79,4.2 8.47,8.5 8.39,22.4 -0.18,30.8 -66.55,65.8 -148.56,38.5 -152.02,37.3 -11.36,-3.9 -17.44,-16.3 -13.51,-27.7 3.92,-11.4 16.27,-17.4 27.64,-13.6 2.69,0.9 60.42,19.2 107.22,-27 6.81,-6.7 16.94,-8.1 25.06,-4" /><path
         id="path442"
         style="fill:#de623c;fill-opacity:1;fill-rule:nonzero;stroke:none"
         d="m 6915.47,8015.3 c 31.8,-32.7 59.69,-66.4 90.04,-85.6 10.23,-6.4 13.51,-20 7.57,-30.6 -24.53,-43.4 -96.12,-79.2 -140.02,-97.9 -6.4,-2.7 -11.66,5.7 -6.43,10.3 44.31,38.8 63.35,67.4 71.34,83.1 3.97,7.9 3.87,17 -0.09,24.9 -9.08,17.9 -27.17,54.5 -39.41,84.8 -4.23,10.5 9.14,19.1 17,11" /><path
         id="path444"
         style="fill:#f37a50;fill-opacity:1;fill-rule:nonzero;stroke:none"
         d="m 6087.06,7966.1 c 78.74,-61.3 101.93,-163.2 51.8,-227.6 -50.13,-64.5 -154.61,-67.1 -233.34,-5.8 -78.74,61.3 -101.93,163.2 -51.8,227.6 50.13,64.4 154.6,67 233.34,5.8" /><path
         id="path446"
         style="fill:#de623c;fill-opacity:1;fill-rule:nonzero;stroke:none"
         d="m 6042.24,7757.2 c 2.94,1.4 5.58,3.6 7.69,6.4 30.24,40.2 33.08,85.4 7.6,120.9 -26.08,36.3 -74.51,52.9 -115.15,39.5 -11.44,-3.8 -17.65,-16.1 -13.87,-27.5 3.78,-11.5 16.12,-17.7 27.55,-13.9 22.27,7.3 51.27,-3 66.03,-23.5 14.18,-19.8 11.68,-44.4 -7.03,-69.3 -7.24,-9.6 -5.3,-23.3 4.33,-30.5 6.83,-5.2 15.69,-5.7 22.85,-2.1" /><path
         id="path448"
         style="fill:#ffffff;fill-opacity:1;fill-rule:nonzero;stroke:none"
         d="m 6557.26,7686.3 c -9.13,12.3 0.74,29.5 15.96,27.7 38.7,-4.6 102.68,-10.9 163.75,-10.9 61.08,0 125.06,6.3 163.76,10.9 15.22,1.8 25.09,-15.4 15.95,-27.7 -28.07,-37.9 -86.09,-95.3 -179.71,-95.3 -93.61,0 -151.63,57.4 -179.71,95.3" /><path
         id="path450"
         style="fill:#2c2858;fill-opacity:1;fill-rule:nonzero;stroke:none"
         d="m 5923.13,8005.2 c 386.78,51.8 927.96,445.8 972.35,648.1 -74.82,242.9 -473.42,365 -698.49,252.4 -225.08,-112.5 -437.69,-594.8 -273.86,-900.5" /><path
         id="path452"
         style="fill:#ffffff;fill-opacity:1;fill-rule:nonzero;stroke:none"
         d="m 9541.45,5080.4 v 0 c -51.48,16.8 -79.59,72.1 -62.78,123.6 l 597.03,1828.9 c 16.8,51.5 72.1,79.6 123.6,62.8 v 0 c 51.5,-16.9 79.6,-72.2 62.8,-123.7 L 9665.09,5143.1 c -16.8,-51.4 -72.16,-79.5 -123.64,-62.7" /><path
         id="path454"
         style="fill:#f37a50;fill-opacity:1;fill-rule:nonzero;stroke:none"
         d="m 9858.55,5735.8 121.65,372.6 c 0,0 105.4,-214.3 0,-417.8 C 9874.76,5487.1 9774.41,5478 9774.41,5478 l 84.14,257.8" /><path
         id="path456"
         style="fill:#f37a50;fill-opacity:1;fill-rule:nonzero;stroke:none"
         d="m 9684.82,5835.5 c -30.77,72.4 -103.18,253.3 -30.77,252.5 72.42,-0.8 84.23,-88.7 84.23,-88.7 l -53.46,-163.8" /><path
         id="path458"
         style="fill:#f37a50;fill-opacity:1;fill-rule:nonzero;stroke:none"
         d="m 3704.11,6924.6 c 164.19,165.6 56.48,335.5 56.48,335.5 90.1,19.3 565.42,-700.7 770.37,-1158.3 357.5,360.3 987.44,846.9 1157.77,875.3 0,0 229.8,61.8 312.37,-216.1 73.7,-247.9 -213.73,-423.7 -213.73,-423.7 0,0 -1229.57,-868 -1411.41,-790.9 -282.98,120.1 -539.07,1153.3 -671.85,1378.2" /><path
         id="path460"
         style="fill:#f37a50;fill-opacity:1;fill-rule:nonzero;stroke:none"
         d="m 3447.39,6945.1 c 100.33,-6.2 224.41,43.5 263.06,-46.5 l 198.03,96.5 11.98,119.5 c -170.16,272.6 -584.92,350 -625.99,353.6 -106.69,9.3 -156.22,20.3 -164.56,6.1 -8.33,-14.3 -34.47,-109.3 120.34,-127.9 194.28,-23.3 65.3,-178.6 -328.83,-30.8 -98.69,37.1 -284.41,-11 -217.24,-83.1 74.02,-79.5 286.68,-259.6 743.21,-287.4" /><path
         id="path462"
         style="fill:#3f964f;fill-opacity:1;fill-rule:nonzero;stroke:none"
         d="m 14175.2,12497 c 0,-90.4 -15.4,-177.9 -44.5,-261.1 -145.4,-417.3 -630.7,-723.9 -1207.2,-723.9 -576.3,0 -1061.7,306.6 -1207,723.9 -29.1,83.2 -44.6,170.7 -44.6,261.1 h 2503.3" /><path
         id="path464"
         style="fill:#0e6a41;fill-opacity:1;fill-rule:nonzero;stroke:none"
         d="m 14175.2,12497 c 0,-90.4 -15.4,-177.9 -44.5,-261.1 h -2414.2 c -29.1,83.2 -44.6,170.7 -44.6,261.1 h 2503.3" /><g
         transform="scale(1.18667)"
         id="g466"><path
           sodipodi:nodetypes="ccccsccscc"
           id="path468"
           style="fill:#ffe91d;fill-opacity:1;fill-rule:nonzero;stroke:none"
           d="m 13099.5,14089.5 c 0,1218.8 -987.2,2207.1 -2205.7,2208.8 -1201.68,1.7 -2190.09,-966.8 -2211.66,-2168.3 -9.35,-525.5 208.5867,-1214.433 506.4867,-1598.033 376.85,-485.5 542.3433,-875.867 542.3433,-1490.467 v -10.9 h 2319.33 v 10.9 c 0,615.5 210.8,1210.1 587.7,1696.8 289.3,373.4 461.5,842.2 461.5,1351.2" /></g><g
         transform="scale(1.07109)"
         id="g470"><path
           id="path472"
           style="fill:#ffffff;fill-opacity:1;fill-rule:nonzero;stroke:none"
           d="m 12092.6,15588.8 c -70.8,-120.1 -129.6,-255.2 -171,-395.3 -72.1,-244.6 -81.9,-478.9 -26.2,-626.8 40.2,-106.8 108.5,-162.3 208.9,-169.9 103.6,-7.8 168.8,34.7 205.2,133.7 82.9,225.4 -17.8,685.7 -216.9,1058.3 z m 343.4,-3091 c -6.8,0 -13.7,1.1 -20.6,3.5 -32.6,11.4 -49.8,47 -38.5,79.7 2.9,8.3 291.5,839.7 501.1,1686.3 371.7,1500.7 180.4,1744.6 81,1779.8 -292.5,103.6 -525.5,-49.6 -669.3,-196.4 -42.2,-43.1 -82.7,-91.8 -120.9,-144.8 62.4,-108.1 118.7,-227.5 166,-353.6 129.6,-346.2 164,-669.6 92.1,-865 -55.4,-150.8 -173.4,-227.2 -332,-215.3 -149.6,11.3 -259.2,97.9 -316.6,250.6 -65.9,175.1 -57.4,432.5 23.4,706.3 50.9,172.9 127.2,339.2 219.7,482.5 -86.3,136.5 -186.3,254 -294.7,333 -161,117.4 -312.3,122.5 -449.5,15.2 -283.4,-221.5 -294.3,-887.8 -31.4,-1926.8 202.7,-801 500,-1541.6 503,-1549 12.9,-32 -2.6,-68.5 -34.6,-81.4 -32,-12.9 -68.4,2.5 -81.4,34.6 -3,7.4 -303.2,754.9 -508,1564 -280.2,1106.9 -254.9,1799.1 75.3,2057.2 181.3,141.8 394.6,137.3 600.3,-12.7 103.1,-75.1 205,-187.8 297.4,-325.6 32.8,42.6 67.1,82.3 102.5,118.4 239.5,244.2 523.7,324.7 800.4,226.8 172.3,-61.1 243,-292.9 216.1,-708.9 -19.8,-306.9 -93,-717.2 -217.5,-1219.7 -211.1,-852.1 -501.3,-1688.3 -504.2,-1696.7 -9,-25.8 -33.3,-42 -59.1,-42" /></g><path
         id="path474"
         style="fill:#3f964f;fill-opacity:1;fill-rule:nonzero;stroke:none"
         d="m 14067.6,12411.3 h -2288.1 c -272.7,0 -493.8,221.1 -493.8,493.8 v 20.8 c 0,272.7 221.1,493.9 493.8,493.9 h 2288.1 c 272.7,0 493.9,-221.2 493.9,-493.9 v -20.8 c 0,-272.7 -221.2,-493.8 -493.9,-493.8" /><g
         transform="scale(1.0796)"
         id="g476"><path
           id="path478"
           style="fill:#ffe91d;fill-opacity:1;fill-rule:nonzero;stroke:none"
           d="m 16095.4,15387 h -793.8 c -113,0 -204.6,91.6 -204.6,204.6 v 0 c 0,113 91.6,204.6 204.6,204.6 h 793.8 c 113,0 204.6,-91.6 204.6,-204.6 v 0 c 0,-113 -91.6,-204.6 -204.6,-204.6" /></g><g
         transform="scale(1.04622)"
         id="g480"><path
           id="path482"
           style="fill:#ffe91d;fill-opacity:1;fill-rule:nonzero;stroke:none"
           d="m 8915.51,15877.8 h -819.16 c -116.6,0 -211.12,94.5 -211.12,211.1 v 0 c 0,116.6 94.52,211.1 211.12,211.1 h 819.16 c 116.59,0 211.11,-94.5 211.11,-211.1 v 0 c 0,-116.6 -94.52,-211.1 -211.11,-211.1" /></g><g
         transform="scale(1.18831)"
         id="g484"><path
           id="path486"
           style="fill:#ffe91d;fill-opacity:1;fill-rule:nonzero;stroke:none"
           d="M 8307.85,15505.3 7733.9,15942 c -81.69,62.2 -97.52,178.8 -35.36,260.5 v 0 c 62.17,81.7 178.79,97.5 260.47,35.3 l 573.97,-436.7 c 81.72,-62.2 97.54,-178.8 35.35,-260.5 v 0 c -62.19,-81.7 -178.79,-97.5 -260.48,-35.3" /></g><g
         transform="scale(1.18831)"
         id="g488"><path
           id="path490"
           style="fill:#ffe91d;fill-opacity:1;fill-rule:nonzero;stroke:none"
           d="m 13406.6,15505.3 574,436.7 c 81.7,62.2 97.5,178.8 35.3,260.5 v 0 c -62.2,81.7 -178.7,97.5 -260.4,35.3 l -574,-436.7 c -81.7,-62.2 -97.5,-178.8 -35.4,-260.5 v 0 c 62.2,-81.7 178.8,-97.5 260.5,-35.3" /></g><path
         id="path492"
         style="fill:#ffe91d;fill-opacity:1;fill-rule:nonzero;stroke:none"
         d="m 9872.27,14966.3 -682.02,-519 c -97.08,-73.9 -115.89,-212.4 -42.02,-309.5 v 0 c 73.87,-97.1 212.45,-115.9 309.52,-42 l 682.05,518.9 c 97.1,73.9 115.9,212.5 42,309.6 v 0 c -73.9,97 -212.45,115.9 -309.53,42" /><g
         transform="scale(1.02633)"
         id="g494"><path
           id="path496"
           style="fill:#ffe91d;fill-opacity:1;fill-rule:nonzero;stroke:none"
           d="m 15522.6,14582.4 664.5,-505.7 c 94.6,-71.9 112.9,-207 40.9,-301.6 v 0 c -72,-94.5 -207,-112.9 -301.6,-40.9 l -664.5,505.7 c -94.6,71.9 -112.9,207 -41,301.6 v 0 c 72,94.5 207.1,112.9 301.7,40.9" /></g><path
         id="path498"
         style="fill:#3f964f;fill-opacity:1;fill-rule:nonzero;stroke:none"
         d="m 13492,5914.6 c 0,0 -197.1,371.8 -275.9,766.3 -68.5,337 -65.3,739.5 -56.9,954.5 1.9,48.9 66.1,65.6 91.6,23.8 124.1,-202.8 348.4,-610.4 398.8,-978.6 36,-254.1 59.3,-509.8 69.6,-766.3 l -227.2,0.3" /><path
         id="path500"
         style="fill:#3f964f;fill-opacity:1;fill-rule:nonzero;stroke:none"
         d="m 13698.2,5914.6 c 0,0 131.4,454.6 275.9,757.8 105.1,220.5 344.2,484.5 467,612.2 23.2,24.2 63.7,3.4 57.5,-29.6 -31.5,-168.1 -104.4,-499.5 -223.5,-725.8 -165.5,-314.5 -441.3,-614.6 -441.3,-614.6 h -135.6" /><path
         id="path502"
         style="fill:#0e6a41;fill-opacity:1;fill-rule:nonzero;stroke:none"
         d="m 13022.4,6317.9 c -18.8,36.8 16.4,77.8 55.6,64.5 99.4,-33.5 191.4,-86.7 270.4,-156.7 147,-133.6 174.4,-285.8 174.4,-285.8 l -50.6,-17 c 0,0 -273.9,49.9 -449.8,395" /><path
         id="path504"
         style="fill:#0e6a41;fill-opacity:1;fill-rule:nonzero;stroke:none"
         d="m 14051,7380.8 c -3.4,47.1 -63.8,64.2 -91.3,25.9 -102.6,-142.8 -274.8,-424.2 -331.2,-769.1 -70.5,-430.4 11.6,-723.3 11.6,-723.3 h 58.1 c 0,0 213.9,405.4 297.3,680 78.7,259.1 68.6,603.3 55.5,786.5" /><path
         id="path506"
         style="fill:#0e6a41;fill-opacity:1;fill-rule:nonzero;stroke:none"
         d="m 13833.8,5914.6 c 0,0 123,409.8 544,565.8 24.4,9.1 48.1,-15.6 38.2,-39.7 -55.5,-135.4 -213.7,-458.8 -480.9,-526 l -101.3,-0.1" /><path
         id="path508"
         style="fill:#768fdb;fill-opacity:1;fill-rule:nonzero;stroke:none"
         d="M 14206.4,5983.9 H 13232 l 125.1,-998.3 h 724.2 l 125.1,998.3" /><path
         id="path510"
         style="fill:#e62552;fill-opacity:1;fill-rule:nonzero;stroke:none"
         d="M 13158.7,5203.3 V 5060 h 39 c 19,0 34.3,-15.4 34.3,-34.3 v -5.8 c 0,-18.9 -15.3,-34.3 -34.3,-34.3 h -1662.6 c -22,0 -39.9,17.9 -39.9,39.9 v 206.4 c 0,22 17.8,39.9 39.9,39.9 h 1662.6 c 19,0 34.3,-15.3 34.3,-34.3 v 0 c 0,-18.9 -15.3,-34.2 -34.3,-34.2 h -39" /><path
         id="path512"
         style="fill:#ffffff;fill-opacity:1;fill-rule:nonzero;stroke:none"
         d="m 13163.6,5060 h -1454.1 c -16.1,0 -29.2,13 -29.2,29.1 v 85 c 0,16.1 13.1,29.1 29.2,29.1 h 1454.1 V 5060" /><path
         id="path514"
         style="fill:#3f964f;fill-opacity:1;fill-rule:nonzero;stroke:none"
         d="m 11348.2,5512.6 v -158.5 h -39 c -19,0 -34.3,-17 -34.3,-38 v -6.4 c 0,-20.9 15.3,-37.9 34.3,-37.9 h 1662.6 c 22,0 39.9,19.8 39.9,44.2 v 228.3 c 0,24.4 -17.9,44.2 -39.9,44.2 h -1662.6 c -19,0 -34.3,-17 -34.3,-38 v 0 c 0,-20.9 15.3,-37.9 34.3,-37.9 h 39" /><path
         id="path516"
         style="fill:#ffffff;fill-opacity:1;fill-rule:nonzero;stroke:none"
         d="m 11343.2,5354.1 h 1452.7 c 16.9,0 30.6,13.7 30.6,30.6 v 97.3 c 0,16.9 -13.7,30.6 -30.6,30.6 h -1452.7 v -158.5" /><path
         id="path518"
         style="fill:#e62552;fill-opacity:1;fill-rule:nonzero;stroke:none"
         d="M 12987.1,5735.4 H 11471 c -33.5,0 -60.6,27.1 -60.6,60.6 v 135.8 c 0,33.5 27.1,60.7 60.6,60.7 h 1516.1 c 33.5,0 60.7,-27.2 60.7,-60.7 V 5796 c 0,-33.5 -27.2,-60.6 -60.7,-60.6" /><path
         id="path520"
         style="fill:#768fdb;fill-opacity:1;fill-rule:nonzero;stroke:none"
         d="m 13109,5588.5 h -1545.8 c -25.3,0 -45.8,20.5 -45.8,45.8 v 55.3 c 0,25.3 20.5,45.8 45.8,45.8 H 13109 c 25.3,0 45.8,-20.5 45.8,-45.8 v -55.3 c 0,-25.3 -20.5,-45.8 -45.8,-45.8" /></g></g></svg>
